<mxfile host="Electron" modified="2023-12-17T14:43:59.002Z" agent="Mozilla/5.0 (Windows NT 10.0; Win64; x64) AppleWebKit/537.36 (KHTML, like Gecko) draw.io/22.1.2 Chrome/114.0.5735.289 Electron/25.9.4 Safari/537.36" etag="efc8D5AGjAAa0t4CF8Vc" version="22.1.2" type="device">
  <diagram name="Seite-1" id="3GJomZiaaD_4IuEGTr_E">
    <mxGraphModel dx="693" dy="402" grid="1" gridSize="10" guides="1" tooltips="1" connect="1" arrows="1" fold="1" page="1" pageScale="1" pageWidth="1654" pageHeight="1169" math="0" shadow="0">
      <root>
        <mxCell id="0" />
        <mxCell id="1" parent="0" />
        <mxCell id="ckwtcuSyuOzhh80tvO_Y-1" value="" style="shape=image;verticalLabelPosition=bottom;labelBackgroundColor=default;verticalAlign=top;aspect=fixed;imageAspect=0;image=data:image/svg+xml,PHN2ZyB4bWxucz0iaHR0cDovL3d3dy53My5vcmcvMjAwMC9zdmciIHZpZXdCb3g9IjAgMCAzMCAzMCI+PHBhdGggZD0ibTkuOTEgMTkuNTZjMC0uODUuMi0xLjY0LjU5LTIuMzhzLjk0LTEuMzUgMS42NS0xLjg0di05LjkyYzAtLjguMjctMS40OC44Mi0yLjAzczEuMjMtLjg0IDIuMDMtLjg0Yy44MSAwIDEuNDkuMjggMi4wNC44My41NS41Ni44MyAxLjIzLjgzIDIuMDN2OS45MmMuNzEuNDkgMS4yNSAxLjExIDEuNjQgMS44NHMuNTggMS41My41OCAyLjM4YzAgLjkyLS4yMyAxLjc4LS42OCAyLjU2cy0xLjA3IDEuNC0xLjg1IDEuODUtMS42My42OC0yLjU2LjY4Yy0uOTIgMC0xLjc3LS4yMy0yLjU1LS42OHMtMS40LTEuMDctMS44Ni0xLjg1LS42OC0xLjYzLS42OC0yLjU1em0xLjc2IDBjMCAuOTMuMzMgMS43My45OCAyLjM5czEuNDQuOTkgMi4zNi45OWMuOTMgMCAxLjczLS4zMyAyLjQtMXMxLjAxLTEuNDYgMS4wMS0yLjM3YzAtLjYyLS4xNi0xLjItLjQ4LTEuNzNzLS43Ni0uOTQtMS4zMi0xLjIzbC0uMjgtLjE0Yy0uMS0uMDQtLjE1LS4xNC0uMTUtLjI5di0xMC43NmMwLS4zMi0uMTEtLjU5LS4zNC0uODEtLjIzLS4yMS0uNTEtLjMyLS44NS0uMzItLjMyIDAtLjYuMTEtLjgzLjMycy0uMzQuNDgtLjM0LjgxdjEwLjc0YzAgLjE1LS4wNS4yNS0uMTQuMjlsLS4yNy4xNGMtLjU1LjI5LS45OC43LTEuMjkgMS4yM3MtLjQ2IDEuMS0uNDYgMS43NHptLjc4IDBjMCAuNzEuMjQgMS4zMi43MyAxLjgyczEuMDcuNzUgMS43Ni43NSAxLjI4LS4yNSAxLjc5LS43NS43Ni0xLjExLjc2LTEuODFjMC0uNjMtLjIyLTEuMTktLjY1LTEuNjdzLS45Ni0uNzctMS41OC0uODV2LTcuMzZjMC0uMDYtLjAzLS4xMy0uMS0uMTktLjA3LS4wNy0uMTQtLjEtLjIyLS4xLS4wOSAwLS4xNi4wMy0uMjEuMDgtLjA1LjA2LS4wOC4xMi0uMDguMjF2Ny4zNGMtLjYxLjA5LTEuMTMuMzctMS41Ni44NS0uNDMuNDktLjY0IDEuMDQtLjY0IDEuNjh6Ii8+PC9zdmc+;" vertex="1" parent="1">
          <mxGeometry x="400" y="200" width="40" height="40" as="geometry" />
        </mxCell>
        <mxCell id="ckwtcuSyuOzhh80tvO_Y-2" value="" style="shape=image;verticalLabelPosition=bottom;labelBackgroundColor=default;verticalAlign=top;aspect=fixed;imageAspect=0;image=data:image/svg+xml,PHN2ZyB4bWxucz0iaHR0cDovL3d3dy53My5vcmcvMjAwMC9zdmciIHZpZXdCb3g9IjAgMCAzMCAzMCI+PHBhdGggZD0ibTcuNTYgMTcuMTljMC0uODguMjQtMS44OS43Mi0zLjAzczEuMS0yLjI1IDEuODYtMy4zMWMxLjU2LTIuMDYgMi45Mi0zLjYyIDQuMDYtNC42N2wuNzUtLjcyYy4yNS4yNi41My41LjgzLjcyLjQxLjQyIDEuMDQgMS4xMSAxLjg4IDIuMDlzMS41NyAxLjg1IDIuMTcgMi42NWMuNzEgMS4wMSAxLjMyIDIuMSAxLjgxIDMuMjVzLjc0IDIuMTYuNzQgMy4wM2MwIDEtLjE5IDEuOTUtLjU4IDIuODZzLS45MSAxLjctMS41NyAyLjM2LTEuNDUgMS4xOS0yLjM3IDEuNTgtMS44OS41OS0yLjkxLjU5Yy0xIDAtMS45NS0uMTktMi44Ni0uNTdzLTEuNy0uODktMi4zNi0xLjU1Yy0uNjYtLjY1LTEuMTktMS40NC0xLjU4LTIuMzVzLS41OS0xLjg5LS41OS0yLjkzem0yLjI2LTIuOTNjMCAuODMuMTcgMS40OS41MiAxLjk5LjM1LjQ5Ljg4Ljc0IDEuNTkuNzQuNzIgMCAxLjI1LS4yNSAxLjYxLS43NC4zNS0uNDkuNTMtMS4xNS41NC0xLjk5LS4wMS0uODQtLjE5LTEuNS0uNTQtMi0uMzUtLjQ5LS44OS0uNzQtMS42MS0uNzQtLjcxIDAtMS4yNC4yNS0xLjU5Ljc0LS4zNS41LS41MiAxLjE2LS41MiAyem0xLjU3IDBjMC0uMTUgMC0uMjcgMC0uMzVzLjAxLS4xOS4wMi0uMzMuMDItLjI1LjA1LS4zMi4wNS0uMTYuMDktLjI0LjA5LS4xNS4xNS0uMThjLjA3LS4wNC4xNC0uMDYuMjMtLjA2LjE0IDAgLjI1LjA0LjMzLjEycy4xNC4yMS4xNy4zOGMuMDMuMTguMDUuMzIuMDYuNDVzLjAxLjMuMDEuNTJjMCAuMjMgMCAuNC0uMDEuNTJzLS4wMy4yNy0uMDYuNDVjLS4wMy4xNy0uMDkuMy0uMTcuMzhzLS4xOS4xMi0uMzMuMTJjLS4wOSAwLS4xNi0uMDItLjIzLS4wNnMtLjEyLS4xLS4xNS0uMThjLS4wNC0uMDgtLjA3LS4xNy0uMDktLjI0LS4wMi0uMDgtLjA0LS4xOS0uMDUtLjMyLS4wMS0uMTQtLjAyLS4yNS0uMDItLjMyczAtLjE5IDAtLjM0em0uNTkgNy43NWgxLjMybDQuOTktMTAuNzRoLTEuMzV6bTQuMy0yLjk5Yy4wMS44NC4yIDEuNS41NSAyIC4zNS40OS44OS43NCAxLjYuNzQuNzIgMCAxLjI1LS4yNSAxLjYtLjc0cy41Mi0xLjE2LjUzLTJjLS4wMS0uODQtLjE4LTEuNS0uNTMtMS45OXMtLjg4LS43NC0xLjYtLjc0Yy0uNzEgMC0xLjI1LjI1LTEuNi43NC0uMzYuNDktLjU0IDEuMTUtLjU1IDEuOTl6bTEuNTcgMGMwLS4yMyAwLS40LjAxLS41MnMuMDMtLjI3LjA2LS40NS4wOS0uMy4xNy0uMzguMTktLjEyLjMzLS4xMmMuMDkgMCAuMTcuMDIuMjQuMDZzLjEyLjEuMTYuMTkuMDcuMTcuMS4yNC4wNC4xOC4wNS4zMmwuMDEuMzJ2LjM0LjM1bC0uMDEuMzItLjA1LjMyLS4xLjI0LS4xNi4xOS0uMjQuMDZjLS4xNCAwLS4yNS0uMDQtLjMzLS4xMnMtLjE0LS4yMS0uMTctLjM4Yy0uMDMtLjE4LS4wNS0uMzMtLjA2LS40NXMtLjAxLS4zLS4wMS0uNTN6Ii8+PC9zdmc+;" vertex="1" parent="1">
          <mxGeometry x="440" y="200" width="40" height="40" as="geometry" />
        </mxCell>
        <mxCell id="ckwtcuSyuOzhh80tvO_Y-3" value="" style="shape=image;verticalLabelPosition=bottom;labelBackgroundColor=default;verticalAlign=top;aspect=fixed;imageAspect=0;image=data:image/svg+xml,PHN2ZyB4bWxucz0iaHR0cDovL3d3dy53My5vcmcvMjAwMC9zdmciIHZpZXdCb3g9IjAgMCAzMCAzMCI+PHBhdGggZD0ibTcuNjkgMTMuMmMwLS45OS4xOS0xLjk0LjU4LTIuODVzLjkxLTEuNjggMS41Ny0yLjMzIDEuNDQtMS4xNyAyLjM0LTEuNTYgMS44NS0uNTggMi44NC0uNTggMS45NC4xOSAyLjg1LjU4Yy45LjM5IDEuNjguOTEgMi4zMyAxLjU2czEuMTcgMS40MyAxLjU2IDIuMzMuNTggMS44NS41OCAyLjg1YzAgMS42Mi0uNDggMy4wNi0xLjQ0IDQuMzQtLjk2IDEuMjctMi4yIDIuMTQtMy43MSAyLjYxdjMuMjloLTQuMjR2LTMuMjVjLTEuNTQtLjQ1LTIuODEtMS4zMi0zLjc5LTIuNjFzLTEuNDctMi43NS0xLjQ3LTQuMzh6bTEuNjEgMGMwIDEuNTUuNTYgMi44OCAxLjY5IDMuOTkgMS4xMSAxLjEyIDIuNDUgMS42OCA0LjAyIDEuNjggMS4wMyAwIDEuOTktLjI1IDIuODYtLjc2Ljg4LS41MSAxLjU3LTEuMiAyLjA5LTIuMDcuNTEtLjg3Ljc3LTEuODIuNzctMi44NSAwLS43Ny0uMTUtMS41LS40NS0yLjIxcy0uNzEtMS4zMS0xLjIyLTEuODItMS4xMi0uOTItMS44My0xLjIyLTEuNDQtLjQ1LTIuMjEtLjQ1LTEuNS4xNS0yLjIxLjQ1LTEuMzEuNzEtMS44MiAxLjIyLS45MiAxLjEyLTEuMjIgMS44MmMtLjMyLjcyLS40NyAxLjQ1LS40NyAyLjIyem0uNTguMzZ2LS43MmgyLjE3di43MnptMS4wOS0zLjU0LjUyLS41MiAxLjUyIDEuNTItLjUyLjUzem0yLjUzIDQuOTNjMC0uNDIuMTUtLjc4LjQ0LTEuMDlzLjY1LS40NyAxLjA2LS40OGwyLjczLTQuNDkuNjYuMzUtMi4wMiA0LjgzYy4xOC4yNS4yNi41NC4yNi44OCAwIC40NC0uMTUuODEtLjQ2IDEuMTFzLS42OC40NS0xLjEyLjQ1Yy0uNDMgMC0uOC0uMTUtMS4xLS40NXMtLjQ1LS42Ny0uNDUtMS4xMXptMS4zMS00LjY3di0yLjE2aC42OXYyLjE3aC0uNjl6bTIuOTQgMy4yN3YtLjc0aDIuMTd2Ljc0eiIvPjwvc3ZnPg==;" vertex="1" parent="1">
          <mxGeometry x="480" y="200" width="40" height="40" as="geometry" />
        </mxCell>
        <mxCell id="ckwtcuSyuOzhh80tvO_Y-4" value="" style="shape=image;verticalLabelPosition=bottom;labelBackgroundColor=default;verticalAlign=top;aspect=fixed;imageAspect=0;image=data:image/png,iVBORw0KGgoAAAANSUhEUgAAAgAAAAIACAYAAAD0eNT6AAAACXBIWXMAAHYcAAB2HAGnwnjqAAAAGXRFWHRTb2Z0d2FyZQB3d3cuaW5rc2NhcGUub3Jnm+48GgAAIABJREFUeJzt3X+wX3V95/HnvYSQkBhSBRoQlEQSpBUIv5QRxZLOIiZQt844o8Wlu9Oxfzid7nS2FMetOKIjioxDt7O47EBn6g9kyo7jzgDKWpICQgSxhKAi8rMkQJRqA8lVkkju/vG5t+R7zSX33u85530+n8/zMXMmQ4Bz3ufz+Z5zXt/z/ZzPGUGamSXAOmANcApwHLB04t9tB54CNgHrgVuAHZ1XqFdj/+XN/pPUuVXA9cAYMD7DZQy4DlgZUK8G2X95s/8kdW4hcBWwh5mfeKYuu4ErgQUd1y77L3f2n6QQK4GHmPuJZ+qyETiq0z2om/2XN/tPUohTgZ/R3MlnctkCnNzhftTK/sub/ScpxEraOfnsexJa1tne1Mf+y5v9JynEAtIo4rZOPpPL/aTfN9Us+y9v9p+kMFfR/slncvlkR/tUE/svb/afpBCrGG608WyXHXgrskn2X97sP0lhrqe7k8/kck0ne1YH+y9v9p+kEEuY3SQjTS07gdd0sH+ls//yZv8pzGh0AQq3Djg0YLuLgLUB2y2N/Zc3+09hDABaU+m2S2H/5c3+UxgDgE4J3LYTkwzP/sub/acwBgAtD9z2isBtl8L+y5v9pzAj0QUo3C5gfuC2fVHJcOy/vNl/CmMA0Hjw9vvyGcz1fev2X2L/zU1f+k9SgK4fP5q6RMv9fev2n/2Xc/9JClTrCaiU963bf/Zfjv0nqQdqPAGV9L51+8/+y63/JPVEbSeg0t63bv/Zfzn1n6QeqekEVOL71u0/+y+X/pPUM7WcgEp937r9Z//l0H+SeqiWE1Cp71u3/+y/HPpPUg/VcAIq+X3r9p/91/f+U085FbBqcCkwr8PtLQYu63B7pbP/pBY4C5SivwW0/RlcAjxH969cHSM9Wtb2jHP2XzvsPxXPOwAqne9bz5v9J7XEAKDS+b71vNl/UksMACqd71vPm/0ntcQAoNL5vvW82X9SSwwAKt2SwG0fFrjtUth/UkscAarSRyG7f+1y/4ZT+v6px7wDIElShQwAkiRVyAAgSVKFDACSJFXIACBJUoUMAJIkVcgAIElShQwAkiRVyAAgSVKFDACSJFXIACBJUoUMAJIkVcgAIElShQwAkiRVyAAgSVKFDACSJFXIACBJUoUMAJIkVcgAIElShUaiCyjQfOAk4ATgxIk/3wgsBRYDi4DDwqqTpH56ARgDdgLbgaeAnwAPA48Am4E9UcWVyAAwvBHgDGANcC7wDtJFXpLUnDHgLmADsB74PjAeWlHmDABz9wbgg8CHgTcF1yJJtdkC3ABcDzwaXEuWDACzMwJcCFxC+qYvSYo1DnwH+DxwM94VmDEDwMyMAuuATwCnB9ciSdq/h4CrgK8CLwfX0nsGgAM7A/jixJ+SpP57EPgIcE90IX3mY4DT+y3gb4B78eIvSTk5hfSzwJeAI4Jr6S3vAOzfWuDvgcOjC5EkDeV54GLgW9GF9M1B0QX0zDzgMuB/4aN8klSCRcBFwGuB24G9seX0h3cAXnEk8HXg7OhCJEmtuAt4H/Cv0YX0gQEgeSNwG2nWPklSuR4H3j3xZ9UcBAi/Sxos4sVfksr3JtKdgFOiC4lW+x2Ak4A7SCP+JUn1+AXwLuAH0YVEqTkAHAvcPfGnJKk+z5LGfT0VXEeIWn8COBz4Nl78JalmR5OuBUdGFxKhxgAwD/gG/uYvSYLjgX+gwsfiq9th4ArSW/wkSQI4jvSFeENwHZ2qbQzAe0hvi6rxzockaXp7SbPA3hZdSFdqCgCHAw/j9L6SpP37GXAi6QmB4tX0E8Df4ix/kqTpLQKWku4UF6+WOwBnkyZ+qGV/JUlzs5d0zfhudCFtq+GCeBDwz8DJ0YVIkrLwz8CZFP7ioBoGw70fL/6SpJk7DfjD6CLaVvodgBFgEwYASdLsbCIFgfHoQtpS+h2AC/HiL0mavdWkR8eLVXoAuCS6AElStv4quoA2lfwTwPHATyh7HyVJ7RknXUueiC6kDSXfAbgYL/6SpLkbAT4UXURbSr1AjgCPASuiC5EkZe0xYBUFDgYs9Q7AGXjxlyQN73jSgMDilBoAfj+6AElSMdZEF9CGUgPAudEFSJKKUeQ1pcQxAPNJb3JaFF3IPrYANwC3AI8DPwVeDq1IkvrjIOC3Sbfb1wIXAceEVjRoB/A6YE90IXp1p5MGa/Rh+RXwl8CCVvdYksqygPQM/kvEn8cnlyLHAZTmIuI/KOOkb/lntbyvklSytwM/I/58Pg58oOV97VyJYwDeHF0AKbX+Ryp4naQktege4L3AruhCgBOiC2haiQGgD530cWBjdBGSVICNwCeii6AfXy51APcRe5voafzNX5KatJA0mDry3F7cl7oS7wAcFrz9r5B+ApAkNeNXpCepIi0J3n7jSgwAi4O3/83g7UtSiW4N3n70l8vGlRgAolPaY8Hbl6QSRZ9bXxO8/caVOBHQy8QGm3k4yY8kNW0esRPx7CVNWFSMEgPAePD2S2xTSeoDz+8NKvEnAEmSdAAGAEmSKmQAkCSpQgYASZIqZACQJKlCBgBJkipkAJAkqUIGAEmSKmQAkCSpQgYASZIqZACQJKlCBgBJkipkAJAkqUIGAEmSKmQAkCSpQgYASZIqZACQJKlCBgBJkipkAJAkqUIGAEmSKmQAkCSpQgYASZIqZACQJKlCBgBJkipkAJAkqULzogtQ8eYDJwEnACdO/PlGYCmwGFgEHBZWnRTnBWAM2AlsB54CfgI8DDwCbAb2RBWn8o1EF9CC8eDtl9imszECnAGsAc4F3kG6yEuanTHgLmADsB74PvHnt2jR+1/U+b2onZngByTGG4APAh8G3hRci1SiLcANwPXAo8G1RPH83qCidmaCH5DujAAXApeQvulLat848B3g88DNxJ/zuhS9r0Wd34vamQl+QNo3CqwDPgGcHlyLVLOHgKuArwIvB9fSBc/vDSpqZyb4AWnXGcAXJ/6U1A8PAh8B7okupGWe3xvkY4Caqd8C/ga4Fy/+Ut+cQvpZ4EvAEcG1KBNFpZkJJsTmrQX+Hjg8uhBJB/Q8cDHwrehCWuD5vUGz2ZklpN9915DS5nGkZ7kPbr6srJX0AZkH/DXwcbxbJOVkHPhb4C8pay6B6ADQN3t4ZQ6JTaTHRW8Bdszkf57JxWoVcCnwAeDQOZVYl1ICwJHA14GzowuRNGd3Ae8D/jW6kIYYAA7sl8DXgM9xgMdFX+1itRD4FPBfccbA2SghALwRuI00a5+kvD0OvHviz9wZAGZuD3A1cBnw0v7+g+kuVitJ3/7e0k5dRcs9APwu6bfDY6ILkdSY54D3kJ4WyJkBYPa+S7oL9NzUf7G/i9WppG9/jiSdm5wDwEnAHaQR/5LK8gvgXcAPogsZggFgbraSxvBt3vcvp16sVgJ348V/GLkGgGNJfX9sdCGSWvMsaVzPU8F1zJUBYO62AmcC2yb/Yt+R3QuAm/DiX6PDgW/jxV8q3dGkY/3I6ELUuWNIU0cvnPyLfQPAp0mP96ku84Bv4IA/qRbHA/8AHBRdiDp3OvDRyX+YvF29CvghjvZvQm4/AXwO+KvoIiR17tOkOT5y4k8Aw9tJ+rl/2+QdgEvx4l+j95AmCpFUn4+RHg9UXRaTHg1khDTD33M4yU9TcrkDcDjwME7vK9XsZ8CJpCcEcuAdgGaMAUdNvtbVi399PocXf6l2RwKfiS5CnVsErB0lze2vupwN/JfoIiT1woeBs6KLUOfWjOLI/9ocBFxDPj9VSGrXKPA/8YVftTl5FFgeXYU69X7g5OgiJPXKacAfRhehTq0YAXYB86MrKUifv1mPkF4ZaQCQNNUmUhDo80C7PteWm13e8qnLhXjxl7R/q0mPBqsSo8CL0UWoM5dEFyCp15wUrB4vjAJPRlehThxPGv0vSdM5B1gRXYQ68cQo6Xcfle9i+j0+QVK8EeBD0UWoEw+OAuujq1DrRoCLoouQlIX/hF8WanD7CGle4G2kmYE0vD4eOGcC90UXISkbpwEPRBexHz4F0IwxYNko6c1ANwYXo3b9fnQBkrLiDLFluwHYOfkY4OeAPYHFqF3nRhcgKSueM8q1G/js1L+8knR7xWW4pW/mk+7yRLfLvssW0gfwncDRpOmJpZocRPrsn0M6FrYQf1zuu7wIHNza3s9ddLuUsFyxv4ZdAGzsQXG5L31zOvFtMrm8RJqLYEGreyzlZwHpGfyXiD9OJ5fVre7x3ES3Se7LPcAh0zXuMuDpHhSZ89I3FxHfJuOk946/veV9lXL3dtKxEn28jgMfaHlf5yK6TXJengFev29jTp0KeBtwAbB12uZXbt4cXQBpfMn7SelT0vTuAd5LekdLtBOiC1BjtgDnk0LAv9vfuwA2kx4BubODotS+PhzEfw3cEV2ElImNwCeii6AfXx40vI3AW4GHZvM/HQJ8kv4NIOv70jf3EdseW/A3f2m2FhI/MHBj63s5e9Hn95yWXcBneJXf/F/tbYC7SCn0eOCLpIkDlJ/Dgrf/ZdLAJkkz9yvSs9qRlgRvX3MzBvxv4ETgY7zKz0mzmbVuMbCO9HzoamA5sJT0mJle0beZAJ8hPW4U5V34c5I0F+8C/ilw+88AxwRuf3/Gowvomd3AdtJL/R4ANgC3ku7cH1DfLlZNiP6A9K1Nd5DCW5SjSINLJc3O64kdkP0i8XcQp/L83qCidmaCH5BBL/PqP/W0bd5EDZJmZx6xM7TupX+TdHl+b1BROzPBD8gg20PKl8fvINujQZHfDCVJUhADgCRJFTIASJJUIQOAJEkVMgBIklQhA4AkSRUyAEiSVCEDgCRJFTIASJJUIQOAJEkVMgBIklQhA4AkSRUyAEiSVCEDgCRJFTIASJJUIQOAJEkVMgBIklQhA4AkSRUyAEiSVCEDgCRJFTIASJJUoXkdbmsJsA5YA5wCHAcsBQ7usAZJkuZqvOH17QG2A08Bm4D1wC3Ajoa3E2YVcD0wRmq80pe+sT2kfHn8Dopujy6WMeA6YGVDbRZiIXAVKeFEN6gHjO0h5cjjd1B0e3S57AauBBY00nL7MdLSelcCXwfe0tL6+6ytNp2r6IO4b+0h5cTjd1B0e0T4LvA+4LmmV9xG554K3AYc0cK6c+ABM6hv7SHlxON3UHR7RNlKGkO3ucmVNt25K4G7qffiDx4wU/WtPaScePwOim6PSFuBM4FtTa2wyccAFwA3UffFX5KkNhwD3EwaX9eIJgPAp0mP90mSpOadDny0qZU1dXtnFfBDup1XoK+8ZTaob+0h5cTjd1B0e/TBTtLP7UP/FNDUHYBL8eIvSVLbFgOXNbGiJtLdEtLjCYc2sK4SmJgH9a09pJx4/A6Kbo++GAOOYsgZA5u4A7AOL/6SJHVlEbB22JU0EQDWNLAOSZI0c0Nfe5sIAI78lySpWycPu4ImAsDyBtYhSZJmbsWwK2giACxpYB2SJGnmDht2BU1OBCRJkjLRRAB4sYF1SJKkmXth2BU0EQCebGAdkiRp5p4YdgVNBIBNDaxDkiTN3IPDrqCJALC+gXVIkqSZu33YFTQxzeNi0ksJFjWwrhI4deagvrWHlBOP30HR7dEXY8Ay0ouB5qyJOwA7gRsbWI8kSTqwGxjy4g/NpbuVpNcBH9zQ+nJmYh7Ut/aQcuLxOyi6PfpgN3AiPRkECPAocHVD65IkSfv3BRq4+EOz6W4BsAE4q8F15sjEPKhv7SHlxON3UHR7RNsInAvsamJlTXfuMuA+4NiG15sTD5hBfWsPKScev4Oi2yPSs8BbgWeaWmHTUwFvAy4Atja8XkmSarUFOJ8GL/7QzrsANgOnAXe2sG5JkmqykfTN/6GmV9zWy4CeB84DLic9ryhJkmZuN3AF6Tf/bcG1zNky4BrSM4vjFSx9Y3tI+fL4HRTdHl0sO4FrgRUNtdm0uhzgsRhYR0ozq4HlwFJgfoc1dMFBM4P61h5STjx+B0W3R9N2A9tJL9V7gPQk3a00MMnPTPStc5sQ/QHpW5vaHlK+PH4H2R4NamsMgCRJ6jEDgCRJFTIASJJUIQOAJEkVMgBIklQhA4AkSRUyAEiSVCEDgCRJFTIASJJUIQOAJEkVMgBIklQhA4AkSRUyAEiSVCEDgCRJFTIASJJUIQOAJEkVMgBIklQhA4AkSRUyAEiSVCEDgCRJFTIASJJUIQOAJEkVMgBIklShebP4b5cA64A1wCnAccBS4ODmy5IkqXfGowuYYg+wHXgK2ASsB24BdjS1gVXA9cAYaeddXn3pG9tDypfH76Do9shhGQOuA1bOsY0BWAhcRUoY0TuU09I3toeUL4/fQdHtkdOyG7gSWDBdY45M8/crga8Db5nuf9S0pmvTKNEHcd/aQ8qJx++g6PbI0XeB9wHPTf0X++vcU4HbgCNaLqpUHjCD+tYeUk48fgdFt0eutpLG8G3e9y+ndu5K4G68+A/DA2ZQ39pDyonH76Do9sjZVuBMYNvkX+z7GOAC4Ca8+EuSVJpjgJtJ4/uAwQDwadLjfZIkqTynAx+d/IfJ2zurgB8yu3kBtH/eMhvUt/aQcuLxOyi6PUqwk/Rz/7bJOwCX4sVfkqTSLQYug5TulpAeDzg0sqKCmJgH9a09pJx4/A6Kbo9SjAFHjZIeDfDiL0lSHRYBa0dJc/tLkqR6rBnFkf+SJNXm5FFgeXQVkiSpUytGgF3A/OhKCuKgmUF9aw8pJx6/g6LboyS7Rg/830iSpNKMAi9GFyFJkjr1wijwZHQVkiSpU0+MApuiq5AkSZ16cBRYH12FJEnq1O0jpHmBt5FmBtLwHDU7qG/tIeXE43dQdHuUYgxYNkp6M9CNwcVIkqRu3ADsnEx3K0mvAz44rp5imJgH9a09pJx4/A6Kbo8S7AZOZGIQIMCjwNVx9UiSpA58AXgCBtPdAmADcFZERQUxMQ/qW3tIOfH4HRTdHrnbCJxLmgH4Nzp3GXAfcGzHRZXEA2ZQ39pDyonH76Do9sjZs8BbgWcm/2LqVMDbgAuArR0WJUmS2rMFOJ99Lv7wmwEAYDNwGnBnB0VJkqT2bCR9839o6r+Y7mVAzwPnAZeTnheUJEn52A1cQfrNf9tcV7IMuIY0X8C4ywGXvrE9pHx5/A6Kbo8clp3AtcCKAzXmbAZ4LAbWkdLEamA5sBSYP4t11MBBM4P61h5STjx+B0W3R9/sBraTXur3AOlJvltJIeCA+ta5TYj+gPStTW0PKV8ev4NsjwZNNwZAkiQVzAAgSVKFDACSJFXIACBJUoUMAJIkVcgAIElShQwAkiRVyAAgSVKFDACSJFXIACBJUoUMAJIkVcgAIElShQwAkiRVyAAgSVKFDACSJFXIACBJUoUMAJIkVcgAIElShQwAkiRVyAAgSVKFDACSJFXIACBJUoUMAJIkVWheh9taAqwD1gCnAMcBS4GDO6xBkqS5Gm94fXuA7cBTwCZgPXALsKPh7YRZBVwPjJEar/Slb2wPKV8ev4Oi26OLZQy4DljZUJuFWAhcRUo40Q3qAWN7SDny+B0U3R5dLruBK4EFjbTcfoy0tN6VwNeBt7S0/j5rq03nKvog7lt7SDnx+B0U3R4Rvgu8D3iu6RW30bmnArcBR7Sw7hx4wAzqW3tIOfH4HRTdHlG2ksbQbW5ypU137krgbuq9+IMHzFR9aw8pJx6/g6LbI9JW4ExgW1MrbPIxwAXATdR98ZckqQ3HADeTxtc1oskA8GnS432SJKl5pwMfbWplTd3eWQX8kG7nFegrb5kN6lt7SDnx+B0U3R59sJP0c/vQPwU0dQfgUrz4S5LUtsXAZU2sqIl0t4T0eMKhDayrBCbmQX1rDyknHr+DotujL8aAoxhyxsAm7gCsw4u/JEldWQSsHXYlTQSANQ2sQ5IkzdzQ194mAoAj/yVJ6tbJw66giQCwvIF1SJKkmVsx7AqaCABLGliHJEmaucOGXUGTEwFJkqRMNBEAXmxgHZIkaeZeGHYFTQSAJxtYhyRJmrknhl1BEwFgUwPrkCRJM/fgsCtoIgCsb2AdkiRp5m4fdgVNTPO4mPRSgkUNrKsETp05qG/tIeXE43dQdHv0xRiwjPRioDlr4g7ATuDGBtYjSZIO7AaGvPhDc+luJel1wAc3tL6cmZgH9a09pJx4/A6Kbo8+2A2cSE8GAQI8Clzd0LokSdL+fYEGLv7QbLpbAGwAzmpwnTkyMQ/qW3tIOfH4HRTdHtE2AucCu5pYWdOduwy4Dzi24fXmxANmUN/aQ8qJx++g6PaI9CzwVuCZplbY9FTA24ALgK0Nr1eSpFptAc6nwYs/tPMugM3AacCdLaxbkqSabCR983+o6RW39TKg54HzgMtJzytKkqSZ2w1cQfrNf1twLXO2DLiG9MzieAVL39geUr48fgdFt0cXy07gWmBFQ202rS4HeCwG1pHSzGpgObAUmN9hDV1w0MygvrWHlBOP30HR7dG03cB20kv1HiA9SXcrDUzyMxN969wmRH9A+tamtoeUL4/fQbZHg9oaAyBJknrMACBJUoUMAJIkVcgAIElShQwAkiRVyAAgSVKFDACSJFXIACBJUoUMAJIkVcgAIElShQwAkiRVyAAgSVKFDACSJFXIACBJUoUMAJIkVcgAIElShQwAkiRVyAAgSVKFDACSJFXIACBJUoUMAJIkVcgAUL69wds/KHj7Uq7mBW8/+tyhlhkAyvfL4O0fGbx9KVfLgre/M3j7atlsEuYSYB2wBjgFOA5YChzcfFlq0IvA4sDtrwSeC9y+lKs3BW9/R/D2+2g8uoAp9gDbgaeATcB64BYa7LtVwPXAGGnnXV596ZtHiG2Pz7a/i1KRPk/ssfvD9ndx1qLP7zksY8B1pC9fc7YQuIqUMKJ3KKelb+4jtj22kj5LkmZuIenYiTx2N7a+l7MXfX7PadkNXAksmK4xpxsDsJJ04fhvxA9E0XCeDN7+64E/D65Bys1fkI6dSNHnDg3nYOASYANw1Ez/p1OBnxGfXnJd+uZy4ttkN/CutndUKsTbgZeIP24/0faOzkF0m+S6bAFOntqYU+8ArARuA47Yf9srQz+OLoCURG8Czo4uROq5s4FvAIdEF0I/zh1qxjGkwYHTPlmygDSKMDqp5L70zenEt8nksgv4KI4JkKZaCHyMdIxEH6eTy+pW93huotsk9+V+pjn/XtWD4kpY+mY+6Xne6HbZd3mGNDjl94CjcbIg1ecg0mf/90jHwjPEH5f7Li/Sz/Ff0e1SwvLJycYcmfhzFemRjz52eG5GDvyfdO5bwLuji5CUjZuBC6OL2I/x6AIKsJP0c/+2yTEAl+LFv2QboguQlBXPGeVaDFwG6dvqEtJMbYdGVlSQPt4BOAP4XnQRkrJxKmlMWN94B6AZY8BRo6Tpfb34l+37wOPRRUjKwmPAg9FFqFWLgLWjpLn9VbZx4CvRRUjKwpfwm3YN1oySXuyj8n0ZD2pJr24c+Gp0EerEyaPA8ugq1InHge9EFyGp1+4AnoguQp1YMUoaBKg6fD66AEm9dmV0AerMYSOkmafmR1dSkD4+BTBphDQT1GnRhUjqnQd4ZebQvupzbbnZNUqa8Ul1GMeEL2n/PoUX2Jq8MIqvfKzNTfTz+V5Jce4H/m90EerUE6N4MajNXuBPJ/6UpL3An+E5oTYPjgLro6tQ574H/F10EZJ64Vrg3ugi1LnbR0jzAm8jzQyk4fV5EOC+Xgc8DBwRXYikMNuA3wH+LbqQGXKMQjPGgGWjpDcD3RhcjLr3c+CDeNtPqtVe4GLyufirOTcAOyffBvg5YE9gMYpxO6nvJdXnU8C3o4tQ53YDnwWYDACPAleHlaNIlwF3RRchqVMbSAFA9fkCE7M97vt79QLSh+KsiIoKkssYgH29jhQCTowuRFLrfgS8E/hFdCFz4BiA4WwEziVNAPgbF6tlwH3AsR0XVZIcAwDAMcDdwBuiC5HUmmeAs4F/iS5kjgwAc/cs8FbSZwB45SeASduAC4CtHRalftgKrCPPbwWSDuznwHnke/HX3G0Bzmefiz/8ZgAA2EyaK/7ODopSv/yAdGtwS3Qhkhr1HLCGdPtfddlI+ub/0NR/sb8AAPA8KSleTnpeUPX4EWkcyG98WCRl6WHSMb05uhB1ajdwBek3/21zXcky4BrSfAHjLgdcSnE48E/Et6eLi8vcl/XAaylHdHvmsOwkze644kCNOZsBa4tJvxGfC6wGlgNL8VXCU+U6CHB/DgI+PrFMd7dIUv+Mk978+d+Bl4NradJ4dAE9sxvYTnqp3wOkJ/luJYWAAyrpYjUp+gNSYpueB3wZODK6EEkH9FPgQ8A/RhfSAs/vDfJbnWbi/wFvBv4HZX2bkEoyTgrqb6HMi78aVlSamWBCbNfbSGNCTosuRNK/ux/4COlNnyXz/N4g7wBotu4FzgD+gPJPNlLfbQb+mDTK3+NRs1JUmplgQuzOCLAWuAQ4h7r2XYoyDtxBGuT3zeBauub5vUFF7cwEPyAxjgX+CPgTYGVwLVKJnga+BlwHPBZcSxTP7w0qamcm+AGJNUJ6THTNxHIO6RFSSbOzgzQj6/qJZVNsOb3g+b1BRe3MBD8g/TIPOAk4YWJ5M2kOiSXAayaWw8Kqk+K8QLrI7wBeJD3L/eOJ5RHS1Ny/Dquunzy/N6ionZngB0SSyuT5vUE+BSBJUoUMAJIkVcgAIElShQwAkiRVyAAgSVKFDACSJFXIACBJUoUMAJIkVcgAIElShQwAkiRVyAAgSVKFDACSJFXIACBJUoUMAJIkVcgAIElShQwAkiRVyAAgSVKFDACSJFXIACBJUoUMAJIkVcgAIElShQwAkiRVyAAgSVKFDACSJFXIACBJUoVKDAB7g7d/UPD2JalE84K3H31taVyJAeCXwdv/7eDtS1KJlgVvf2fw9htXYgB4MXj7bwreviSVKPrcuiN4+40rMQBEp7R1wduXpBJdELz9F4K337jUP9qHAAAGfUlEQVQSA0B0J10ELAiuQZJKshD4YHAN0XeXG1diAHgyePvHAH8eXIMkleQvgNcH1xB9bWlciQHgkegCgE8B50QXIUkFeDtwWXQR9OPa0qgSA8CPowsA5gP/h/TBlSTNzdnAN4BDoguhH9cWHcDpwHhPlpeAS0m/X0mSZmYh8DFgF/Hn8clldat7HGAkuoAWzAd+ASyKLmQfzwBfBW4FHgV+CrwcWpEk9cdBpDlUVgFrSYOpjw6taNAO4LXAr6MLaVKJAQDgW8C7o4uQJBXhZuDC6CKaVuIYAIAN0QVIkopR5DWl1ABwe3QBkqRirI8uoA2l/gQwQvqtPXrqSElS3h4jjU0Yjy6kaaXeARgHvhJdhCQpe1+iwIs/lHsHANK3/0cpex8lSe0ZB44HnogupA2l3gEAeBz4TnQRkqRs3UGhF38oOwAAfD66AElStq6MLqBNpd8eHwHuB06LLkSSlJUHeGVm2SKVfgdgnMITnCSpFZ+i4Is/lH8HAFLI+T4FzuMsSWrF/cDbgL3RhbSp9DsAkDrwTym8IyVJjdgL/BkVXDNqCAAA3wP+LroISVLvXQvcG11EF2r4CWDS64CHgSOiC5Ek9dI24HeAf4supAu13AEA+DnwQSq4rSNJmrW9wMVUcvGH9A7mmjwJLADeGV2IJKlXLqeyn4pr+glg0jzSm50MAZIkSK/7/Q/Ay9GFdKnGAABpPMBdwInRhUiSQv2I9IXwF9GFdK3WAABwDHA38IboQiRJIZ4Bzgb+JbqQCDUNApxqK7COClOfJImfA+dR6cUf6g4AAD8g3frZEl2IJKkzzwFrSLf/q1XzTwD7Ohr4FnBSdCGSpFY9DJwPPB1dSLTa7wBMepaUBu+ILkSS1JoNwDvw4g/UNw/Aq/kl8GXS25/OwbsjklSKyTfD/mfSuV54kZvOeaQwcGR0IZKkofwU+BDwj9GF9I13APbvceB6YCFwBv5UIkm5GQe+AryXNOBbU3gH4MDeBlwDnBZdiCRpRu4HPkJ6E6ym4TfbA7uXdBfgD/DDJEl9thn4Y+AsPF8fkHcAZmcEWAtcggMFJakPxklPcF0JfDO4lqx4AZu7Y4E/Av4EWBlciyTV5mnga8B1wGPBtWTJADC8EWA1aR6BNaQ7A4tDK5Kk8uwA7iS9zXU9sCm2nPwZAJo3jzSj4AkTy5uB5cAS4DUTy2Fh1UlSP71AusjvAF4EngR+PLE8QhrJ/+uw6gpkANB48Pbb/gy6f+1y/4ZT+v6px3wKQJKkChkAJEmqkAFAkqQKGQAkSaqQAUCSpAoZACRJqpABQJKkChkAJEmqkAFAkqQKGQAkSaqQAUCSpAoZACRJqpABQJKkChkAJEmqkAFAkqQKGQAkSaqQAUCSpAoZACRJqpABQJKkChkAVLrdgdveFbjtUth/UksMACrdi4HbfiFw26Ww/6SWGABUuicDt/1E4LZLYf9JLTEAqHSbArf9YOC2S2H/SS0xAKh06wO3fXvgtkth/0ktGYkuQOHGg7ff9mdwMbANWNTydqYaA5YBO1vejv3XDvtPxfMOgEq3E7gxYLs30P7Fowb2nyS1ZDx46cJK0uNkXe3TLmBFJ3tm/9l//e8/9ZR3AFSDR4GrO9zeF3AEeZPsP0lqQS3fQBYAG1vcj8nlHuCQjvaJFvfD/utGLf0nqYdqOgEtA55usPapyzPA6zvbm8T+s/9y6T9JPVPbCehkYMsQ9U63PA2c1OF+TLL/7L+c+k9Sj9R4AjoCuGMWNR5ouYf07TSC/Wf/5dZ/knqi1hPQIcAnSY96zbX2XcBn6PY346nsP/svx/6T1AO1n4CWAdcwuwvJTuBauntU7NXYf/Zfzv2nQM4CpeiTQF8+g4uBdcC5wGpgObB04t9tJ72U5gFgA3Ar/Zkkxv5L7L+56Uv/KYCdr13A/MBtLwjadinsv7zZfwrjREDyfet5s//yZv8pjAFATwZu29nWhmf/5c3+UxgDgHzfet7sv7zZfwpjAJDvW8+b/Zc3+09SmMUM9yz1XJedE9vWcOy/vNl/CuMdAPm+9bzZf3mz/ySFKvl96zWw//Jm/0kKdSXdnYCu6GifamL/5c3+kxSm1Pet18L+y5v9JylUie9br4n9lzf7T1Ko0t63Xhv7L2/2n6RQJb1vvUb2X97sP0mhSnnfeq3sv7zZf5LC5f6+9drZf3mz/9QaXwesmcr1fetK7L+82X9q3P8HXpxP4piG9yAAAAAASUVORK5CYII=;" vertex="1" parent="1">
          <mxGeometry x="384" y="290" width="72" height="72" as="geometry" />
        </mxCell>
        <mxCell id="ckwtcuSyuOzhh80tvO_Y-5" value="" style="shape=image;verticalLabelPosition=bottom;labelBackgroundColor=default;verticalAlign=top;aspect=fixed;imageAspect=0;image=data:image/png,iVBORw0KGgoAAAANSUhEUgAAAgAAAAIACAYAAAD0eNT6AAAABHNCSVQICAgIfAhkiAAAAAlwSFlzAAAN1wAADdcBQiibeAAAABl0RVh0U29mdHdhcmUAd3d3Lmlua3NjYXBlLm9yZ5vuPBoAACAASURBVHic7N15uJ1Veffx7x0gkYBMQSaZQYYw40AQUwcQgVegWBleB0AlVWipiCC2Wm21thWQoiho44AovkxKQSU4YLXMDsyEQZBJxpIgSBISSO73j/WckIQkZw/P3vdaz/P7XNe5Eq6L7P3jkLPue6+1nrXM3RGRvJnZy4AJS3ytvcQ/rwKMA8ZWv3bye4C5wLzq105+PwuYscjXk0v88wx3f24Q3wcRqY+pARCJY2YrABsCmy3xtR6LF/jxURl7NJvFG4THgPuW+Pqju88PSyjScmoARAbMzNbhpQV+M2BzYCNgpbh0oZ4HHgL+wEubg/vc/YnAbCKNpwZApCZmtgqwPbAjsMMiv64VmatgM4FbgVsW+fU2d58VmkqkIdQAiHTJzMaQPr3vuMjXDsAWgAVGawMH7uXFhmDk6w/uviAymEhp1ACIjMLM1gf2qL4mkQp+aWvyTTeb1AhcB1wNXO3uj8ZGEsmbGgCRRVSf7rcHXs+LRX+z0FDSq/uomgHgGtLygWYJRCpqAKTVqnX73Vj8E/7qoaFkUJ5mkRkC4HrtJ5A2UwMgrWJmBuwC7Ft9TQJWCA0lUeaTGoJp1deNrgFRWkQNgDSema0B7E0q+PuQnrEXWdJjwOWkZuCn7v6n4DwiA6UGQBqn+pS/My9+yt8dfcqX7swHruXF2YGbNDsgTaMGQBrBzMaRPt0fSCr6+pQvdXqM1AhcAlzu7nOD84j0TQ2AFMvMViJN7R9KKvyrxSaSlniG1AicT1oqeD44j0hP1ABIUcxsRWBP4BDgIGDN2ETSck8BFwMXAFe4+wvBeUQ6pgZAslddmPMmUtH/K9LlOCK5mQF8n9QM/FIXHUnu1ABItsxsN+Bw4J3AOsFxRLrxBHARcI67Xx8dRmRp1ABIVqpH9t4DTCEduStSuluAqcB39Wih5EQNgGTBzCaTiv47gZWD44gMwhzSrMBUd78yOoyIGgAJY2Zrk6b4pwDbBMcRGaY7SbMC57j7k9FhpJ3UAMhQVYf0vIVU9A8CxsYmEgk1j/QUwVTgFzpsSIZJDYAMhZmNB94HHAdsGRxHJEf3AKcD33L32dFhpPnUAMhAmdm6wLHA0cBawXFESjATOAs4w90fjw4jzaUGQAbCzCYCx5N29I8LjiNSornAd4HT3H16dBhpHjUAUiszezNwAuk8fguOI9IETrqH4FR3/+/oMNIcagCkb9XxvIeQCv8uwXFEmuxG4FTgAh07LP1SAyA9M7OxwFHAx4GNguOItMlDwL8DX3f3edFhpExqAKRr1Sf+I4B/BDYJjiPSZg8AnwW+rRkB6ZYaAOmYmY0B3g18Cj3KJ5KTe4DPAOe6+4LoMFIGNQAyqurwnoOBfwK2jU0jIstxB+nn9EIdKiSjUQMgy2VmB5I+WehiHpFy3AJ8yt0viQ4i+VIDIEtlZvuSCv9rorOISM9+S2oEpkUHkfyoAZDFmNn2pONI94zOIiK1uQI4zt1viw4i+RgTHUDyYGYTzOwrwE2o+Is0zZ7ATWb2FTObEB1G8qAZgJarHuk7GvhnYM3gOCIyeE8BnwbO0qOD7aYGoMXMbG/gP4CJ0VlEZOimAx9x959GB5EYagBayMy2BE4D9o/OIiLhfggc7+73RAeR4dIegBYxs9XM7GTgdlT8RSTZH7jdzE42s9Wiw8jwaAagJczsYOBLwHrRWUQkW48Bf+fuF0YHkcFTA9BwZvZK4EzggOgsIlKMS4Fj3P3h6CAyOGoAGqo6vveDwOcBTeu1x3PAs8C86mvuKL8CjAXGjfLrWGBV4GVD+u+QeM8AJwFf07HCzaQGoIHMbGtgKjA5Oov0bTZwP/Ao8GT1NWNZv3f3WYMMY2arABOAtauvZf1+fWBTYPwg88hQXAlMcfe7ooNIvdQANIiZrQR8jHRN77jgONKZuaQrXe8H7lvk1/uA+939ibBkNTCzdUiNwGaL/Dry+03Q39NSzCVdO3yyuz8fHUbqoQagIczsdcDXgR2is8hSPUd67vqWRb7uAB5t6/RqtUy1PumGyR0X+ZqIlhpydStwlLv/OjqI9E8NQOHMbDzwOeDv0GOduXiAxQv9LcDv3X1+aKpCmNkKwKtYvCnYkTRjIPEWkJ4o+oS7z44OI71TA1AwM9sF+B6wTXSWFpsNXA9cDVwDXOvuf4qN1ExmtgawO/B6YA9gN7THINKdwLvc/cboINIbNQAFqqZOTwD+hbQ7W4bnYVKhv7r6uknnqceo7rHYmdQM7EFqDF4ZGqp95gGfBE5t61JWydQAFMbMNgDOQTf2DcsjwDTgF8DV7v5AcB5ZDjPbhNQMvAXYF9ggNlFrXAEc7u6PRAeRzqkBKIiZHUR6vE/XeQ7OC8C1wGXANHe/OTiP9MHMdiI1AvuRlg9WjE3UaDNIjwteHB1EOqMGoADVRr/TgSnRWRrqUeByUtH/mbs/HZxHBsDMVgfeSmoG9iE9gSD1mwocpw2C+VMDkDkzezVpo99W0Vka5nbgAtKRpzdr/bJdqn00O5GOyD4E2C42UePcTdog+LvoILJsagAyVQ1QJ5I2+q0UHKcp7gLOB8539+nRYSQfZjYROLT62jo4TlM8T9ogeIoa7DypAciQma0JnEtau5T+3EP6pH++u98SHUbyZ2Y7khqBQ4Atg+M0wTTg3e7+VHQQWZwagMyY2c7AD0jHpUpvHgTOIxX9G6LDSLnMbFdSM3AYsHFwnJLdB7zD3W+KDiIvUgOQETM7HPgqsHJ0lgI9D/yQtAHpp+6+IDiPNIiZjQH2Jm3E3R8ty/ViDvAhdz8nOogkagAyYGZjgf8AjonOUqB7SHcgnO3uj0eHkeYzs3WBI4Gj0BJBL84EPuLu80b9N2Wg1AAEM7NXAheSnlGWzswlLZNMBX6pDUYSodqo+ybSrMA70M2G3bgWONjdH44O0mZqAAKZ2RtJu9LXjc5SiLuBs4DvuPuM6DAiI8xsAvBe4Gj0yG6nHgcOdfdfRQdpKzUAQczseODz6GSyTlwNnAL8UGv7krNqVuAA0l0dbwiOU4IXgJPc/bToIG2kBmDIzGxl4FukncWybAuAi0mXjFwXHUakW2a2G6kROAhYIThO7s4H3ufuc6KDtIkagCEys1eQTp6bFJ0lY7OBs4HT3P3e4CwifTOzzYHjgPcDqwTHydl1wAHu/r/RQdpCDcCQmNlWpAMxNo/OkqkngC8DZ2p9X5rIzNYCPgQcC6wXHCdXfwD2dfe7o4O0gRqAITCzycB/AWtFZ8nQE6S9EGdp+k/awMzGAR8E/h41AkszE/hLd78yOkjTqQEYMDM7jDSlrUeEFjeTtLHvDHefFR1GZNiqWz7/BvgYsHZwnNzMBY509/OigzSZGoABMrO/Bz4HWHSWjDwNnAac7u7PRIcRiWZmLwc+DHwUWCM4Tk4c+IS7/1t0kKZSAzAAZrYi6bSrKdFZMvIs8EXgC7oUROSlzGwNUhPwYeDlwXFyMhU4xt1fiA7SNGoAalZ18xcCb4vOkok5pM19J7v7k9FhRHJXHSp0EvC36F6QET8hnRz45+ggTaIGoEZmtj5pp/9O0VkycT7wMXd/MDqISGnMbGPgZHRmyIibSU8IPBodpCnUANTEzDYBrgC2iM6SgRuAD7v7VdFBREpnZm8gLZ/tGp0lA/cCe7r7A9FBmmBMdIAmqJ7xvxIV/8eBDwCvVfEXqUf1s/Ra0s9W22+83AK4shpzpU+aAeiTme0A/Ix2X+gzDzgd+Bet0YkMTrXH6JOkkwXHBseJ9DjwVne/NTpIydQA9MHMXgtcTrsP+LkE+KiO7RUZHjPbAvgCcGB0lkAzgX3c/TfRQUqlBqBHZvYXwI9o7+M6DwJHu/tl0UFE2srM9iNdkb1xdJYgfwbe7u7/Ex2kRNoD0AMzexvpk38bi/8C4AxgOxV/kVjVz+B2pJ/JNl6V/XLg8mpMli5pBqBLZnYQcB7tXH+7HThK1/OK5MfMJgFfJzUEbTMPOMzdL44OUhLNAHTBzN5DOuSnbcV/HvBpYFcVf5E8VT+bu5J+VucFxxm2scCF1RgtHdIMQIeqv1jfpn1N09XAFHe/IzqIiHTGzLYlHaG7R3SWIVsAHOHu340OUoK2FbOeVNP+Z9Ou79ds0k1lk1X8RcpS/cxOJv0Mzw6OM0xjgLOrMVtGoRmAUVSbSy6lXdP+twOHuPv06CAi0h8zmwhcQLv2BswDDnD3n0QHyVmbPtF2rXrU72LaVfzPBl6n4i/SDNXP8utIP9ttMRa4uBrDZRk0A7AM1SE/V9CeR/1mka7cPCc6iIgMhpkdTrqqfJXoLEPyZ9LdATosaCnUACxFdbzvL2nPCX+3k67a1Fq/SMNVGwQvpD1LAjOBN+nY4JfSEsASqksmfkZ7iv83SZf3qPiLtED1s/5a0s9+G6wF/EwXCL2UZgAWUV3peyWwUXSWIZhFOsr3O9FBRCSGmb2XdJRwG5YEHiI91aSrhCtqACpmtj7tudL3NtKU/53RQUQklpltQ1oS2D46yxDcS2oCHo0OkgMtAbDwis1ptKP4f4O0y1/FX0SoxoLXkcaGptsCmFaN+a3X+gbAzFYkdb87RWcZsGeB97j7Ue4+JzqMiOTD3ee4+1HAe0hjRZPtRDo2eMXoINFa3wCQHolp+k1StwKvcfdzo4OISL6qMeI1pDGjyd5GGvtbrdUNgJn9PTAlOseATQV2c/e7ooOISP6qsWI30tjRZFOqGtBard0EaGaHAd8DLDrLgDwLfNDdvxcdRETKZGbvAr4GrBqdZUAceJe7nxcdJEIrGwAzm0x61n9cdJYB+SOwj7vfHh1ERMpmZtsBlwMbRmcZkLnAW939yuggw9a6BqA6DOJamnvQzx3A29z9oeggItIMZrYR8BNg2+gsAzIT2N3d744OMkyt2gNgZq8gPe7X1OJ/HekZVxV/EalNNaZMJo0xTbQW6fHAV0QHGabWNABmtjLpWt/No7MMyDTSpRczooOISPNUY8uepLGmiTYHLq1qRSu0pgEAvgVMig4xIN8h3X09OzqIiDRXNcYcQBpzmmgSqVa0QisaADM7Hjg0OseAfAE4wt1fiA4iIs1XjTVHkMaeJjq0qhmN1/hNgGb2RuDnQNNOfXLgY+5+anQQEWknMzsBOJnmPU79ArCXu/8qOsggNboBMLNXAr8D1o3OUrMXgA+4+znRQUSk3czscNI9Ak37kPU48Gp3fzg6yKA0dgnAzMaSzvhvWvGfDRyo4i8iOajGogNJY1OTrEu6M2BsdJBBaWwDAPwHsHt0iJrNJE1LXRYdRERkRDUm7UUao5pkd1ItaaRGLgFUU1Lfjs5Rs4dIB/zcER1ERGRpzGxb0oFBG0VnqdkRTZx1bVwDYGY7A9cATXqWczqp+P8xOoiIyPKY2YakJmBidJYazQFe7+43RQepU6MaADNbk7Tpb7PoLDW6Fni7uzdtak1EGsrM1gJ+RLOWYe8jbQp8KjpIXRqzB8DMDDiXZhX/y0hr/ir+IlKMaszaizSGNcVmwLlVrWmExjQAwInAvtEhanQZabd/03bWikgLVGPXgTSrCdiXVGsaoRFLAGb2atJU+UrRWWpyLemTv4q/iBTNzMaTDmNrynLA86SbA38XHaRfxTcA1V+uG4GtorPUZDrpRj9N+4tII1R7Aq6kORsD7wZ2Kf1DWhOWAE6nOcV/5FE/FX8RaYxqTHsbaYxrgq1ItadoRc8AmNlBwA+ic9RkJvAGPecvIk1VnRNwFbBWdJaavMPdL44O0atiGwAz2wC4BZgQnaUGs0lr/tdGBxERGSQz2520J2B8dJYazAB2dPdHooP0osglgOoxjHNoRvF/AThYxV9E2qAa6w4mjX2lmwCcU+qjgUU2AMAJwJ7RIWrgpFv9mvSYjIjIclVj3gdIY2Dp9iTVpOIUtwRgZrsA1wFNuKHpRHc/NTqEiEgEMzsBOCU6Rw3mAZPc/cboIN0oqgGoHvn7HbBNdJYafMHdi+waRUTqYmanAh+NzlGDO0lHBRfzaGBpSwCfoxnF/zs06DQpEZE+nEgaE0u3DalGFaOYGQAzex3phLzSmpYlTQMOcPcmbIAREembma0IXEr5x7kvIJ0S+OvoIJ0oogEws5VIU/87RGfp03XAniVNEYmIDEO1xHsFMCk6S59uJS0FPB8dZDSlfJr+GOUX/ztI1/qq+IuILKEaG99OGitLtgOpZmUv+xkAM9sauBkYF52lD38EXu/uTTkGU0RkIMxsI+AaYMPoLH2YC+zk7ndFB1merBuA6nCFXwGTo7P04VnS4yG3RwcRGWFmawAbAAY84u5PBUcSWcjMtiMtma4anaUPVwJv9IyLbO5LAB+k7OIP8EEVf4lkZquZ2WFmdp6Z3Wtms4GngNuB24CZZjbbzO6p/p3DzGy12NTSZtWY+cHoHH2aTOb/DdnOAJjZK0lX45Y8EE1197+ODiHtZGZvAD5BOqlspS7/+POkDVmfc/er6s4m0gkz+09gSnSOPjwDTHT3h6ODLE3ODcAlwAHROfpwK7Cbu8+JDiLtYmbbA/9G2lBVhx8Bf+/ut9X0eiIdMbOVgespexP4pe5+YHSIpclyCcDMDqbs4v8s6YIfFX8ZGkv+mbRptq7iT/VaN5vZP5d66YmUqRpDDyaNqaU6oKpp2cluBqBae7wLWC86Sx/e4+7nRoeQ9qieof428M4Bv9VFwBF6nFWGyczeDXw3OkcfHgO2dvdnooMsKscZgE9SdvH/hoq/DJOZrQ1cxeCLP9V7XFW9p8hQVGPqN6Jz9GE9Um3LSlYzAGa2JWlncqk3/d0GvE5T/zIs1SmZVzD8p2WuJJ1qmf1pZ9IM1X6AXwPbR2fp0TxgO3e/JzrIiNxmAE6j3OI/C637y/CdScyjspOr9xYZikX2A8yKztKjsaQal41sGgAz2xvYPzpHH4529zujQ0h7mNlfA0cFRjiqyiAyFNUYe3R0jj7sX9W6LGSxBFDdBHUzMDE6S4++6e4fiA4h7WFmqwP3AhOCo8wAtnD3p4NzSIuY2TeA90fn6NF00jHB4TfC5jIDcDTlFv/bgb+NDiGt83Hiiz+kDB+PDiGt87eksbdEE8lkFiN8BsDMJgC/B9YMDdKbWcBr3b3026ukIGa2IXA3sHJ0lsocYCt3/2N0EGkPM9sW+A2wSnSWHjwFvMrdZ0SGyGEG4DOUWfwBjlHxlwDvJZ/iDynLe6NDSLtUY+8x0Tl6tCap9oUKnQGojiy9CVghLETvznb390WHkPYxs+uB10XnWMKv3X236BDSPmb2LeDI6Bw9mA/sHHnEdnQD8HPSRSWluZ30vL9OQ5OhMrMNgD+SrvHNiQMbuvsj0UGkXapTMH8NbBedpQdXuPteUW8etgRgZvtSZvGfDRyi4i9B9iO/4g8p037RIaR9qrH4ENLYXJo9q1oYInIPQPj6R49OdPfp0SGktbaIDrAcOWeTBqvG5BOjc/QorBaGNABmdiDwmoj37tPVwFnRIaTVNogOsBw5Z5PmO4s0RpfmNVVNHLqhNwDVdaIlfvqfB0zx6Ocmpe1yLrI5Z5OGq8bmKaSxujSfibhqO2IG4GBgx4D37dfn9MifZCDnmzJzziYtUI3Rn4vO0YMdSbVxqIb6FICZjSHdmLft0N60HrcDu7p7iZ2lNIiZ3QlsHZ1jGe5y922iQ0i7mdlY4AbKeyrgDmB7d18wrDcc9gzAuymv+C8AjlLxFxHJXzVWH0Uau0uyLalGDs3QGoDqwp9PDev9avQVd78uOoSIiHSmGrO/Ep2jB5+qauVQDHMG4AhgyyG+Xx0eBP4hOoSIiHTtH0hjeEm2JNXKoRhKA1CtyfzjMN6rZke7+7PRIUREpDvV2J3FrXtd+seqZg7csGYAjgI2GdJ71eUSd78sOoSIiPSmGsMvic7RpU1INXPgBv4UQLWe8Qdgo4G+Ub3mARPd/d7oICKL0lMAIt0xsy2A6cBQPlXX5CFgc3d/YZBvMowZgEMoq/gDnK7iLyJSvmosPz06R5c2ItXOgRrGDMANwC4DfZN6PQ68yt3/HB1EZEmaARDpnpm9HPg9sG50li7c6O67DvINBjoDYGZvpqziD/APKv4iIs1RjemlPdG1S1VDB2bQSwAnDPj163YDcHZ0CBERqd3ZpDG+JAOtoQNrAMxsIhB2z3GPPjzMYxhFRGQ4qrH9w9E5urRvVUsHYpAzAMcDQ7/dqA/nu/tV0SFERGQwqjH+/OgcXTBSLR3Miw9iE6CZrQs8AIyr/cUHYw6wjbuXdmqUtIw2AYr0x8w2Bu4EVo7O0qG5wCbu/njdLzyoGYBjKaf4A3xZxV9EpPmqsf7L0Tm6MI5UU2tX+wyAmY0nHWKwVq0vPDjPApu5+5PRQURGoxkAkf6Z2drAfcCq0Vk6NBPYyN1n1/mig5gBeB/lFH+AL6r4i4i0RzXmfzE6RxfWItXWWtU6A2BmBtxNObf+PU369P9UdBCRTmgGQKQeZrYmaRZg9egsHboH2MprLNp1zwC8hXKKP8BpKv4iIu1Tjf2nRefowpakGlubuhuAKTW/3iDNpLzzoUVEpD6nk2pBKWqtsbU1ANWmioPqer0hOMXdn4kOISIiMaoacEp0ji4cVNXaWtQ5A3A45Vy3+ARwRnQIEREJdwapJpRgLKnW1qLOBqCk6f/Pu/us6BAiIhKrqgWfj87RhdpqbS0NgJlNBkrZ/fsEcFZ0CBERycZZlDMLsE1Vc/tW1wxASZ/+v+zuc6JDiIhIHqqaUNLpgLXU3L7PATCzNYBHKONc5dnAxu4+IzqISC90DoDIYJjZBOBBYHx0lg7MATZw9z/18yJ1zAC8hzKKP8DZKv4iIrKkqjacHZ2jQyuTam9f6mgASpn+X0BZhz6IiMhwnUaqFSXou/b21QCY2W7Ajv2GGJKL3f3e6BAiIpKnqkZcHJ2jQztWNbhn/c4A1PY84hCcGh1ARESyV1Kt6KsG99wAmNkKwDv7efMhutrdr4sOISIieatqxdXROTr0zqoW96SfGYA3Aev08eeHqaSjHkVEJFYpNWMdUi3uST8NwCF9/Nlhuhv4YXQIEREpxg9JtaMEPdfinhoAM1sR+Kte33TIznL3UnZ1iohIsKpmlHJi7F9VNblrvc4A7AlM6PHPDtNc4DvRIUREpDjfIdWQ3E0g1eSu9doAlDL9/wMd/CMiIt2qascPonN0qKea3HUDYGYrAQf18mYBpkYHEBGRYpVSQw6qanNXepkB2BtYs4c/N2z3AL+MDiEiIsX6JamW5G5NUm3uSi8NwKE9/JkIX/d+bzoSEZHWqmrI16NzdKjr2tzVbYBmNo50Z/Jq3b7RkD0PbOTuj0cHEamTbgMUGS4zWxd4COh6in3IngHWcfeONy52OwOwD/kXf4AfqviLiEi/qlpSwlkyq5FqdMe6bQAO7PLfj1LKxg0REclfKTWlqxrdcQNgZgbs23Wc4XsQ+Gl0CBERaYyfkmpL7vatanVHupkB2BlYr/s8Q3eeTv4TEZG6VDXlvOgcHViPVKs70k0DUMKnf4DzowOIiEjjlFJbOq7VTWsA7nH3G6JDiIhIs1S1pYQzAeptAMxsDWD3nuMMzwXRAUREpLFKqDG7VzV7VJ3OAOwNrNB7nqEpZYpGRETKU0KNWYEOTwXstAEoYfr/Lne/JTqEiIg0U1Vj7orO0YGOavaoDUD1SEFXhwsEKaEzExGRspVQa/bp5HHATmYAdqGMx/9K+J8iIiJlK6HWrEeq3cvVSQNQwvT/7e4+PTqEiIg0W1Vrbo/O0YFRa3dTGoASdmaKiEgzlFBz+msAzGwVYFJtcQbn0ugAIiLSGiXUnElVDV+m0WYAdiP/x/8eBW6ODiEiIq1xM6n25GwFUg1fptEagD3qyzIwl7u7R4cQEZF2qGrO5dE5OrDcGt6EBuCy6AAiItI6JdSe3hoAMxtD/uv/LwA/iw4hIiKt8zNSDcrZpKqWL9XyZgC2B1avP0+trnX3p6NDiIhIu1S159roHKNYnVTLl2p5DcDr689SuxKmYEREpJlKqEHLrOXLawBKWP+fFh1ARERaq4QatMxaXnID8Ii76/E/EREJUdWgR6JzjKK7BsDM1gc2G1icepTQeYmISLPlXos2q2r6SyxrBiD3T/8Av4gOICIirVdCLVpqTS+5Abg6OoCIiLReCbWoqwYg9+f/H3b3B6JDiIhIu1W16OHoHKNYak1/SQNQHRqw48Dj9Oea6AAiIiKV3GvSjks7EGhpMwCbA+MHn6cvJUy5iIhIO+Rek8aTavtiltYA5P7pH/L/ZouISHuUUJNeUttLbABmAzdFhxAREancRKpNOWtEA3C9u+d+AYOIiLREVZOuj84xio4agB2GEKQfJUy1iIhIu+Rem15S2xdrAMxsFWCLocXpTe67LUVEpH1yr01bVDV+oSVnALYHbHh5epL79YsiItI+udcmY4mrgZdsAHJf/3/A3f8UHUJERGRRVW3K/YC6xWr8kg1A7uv/t0QHEBERWYbca9RiNb60GYDcv7kiItJeudcozQCIiIgMQO41aukzAGa2DrDW0ON0J/dvroiItFfuNWqtqtYDi88AbBYQphvPAb+PDiEiIrIMvyfVqpwtrPUlNQDT3X1+dAgREZGlqWrU9OgcoyiyAch9akVERCT3WqUGQEREZAByr1VqAERERAYg91q11AZg84Ag3bgjOoCIiMgocq9VC2v9GAAzWwHYKCzO6OYCj0aHEBERGcWjpJqVq42qmr9wBmBDYKW4PKN6wN09OoSIiMjyVLUq5zsBViLV/IUNQO7r//dHBxAREenQ/dEBRrEZlNMA3BcdQEREpEO516yiGoD7owOIiIh06P7oAKMoqgHIvZsSEREZkXvNWqwBWC8wSCdy/2aKiIiMyL1mrQcvNgBrBwbpxP3RAURERDp0f3SAUawNLzYAEwKDjGa2uz8RHUJERKQTVc2aHZ1jOSZAGQ3AL90kIwAAIABJREFU/dEBREREunR/dIDlSA2Amb0MGB8cZnl0AqCIiJQm59o13sxeNoa8P/0DPBkdQEREpEu5164JagBERETql3vtKqIBmBEdQEREpEu5164iGoDcuygREZEl5V67Jowh/zMAcv8mioiILCn32rV2CTMAuU+jiIiILCn32qUlABERkQHIvXapARARERmA3GvXhDHAKtEpRpH7NIqIiMiScq9dq4wBxkWnWI7n3H1WdAgREZFuVLXruegcyzFuDDA2OsVyPBsdQEREpEc517Cxuc8AzIsOICIi0qOca9g4NQAiUpdVqsvFRCTJuYZlvwQwNzqAiHRsQ+B6M9sqOohIJnKuYVoCEJFa7Qj8zsz+b3QQkQzkXMOyXwLIuXsSkaVbFfiemX1NSwLScjnXsOyXAHLunkRk+f4auE5LAtJiOdew7JcAcu6eRGR0OwG/1ZKAtFTONSz7JYCcuycR6czL0ZKAtFPONSz7JYCcuycR6Y6WBKRtcq5h2S8B5Nw9iUj3RpYEDosOIjIEOdewcWOiE4hI67wc+H9m9lUtCYjEGUPmUxTRAUQyMz86QI0+SFoSeFV0EJEBybmGzR1D5lMU0QFEMvNIdICa7UQ6OEhLAtJEOdeweZoBECnLA9EBBkBLAtJUOdewubk3ADl3TyIR7o8OMEAfBK7VkoA0SM41LPslgJy7J5EITZwBWNTOaElAmiPnGpb9EkDO3ZNIhN9FBxiCkSWBs7QkIIXLuYZlvwSQc/ckMnTuPh24KTrHkHwILQlI2XKuYdkvAeTcPYlEOTc6wBCNLAkcGh1EpAc517DslwBy7p5Eovw/YEF0iCF6OXBetSSQ84AqsqSca5iWAERK4+4PAz+OzhHgQ6SDg7aMDiLSoZxrWPZLAKtGBxDJ1LHAs9EhAuwM3KAlASlEzjUs+yWAl5nZKtEhRHLj7g8AH4/OEWRkSeBMLQlIrqralfNTLHPHALOiU4xiQnQAkUydCfxPdIhAR5OeEtCSgOQo99o1awwwIzrFKNaODiCSI3d34AiafzjQ8uxCekrgkOggIkvIvXbNUAMgUjB3vx94A3BXcJRIqwHna0lAMpN77SqiAch9GkUklLv/EfgL4OboLMG0JCA5yb12zRgDPBmdYhS5d1Ei4dz9CeBNwM+Do0TTkoDkIvfa9WQJMwC5fxNFsuDufwLeBnyadh0UtCQtCUgOcq9dWgIQaRJ3X+DunwH2Ah6LzhNMSwISKffaVUQDkHsXJZIdd/9v0qE5WhJISwIHRweR1sm9dqkBEGkqd38cLQlAWhK4wMy+oiUBGaLca9eMMe7+HDA7OslyrB8dQKRUWhJYzDHANWa2RXQQaYWca9dsd39uTPUPOc8CbBodQKR0iywJXBGdJdiupLsEtCQgg7ZpdIDlmAFQQgMw3szWiQ4hUrpqSWBvtCSgJQEZqKpmjY/OsRyLNQC5nwWwaXQAkSbQksBitCQgg7JpdIBRPAkvNgC5DwSbRQcQaRItCSykJQEZhNxr1mPwYgNwX2CQTuT+zRQpjpYEFhpZEviylgSkJrnXrPugnAZg0+gAIk2kJYHF/A1aEpB6bBodYBRFNQC5d1MiRdOSwEIjSwLvjA4iRcu9ZhXVAGwaHUCk6bQksNBqwIVaEpA+bBodYBT3AZi7Y2YrAHOAlWIzLdNcYGV39+ggIm1gZm8GvgesF50l2A3AIe5+b3QQKYOZGame5to8Pk+qp/PHALj7fOCh2EzLNY68T1USaRQtCSy0K+kuAS0JSKfWJ9/iD/BQVfMXLgEA/CEoTKe2jQ4g0iaLLAn8E+1eElidtCRwhpmNjQ4j2cu9Vi2s9Ys2ALnvA9gxOoBI21RPCfwzekoA4G9JTwlsHh1EspZ7rVpY69UAiMiotCSw0KtJTwn8VXQQyVbutUoNgIh0R0sCC60OXKQlAVmG3GtVkQ3AxOppBREJssiSwFvRkoCWBGQxVY2aGJ1jFEU2AC8DXhUdQkTA3X+BlgRASwKyuFeRalXOXtoAuPsTwMyQOJ3LfWpFpDW0JLDQyJLAl7Qk0Hq516iZVa0HFp8BALh1yGG6lfs3V6RVtCSwmGPRkkDb5V6jFqvxSzYAtwwxSC9y/+aKtNIiSwK/iM4STEsC7ZZ7jVqsxmsGQERqUS0JvBUtCWhJoL1yr1FFzwBsYmZrRIcQkaXTksBijgWuNrPcb4aTGlS1aZPoHKNY7gzAbUDuF+7sHh1ARJZPSwILvQa40czeER1EBi732uSkGr/QYg2Au88Ccr/16vXRAURkdFoSWGh14Ptm9rnoIDJQudeme6sav9CSMwCQ/z6APaIDiEhntCSwmH8ws6k60Kyxcq9NL6ntS2sAct8HsJuZrRgdQkQ6Vy0J7IKWBI4i3SyY83Wx0qWqJu0WnWMUL6ntJTYA40lriyJSEHd/jDQT8M+0e0ngIOCL0SGkVjuTalPOGtEAQP5TLSKyFNWSwD+RGoHHg+NE+qCZHRQdQmpTQk3qqAH4AzB78Fn6UsI3W0SWQU8JAPB1M9swOoTUIveaNJtU2xfzkgbA3ReQ/yxA7rstRWQUWhJgLeCU6BBSi9xr0i1VbV/M0mYAAK4bcJh+vdLMcj9wQURGoSUBDtZBQWWratEro3OMYqk1fVkNwNUDDFKX3KdcRKRDLV4SWAE4PjqE9KWEWrTUml5yA/CW6AAiUp8WLwm838xWiw4hPSuhFnXeALj7o8B9A43Tv32jA4hIvRZZEtib9iwJjAfeEB1CepZ7LbqvqukvsawZAMh/FmADM9spOoSI1M/dr6BdSwJvjA4g3atq0AbROUaxzFpecgMA+XdeItKjli0JqAEoUwk1qKcG4JoBBKnbftEBRGRwWrQkoNNNy1RCDVpmLTf3pd/+a2ZjgJmkm6xy9QKwtrs/HR1ERAbLzNYDvge8OTrLgIx19+ejQ0hnzGx14Ekg57tpngbWWtoZALCcGYDqD+R+HsCKpClCEWm4aklgL5q7JJD7WfKyuLeSd/EHuG5ZxR+WvwQAZewDKGEKRkRq0PAlgVWiA0hXSqg9y63hTWgA9jEziw4hIsOzyFMC/x2dpUazogNIZ6qas090jg701QBcD8yvL8tArA/ocUCRlllkSeAzlL8k8IT2MhVlJ1Ltydl8Ug1fpuU2AO4+i/z3AQAcEB1ARIavWhL4NOUvCdwdHUC6UkLNua6q4cs02gwAwLSawgzSIdEBRCROA5YE7ooOIF0poeaMWrub0gBsZ2YTo0OISJzClwQujw4gnalqzXbROTpQSwNwI/BY/1kG7tDoACISq9AlgaeBH0WHkI6VUGseI9Xu5Rq1AfB0UlAJ3WkJ/1NEZAgKWxL4vrs/Fx1COlZCrbncl3XK3yI6mQGAMpYBtjazHaNDiEgeCloS+FZ0AOlMVWO2js7RgY5qdqcNwE/J/3FAKKMzE5EhKWBJ4CJ3vyo6hHSshBozn1SzR9VRA+DufwKu7SfRkJSwM1NEhizTJYFZwPHRIaQrJdSYa6uaPapOZwCgjGWALc1s1+gQIpKfDJcEPuvuD0WHkM5UtWXL6Bwd6LhWN60BgDKmaEQkwCJLAm8jdkngQuDUwPeX7pVSWzqu1cu8Dvgl/2I6+/gRYL0eQw3Lg8Bmy7sBSUQk8HrhHwMH6erfcpjZGOA+YOPoLKN4DNigkycAoIsZgOoFS5gF2Ji04UdEZJmClgR+AbxTxb84e5N/8QeY1mnxh+6WAAAu6fLfjzIlOoCI5G/ISwIXAQfomf8ilVJTuqrRHS8BAJjZOOAJYLUuQw3b88BG7p7jYz8ikiEzmwB8ATii5pd+DPgbd/9Bza8rQ2Bm6wIPAStFZxnFM8A67j630z/Q1QxA9cIlzAKsBBwZHUJEyuHuM9z9SOAtwM11vCRwNjBRxb9oR5J/8Qe4pJviD90vAQCc38OfiXBUtXFRRKRj7v7f7r4z8BfABaQZxW7cAJwIbOzu73P3p+rOKMNR1ZCjonN0qOva3NUSAICZrURaK1uz2zcL8BZ3z+ngDxEpjJmNB3YDJgM7Aa+ovlYGHgb+SJoifhD4ibvrat+GMLM3kzZu5u4pYN1uN5eu2O27uPvzZnYx8P5u/2yAKeR18peIFMbdZ5PGEY0l7VPK5r+Le3mypJclAEjTYiV4R7WxR0REpGNV7XhHdI4O9VSTe20ArgBm9Phnh2kc8N7oECIiUpz3kmpI7maQanLXemoA3P0F4Pu9/NkAR1enOImIiIyqqhlHR+fo0Permty1fgpjKcsAWwH7R4cQEZFi7E+qHSXouRZ3/RTAwj9otgLpboB1en3zIbra3d8QHUJERPJnZlcBe0Tn6MATpLP/5/fyh3ueAaje8KJe//yQ7WFmk6JDiIhI3qpaUULxB7io1+IP/S0BAJzT558fphOiA4iISPZKqhV91eCelwAWvoDZzcCOfb3IcCwAtnL3e6ODiIhIfsxsC+Bu+v9wPAy3uPtO/bxAHf+RU2t4jWEYAxwfHUJERLJ1PGUUf6ih9tYxA7AGaTPgyv2GGYLZpPO5SzjDQEREhqQ6+OdBYHx0lg7MIW3++1M/L9J3p1MFKGUz4HjgmOgQIiKSnWMoo/hD2vzXV/GHGmYAAMxsMvA/fb/QcDwBbOruc6KDiIhIPDNbGbifMh5rB/gLd7+y3xepZa2jCnJnHa81BOtQzglPIiIyeEdTTvG/s47iD/VudihlMyDASWa2SnQIERGJVdWCk6JzdKG2WltnA3AOMK/G1xukdYBjo0OIiEi4Yynn0/88ajx/p7YGwN2fBC6u6/WG4EQzWy06hIiIxKhqwInRObpwcVVra1H3844lLQOsBRwXHUJERMIcR6oFpai1xtbyFMDCFzMz0ilKW9b2ooP1NLCZuz8VHURERIbHzNYE7gNWj87SoXtIp9nWVrRrnQGogp1e52sO2OrAR6NDiIjI0H2Ucoo/wOl1Fn+oeQYAwMzGAw9RzrTKs6RZgNrWVUREJF9mtjbp0/+q0Vk6NBPYyN1n1/mitZ95XAU8q+7XHaBVgY9FhxARkaH5GOUUf4Cz6i7+MIAZAAAzWxd4ABhX+4sPxhxgG3d/MDqIiIgMjpltTDq4roT7awDmApu4++N1v/BAbj2qgn53EK89ICsDJ0eHEBGRgTuZcoo/wHcHUfxhQDMAAGY2EbgNsIG8wWBMdverokOIiEj9zOwNQC3H6A6JA9u7+/RBvPjA7j2uAk8b1OsPyBfNrJS7oEVEpEPV2P7F6Bxdmjao4g8DbAAqpw749eu2K3BkdAgREandkaQxviQDraEDWwJY+AZmNwC7DPRN6vU48Cp3/3N0EBER6Z+ZvRz4PbBudJYu3OjuA21YhjHdXdoswLrAJ6NDiIhIbT5JWcUfhlA7hzEDsCLwB2Cjgb5RveYBE9393uggIiLSOzPbApgOjI3O0oWHgM3d/YVBvsnAZwCq/4B/H/T71Gws8IXoECIi0rcvUFbxB/j3QRd/GMIMAICZjSVdErTJwN+sXv/H3S+LDiEiIt0zs/2AH0fn6NIDpEt/5g36jYbyyFv1H/LZYbxXzc4ys5KOixQREaAau0s6ln7EZ4dR/GFIDUDl26TrDEuyMfCv0SFERKRr/0oaw0tyD6lWDsXQGoBqPeMzw3q/Gv2NmU2KDiEiIp2pxuy/ic7Rg88MY+1/xFD2ACx8s3QS023AtkN703rcDuw6rGkZERHpTbXn7AZgu+gsXbqDdOzvgmG94VCPva3+w/5pmO9Zk+2Aj0eHEBGRUX2c8oo/wD8Ns/jDkGcAAMzMgJuAHYf6xv2bB+zs7ndEBxERkZcys21J9aW0x/5uIdWXoRbkoV98U/0HfmrY71uDscDUqoEREZGMVGPzVMor/gCfGnbxh4AGAMDdLwF+G/HefdoDODo6hIiIvMTRpDG6NL+tauLQDX0JYOEbm+0LlHjIzmzgtYO8olFERDpnZhOB3wDjo7P0YD93nxbxxmENAICZ/RzYMyxA724HXufus6ODiIi0mZmNB35NmRv/rnD3vaLePGQJYBHHAfODM/RiO+Ar0SFERISvUGbxn0+qgWFCGwB3vw34WmSGPhxpZodHhxARaatqDD4yOkePvlbVwDChSwAAZjYB+D2wZmiQ3swi7QfQo4EiIkNUPfL3G2CV6Cw9eAp4lbvPiAwRvQRA9Q34dHSOHq0CXGhmK0cHERFpi2rMvZAyiz/Ap6OLP2QwAwBgZisCNwMTo7P06Jvu/oHoECIibWBm3wDeH52jR9OBnYZ55v+yhM8AwMKLgj4SnaMP7zez90aHEBFpumqsLbX4A3wkh+IPmcwAjDCzS4H9o3P0aBbwGne/MzqIiEgTmdk2pEPkSp36/6G7HxAdYkRuDcCWpGfsSzzKEdJNh69z9znRQUREmqRa9/81sH10lh7NA7Zz93uig4zIYglgRPWN+WJ0jj5sD5wRHUJEpIHOoNziD/DFnIo/ZDYDAGBmqwF3AetFZ+nDe9z93OgQIiJNYGbvBr4bnaMPjwFbu/sz0UEWldUMAED1Dfq76Bx9+qqZbR0dQkSkdNVY+tXoHH36u9yKP2Q4AzDCzC4Bstks0YNbgd20H0BEpDfVuv/1wA7RWfpwqbsfGB1iabKbAVjEMUB2HVMXdqDs/QwiItG+SNnF/xlSLctStg2Auz8MnBSdo09TzOxd0SFEREpTjZ1TonP06aSqlmUp2yUAADMz4FfA5OgsfXgWmOTut0cHEREpgZltB1wHrBqdpQ9XAm/0jIts1g0ALNwAcjMwLjpLH/4IvN7dH4oOIiKSMzPbCLgG2DA6Sx/mko77vSs6yPJkuwQwovoGfjY6R582BH5S3XwoIiJLUY2RP6Hs4g/w2dyLPxQwAwBgZisBv6PszSCQprT2dPfZ0UFERHJiZuOBK4BJ0Vn6dCvwand/PjrIaLKfAQCovpFHAQuis/RpEnBRdfuhiIiw8EbYiyi/+C8Ajiqh+EMhDQCAu/8a+FJ0jhrsC3yz2uAoItJq1Vj4TdLYWLovVbWqCEUsAYyopoh+B2wTnaUGX3D3E6JDiIhEMrNTgY9G56jBnaSp/2KWeIuZAQCovrHvIt2qVLqPmpkaABFprWoMbELxnwe8q6TiD4U1AADufiPwyegcNTnZzA6PDiEiMmzV2HdydI6afLKqTUUpaglgRLVm9DNgz+gsNXgBONDdL4sOIiIyDGa2H3AJ0IQN0VcAb835wJ9lKbIBADCzDYBbgCY8Wz8b2Mvdr40OIiIySGa2O/BzYHx0lhrMAHZ090eig/SiuCWAEdU3vPRzokeMB35kZttGBxERGZRqjPsRzSj+AFNKLf5QcAMA4O4XA1Ojc9RkLdJpgaWfgCUi8hLV2PYT0ljXBFOrGlSsYpcARlSPBt4IbBWdpSbTgcnuPjM6iIhIHcxsLdLlOBOjs9TkbmCX0nb9L6noGQBY7NHAIk5e6sBE0nJAU6bIRKTFqrHsRzSn+D9PgY/8LU3xDQCAu/+O5jwaCLA7cKGODBaRklVj2IWkMa0pPlnVnOIVvwQwono08Mc04zjJEZcBBzeh0xSRdqk++V8I7BedpUbTgP9T4iN/S9OYBgDAzNYkHRW8WXSWGl0LvF17AkSkFNWa/49o1if/+0hH/T4VHaQujVgCGFH9j3kHMCc6S412B67U0wEiUoJqrLqSZhX/OcA7mlT8oWENAIC73wR8KDpHzSYC1+icABHJWTVGXUNzNvyN+FBVWxqlcQ0AgLufA5wZnaNmGwFXVadoiYhkpRqbriKNVU1yZlVTGqdRewAWZWZjgV/SrGkoSMcGH6y7A0QkF9XZ/hfSnBP+RlwLvMndm3AD7Us0cgYAoPofdjDweHSWmo0HLtEtgiKSg2osuoTmFf/HSR+2Gln8ocENAIC7PwwcSrpxr0lWBM6u7tIWEQlRjUFn04xb/Rb1AnBoVUMaq9ENAIC7/wo4KTrHABhwipmdWp2BICIyFJacCpxCGoua5qSqdjRaY/cALMnMziPNBjTRd4D3u3vTZjpEJDPV6X7fBN4bnWVAznf3w6JDDEObGoCVgV8Ak6KzDMg04J06NVBEBqU63e8imnXi6qKuA97i7k06S2aZWtMAAJjZK0j/gzePzjIg15FODZwRHUREmsXMJpBO92vqh6g/AJPc/X+jgwxLqxoAADPbivRoR1PupF7SHcDb3P2h6CAi0gxmthHwE6Cph5HNBHZ397ujgwxT4zcBLqn6H/yXwNzoLAOyLenUwO2ig4hI+aqx5BqaW/znAn/ZtuIPLWwAANz9SuBIoKnTHxsC15nZu6KDiEi5qjHkOtKY0kQOHFnVhNZpZQMA4O7nAZ+IzjFAqwLnmtl/VhsgRUQ6YmYrm9l/AueSxpKm+kRVC1qpdXsAllT9JZ8SnWPAbiWdaHVXdBARyZuZbU061neH6CwDNtXd/zo6RCQ1AOmZ1h8Bb4vOMmDPkm60Ojc6iIjkyczeDXyVZn/qh7Sh8e1tPzul9Q0AgJm9nHR/9U7RWYbgG8CxbXnOVURGVy0TngF8IDrLENwMTHb3P0cHiaYGoGJm65OagC2iswzBbaQlgTujg4hILDPbhjTlv310liG4l1T8H40OkoPWbgJcUvUXYk+gDc/Pbw/81syaepSniHSgGgN+SzuK/0PAnir+L1IDsAh3fwDYi+ZdIbw0qwDnmNk39JSASLtUu/y/AZxDGgua7nFgr2qMl4qWAJbCzHYAfklzTwtc0u2kJYE7ooOIyGCZ2bakKf+2HBY2E3iTu98aHSQ3mgFYiuovyj5AWzaJbAf8xswOjw4iIoNT/Yz/hvYU/z8D+6j4L50agGVw998Abwfaslt+FeDbZvat6sYvEWkIMxtvZt8Cvk07pvwhjd1vr8ZyWQotAYzCzN4GXAqMjc4yRLcDh7j79OggItIfM5sIXEB7PvUDzAMOcPefRAfJmWYARlH9BToMmB+dZYhGlgSOMTOLDiMi3bPkGNo15Q9prD5MxX90mgHokJm9hzR91ram6WpgijYIipSj2ug3FdgjOsuQLQCOcPfvRgcpQduKWc+qv1BH0K6ZAEgDyE1m9ikza9MyiEhxzGysmX0KuIn2Ff/5qPh3RTMAXTKzg4DzaNeegBG3A0e5+3XRQURkcWY2Cfg67ZruHzGPNO1/cXSQkmgGoEvVX7ADaM/TAYvaDrjazL5kZk2/LESkCGa2qpl9ibRc18biP4e04U/Fv0uaAeiRmf0F6RbBl0dnCfIgcLS7XxYdRKStzGw/4Cxg4+gsQf5MetTvf6KDlEgzAD2q/sLtSTplqo02Bn5sZv9lZm24QEkkG2a2hZn9F/Bj2lv8Z5LO9lfx75FmAPpUHRv8M2Dd6CyB5gGnA/+iKzZFBqe6uvyTwHG0cx/SiMeBt+qEv/6oAaiBmW0F/BzYKDpLsMeBfwDOdvcF0WFEmsLMxgBHAv9Kuz9sQLrVby93vzs6SOnUANTEzDYBrgA0HQ43AB9296uig4iUzszeAHwR2DU6SwbuJU3761a/GmgPQE2qv5CTgZujs2RgV+BKMzvPzNq6PinSFzPb2MzOA65ExR/S2DpZxb8+agBq5O6PkpoAHUGZHArcaWYnm9na0WFESmBma5vZycCdpJ8hSWPq5GqMlZpoCWAAzGxF4ExgSnSWjDxLmsb8grs/FR1GJDdmtibwUeDDgM7ZeNFU4Bh3fyE6SNOoARggM/t74HOALtR50dPAacDp7v5MdBiRaGa2GmlX//HA6sFxcuLAJ9z936KDNJUagAEzs8OAs4FxwVFyMxM4BTjD3WdFhxEZNjNbBTgWOBFYKzhObuYCR7r7edFBmkwNwBCY2WTgv9AP+dI8AXweOMvd23i8srSMma0MHA2cBKwTHCdHM4G/dPcro4M0nRqAIanOCpgGbB6dJVNPAF8GznT3GdFhROpmZhOAY4C/RYV/Wf4A7Ktn/IdDDcAQmdkrgEuBSdFZMjabtGRymrvfG5xFpG/VUdnHkw7yGR+bJmvXkS71+d/oIG2hBmDIqum/b6HHe0azALgYOFXXD0uJqut5TwAOQo9cj+Z84H1aBhwuNQBBzOx40tr3itFZCnA1acPgD3XEsOSsOrJ3f9LGvj2C45TgBeAkdz8tOkgbqQEIZGZvJHW+bT/bu1N3k64+/Y72CUhOqvX995I2920VHKcUjwOHuvuvooO0lRqAYGb2SuBCYPfoLAWZC/yAdEDIL11/iSWAmRnwJtKBX+9Aj/p241rgYHd/ODpIm6kByICZjQX+g7RDWLpzD/B10g2Ej0eHkeYzs3VJG/qOAraMTVOkM4GPuPu86CBtpwYgI2Z2OPBVYOXoLAV6HvghaVbgp9orIHWq1vb3Jn3a3x9YKTZRkeYAH3L3c6KDSKIGIDNmtjNpenuz6CwFexA4Dzjf3W+IDiPlMrNdSU/sHAboZsve3Qe8w91vig4iL1IDkKHqUpBzgX2jszTAPcAFpGbglugwkj8z25FU9A9BU/x1mAa8W5eA5UcNQKaqDUYnAv+CphvrchfpqYvz3X16dBjJh5lNJBX9Q4Gtg+M0xfPAJ4FTtFE3T2oAMmdmrwa+hx4tqtvtpJmBS4GbNUC1S9Vg7wQcQPqkv11sosa5G3iXu/8uOogsmxqAApjZeOB00gYkqd+jwOXAZcDP3P3p4DwyAGa2OvBWYD9gH2D92ESNNRU4zt1nRweR5VMDUBAzO4j0wzUhOkuDvUB6RvkyYJq73xycR/pgZjuR9tLsRzprQydvDs4MYIq7XxwdRDqjBqAwZrYBcA6wZ3SWlniEtInpF8DV7v5AcB5ZDjPbhHQE71tIhX+D2EStcQVwuLs/Eh1EOqcGoEDV+uUJpA2CY4PjtM3DwDWk+wmuBm5y9xdiI7WTma0I7Ewq+HsArwdeGRqqfeaRNvqdqn005VEDUDAz24W0QXCb6CwtNhu4ntQMXANc6+5/io3UTGa2Bmka//Wkgr8bul430p3JpegiAAAF9ElEQVSkjX43RgeR3qgBKFy1QfBzwN+hK0dz8QBwyxJfv3f3+aGpCmFmKwCvAnZc4muTyFyy0ALgS8AntNGvbGoAGsLMXkc6E3+H6CyyVM8B01m8KbgDeLStU6fVUtb6wLYsXugnAi8LjCbLditwlLv/OjqI9E8NQIOY2UrAx4B/RDeTlWIuacbgftJxqSO/3gfc7+5PhCWrgZmtA2xKOtp65NeR32+C/p6WYi7wWeBkd38+OozUQw1AA5nZ1qTHBSdHZ5G+zSY1BY8CT1ZfM5b1e3efNcgwZrYK6THUtauvZf1+fVKR1xp9+a4kPd53V3QQqZcagIaqplc/CHweWC04jgzPc8CzpN3Z80if3Jb3K6QnScaN8utYYFU0Nd8mzwAnAV9r6zJV06kBaDgzeyXp/u0DorOISDEuBY5x94ejg8jgaNd4w7n7w+5+IOm888ei84hI1h4DDnH3A1X8m08NQEu4+4WkW85O4cWpXxERSGPCKcDW1VghLaAlgBYysy2B04D9o7OISLgfAse7+z3RQWS41AC0mJntDfwH6blrEWmX6cBH3P2n0UEkhpYAWqz6wd+JdIrgU8FxRGQ4niL9zO+k4t9umgEQAMxsAvAZ0qODKwTHEZH6zQe+BnzK3WdEh5F4agBkMWa2PXA6um5YpEmuAI5z99uig0g+tAQgi3H329x9L2A/4LfReUSkL78F9nP3vVT8ZUmaAZDlMrMDSUsDO0ZnEZGO3UKa6r8kOojkSzMAslzVALIzcCjp9joRydcdpJ/VnVX8ZTSaAZCOmdkY4N3Ap4Atg+OIyIvuIc3UnevuC6LDSBnUAEjXzGxF4AjStcObBMcRabMHSNf0ftvdX4gOI2VRAyA9M7OxwFHAx4GNguOItMlDwL8DX3d3He0tPVEDIH2rZgQOAU4AdgmOI9JkNwKnAhfoE7/0Sw2A1MrM3kxqBPYFLDiOSBM4MA041d3/OzqMNIcaABkIM5sIHA+8BxgXHEekRHOB7wKnufv06DDSPGoAZKDMbF3gWOBoYK3gOCIlmAmcBZzh7o9Hh5HmUgMgQ2Fm44H3AcehRwhFluYe0jHc33L32dFhpPnUAMhQmZkBbwGmAAcBY2MTiYSaB1wMTAV+4RqQZYjUAEgYM1sbOJzUDGwTHEdkmO4kFf1z3P3J6DDSTmoAJAtmNpnUCLwTWDk4jsggzAEuAqa6+5XRYUTUAEhWzGwN0pMDU9AFRNIMt5A+7X/X3f8UHUZkhBoAyZaZ7UZaIngnsE5wHJFuPEH6tH+Ou18fHUZkadQASPbMbAXgTaTTBv8KmBAaSGTpZgDfBy4Afunu84PziCyXGgApSnXs8J6kZuAgYM3YRNJyT5F28V8AXKHjeaUkagCkWGa2ErA36f7zA4HVYhNJSzwDXAKcD/zU3Z8PziPSEzUA0ghmNg7Yh9QI7AusF5tIGuYx0nn8lwCXu/vc4DwifVMDII1THTa0M6kR2BfYHVghNJSUZj5wLanoTwNu0iE90jRqAKTxqkcL9yY1A/ug2QFZuseAy0kF/6d6ZE+aTg2AtEo1O7ALL84OTEKzA201H7iOFz/l36hP+dImagCk1cxsFWA3YI/qaxKwemgoGZSnSQX/6urrenefFRtJJI4aAJFFmNkYYHvg9bzYFGwWGkp6dR8vFvtrgNvcfUFsJJF8qAEQGYWZrc/iMwQ7AuNDQ8mSZpOO3F34Cd/dH42NJJI3NQAiXapmCTYnNQIjXzsAWwAWGK0NHLgX/n97d8+CMAyEcfyfwRdw0yIOujj7/b+Izl10Euum+DLEIQnRuFRoCZHnB8clW+hyV5pybHEFP0Stt3uR36gBEOmIv0+wITYEIU9znqtgZ2KhD3mn7/Yi3VADINIzY8wcd48gjTWwAgb5TpfVE9gDNe57/UdYa48Zzyby99QAiGTkBx0t+W4OFkCFG3w0o7w7B1fccJwGOOH+sU+L/EEDc0TyUQMgUgBjzJjYDISokv0EGAFDn9usAe7Aw+c26wuxuIcC/75vrLW3Pp6DiHTnBa+ZUBdv0b29AAAAAElFTkSuQmCC;" vertex="1" parent="1">
          <mxGeometry x="1057" y="305.5" width="30" height="30" as="geometry" />
        </mxCell>
        <mxCell id="ckwtcuSyuOzhh80tvO_Y-6" value="" style="shape=image;verticalLabelPosition=bottom;labelBackgroundColor=default;verticalAlign=top;aspect=fixed;imageAspect=0;image=data:image/png,iVBORw0KGgoAAAANSUhEUgAAAgAAAAIACAYAAAD0eNT6AAAABHNCSVQICAgIfAhkiAAAAAlwSFlzAAAOxAAADsQBlSsOGwAAABl0RVh0U29mdHdhcmUAd3d3Lmlua3NjYXBlLm9yZ5vuPBoAACAASURBVHic7d13uF1FvfDx70kllFBCC71oQJAO0lSU3kVFmgpW9Cpe9Ypieb3X+t6LBcUKKirqxYp6kaLIVamigEJC0dACCYEQiJSQnpz3jznn5RjOOTl77ylr7fX9PM88oc6e315rr9/MrLVmepCq6XnAicARwNbA+sDjwIPAlcCPgTuKtU6SJEW1HnAesBToHaYsB74PbFymmZIkKZbtgekMn/hXLrOAPUs0VpIkdW4yMJPWkn9/eRLYIX+TJUlSJ3qAG2gv+feXO4CxuRsuSZLadzKdJf/+ckbuhkuSpPbdRJwOwP25Gy5JktqzKbCCOB2AXmDXvM2XpHoaVboBary9CM8AxOIbAZI0AnYAVNrkyPVtErk+SepKdgBU2poVr0+SupIdAEmSGsgOgCRJDWQHQJKkBrIDIElSA9kBkCSpgewASJLUQHYAJElqIDsAkiQ1kB0ASZIayA6AJEkNZAdAkqQGsgMgSVID2QGQJKmB7ABIktRAdgAkSWogOwCSJDWQHQBJkhrIDoAkSQ1kB0CSpAayAyBJUgPZAZAkqYHsAEiS1EB2ACRJaiA7AJIkNZAdAEmSGsgOgCRJDWQHQJKkBrIDIElSA9kBkCSpgewASJLUQHYAJElqIDsAKu2ZitcnSV3JDoBKezhyfQ9Frk+SupIdAJV2a+T6botcnyRJSmQq0BuhPAT0ZG67JNWSMwCqgnMj1tMbqS5JUs2MBl4JfBu4A3gc+AdwJ3AhcDwwpljrNJjRhFsBnYz+7wMm5G64hjUKOAb4JnA78BjwBHAX8APgRGBcsdZJ6ipHERL9qpLFdOC4Qm3U4LYG5tJe8l8A7JG/yRrGwYzs1s59hI6AJLWlB/gYsILWEsfZeBukSvYEZtHaMXwMeHmJxmpIZwHLae04fgln5iS14WO0P3X8I7zwVMlk4MeMrDN3KWHmQNXxn7T/W/xqgfZKqrGjaH3kv3L5HuE+tKpjd+DzhFs6CwnHaTHh9s1XgP3LNU1DOIfOfoe9wOuzt1pSLY1mZPf8nQmov7VLN0DD6mTkP7A8BKyeue2SauiVxLnoOBMgtS/GyH9geUve5kuqo+8Q98LjTIDUmlgj/4Hlf7JGIKmW7iD+xceZAGlkYo/8+8ucnEFIqqd/kOYC5EyANLwUI//+shwYmy8USXU0j3QXITsB0uBSJn87AJJGJNYbAMMVbwdIz0o17T+wPJotGkm19V3SX4ycCZCC1CP//vKrXAFJqq/jyXNBciZATZdj5N9f3pYpJkk1Npqws1iuC5MzAWqiXCP/XmA2sEaesCTV3XHkuzg5E6CmyTny7wXenCcsSd3ibPJepJwJUBPkHPn3AhfmCUtSNxlFGJk7EyDFkXvkfykwLktkkrrOKPK9FeBMgLpZ7pH/FcBqWSKT1LXsBEidMflLqi07AVJ7TP6Sas9OgNQak7+krmEnQBoZk7+krmMnQBqeyV9S17ITIA3O5C+p640m/zoBFwI9OYKT2vBZ8v4eLgXGZ4lMklZSYibgIzkCk1r0Rhz5S2qY3DMBy4EXZYlMGpkpwBIc+UtqoNydgKvyhCWNyI8w+UuiufeoRwHfBk7L9HnPB+7J9Fl1NAaYtFIZC6xNOFZjgLWAp4FlwGJgQd//+xgwd0BZkbPhNbMeMIc8D6j+GnglsCjDZ0lqQ1OfVF9B2HZ0FPD6DJ93BPDlDJ9TZesAOwM7AFsNKFsDG0b6jBWETsCjhA7X3QPKdODhSJ9TV4eT5zd/GfBqQkdNUkU1tQMA4f78GwhJI/VMwPaJ66+adYB9gf2AXYGdgC0zfO4oYKO+stMg//4x4GbgpgF/NqlTkOM8/DVwPCZ/STWQ45mAn2WLpox1gdcA5wHTCJ2rXPeZOy0PEG4HnULoOHSzr+M9f0n6J6lfEfx2tkjy2QX4MHAtsJTyiTxGWQHcRnhHfj+67xmZlO/++6qfpNpKORPwiYxxpLQj8DHgLson6xxlJnAucDDh/Ki7d5Pme3LkL6n2Us0EvCxfCNFtAJwJ3EH5hFyyzAI+DWzT2ddZ1E7E/14c+UvqGrFnAh4mvNJWJz3AQYR3xhdTPvlWqSwHrgROAMa1+wUX9DfifReO/CV1nZgzAe/M2/SOjAfegqP9kZY5wEcJ79fXxcnEid2Rv6SuFWMm4I/UY5S4HvB/gEcon1TrWJ4GvgBs3uoXX8Aowqt6ncTryF9S1xtN+zMBM4FNsre4NWsTHup7kvJJtBvKEuA7hAWOqmxd2n+Q8xJM/pIaogc4i9bebb8F2KJEY0doTcIrfPMonzS7sSwGvkh4gLKq1gN+S2txnU+zFw+T1FB7Ezb2Ge4C+TBwBtWd9h9FWP1wNuWTZBPKU8C/EzpcVTSasDXwAwwfxw3U+00WSYPotoVOctgGOArYjrBy3DPAg8DvgesIi+JU0V6Ed9r3Ld2QBnoY+CDhmZIqGk3o4B5M2JthTcKyyXcDlxPeHJAk1cwkwnMMKyg/Im56uQLYdtijJUlSBCfik/1VKwsJrw5W9TaRJKnGJhOe1i6d7CxDl78QllaWJCmKwwn3nEsnOMuqy0LCGyajBj2SkiSNwBqE17RKJzVL6+UqYLPnHlJJkoa3A83Zoa9by6OE/RckKQtfA6y/4wmrz1X1XfORWkJYW/9xYC5hkaIn+/7dYmABMIFn159flxDzRoQFdzag/mvTLycs0PRZQqdAkpKxA1Bfo4H/JGzVW6fjOAuYCkwD7gTuA2YQFida0WHdGwLPG1B2BHan+kvzruxiwgI9T5duiCSpWtYivFNeetp6VWUxYXGks4FjgfVTfBkjMAk4BPgP4A/AIsp/N6sqtwNbJvguJEk1tSlwK+UT1FDlQeA84DhCR6WKJgAHAp8D7qX8dzZUeQjYNdF3IEmqkV0IU+ilE9PKZRZh85t9qdftiH47E9bs/zvlv8uVy1OE2QtJUkPtDzxB+YTUX5YAPwMOo7veY98f+AbV+65PTRm0JKmaDgLmUz4R9RIWGfoI4en7brYG8A6qMyuwHDg9acSSpEo5mrBiXOkEdDvwJmB82nArZxThGFxN+WOwAnh72nAlSVVwNOFJ+pJJ52/ASXTXNH+7DiK81VC6E/CO1IFKkso5iLIj/5nAaYT1BvTPDgVuw05AK0YTFm9aF9gY2KavbDbgn08o1jqpger4xHYT7A/8hnAfOreFhNfjzgaeKfD5dTEaeCvwScqsb7ACOBn4SYHP7rcaYZGlLQf8uSlh3YX1+v7sLyO1hPDmw5OE1SDn9JXZfX/eT3h18/6+/1aSusYulHsC/VJcfKZV6wBfITykl/t4LQJenj5ExgO7Ed5E+AxhEaoHM8Q3XFlGWEHyN31tOpWw6mPTnlGR1CU2o8x7/o8SRpNq34sp88bAE4ROY0ybAycS1na4kTDSLpnsWylLgD8B5wKnUL9loCU10FqUWeHv55RborfbTCCMRnPPBsyms5mbSYSEfwHlR/Ypyn3Atwgdgo07+J4kKbox5F/bfz7wlhzBNdDBhPUSch7Pv9DaQ3S7AB8njJaXZW5rybICuAn4KC6zLKkCPkPei+A0YEqWyJprI8L96ZzH9furaNMehB0k787criqXGcAHae1BRUmK4jWEUUmuC96PKPN2QRONAj5F3uP7npXasDlhtHtPxjbUsTxO+C1KUhY7EPZ8z3GBWw6cmScsreQkYAF5jvNS4HDCPf3fUObthDqXjw5xDCUpmjWAu8hzUVsAvCpPWBrCHoSH9UonOMuqy9uGOIaSFMX55LmYzQH2zhSThrc13n+vQ5mPrw9KSuQ48lzIZgEvyBSTRmYj4K+UT3KW4ct3hzh+ktS2TYC5pL+A3U9Ya13VszbwR8onOcvQ5Zm+4yRJ0VxCnuS/Ra6A1JZ1CO+jl050lqHLUUMePUlq0Umkv2jNwpF/XaxHmdUfLSMrHx760En15x7v+UwirE+e0lzCKnT3Jf4cxTEPOITwYKCqZ63SDZBSsgOQz+eBDRPWvxA4Bvhbws9QfHOBI/v+VLUsLd0ASfW3L2lXg1uO7/nX3V6EB89KT3tbni2nDHvEJGkVRpH+YS9X+Ku/1YDLKZ/0LM+W5w17xCRpFd5I2ovUD/OFokR2xrUBqlauGfaISdIqrEna5V+n4cY+dTYW+BiwhPIJL3VZRHjocR7wEHAv8EDf3+faJ6GVcszQh03qDmNKN6DL/SswOVHdzwCv7vtT9TMFuIiwR0DdzSDsNvgA8GDf3z9E2GHvcUKSH8l5uhbhmrRuX9liQNl8wF+n+k31uwj4VeLPkNTF1iFc+FKNUN6SLxRFdiLwFOVHua2WJYTnWb4MvBXYhzKvyq0LHAS8n3AL7O/Ee8j2BmBivlAkdaOPk+5C/POMcSie8cBXKJ/IR1oWAlcCHwBeDEyI/5VEMxE4gHBL5UZgGa3H+wvCbTtJatsk4EnSXJTnAOvnC0WRbE09lv69F/gccCjVTvirMomw8uZ3gYcZPuapwAlFWikV1FO6AV3qo8AnEtV9Cj75XzcvIczaVLXjdhfwM0Ibby3clhR6gJ0I63HsRHj4sge4A7geuLlc0yR1k/GsesTRbrk8YxyK42TCVHrpkf3K5QngfMLUviQpgreQ5oK9ANgyYxzqzCjgM5RP9CuX6wmdktXShS5JzdM/rZjiwp3qloLiW43wQFnpZN9fFgEXAnumDFodWx/YBF/PlmrpYNJcwGfhgj91sSbwW8on/f7Efz6wWdKI1a7VgXcSzpeBt4mWA7cBn8ZZP6k2fkyaC/kbMsag9m1AeKCsdOKfD5xN2t0n1ZnXMbJVQhcBnyU8WySpotYn/FhjX8yn45RgHUwmvE5WMvEvB75H+pXy1L5RwBdo/dheT+hgSqqgM0lzUT8pZxBqy5bA/ZRN/r8Etk8dqDr2Sdo/xjfgTIBUSSke/rudMGJQdW1GWAe/VOK/Bzg8eZSK4RA6X7L4c9lbLWlYO5Hm4v6mnEGoZZMJ69CXSPwLCcve+jpfPfQAt9D5cV8MbJO57ZKG8SniX+AfwYt7lW1Iulc+V1VuBF6QPkRF9BLiHf9PZ267pGGkGAV+JGsEasVE4K/kT/wLgbOA0elDVGRnE+88mJa57ZKGsCvxL/RLgI1yBqERG0vYIS938p8G7JghPqXxa+KdC8sJ56Gkwj5C/Iv9T7NGoJHqAb5D/uT/PVwIqu5uJe454eJOUgVcR/wL/qFZI9BIpXjWY7jyNGHdftXfn4h7blR1Z0mpMdYFlhL3hz0LX/2rojeQN/nfS3i7RN0h5t4Qi3Ard6m4E4h/4T8nawQaid0IuzHmSv5X4zK+3eZ9xDs/fpu57ZIGcT7xL/77Zo1Aq7Ih8CD5kv95uPRzN9qW8PBejHPkjMxtlzSIacS9+D+IU3tVMhb4A3kS/wrgo1miUik/pPPzZDZhF0FJBa1LvB79wNGfqqOdTVvaKUuBN2eKSeVsAzxBZ+fKa7O3WtJzHEn8RHBc1gg0nCPpfN32kZTFwCszxaTyjgSW0d65cm6B9koaRCe7eg2VCNbKGoGGshEwh/TJfxFwdKaYVB2HA/9g5OfJCuC/8O0gqTIuJW4yuC5v8zWEHuAK0if/BcBhmWJS9WwNXMSqbyPeAhxUqI2ShjCTuAnhv/I2X0N4D+mT/xLgqFwBqdK2Jbwi+Avgz4QHi68g7B3wYnwoWKqc9YifFI7JGoEGM4Ww4U7K5L8cOClXQJKkuF5K/MTg0p5ljQKuJW3yXwGcnisgSVJ8byduYpiZt/kaxDtIm/x7gY9ni0aSlETMvb17CQ8UqpxN6fz97FWVH+P9XEkV4msl7dkqcn3TIten1pwHrJ2w/uuB0wgdAUlSjf2ZuKPD1+dtvgY4irQj/5m4sY+kClrVpiObE3ZC2xSYmL45w5pP2Cp3KnB/4bZsFbm+0vE01TjS7r64lLBj5KMJP0OSoukhvKZ0E3mWQm2n3EZYO310ou9gOGOJ/71smjUC9Yu5Retg5V35QpGkzmwK3ED5BD/ScithIY2cNorU9v6yGJ/FKGEDWluOtdXyk3yhSFJntgceonxSb7U8BuyZ4PsYyo6R2/9AxrbrWV8j3Tk5k7BbpCRV3nrAdMon83bLLGBy9G9lcAdEbvstmdqtZ21JmHlJcS4uBw7MF4okdeZ8yifxTsuPo38rg3tl5HZfmandetYFpDsPP5sxDknqyPMITyuXTuCdlhXA7pG/m8G8NnK7f5ihzXrW80l3vk8HJuQLRZLaN4rwxP+qXgesgx5Cck5tfOT6FkSuT8P7d9Kc772E5YQXJqhbkqIbBRxeuhERHZHhM8ZGrm9J5Po0tCnAyYnq/i5wVaK6JSm6UcA2pRsR0TakX2899gyAHYB83kuatSMeB85MUK8kJTMKmFS6ERGNB9ZM/BmxZwCWRq5Pg5sEnJqo7v8A5iWqW5KSGEO4cG1cuiGRLCEsGZzS4sj1jYtcnwb3dmD1BPXeQXiLRqqyzQgPSU8gvKo6HbgTWFayUSrvRso/wR/zKezU3hK5zd/I0OamGw/MJs05d0jGOKRWrAG8B/g7g5+7jwJfBrYo1UCV93HKJ+5Y5UuRv5vBvC5ymy/M0OamO5U059tvcwYhteAARr6y6zP4DEtj7UiYEiqdvGOU/SN/N4N5deQ251rAqMmuJc35tm/OIKQRej3trXXxTdyXpJG+T/nk3Wn5VfRvZXCx94+/LFO7m2o70uxq6XFTFR1EeBaq3fP63/M3WaVNJqynXzqJt1seA7aO/q0M7sDIbb85U7ub6mzSnHM5N6CSRmICcD+dndfLgL1yN1zl7Una7VFTlfnAyxN8H0PZLXL7H8rY9qYZCzxM/HPOBX9URe8jzvl9Se6GqxqmEF5rKp3UR1ruA3ZN8k0MbaNIbe8vS/G+WyqvIM15d1jOIKQRmkac83sFYY8YNdBY4Aw6n0pKWWYBH6DMxiuj6Owe22Blw6wRNMePiH/u3Ur61SalVm1O3PP8Q3mbrxJWdSHblbB4xGakWUSlFQsJ73LfSrhv3luwLTMJ30ks+wB/ilifQufwUeKvDPkGfHVT1XMwcV9LvY38s6tSLfyJuL3t0/I2vxGOI/7ofx5u96tqOoH45/t2WSNQdt57bs/syPW9IHJ9Cus1xPZ93O5X1ZRiCfTjE9SpCrED0J6ZkeuzAxDXeOCYBPW6bLOq6p4EdR6doE6p9t5O3Km2u/M2v+sdSvzp0D9mjUBqXey1XJYDG2SNQFk5A9CeOyLXty2wfuQ6m+zQBHVelKBOKaYrItc3Cjgicp1S7a1L/BHmUVkj6G63EvfYLCOslilV2ZHEvy65V4k0iNjTbZ/K2/yutRHx1/535T/VwVjir+b6KK570bW8BdC+2yPXl2MnwyY4mPgXrJ9Frk9KYSlweeQ6NyDsGKsuZAegfbE7AC8CVotcZxMdnKBOd/5TXfw8QZ0vS1CnVGuvJv79Nh+46dx04h6T2/I2X+rI6oQ1AWL+Bn6SNQJl4wxA+64h/Dhi8kHAzqxH/E1MYk+pSiktAK6NXOdLItenihhTugE1Nhe4C9ghYp1HETZiqosxhIfutgA2IeyPMJnwlsQYYC1gHLAG4fbGBMLoZCnhQrUYWNT3zx4lbN37MDCHsE3yo4SNl0ZqL+Lf//915Pqk1K4GDo9Y38aE3/asFv+//uvDpgPq2Jiw+dl4wnVh3Ep/LgOe7vv/FxKuE4+vVGYTNqubRbiWqE12ADpzDXE7AFsBLyT+8wWdmkB4EGgXYOe+MoXw4x6d8HOXEbZ8vgP4W9+fd/WVwZbkfVHkz1+MmzSpfq5JUOeeDN0BGE9YzXRHwvXrhX1/vSVpZ5mXEQYK/deIqX3lDtIsjSz9k5OJ/xxAFV4HfD7wNsLiN3cRfmix4+ykLCEk5nOAVxFGFQC/ivw5KS6kUmrjgGeI+1v49ID6NyZsPvRlQsJdGvmzOi3LgTuBbxF275zS5vcoDWsz4p+8M8j/bMamwKnAd4EH22hzFcrdxH/4qQqdMakdVxH3tzAV+CZhJq70b72d8ghhM69TcNVVRXQb8U/WAzK0exvgLODmBO3vlnJY29+uVNa/U/73U9WyDLgR+CDhOii17WPEP0EvSNRWk35rxY1QVFeHUP73U5fyZ+BMYPO2vmk12q7EPyGfAtaO1L6xhPt1f0jQzm4urT7xLFXJJpT/DdWtLAMuBY7DB+TVgvuIfzL+W4dt2gz4BOGVmdI/rDqWX7X+lUuV8jjlf0d1LbOBT/LsA8bSkM4h/gl4P+29Yrc3cDHVezK3buWTrX7xUsX0L1Zmab8sItySjfm6t7rMS0hz8r26hTbsTVi1rvQPplvKa1v47qUq+hrlf0fdUlYQZgX3bOkIqBFGEUbssU+6G0bw2ftg4k9R9h7Bdy9V2Tsp/zvqtrIC+CVhMTTp//s/pDnhjhzi816AiT9lmTTE9y7VxYGU/x11a1kO/IiweqvEpqRZMe82/nlhoDUIrx4uSvBZllDmIdXfFMr/lrq9LAbOJex7ooa7hDQn2fGETW5Oxaf6c5RbVz6wUg2tRfnfUlPKLMIqg2qwY0lzcv0duD5R3Zbnlt+sfGClmnqa8r+nJpUrCJsg1ULuNee73eWE3alimwLsl6BeDW5O6QZIkTxcugENczhhN9d3k3an1CjsAMS1jLBDlurtkdINkCKZXboBDbQm8EXgOmDbwm0Zlh2A+L4O/KN0I9SRFLM4UgnOAJSzD3ALYdv4SrIDEN9TwFdLN0Idua10A6RI/la6AQ23NnARYSviNQu35TnsAKRxLvBM6UaoLcvwLQB1Dzuz1fA6whbEU0o3ZKCe0g3oYl8A3lO6ERmsIEyZzyCshvgw8FhfeRxY2PffPdn3344jrGUAMBFYv69MImzHuWVf2ShL65/rJ8CJhT5bim0S8CCwesE2zCFcG+4nPJPwOPBo35/z+/6bZ4AlhF34+t+pX4PQ/vUJW3NvQlh4Z2tgcp6mR/ck4XXuS0o3BOwApLQZcDewWumGRDSfsHf2LcC0vnIn4Ycb20TghcBOhGU39wJ2I+02nb2EJYBvSvgZUm5fA/4lw+csIVwb/kqYebgVuIM0s6ETgB2BXQjXiD0I6/TX4XrbC3ycsFtrb+G2KKGzKf9eaidlPqGn+i5gd8rvkb06cADwUcK6CLFXXvxcvlCkbLYCniD+9WEJ8DvCMugvJSTlksYB+wJnAldS/dVSL+xrs7rU2oSprtInWitlNvAl4BBgfPyvJKp1gROAHxI6K53EfRXlOzhSKq8g3ILr9PrwJPA9wu9u7awRtG4N4BjgW4TbDaWvrYOV3xGuY+pS/0L5k2xV5QnC64sHUN8HQ1cnLJn8C2AprcV/PvbE1f1OJ6xd3+r1YRFwMWF78jpMsQ9mLHAEYdS9gPLX3IHlDsLzDepCYwgHuPRJNli5AXgDZR8QSmEy8CHgHoaP/4+EkZHUFPsSnk0ayfXhHuADhIfwusk6hK2Sb6P8NXjgd71VwphV0JGUP8H6y1LCNpZ7JY24OnYE3k8Y5X+fMB34TsJDQ1ITjSKM5n/Nc6fGZwLnAYdS39nAVhwIXEac2yOdlgep2GuCiuNFhAdmSp5ciwlPA2+VNlRJNbMJ4a2lqt/TT2lHwoI9yyl7nX4Y2C5xrMpoV8L+8iVH/Bdg4pekVdkR+BllZwRmEtY6UM1NIfToSp1IVxHekZUkjdyehM18Sl27H6BG2wrrubYirJBX4uS5Gzg6eYSS1L16CKv2lRrE3UlYCVE1MxGYSv4TZilhH4L+pXYlSZ1Zh/AQcYnbAtdS31cvG2kcYXGH3CfKVMJqfZKk+A4k7GeQ+9r+Q1y2vxZ6CKtk5Tw5VgDnUP1V+ySp7tYGfkD+TsD/zRGcOvM+8p4UjxCW7JUk5XMK8BR5r/cnZYlMbXk5rS9B20m5GZ8SlaRSpgC3k++aP5+wQ6oqZnPybvpzHq5dL0mlTSTsP5Lr2j+dZi/YVDljgBvJc/CXA+/NE5YkaQRGAZ8lXyfg53nC0kh8kjwHfSFwYqaYJEmteTP5lnw/PVNMGsaLgWWkP9hPAPtnikmS1J5XErZPTp0T5gPbZ4pJg1ibPO+EPkZYllKSVH2HAc+QPjfcgs+CFfNN0h/gucDOuQKSJEVxAHk6AR/LFI8GeBnpl4V8Akf+klRXBxOe3UqZJxYTdjBUJqsD95D2oD4N7JsrIElSEseS/sHAGwhvIiiDz5D2YC4FDs8WjSQppTeRNmf0Au/KFk2DbU/63tw7skUjScoh9eviTwIbZ4umoS4j7UH8TL5QJEmZ9AAXkTZ/nJctmgY6hLQH7ypgdLZoJEk5TSC8upcqhywH9sgWTYOMAe4i3YG7H5iULRpJUgnbAvNIl0t+ly+U5ngD6Q7YYnzdT5Ka4hjSvkbuFvERjQXuJd3BOitfKJKkCvga6XLKnwnPHCiCt5PuQF2D9/0lqWlWA6aSLrcclS+U7jUOmEmaA/Q0sGW+UCRJFbIHYd2XFPnl5oxxdK03kq6H9q8Z45AkVc9nSZdjDs4YR1e6lTQH5kac+pekppsA3E2aPHNFxji6zmGkOSjLgF0yxiFJqq4jSJNrVgA7ZYyjq1xJmoPiak2SpIFSrTL7nZxBdIttSfOe5j+ADTLGIUmqvucR1oSJnXMWAusN9aFuITi400nzHuXZwNwE9UqS6use4JsJ6l0NeG2CervWWGA28Xtic4G1MsYhSaqPycAC4ueeqTmDqLvjSXMv5r05g5Ak1c45pMk/++QMos5+Sfwvfw7hdQ9JkoayEeG+fewc9JWcQdTVRNJ8+R/NGYQkqba+Qfwc9ChhV1sN4zTif/HPAOvnDEKSVFvbAcuJn4sOzBlEHaV4F/P8rBFIkuruUsxFWa1Fmvcwd88ZhCSp9o4lfi6ag6/+D+k44n/hN2WNQJLUDcYAs4ifk/Yc+CH2Bp51RII6v5WgTklSd1sGfDdBvSnyXFd4gLg9rSUM4zmEEAAAFOZJREFUswSjJEnD2J74MwDXZ42gJnYg/hd9WdYIJEndZipx89IyYN3+yr0FELw0QZ0/TlCnJKk5YueR0cB+/X9jByDYN3J9y4FfRa5TktQsv0hQ5/4J6qy1e4k7zXJd3uZLkrrUDOLmp6v7K3YGIKy9vE3kOq+IXJ8kqZl+E7m+vYHxYAcAYK8EdcY+YJKkZoqdT8YDLwQ7AAC7Rq5vPnBr5DolSc10DWHqPqadwQ4AwE6R67uR8KqFJEmdegyYHrnOncAOAMAuketzoQVJUkyxHyy3AwCsBjwvcp03R65PktRssfeVsQMAbEVYGCGm2yLXJ0lqtqmR69sIWNMOQFxPEHZwkiQpltuJ/yDgVnYA4ppG/IMkSWq2pwkLAsW0tR2AuO6NXJ8kSRA/vzR+BmCzyPXNiFyfJEkA90eub/OmdwA2iFxf7AMkSRLEH2BOanoHYL3I9c2MXJ8kSQAPRq5v/aZ3AGLPAMyNXJ8kSRBWBIzJGYDI9c2LXJ8kSQCPR66v8R2ANSPXF/sASZIE8WcAGr0Q0FigJ2J9S4DFEeuTJKnf/Mj1jW9yB2B85PqWRK5PkqR+sXPMuCZ3AMZFrs8OgCQpldgzzI2eARgbub6lkeuTJKmfMwARLY9cX+xdBSVJ6jcmcn3LmtwBiN6bilyfJEn9Yj+3trjJHYDY91PsAEiSUon+3FqTOwCxZwDG420ASVIaEyLX1+gZgF5gUcT6eoB1I9YnSVK/SZHrW9jkDgDEX7o39gGSJAlg/cj1Pd70DkDspXtjHyBJksAOQHSx11aeHLk+SZIANo5cX+M7ALFnALaKXJ8kSQDbRK7vsaZ3AB6OXN/WkeuTJAniDzAfaXoHYEbk+uwASJJSiJ1fZtgBiGvHyPVJkjQGmBK5zvua3gG4P3J9W+BaAJKkuLYn/lLAjZ8BiN0BANgpQZ2SpOaKnVfmA3Ob3gF4Apgduc7dItcnSWq23SPXdydA0zsAAFMj17d/5PokSc0WO6/cBnYAwA6AJKm6JgB7RK5zGtgBgPgdgE1wQSBJUhx7EX8r4NvBDgDAXxPUeUiCOiVJzRM7n6wAbo1cZ231EJYE7o1Yfp41AklSt7qJuPlpWt7mV9+lxP2CnyL+lI0kqVk2AJYTNz99vb9ybwEE10euby3ggMh1SpKa5Wji5+kb+v/CDkBwXYI6T0hQpySpOVLkkRT5rtbGEhYFijnNMg9vA0iS2rM+sIS4eenegR/gDECwFPhd5DrXBQ6OXKckqRleTRicxnT5wL+xA/CsXyeo800J6pQkdb83J6jzigR1doXNiDvV0kuYWZicMwhJUu3tTPx8tBBYfeCHOAPwrFnEXxRoDHBa5DolSd3trQnqvApYkKDernEW8XtdM4l/H0eS1J0mAk8SPxe9NmcQdbQ1YZlEv3hJUgkfJM30/8ScQdTVn4n/5d9GWHJYkqShjCXMGsfOQRfnDKLO3kP8L78XODJnEJKk2nkbafLPa3IGUWeTgEXEPwA34yyAJGlw44EHiZ97HuurWyP0I9L0wl6RMwhJUm28izR553M5g+gGB5LmQNxOeDVQkqR+E4FHSJN3ts8YR1foAaaT5mCckTEOSVL1nU2afHN1ziC6yTtJc0DmEZ4zkCRpG9I8d9aLt53btjrh4YkUB+W8jHFIkqrrMtLkmb/jar8d+SRpDswKwnMGkqTmOoU0OaYXOD1jHF1pY8IKSikOzt+A1fKFIkmqkEnAHNLklznAhHyhdK8vkK6H5usZktRMqV437wX+LWMcXW0D4GnSHKTlwMH5QpEkVcBppEv+s1lp2191JtUrGr3AQ/hWgCQ1xTak2e2vv7wzXyjNsD5pD9hl+LSmJHW7CcAtpMslD+Cyv0m8n3QHrRf4eL5QJEkFXEDaPHJivlCaZRxwN+kO3HLgmGzRSJJyejtpk/+1uOFcUseS9gA+DeyWLRpJUg4vBxaTdgC5V7ZoGuw3pO0EzAI2zxaNJCmlnUj7DFkv8M1s0TTcNsAzpD2YU4H1cgUkSUpiC+BB0uaLRzBfZHUmaQ9oL/AnYK1cAUmSotoQuIv0ueKEXAEpGAPcTPoDezUu6CBJdTMJmEb6HHFJroD0z3Ym3RaOK3cCnAmQpHrYmHAbN3VumAdsmikmDeJ9pD/IvYTZBlcLlKRq24KwDW+OvOA7/4X1AFeS52DfBmyWJyxJUot2BGaQJx9ckCckrcomwFzyHPRZwK55wpIkjdCBwD/IkwemA2vmCUsjcRhhIYYcB/8p4Og8YUmSVuHNpF3kZ2BZgIPASvoIeU6AXmAF8F+4gZAklTIeOJd81/1e4A05AlPreoBfkvdkuAwfDpSk3LYgrNWS83r/lSyRqW1rA3eS96SYBRyUIzhJEieS735/f7mGsCGdKm4rwtKMOU+O5cBngNXShydJjTQR+A55r+29hNcKnemtkT2A+eQ/Ue4hPI0qSYrnKNKv6T9YeQx4fob4FNlxwDLynzArgK/j5hCS1KlNgZ+Q/zreS3jif7/0ISqVU8n3euDKZR7wbsK+BZKkkZsAnEV47brE9XsJYdZBNXcGZU6g/nI78ArCWwqSpKGNJgzcZlDumr0MOD5xnMrog5TtBPQCNwFHpA5UkmpoFHASebbvHa4sB05LHKsK+ADlOwG9wF8JPdyxacOVpMobT7ge5n59e7CyDHhT2nBV0hmEh/RKn2i9wAOETslGSSOWpOrZEvgEMIfy1+JewlLCr0kasSrhjZR5O2CosgT4GeH2gLMCkrrVaoR761dQ7uHswcpCfOCvUY4DnqH8ibdyeQz4BmFlQd8ekFR3qwHHAN+n3BP9q7rmvjhZ9KqsF5F/xcBWypPAxcBbCasbSlIdbA+8C7icag60+svdwJRE38GI+GpYWVsTNvR5QemGjMBDwHXA9cBfCK8XPlm0RZKabj1gF2B3wkh6P2DDoi0amRsIr2c/VrIRdgDKWxu4kHAy1M0MwtOz9wH39/39w4ST+jHChhmS1I4ewhr4/WVTwqBpa2AbYMe+f1Y33yI8EL64dEPsAFRDD/BhwlOpowq3JbanCA/cLCXsjyBJQ5lIWIxnLLBm4bbEtohwa+JbpRvSzw5AtRwG/ABYv3RDJEnRzCC85ndz4Xb8k24bbdbdb4AXEh5ekSTV308JzyhUKvmDHYAqmgMcDbyHCtwjkiS15WngbcAJVPR5KG8BVNsuwLcJvUdJUj38L+EV6vtLN2Q4zgBU223A3oTZAB+gk6Rqe4Iw6j+Eiid/cAagTrYFzgMOLt0QSdJz/IgwWJtTuiEj5QxAfdxL6FUe2/fXkqTy/gocAJxMjZI/hPctVS/TgfMJtwT2JmxnKUnK61HgvcC/EF7zqx07APW0nLAk7zcIO0ntgR0BScrhaeCLwImEJX17yzanfT4D0B02Bj4EnE7Y/UqSFNdThMR/Dl2yD4odgO6yIfAOwjrTkwq3RZK6wRzCA9hfAuYVbktUdgC60xrAm4F3EzbNkCS1ZhphtH8RsKRwW5KwA9DdRgEHAqcCxwMTyjZHkiptEfArwvNV/0uN7++PhB2A5tgAeD3hVZU9C7dFkqpiBeGh6ov6ylNlm5OPHYBm2pbwBOsJhOWGJalJeoEbgZ8QNut5qGxzyrADoI2BQwkbEB0KrF22OZKUxHzgD4Qp/suBWUVbUwF2ADTQOGAf4MXA/sB+wDpFWyRJ7ZlLeE//WsIU/02ENVTUxw6AhjMK2AHYDdiJcLtgJ2ByyUZJ0koeJDy1Pw2YCvwF+HvRFtWAHQC1Y11g676yVV/ZBFifsP7ApL6/HlOmeZK6xBLg8b7yWN+fDxF22pvR9+f9NOjBvZjsACi1iYQlp/cALiHfq4jzCQ85OgoYmbHAd4B9M37m14DPZ/y8unsV8NmMn3cf4fXhnKvePUWYpl+KW6BLXeEFwMOEJ29zlPnAy3IE1iXGAj8n3/HpJbxn7QBk5F5FGA3nOj4zCDN7ktQ2k3+1mfyrz+QvqXZM/tVm8q8+k7+k2jH5V5vJv/pM/pJqx+RfbSb/6jP5S6odk3+1mfyrz+QvqXZM/tVm8q8+k7+k2jH5V5vJv/pM/pJqx+RfbSb/6jP5S6odk3+1mfyrz+QvqXZM/tVm8q8+k7+k2jH5V5vJv/pM/pJqx+RfbSb/6jP5S6odk3+1mfyrz+QvqXZM/tVm8q8+k7+k2jH5V5vJv/pM/pJqx+RfbSb/6jP5S6odk3+1mfyrz+QvqXZM/tVm8q8+k7+k2jH5V5vJv/pM/pJqx+RfbSWS//mY/Fth8pdUOyb/ajP5V5/JX1LtmPyrzeRffSZ/SbVj8q82k3/1mfwl1Y7Jv9pM/tVn8pdUOyb/ajP5V5/JX1Lt7AQ8Sr4L11PAi7NE1h1KJP+vYPJvRe7kfw+weZbIJHWtjYAHyXfhcuTfuq+SN/k78m/NHsAC8h2fGTjylxTB78l34XLk37pTyJv8Hfm3ZiLwEPmOjyN/SVEcQ74LlyP/1o0D7iPfMXLk37pPkO/4zMCRv6RI/pc8Fy5H/u05mXzJxZF/68YA88hzfBz5S4pmbfI8tOTIv30XkSe5OPJvz8vJc3xm4MhfUkQvxeRfdX/D5F9l78PkL6mGXkPaC5fT/p37B2mPkdP+nTmbtMfHaX9lMap0A5TdsoR1PwMcC1yX8DOaIOUx+gbwLkKiUXtSHp8HgIOBmQk/Q1JD7YMj/6qbiiP/KjsDR/6Samg88DRxL1ze84/r68RPLt7zj2d34h+fGXjPX1IGF+PIv8oOx5F/lfUQpuod+UuqnT2BFTjyr6oe4BYc+VfZO3DkL6mmvosj/yo7gPCwmSP/ahoL3Iojf0k1tBrwZxz5V9l7ceRfZVsCc3DkL6mG1gN+S2sXrpmEWwjK43RaW7lxBfAxTP65TAHuorXf0PXAxiUaK0kDjQHeDzzO8BetJYSn09cv08xG2w+4gVUnlptxZqaEdYBzgcUMf3yeAD5C2OxJKs5RgvqtDbwCOIIwqtmAcJ9/BmHzoJ8TnnxWOS8l7OS4DzCZ8Pt9mHAr51Ke3eJZZWwGvBI4BNia8Jt6HJgO/Br4JWGVR0mSJEmSJEmSJEmSJEmSJEmSJEmSJEmSJEmSJEmSJEmSJEmSJEmSJEmSJEmSJEmSJEmSJEmSJEmSJEmSJEmSJEmSJEmSJEmSJEmSJK2sp3QDpBY9HzgW2BPYBOgFHgL+DFwK3FuuaQLWAg4DDgE2A9YF5gLTgSuAa4BlxVqnHmAv4ChgJ2BD4BlgNnA1cBnheElSZewA/JKQ8IcqK4CfAlMKtbHJJgAfBv7B8MfobuDkQm1suoMIHeXhjs8i4AvApEJtlKR/ciJhlDLchWtgmQ8cX6SlzbQpq04sK5cfAquXaGwD9QBnETrIIz0+swgzBZJUzJm0duEaOBvw2gLtbZrtCLdgWj0+vcBvgTH5m9woo4Ef0N7xmQ/slr/JkhSSfzsXrv6yEC9gKW1HuHfcyTE6J3urm6OT5N9fHsDbAZIy+zc6u3D1l2tzN7whptD+yH9gWQbsmLntTTAa+B5xfkOfz9x2SQ3W6ch/5XJA3uZ3vRgj/4Hlv/M2v+vFGPkPLAtxFkBSBrFG/gPLF7NG0N1ijfwHlieBcTmD6GIxR/4Dy+tyBiGpeWKP/PvLX3IG0cVij/wHFp8471zskf/A8s2McUhqmBQj//7yaMY4ulWKkf/Acly+ULpSqpF/f7k8XyiSmiTVyL+/PJUvlK6UcuTfX1wcqH0pR/795ffZopHUGClH/v1lerZouk/qkX9/eVmmeLpN6pF/f7koV0CSmiH1yL+/XJwroC6TY+TfCywnrEmv1uQY+feXD2WKSVID5Er+vcCbM8XUTXIl/17gxkwxdZOcyb8X2CVPWJK6XY5p//4yl7BDnUYu17R/f/EVs9bkmvbvLy6mJSmKnCP/XuCMPGF1jZwj/17gr8CoLJF1h9wj/+XA/lkik9TVco78e4FfEHZC08jkHvnPA56fJbLukHvk30vY4lmSOpJ75H8DsGaWyLpD7pH/AuDlWSLrDqMJSybn/A1dgB1oSR3KPfK/AZiYJbLukHvkvwA4OEtk3aHEyP/beGtGUodM/tVm8q82k7+kWjL5V5vJv9pM/pJqyeRfbSb/ajP5S6olk3+1mfyrzeQvqZZM/tVm8q82k7+kWjL5V5vJv9pM/pJqyeRfbSb/ajP5S6olk3+1mfyrbTTwfUz+kmrG5F9tJv9qM/lLqiWTf7WZ/KvN5C+plkz+1WbyrzaTv6RaMvlXm8m/2kz+kmrJ5F9tJv9qM/lLqiWTf7WZ/KvN5C+plkz+1WbyrzaTv6RaMvlXm8m/2kz+kmrJ5F9tJv9qM/lLqiWTf7WZ/KvN5C+plkz+1WbyrzaTv6RaMvlXm8m/2kz+kmrJ5F9tJv9qM/lLqiWTf7WZ/KvN5C+plkz+1WbyrzaTv6RaMvlXm8m/2kz+kmrJ5F9tJv9qM/lLqiWTf7WZ/KvN5C+plkz+1WbyrzaTv6RaMvlXm8m/2kz+kmrpTEz+VbYdMJu8yf+gLJF1h9HAf5P3N3QBJn9JHToeWIHJv6omAfeQN/k78m/NOeRN/o78JXVsR8IF3+RfXb8lb/J35N+aE8mb/B35S4riEkz+VXY0eZO/I//WjAPuJd8xcuQvKYrtMflX3dXkS/6O/Fv3OvL9hhz5S4rmA5j8q2w9YCl5kr8j//b8hDy/IUf+kqL6KSb/KjuUPMnfkX/7ZpD+GDnylxTddZj8q+w00id/R/7t6wEWkfYYOfKXlMS1mPyr7FRM/lW3EJO/pBpKdQvA5B/HIaRL/k77xzGDNMfIaX9JSb0fk3+VpXgI0JF/XD/Gkb+kGtoOk3/V/QFH/lUW+zVAR/6SsvkfTP5VdhSO/Kss5kJAjvwlZbUDnS8FbPJP60oc+VfZCTjyl1RTnWwGZPJPbz3a3wzIkX8enWwG5MhfUlFvpPV3mi8G1izR2AbaBphKa8dnNrBvicY20Gjgc7R2fFYAn8bkL6kCXkQY0a/qwjUX+FfCQijKZ03gXFbdUVsO/BDYtEwzG+14RvZMwN+BYwq1UZKGdDDwVWAaMI+w2Ml9wC+BtwJrlWuagC2As4DfA7OAJcDDwI3Ap4AXlmuaCA8GngT8NyHRzweeBu4CLiR0EsYUa520Cv8PRQAhlGuX85AAAAAASUVORK5CYII=;" vertex="1" parent="1">
          <mxGeometry x="320" y="204" width="30" height="30" as="geometry" />
        </mxCell>
        <mxCell id="ckwtcuSyuOzhh80tvO_Y-8" value="" style="shape=image;verticalLabelPosition=bottom;labelBackgroundColor=default;verticalAlign=top;aspect=fixed;imageAspect=0;image=data:image/png,iVBORw0KGgoAAAANSUhEUgAAAgAAAAIACAMAAADDpiTIAAAAA3NCSVQICAjb4U/gAAAACXBIWXMAAA7EAAAOxAGVKw4bAAAAGXRFWHRTb2Z0d2FyZQB3d3cuaW5rc2NhcGUub3Jnm+48GgAAAZ5QTFRF////AAAAAAAAAAAAAAAAAAAAAAAAAAAAAAAAAAAAAAAAAAAAAAAAAAAAAAAAAAAAAAAAAAAAAAAAAAAAAAAAAAAAAAAAAAAAAAAAAAAAAAAAAAAAAAAAAAAAAAAAAAAAAAAAAAAAAAAAAAAAAAAAAAAAAAAAAAAAAAAAAAAAAAAAAAAAAAAAAAAAAAAAAAAAAAAAAAAAAAAAAAAAAAAAAAAAAAAAAAAAAAAAAAAAAAAAAAAAAAAAAAAAAAAAAAAAAAAAAAAAAAAAAAAAAAAAAAAAAAAAAAAAAAAAAAAAAAAAAAAAAAAAAAAAAAAAAAAAAAAAAAAAAAAAAAAAAAAAAAAAAAAAAAAAAAAAAAAAAAAAAAAAAAAAAAAAAAAAAAAAAAAAAAAAAAAAAAAAAAAAAAAAAAAAAAAAAAAAAAAAAAAAAAAAAAAAAAAAAAAAAAAAAAAAAAAAAAAAAAAAAAAAAAAAAAAAAAAAAAAAAAAAAAAAAAAAAAAAAAAAAAAAAAAAAAAAAAAAAAAAAAAAAAAAAAAAAAAAAAAAAAAAAAAA/yXdagAAAIl0Uk5TAAECAwQFBgcICQoLDA0QERITFBYZGhscHR4gIScuMDM1Njc4OTxAQkNFRkhJTFJTVVZXWFlaW1xdYGFkaWxtbm9zdnp8f4GCg4SFhoeJi46QkZKVlpeYoKWqq6ytrq+wtLW8vcfIysvMzc7P0NHW2tvc4OHi4+Xm5+jp6uvv8PL09vf4+fr8/f6nKq2tAAAKuUlEQVR42u3d15dUxR5H8R4HE4yKigEQFTHnhGLOATErV8CAjiIqZkVARQVU6P/a5RN33YdL1/SpOr+q+uznWbN6znd3z9onzEwmw7Jw81M7l384OcXgnPxh+T9P3bwwicy5j3xtqLx8/ci5Yec/+5kjBsrPkWfOjrn/hcvGKcPyhRH33+jTv9zvgY3x9t/8i13K8cvmaPtf8KNVSvLjBcEE2GmTsuyMtf+Np0xSllM3Rtr//O8sUprvzg8kwF32KM9dgQR4xxzleSfO/ou/mqM8vy6GEeAGa4zBDWEEeM4YY/BcGAFeNcYYvBpGgNeMMQavhRHgTWOMwZthBHjLGGPwVhgBthtjDLbHuRJgjDGIczXgnD+sUZ4/zolzKvAjc5Tno0DXAp4wR3meCCTA0kF7lObgUqQbAu40SGnujHVL0IcWKcuHwe4J3HDMJiU5tiHabcHbjFKSbfEeDHjZKuV4OeCTQWfttUsp9p4V8dmwpa8sU4avliYhWf+zbUrw8/pJUK4/YZ38nLh+EpaUFDhx24bybDrz69o0wsu6LeWds20SmJQU+HZt+dd34Zlf1gjP3q/9tvIAOM1CSgp8vIoA/7Lq45QAiP1HgiZLXyb8MDsJ8C8pT1Z/uTQJTlIKPE6AyeTxJgJgZSnw960EuPXvNgJgZSlw9KreBbjqaCsBUEUKhBOgoQCoIgWiCdBUAJxmTdgUiCZAUgCsmVTD+iNBUyCYACkBcGT9pCKipkAsAdoLgPApEEqAFgMgegpEEqDJAIieAoEEaDQAgqdAIAFaDYDYKRBHgHYDIHQKhBGg5QA4zYPhUiCKAEkB8OCkWsKlQBABGg+A/0qBD4KlQAwBkgLgg4WKBQiXAjEEaD8AwqZACAF6CICoKRBBgD4CIGgKBBCglwA4zY5AKTC+AEkBsKOF/UOlwOgCdBQAIVNgdAF6CoCIKTC2AH0FQMAUGFmA3gIgXgqMK0B/ARAuBUYVoMMACJcCYwrQZQBES4ExBegzAIKlwIgC9BoAsVJgPAH6DYBQKTCaAD0HwMpS4Ju1LQmw9puOAyBSCowkQOcBECgFRhKg9wA4zZUpKfBYKwI8lhIAV06aZsu4KTCKAEkBsGXSOOOmwBgCCIA5UuCi+gW4SAAESoHyAgiAUClQXgABECoFigsgAGKlQGkBBECwFCgsgACIlgJlBRAA4VKgqAAC4P+lwIFRUqCoACkBcGDNpDPGSYGSAgiAgClQUAABcCYeGCEFygmQFAAPTLrkpfIpUEyApAB4qc/9JwvvF0+BUgIkBcD7C50KMEIKlBJAAARNgUICCIAsKXBLLQLcIgCipkARAQRA3BQoIYAACJwCBQQQAJFToIAAAiByCuQXQACEToHsAgiA2CmQWwABEDwFMgsgAKKnQF4BBED4FMgrgACYIwUOF0mBrAKkBMBhAfC/KXC8RArkFCAlAI4LgHFSIKMAAqCGFMgngACoIgWyCSAA6kiBbAIIgDpSIJcAAmAYrsudApkESAqA6+w8XgrkEUAAVJMCWQQQAPWkQA4BBEBFKZBDAAFQUQpkEEAA1JQCwwsgAIZna74UGFyApADYatvZ2J4tBYYWICkAtlt21hR4L1cKDCxAUgC8JwDGT4GBBRAAtaXAsAIIgOpSYFABBEB9KTCkAAKgwhQYUAABUGMKDCeAAMifAl8MnwLDCZASAF8IgCgpMJgAAqDOFBhKAAFQaQoMJIAAqDUFhhFAAFSbAoMIIAAKsnrYFBhEgKQAWG3D+bhi0BQYQoCkALjCgqFSYAABBEDNKTC/AAKg6hSYWwABUHcKzCuAAIifAm/nFOBtAVB3CswpgACoPQXmE0AAVJ8CcwkgAOpPgXkEEAANpMAcAgiAFlJgDgEEQAspsHIBBEATKbBiAQRAGymwUgEEQAxenDcFVihAUgC8aKcYKbC8aigBVi0LgEZSYGUCCIBmUmBFAgiASGyeKwVWIkBSAGy2UG7unycFViBAUgDcb5/YKZAugACIlwLvrjwFkgVICoB3BUD0FEgWQAC0lQKpAgiAxlIgUQAB0FoKpAkgAJpLgSQBBEB7KZAigABoMAVSBBAADaZAggACoMUUmF0AAdBkCswsgABoMwVmFUAANJoCMwogAFpNgRkFEADVpMChtBSYTYCUADgkAGpKgZkEEADtpsAsAgiAhlNg45m/ZqMAaDgF9g3yJQIgVgp8Ph2JzwVAfSkwIAKgxhQYDgFQZwoMhgAIxAvl93/BUa81BQZBAPSdAgKg7xQQAH2ngACIyH3lBLjP0e46BQRA3ykgAPpOAQHQdwoIgL5TQAB0ngICoO8UEADhU2BPzv33CICuU0AA1MDl2VLg0OWObg1cmykFjl/r2HadAgKg7xQQAH2ngADoOwUEQN8pIAD6TgEB0HkKCIC+U0AA9J0CAqDvFBAAfaeAAKg4BY7Nv/8xAdB3CgiAqnl+3v2fdwy7TgEB0HcKCIC+U0AA9J0CAqDzFBAAfaeAAOg7BQRAQynwWfr+nwmArlNAAPSdAgKgNe5NE+BeR6zrFBAADabA7tn33y0Auk4BAdB3CgiAvlNAAHSeAgKg7xQQAC0z+7+PBwFAABAABAABQAAQAAQAAUAAEAAEAAFAABAABAABQAAQAAQAAUAAEAAEAAFAABAABAABQAAQAAQAAUAAEAAEAAFAABAABAABQAAQAAQAAUAAEAAEAAFAABAABAABQAAQAAQAAUAAEAAEAAFAABAABAABQAAQAAQAAUAAEAAEIAABCEAAAhCAAAQgAAEIQAACEIAABCAAAQhAAAIQgACOEgFAABAABAABQAAQAAQAAUAAEAAEAAFAABAABAABQAAQAAQAAUAAEAAEAAFAABAABAABQAAQAAQAAUAAEAAEAAFAABAABAABQAAQAAQAAUAAEAAEAAFAABAABAABQAAQAAQAAUAAEAAEAAFAABAABAABQAAQAAQAAUAAEAAEAAFAAAIQgAAEIAABCEAAAhCAAAQgAAEIQAACEIAABCAAAQjgKBEABAABQAAQAAQAAUAAEAAEAAFAABAABAABQAAQAAQAAUAAEAAEAAFAABAABAABQAAQAAQAAUAAEAAEAAFAABAABAABQAAQAAQAAUAAEAAEAAFAABAABAABQAAQAAQAAUAAEAAEAAFAABAABAABQAAQAAQAAUAAEAAEAAFAABAABCAAAQhAAAIQgAAEqJzFdRuS2XRmATalf9d1i9Yoy8KWV/YfPjkNw8nD+1/ZsmCXQpz39KFpQA49fZ5tSvDwwWlQDj5snfxv/13TwOzyIZCZdZ9OQ/PpOhvlZPWBaXAOrLZSRnZPw7PbSvl4cloBT9opFxcfrUGAoxdbKhNvTKvgDUvl4ZK/6hDgr0tslYWHppXwkK2ysLcWAfbaKgeLx2oR4Jirg1lOAk6rwenAHFxTjwDXWCsDd9QjwB3WysDt9Qhwu7UycHU9AlxtrQxcWo8Al1orAwu/1bL/b24PzMKuWgTYZass3F2LAHfbKgtLv9ex/+9LtsrDs3UI8KylMrH6pxr2/8ldgdnYWoMAW+2Uj9fj7/+6lTKyuBx9/2WXgvOWQPC7QvYqgNznA3dE3n+Hc4D5uWl/1Pn332SdIh8C9+w7FW/9U/vu8fYvxmWP7vnk+z+jbP/n95/sefSyOo/kPw4/0E6ok8VrAAAAAElFTkSuQmCC;" vertex="1" parent="1">
          <mxGeometry x="520" y="301" width="50" height="50" as="geometry" />
        </mxCell>
        <mxCell id="ckwtcuSyuOzhh80tvO_Y-9" value="" style="shape=image;verticalLabelPosition=bottom;labelBackgroundColor=default;verticalAlign=top;aspect=fixed;imageAspect=0;image=data:image/png,iVBORw0KGgoAAAANSUhEUgAAAgAAAAIACAYAAAD0eNT6AAAACXBIWXMAAHYcAAB2HAGnwnjqAAAAGXRFWHRTb2Z0d2FyZQB3d3cuaW5rc2NhcGUub3Jnm+48GgAAIABJREFUeJzt3X+wX3V95/HnvYSQkBhSBRoQlEQSpBUIv5QRxZLOIiZQt844o8Wlu9Oxfzid7nS2FMetOKIjioxDt7O47EBn6g9kyo7jzgDKWpICQgSxhKAi8rMkQJRqA8lVkkju/vG5t+R7zSX33u85530+n8/zMXMmQ4Bz3ufz+Z5zXt/z/ZzPGUGamSXAOmANcApwHLB04t9tB54CNgHrgVuAHZ1XqFdj/+XN/pPUuVXA9cAYMD7DZQy4DlgZUK8G2X95s/8kdW4hcBWwh5mfeKYuu4ErgQUd1y77L3f2n6QQK4GHmPuJZ+qyETiq0z2om/2XN/tPUohTgZ/R3MlnctkCnNzhftTK/sub/ScpxEraOfnsexJa1tne1Mf+y5v9JynEAtIo4rZOPpPL/aTfN9Us+y9v9p+kMFfR/slncvlkR/tUE/svb/afpBCrGG608WyXHXgrskn2X97sP0lhrqe7k8/kck0ne1YH+y9v9p+kEEuY3SQjTS07gdd0sH+ls//yZv8pzGh0AQq3Djg0YLuLgLUB2y2N/Zc3+09hDABaU+m2S2H/5c3+UxgDgE4J3LYTkwzP/sub/acwBgAtD9z2isBtl8L+y5v9pzAj0QUo3C5gfuC2fVHJcOy/vNl/CmMA0Hjw9vvyGcz1fev2X2L/zU1f+k9SgK4fP5q6RMv9fev2n/2Xc/9JClTrCaiU963bf/Zfjv0nqQdqPAGV9L51+8/+y63/JPVEbSeg0t63bv/Zfzn1n6QeqekEVOL71u0/+y+X/pPUM7WcgEp937r9Z//l0H+SeqiWE1Cp71u3/+y/HPpPUg/VcAIq+X3r9p/91/f+U085FbBqcCkwr8PtLQYu63B7pbP/pBY4C5SivwW0/RlcAjxH969cHSM9Wtb2jHP2XzvsPxXPOwAqne9bz5v9J7XEAKDS+b71vNl/UksMACqd71vPm/0ntcQAoNL5vvW82X9SSwwAKt2SwG0fFrjtUth/UkscAarSRyG7f+1y/4ZT+v6px7wDIElShQwAkiRVyAAgSVKFDACSJFXIACBJUoUMAJIkVcgAIElShQwAkiRVyAAgSVKFDACSJFXIACBJUoUMAJIkVcgAIElShQwAkiRVyAAgSVKFDACSJFXIACBJUoUMAJIkVcgAIElShUaiCyjQfOAk4ATgxIk/3wgsBRYDi4DDwqqTpH56ARgDdgLbgaeAnwAPA48Am4E9UcWVyAAwvBHgDGANcC7wDtJFXpLUnDHgLmADsB74PjAeWlHmDABz9wbgg8CHgTcF1yJJtdkC3ABcDzwaXEuWDACzMwJcCFxC+qYvSYo1DnwH+DxwM94VmDEDwMyMAuuATwCnB9ciSdq/h4CrgK8CLwfX0nsGgAM7A/jixJ+SpP57EPgIcE90IX3mY4DT+y3gb4B78eIvSTk5hfSzwJeAI4Jr6S3vAOzfWuDvgcOjC5EkDeV54GLgW9GF9M1B0QX0zDzgMuB/4aN8klSCRcBFwGuB24G9seX0h3cAXnEk8HXg7OhCJEmtuAt4H/Cv0YX0gQEgeSNwG2nWPklSuR4H3j3xZ9UcBAi/Sxos4sVfksr3JtKdgFOiC4lW+x2Ak4A7SCP+JUn1+AXwLuAH0YVEqTkAHAvcPfGnJKk+z5LGfT0VXEeIWn8COBz4Nl78JalmR5OuBUdGFxKhxgAwD/gG/uYvSYLjgX+gwsfiq9th4ArSW/wkSQI4jvSFeENwHZ2qbQzAe0hvi6rxzockaXp7SbPA3hZdSFdqCgCHAw/j9L6SpP37GXAi6QmB4tX0E8Df4ix/kqTpLQKWku4UF6+WOwBnkyZ+qGV/JUlzs5d0zfhudCFtq+GCeBDwz8DJ0YVIkrLwz8CZFP7ioBoGw70fL/6SpJk7DfjD6CLaVvodgBFgEwYASdLsbCIFgfHoQtpS+h2AC/HiL0mavdWkR8eLVXoAuCS6AElStv4quoA2lfwTwPHATyh7HyVJ7RknXUueiC6kDSXfAbgYL/6SpLkbAT4UXURbSr1AjgCPASuiC5EkZe0xYBUFDgYs9Q7AGXjxlyQN73jSgMDilBoAfj+6AElSMdZEF9CGUgPAudEFSJKKUeQ1pcQxAPNJb3JaFF3IPrYANwC3AI8DPwVeDq1IkvrjIOC3Sbfb1wIXAceEVjRoB/A6YE90IXp1p5MGa/Rh+RXwl8CCVvdYksqygPQM/kvEn8cnlyLHAZTmIuI/KOOkb/lntbyvklSytwM/I/58Pg58oOV97VyJYwDeHF0AKbX+Ryp4naQktege4L3AruhCgBOiC2haiQGgD530cWBjdBGSVICNwCeii6AfXy51APcRe5voafzNX5KatJA0mDry3F7cl7oS7wAcFrz9r5B+ApAkNeNXpCepIi0J3n7jSgwAi4O3/83g7UtSiW4N3n70l8vGlRgAolPaY8Hbl6QSRZ9bXxO8/caVOBHQy8QGm3k4yY8kNW0esRPx7CVNWFSMEgPAePD2S2xTSeoDz+8NKvEnAEmSdAAGAEmSKmQAkCSpQgYASZIqZACQJKlCBgBJkipkAJAkqUIGAEmSKmQAkCSpQgYASZIqZACQJKlCBgBJkipkAJAkqUIGAEmSKmQAkCSpQgYASZIqZACQJKlCBgBJkipkAJAkqUIGAEmSKmQAkCSpQgYASZIqZACQJKlCBgBJkipkAJAkqULzogtQ8eYDJwEnACdO/PlGYCmwGFgEHBZWnRTnBWAM2AlsB54CfgI8DDwCbAb2RBWn8o1EF9CC8eDtl9imszECnAGsAc4F3kG6yEuanTHgLmADsB74PvHnt2jR+1/U+b2onZngByTGG4APAh8G3hRci1SiLcANwPXAo8G1RPH83qCidmaCH5DujAAXApeQvulLat848B3g88DNxJ/zuhS9r0Wd34vamQl+QNo3CqwDPgGcHlyLVLOHgKuArwIvB9fSBc/vDSpqZyb4AWnXGcAXJ/6U1A8PAh8B7okupGWe3xvkY4Caqd8C/ga4Fy/+Ut+cQvpZ4EvAEcG1KBNFpZkJJsTmrQX+Hjg8uhBJB/Q8cDHwrehCWuD5vUGz2ZklpN9915DS5nGkZ7kPbr6srJX0AZkH/DXwcbxbJOVkHPhb4C8pay6B6ADQN3t4ZQ6JTaTHRW8Bdszkf57JxWoVcCnwAeDQOZVYl1ICwJHA14GzowuRNGd3Ae8D/jW6kIYYAA7sl8DXgM9xgMdFX+1itRD4FPBfccbA2SghALwRuI00a5+kvD0OvHviz9wZAGZuD3A1cBnw0v7+g+kuVitJ3/7e0k5dRcs9APwu6bfDY6ILkdSY54D3kJ4WyJkBYPa+S7oL9NzUf7G/i9WppG9/jiSdm5wDwEnAHaQR/5LK8gvgXcAPogsZggFgbraSxvBt3vcvp16sVgJ348V/GLkGgGNJfX9sdCGSWvMsaVzPU8F1zJUBYO62AmcC2yb/Yt+R3QuAm/DiX6PDgW/jxV8q3dGkY/3I6ELUuWNIU0cvnPyLfQPAp0mP96ku84Bv4IA/qRbHA/8AHBRdiDp3OvDRyX+YvF29CvghjvZvQm4/AXwO+KvoIiR17tOkOT5y4k8Aw9tJ+rl/2+QdgEvx4l+j95AmCpFUn4+RHg9UXRaTHg1khDTD33M4yU9TcrkDcDjwME7vK9XsZ8CJpCcEcuAdgGaMAUdNvtbVi399PocXf6l2RwKfiS5CnVsErB0lze2vupwN/JfoIiT1woeBs6KLUOfWjOLI/9ocBFxDPj9VSGrXKPA/8YVftTl5FFgeXYU69X7g5OgiJPXKacAfRhehTq0YAXYB86MrKUifv1mPkF4ZaQCQNNUmUhDo80C7PteWm13e8qnLhXjxl7R/q0mPBqsSo8CL0UWoM5dEFyCp15wUrB4vjAJPRlehThxPGv0vSdM5B1gRXYQ68cQo6Xcfle9i+j0+QVK8EeBD0UWoEw+OAuujq1DrRoCLoouQlIX/hF8WanD7CGle4G2kmYE0vD4eOGcC90UXISkbpwEPRBexHz4F0IwxYNko6c1ANwYXo3b9fnQBkrLiDLFluwHYOfkY4OeAPYHFqF3nRhcgKSueM8q1G/js1L+8knR7xWW4pW/mk+7yRLfLvssW0gfwncDRpOmJpZocRPrsn0M6FrYQf1zuu7wIHNza3s9ddLuUsFyxv4ZdAGzsQXG5L31zOvFtMrm8RJqLYEGreyzlZwHpGfyXiD9OJ5fVre7x3ES3Se7LPcAh0zXuMuDpHhSZ89I3FxHfJuOk946/veV9lXL3dtKxEn28jgMfaHlf5yK6TXJengFev29jTp0KeBtwAbB12uZXbt4cXQBpfMn7SelT0vTuAd5LekdLtBOiC1BjtgDnk0LAv9vfuwA2kx4BubODotS+PhzEfw3cEV2ElImNwCeii6AfXx40vI3AW4GHZvM/HQJ8kv4NIOv70jf3EdseW/A3f2m2FhI/MHBj63s5e9Hn95yWXcBneJXf/F/tbYC7SCn0eOCLpIkDlJ/Dgrf/ZdLAJkkz9yvSs9qRlgRvX3MzBvxv4ETgY7zKz0mzmbVuMbCO9HzoamA5sJT0mJle0beZAJ8hPW4U5V34c5I0F+8C/ilw+88AxwRuf3/Gowvomd3AdtJL/R4ANgC3ku7cH1DfLlZNiP6A9K1Nd5DCW5SjSINLJc3O64kdkP0i8XcQp/L83qCidmaCH5BBL/PqP/W0bd5EDZJmZx6xM7TupX+TdHl+b1BROzPBD8gg20PKl8fvINujQZHfDCVJUhADgCRJFTIASJJUIQOAJEkVMgBIklQhA4AkSRUyAEiSVCEDgCRJFTIASJJUIQOAJEkVMgBIklQhA4AkSRUyAEiSVCEDgCRJFTIASJJUIQOAJEkVMgBIklQhA4AkSRUyAEiSVCEDgCRJFTIASJJUoXkdbmsJsA5YA5wCHAcsBQ7usAZJkuZqvOH17QG2A08Bm4D1wC3Ajoa3E2YVcD0wRmq80pe+sT2kfHn8Dopujy6WMeA6YGVDbRZiIXAVKeFEN6gHjO0h5cjjd1B0e3S57AauBBY00nL7MdLSelcCXwfe0tL6+6ytNp2r6IO4b+0h5cTjd1B0e0T4LvA+4LmmV9xG554K3AYc0cK6c+ABM6hv7SHlxON3UHR7RNlKGkO3ucmVNt25K4G7qffiDx4wU/WtPaScePwOim6PSFuBM4FtTa2wyccAFwA3UffFX5KkNhwD3EwaX9eIJgPAp0mP90mSpOadDny0qZU1dXtnFfBDup1XoK+8ZTaob+0h5cTjd1B0e/TBTtLP7UP/FNDUHYBL8eIvSVLbFgOXNbGiJtLdEtLjCYc2sK4SmJgH9a09pJx4/A6Kbo++GAOOYsgZA5u4A7AOL/6SJHVlEbB22JU0EQDWNLAOSZI0c0Nfe5sIAI78lySpWycPu4ImAsDyBtYhSZJmbsWwK2giACxpYB2SJGnmDht2BU1OBCRJkjLRRAB4sYF1SJKkmXth2BU0EQCebGAdkiRp5p4YdgVNBIBNDaxDkiTN3IPDrqCJALC+gXVIkqSZu33YFTQxzeNi0ksJFjWwrhI4deagvrWHlBOP30HR7dEXY8Ay0ouB5qyJOwA7gRsbWI8kSTqwGxjy4g/NpbuVpNcBH9zQ+nJmYh7Ut/aQcuLxOyi6PfpgN3AiPRkECPAocHVD65IkSfv3BRq4+EOz6W4BsAE4q8F15sjEPKhv7SHlxON3UHR7RNsInAvsamJlTXfuMuA+4NiG15sTD5hBfWsPKScev4Oi2yPSs8BbgWeaWmHTUwFvAy4Atja8XkmSarUFOJ8GL/7QzrsANgOnAXe2sG5JkmqykfTN/6GmV9zWy4CeB84DLic9ryhJkmZuN3AF6Tf/bcG1zNky4BrSM4vjFSx9Y3tI+fL4HRTdHl0sO4FrgRUNtdm0uhzgsRhYR0ozq4HlwFJgfoc1dMFBM4P61h5STjx+B0W3R9N2A9tJL9V7gPQk3a00MMnPTPStc5sQ/QHpW5vaHlK+PH4H2R4NamsMgCRJ6jEDgCRJFTIASJJUIQOAJEkVMgBIklQhA4AkSRUyAEiSVCEDgCRJFTIASJJUIQOAJEkVMgBIklQhA4AkSRUyAEiSVCEDgCRJFTIASJJUIQOAJEkVMgBIklQhA4AkSRUyAEiSVCEDgCRJFTIASJJUIQOAJEkVMgBIklShebP4b5cA64A1wCnAccBS4ODmy5IkqXfGowuYYg+wHXgK2ASsB24BdjS1gVXA9cAYaeddXn3pG9tDypfH76Do9shhGQOuA1bOsY0BWAhcRUoY0TuU09I3toeUL4/fQdHtkdOyG7gSWDBdY45M8/crga8Db5nuf9S0pmvTKNEHcd/aQ8qJx++g6PbI0XeB9wHPTf0X++vcU4HbgCNaLqpUHjCD+tYeUk48fgdFt0eutpLG8G3e9y+ndu5K4G68+A/DA2ZQ39pDyonH76Do9sjZVuBMYNvkX+z7GOAC4Ca8+EuSVJpjgJtJ4/uAwQDwadLjfZIkqTynAx+d/IfJ2zurgB8yu3kBtH/eMhvUt/aQcuLxOyi6PUqwk/Rz/7bJOwCX4sVfkqTSLQYug5TulpAeDzg0sqKCmJgH9a09pJx4/A6Kbo9SjAFHjZIeDfDiL0lSHRYBa0dJc/tLkqR6rBnFkf+SJNXm5FFgeXQVkiSpUytGgF3A/OhKCuKgmUF9aw8pJx6/g6LboyS7Rg/830iSpNKMAi9GFyFJkjr1wijwZHQVkiSpU0+MApuiq5AkSZ16cBRYH12FJEnq1O0jpHmBt5FmBtLwHDU7qG/tIeXE43dQdHuUYgxYNkp6M9CNwcVIkqRu3ADsnEx3K0mvAz44rp5imJgH9a09pJx4/A6Kbo8S7AZOZGIQIMCjwNVx9UiSpA58AXgCBtPdAmADcFZERQUxMQ/qW3tIOfH4HRTdHrnbCJxLmgH4Nzp3GXAfcGzHRZXEA2ZQ39pDyonH76Do9sjZs8BbgWcm/2LqVMDbgAuArR0WJUmS2rMFOJ99Lv7wmwEAYDNwGnBnB0VJkqT2bCR9839o6r+Y7mVAzwPnAZeTnheUJEn52A1cQfrNf9tcV7IMuIY0X8C4ywGXvrE9pHx5/A6Kbo8clp3AtcCKAzXmbAZ4LAbWkdLEamA5sBSYP4t11MBBM4P61h5STjx+B0W3R9/sBraTXur3AOlJvltJIeCA+ta5TYj+gPStTW0PKV8ev4NsjwZNNwZAkiQVzAAgSVKFDACSJFXIACBJUoUMAJIkVcgAIElShQwAkiRVyAAgSVKFDACSJFXIACBJUoUMAJIkVcgAIElShQwAkiRVyAAgSVKFDACSJFXIACBJUoUMAJIkVcgAIElShQwAkiRVyAAgSVKFDACSJFXIACBJUoUMAJIkVWheh9taAqwD1gCnAMcBS4GDO6xBkqS5Gm94fXuA7cBTwCZgPXALsKPh7YRZBVwPjJEar/Slb2wPKV8ev4Oi26OLZQy4DljZUJuFWAhcRUo40Q3qAWN7SDny+B0U3R5dLruBK4EFjbTcfoy0tN6VwNeBt7S0/j5rq03nKvog7lt7SDnx+B0U3R4Rvgu8D3iu6RW30bmnArcBR7Sw7hx4wAzqW3tIOfH4HRTdHlG2ksbQbW5ypU137krgbuq9+IMHzFR9aw8pJx6/g6LbI9JW4ExgW1MrbPIxwAXATdR98ZckqQ3HADeTxtc1oskA8GnS432SJKl5pwMfbWplTd3eWQX8kG7nFegrb5kN6lt7SDnx+B0U3R59sJP0c/vQPwU0dQfgUrz4S5LUtsXAZU2sqIl0t4T0eMKhDayrBCbmQX1rDyknHr+DotujL8aAoxhyxsAm7gCsw4u/JEldWQSsHXYlTQSANQ2sQ5IkzdzQ194mAoAj/yVJ6tbJw66giQCwvIF1SJKkmVsx7AqaCABLGliHJEmaucOGXUGTEwFJkqRMNBEAXmxgHZIkaeZeGHYFTQSAJxtYhyRJmrknhl1BEwFgUwPrkCRJM/fgsCtoIgCsb2AdkiRp5m4fdgVNTPO4mPRSgkUNrKsETp05qG/tIeXE43dQdHv0xRiwjPRioDlr4g7ATuDGBtYjSZIO7AaGvPhDc+luJel1wAc3tL6cmZgH9a09pJx4/A6Kbo8+2A2cSE8GAQI8Clzd0LokSdL+fYEGLv7QbLpbAGwAzmpwnTkyMQ/qW3tIOfH4HRTdHtE2AucCu5pYWdOduwy4Dzi24fXmxANmUN/aQ8qJx++g6PaI9CzwVuCZplbY9FTA24ALgK0Nr1eSpFptAc6nwYs/tPMugM3AacCdLaxbkqSabCR983+o6RW39TKg54HzgMtJzytKkqSZ2w1cQfrNf1twLXO2DLiG9MzieAVL39geUr48fgdFt0cXy07gWmBFQ202rS4HeCwG1pHSzGpgObAUmN9hDV1w0MygvrWHlBOP30HR7dG03cB20kv1HiA9SXcrDUzyMxN969wmRH9A+tamtoeUL4/fQbZHg9oaAyBJknrMACBJUoUMAJIkVcgAIElShQwAkiRVyAAgSVKFDACSJFXIACBJUoUMAJIkVcgAIElShQwAkiRVyAAgSVKFDACSJFXIACBJUoUMAJIkVcgAIElShQwAkiRVyAAgSVKFDACSJFXIACBJUoUMAJIkVcgAUL69wds/KHj7Uq7mBW8/+tyhlhkAyvfL4O0fGbx9KVfLgre/M3j7atlsEuYSYB2wBjgFOA5YChzcfFlq0IvA4sDtrwSeC9y+lKs3BW9/R/D2+2g8uoAp9gDbgaeATcB64BYa7LtVwPXAGGnnXV596ZtHiG2Pz7a/i1KRPk/ssfvD9ndx1qLP7zksY8B1pC9fc7YQuIqUMKJ3KKelb+4jtj22kj5LkmZuIenYiTx2N7a+l7MXfX7PadkNXAksmK4xpxsDsJJ04fhvxA9E0XCeDN7+64E/D65Bys1fkI6dSNHnDg3nYOASYANw1Ez/p1OBnxGfXnJd+uZy4ttkN/CutndUKsTbgZeIP24/0faOzkF0m+S6bAFOntqYU+8ArARuA47Yf9srQz+OLoCURG8Czo4uROq5s4FvAIdEF0I/zh1qxjGkwYHTPlmygDSKMDqp5L70zenEt8nksgv4KI4JkKZaCHyMdIxEH6eTy+pW93huotsk9+V+pjn/XtWD4kpY+mY+6Xne6HbZd3mGNDjl94CjcbIg1ecg0mf/90jHwjPEH5f7Li/Sz/Ff0e1SwvLJycYcmfhzFemRjz52eG5GDvyfdO5bwLuji5CUjZuBC6OL2I/x6AIKsJP0c/+2yTEAl+LFv2QboguQlBXPGeVaDFwG6dvqEtJMbYdGVlSQPt4BOAP4XnQRkrJxKmlMWN94B6AZY8BRo6Tpfb34l+37wOPRRUjKwmPAg9FFqFWLgLWjpLn9VbZx4CvRRUjKwpfwm3YN1oySXuyj8n0ZD2pJr24c+Gp0EerEyaPA8ugq1InHge9EFyGp1+4AnoguQp1YMUoaBKg6fD66AEm9dmV0AerMYSOkmafmR1dSkD4+BTBphDQT1GnRhUjqnQd4ZebQvupzbbnZNUqa8Ul1GMeEL2n/PoUX2Jq8MIqvfKzNTfTz+V5Jce4H/m90EerUE6N4MajNXuBPJ/6UpL3An+E5oTYPjgLro6tQ574H/F10EZJ64Vrg3ugi1LnbR0jzAm8jzQyk4fV5EOC+Xgc8DBwRXYikMNuA3wH+LbqQGXKMQjPGgGWjpDcD3RhcjLr3c+CDeNtPqtVe4GLyufirOTcAOyffBvg5YE9gMYpxO6nvJdXnU8C3o4tQ53YDnwWYDACPAleHlaNIlwF3RRchqVMbSAFA9fkCE7M97vt79QLSh+KsiIoKkssYgH29jhQCTowuRFLrfgS8E/hFdCFz4BiA4WwEziVNAPgbF6tlwH3AsR0XVZIcAwDAMcDdwBuiC5HUmmeAs4F/iS5kjgwAc/cs8FbSZwB45SeASduAC4CtHRalftgKrCPPbwWSDuznwHnke/HX3G0Bzmefiz/8ZgAA2EyaK/7ODopSv/yAdGtwS3Qhkhr1HLCGdPtfddlI+ub/0NR/sb8AAPA8KSleTnpeUPX4EWkcyG98WCRl6WHSMb05uhB1ajdwBek3/21zXcky4BrSfAHjLgdcSnE48E/Et6eLi8vcl/XAaylHdHvmsOwkze644kCNOZsBa4tJvxGfC6wGlgNL8VXCU+U6CHB/DgI+PrFMd7dIUv+Mk978+d+Bl4NradJ4dAE9sxvYTnqp3wOkJ/luJYWAAyrpYjUp+gNSYpueB3wZODK6EEkH9FPgQ8A/RhfSAs/vDfJbnWbi/wFvBv4HZX2bkEoyTgrqb6HMi78aVlSamWBCbNfbSGNCTosuRNK/ux/4COlNnyXz/N4g7wBotu4FzgD+gPJPNlLfbQb+mDTK3+NRs1JUmplgQuzOCLAWuAQ4h7r2XYoyDtxBGuT3zeBauub5vUFF7cwEPyAxjgX+CPgTYGVwLVKJnga+BlwHPBZcSxTP7w0qamcm+AGJNUJ6THTNxHIO6RFSSbOzgzQj6/qJZVNsOb3g+b1BRe3MBD8g/TIPOAk4YWJ5M2kOiSXAayaWw8Kqk+K8QLrI7wBeJD3L/eOJ5RHS1Ny/Dquunzy/N6ionZngB0SSyuT5vUE+BSBJUoUMAJIkVcgAIElShQwAkiRVyAAgSVKFDACSJFXIACBJUoUMAJIkVcgAIElShQwAkiRVyAAgSVKFDACSJFXIACBJUoUMAJIkVcgAIElShQwAkiRVyAAgSVKFDACSJFXIACBJUoUMAJIkVcgAIElShQwAkiRVyAAgSVKFDACSJFXIACBJUoVKDAB7g7d/UPD2JalE84K3H31taVyJAeCXwdv/7eDtS1KJlgVvf2fw9htXYgB4MXj7bwreviSVKPrcuiN4+40rMQBEp7R1wduXpBJdELz9F4K337jUP9qHAAAGfUlEQVQSA0B0J10ELAiuQZJKshD4YHAN0XeXG1diAHgyePvHAH8eXIMkleQvgNcH1xB9bWlciQHgkegCgE8B50QXIUkFeDtwWXQR9OPa0qgSA8CPowsA5gP/h/TBlSTNzdnAN4BDoguhH9cWHcDpwHhPlpeAS0m/X0mSZmYh8DFgF/Hn8clldat7HGAkuoAWzAd+ASyKLmQfzwBfBW4FHgV+CrwcWpEk9cdBpDlUVgFrSYOpjw6taNAO4LXAr6MLaVKJAQDgW8C7o4uQJBXhZuDC6CKaVuIYAIAN0QVIkopR5DWl1ABwe3QBkqRirI8uoA2l/gQwQvqtPXrqSElS3h4jjU0Yjy6kaaXeARgHvhJdhCQpe1+iwIs/lHsHANK3/0cpex8lSe0ZB44HnogupA2l3gEAeBz4TnQRkqRs3UGhF38oOwAAfD66AElStq6MLqBNpd8eHwHuB06LLkSSlJUHeGVm2SKVfgdgnMITnCSpFZ+i4Is/lH8HAFLI+T4FzuMsSWrF/cDbgL3RhbSp9DsAkDrwTym8IyVJjdgL/BkVXDNqCAAA3wP+LroISVLvXQvcG11EF2r4CWDS64CHgSOiC5Ek9dI24HeAf4supAu13AEA+DnwQSq4rSNJmrW9wMVUcvGH9A7mmjwJLADeGV2IJKlXLqeyn4pr+glg0jzSm50MAZIkSK/7/Q/Ay9GFdKnGAABpPMBdwInRhUiSQv2I9IXwF9GFdK3WAABwDHA38IboQiRJIZ4Bzgb+JbqQCDUNApxqK7COClOfJImfA+dR6cUf6g4AAD8g3frZEl2IJKkzzwFrSLf/q1XzTwD7Ohr4FnBSdCGSpFY9DJwPPB1dSLTa7wBMepaUBu+ILkSS1JoNwDvw4g/UNw/Aq/kl8GXS25/OwbsjklSKyTfD/mfSuV54kZvOeaQwcGR0IZKkofwU+BDwj9GF9I13APbvceB6YCFwBv5UIkm5GQe+AryXNOBbU3gH4MDeBlwDnBZdiCRpRu4HPkJ6E6ym4TfbA7uXdBfgD/DDJEl9thn4Y+AsPF8fkHcAZmcEWAtcggMFJakPxklPcF0JfDO4lqx4AZu7Y4E/Av4EWBlciyTV5mnga8B1wGPBtWTJADC8EWA1aR6BNaQ7A4tDK5Kk8uwA7iS9zXU9sCm2nPwZAJo3jzSj4AkTy5uB5cAS4DUTy2Fh1UlSP71AusjvAF4EngR+PLE8QhrJ/+uw6gpkANB48Pbb/gy6f+1y/4ZT+v6px3wKQJKkChkAJEmqkAFAkqQKGQAkSaqQAUCSpAoZACRJqpABQJKkChkAJEmqkAFAkqQKGQAkSaqQAUCSpAoZACRJqpABQJKkChkAJEmqkAFAkqQKGQAkSaqQAUCSpAoZACRJqpABQJKkChkAVLrdgdveFbjtUth/UksMACrdi4HbfiFw26Ww/6SWGABUuicDt/1E4LZLYf9JLTEAqHSbArf9YOC2S2H/SS0xAKh06wO3fXvgtkth/0ktGYkuQOHGg7ff9mdwMbANWNTydqYaA5YBO1vejv3XDvtPxfMOgEq3E7gxYLs30P7Fowb2nyS1ZDx46cJK0uNkXe3TLmBFJ3tm/9l//e8/9ZR3AFSDR4GrO9zeF3AEeZPsP0lqQS3fQBYAG1vcj8nlHuCQjvaJFvfD/utGLf0nqYdqOgEtA55usPapyzPA6zvbm8T+s/9y6T9JPVPbCehkYMsQ9U63PA2c1OF+TLL/7L+c+k9Sj9R4AjoCuGMWNR5ouYf07TSC/Wf/5dZ/knqi1hPQIcAnSY96zbX2XcBn6PY346nsP/svx/6T1AO1n4CWAdcwuwvJTuBauntU7NXYf/Zfzv2nQM4CpeiTQF8+g4uBdcC5wGpgObB04t9tJ72U5gFgA3Ar/Zkkxv5L7L+56Uv/KYCdr13A/MBtLwjadinsv7zZfwrjREDyfet5s//yZv8pjAFATwZu29nWhmf/5c3+UxgDgHzfet7sv7zZfwpjAJDvW8+b/Zc3+09SmMUM9yz1XJedE9vWcOy/vNl/CuMdAPm+9bzZf3mz/ySFKvl96zWw//Jm/0kKdSXdnYCu6GifamL/5c3+kxSm1Pet18L+y5v9JylUie9br4n9lzf7T1Ko0t63Xhv7L2/2n6RQJb1vvUb2X97sP0mhSnnfeq3sv7zZf5LC5f6+9drZf3mz/9QaXwesmcr1fetK7L+82X9q3P8HXpxP4piG9yAAAAAASUVORK5CYII=;" vertex="1" parent="1">
          <mxGeometry x="740" y="290" width="72" height="72" as="geometry" />
        </mxCell>
        <mxCell id="ckwtcuSyuOzhh80tvO_Y-10" value="" style="shape=image;verticalLabelPosition=bottom;labelBackgroundColor=default;verticalAlign=top;aspect=fixed;imageAspect=0;image=data:image/png,iVBORw0KGgoAAAANSUhEUgAAAgAAAAIACAMAAADDpiTIAAAAA3NCSVQICAjb4U/gAAAACXBIWXMAAA7EAAAOxAGVKw4bAAAAGXRFWHRTb2Z0d2FyZQB3d3cuaW5rc2NhcGUub3Jnm+48GgAAAZ5QTFRF////AAAAAAAAAAAAAAAAAAAAAAAAAAAAAAAAAAAAAAAAAAAAAAAAAAAAAAAAAAAAAAAAAAAAAAAAAAAAAAAAAAAAAAAAAAAAAAAAAAAAAAAAAAAAAAAAAAAAAAAAAAAAAAAAAAAAAAAAAAAAAAAAAAAAAAAAAAAAAAAAAAAAAAAAAAAAAAAAAAAAAAAAAAAAAAAAAAAAAAAAAAAAAAAAAAAAAAAAAAAAAAAAAAAAAAAAAAAAAAAAAAAAAAAAAAAAAAAAAAAAAAAAAAAAAAAAAAAAAAAAAAAAAAAAAAAAAAAAAAAAAAAAAAAAAAAAAAAAAAAAAAAAAAAAAAAAAAAAAAAAAAAAAAAAAAAAAAAAAAAAAAAAAAAAAAAAAAAAAAAAAAAAAAAAAAAAAAAAAAAAAAAAAAAAAAAAAAAAAAAAAAAAAAAAAAAAAAAAAAAAAAAAAAAAAAAAAAAAAAAAAAAAAAAAAAAAAAAAAAAAAAAAAAAAAAAAAAAAAAAAAAAAAAAAAAAAAAAAAAAAAAAAAAAAAAAAAAAAAAAAAAAAAAAA/yXdagAAAIl0Uk5TAAECAwQFBgcICQoLDA0QERITFBYZGhscHR4gIScuMDM1Njc4OTxAQkNFRkhJTFJTVVZXWFlaW1xdYGFkaWxtbm9zdnp8f4GCg4SFhoeJi46QkZKVlpeYoKWqq6ytrq+wtLW8vcfIysvMzc7P0NHW2tvc4OHi4+Xm5+jp6uvv8PL09vf4+fr8/f6nKq2tAAAKuUlEQVR42u3d15dUxR5H8R4HE4yKigEQFTHnhGLOATErV8CAjiIqZkVARQVU6P/a5RN33YdL1/SpOr+q+uznWbN6znd3z9onzEwmw7Jw81M7l384OcXgnPxh+T9P3bwwicy5j3xtqLx8/ci5Yec/+5kjBsrPkWfOjrn/hcvGKcPyhRH33+jTv9zvgY3x9t/8i13K8cvmaPtf8KNVSvLjBcEE2GmTsuyMtf+Np0xSllM3Rtr//O8sUprvzg8kwF32KM9dgQR4xxzleSfO/ou/mqM8vy6GEeAGa4zBDWEEeM4YY/BcGAFeNcYYvBpGgNeMMQavhRHgTWOMwZthBHjLGGPwVhgBthtjDLbHuRJgjDGIczXgnD+sUZ4/zolzKvAjc5Tno0DXAp4wR3meCCTA0kF7lObgUqQbAu40SGnujHVL0IcWKcuHwe4J3HDMJiU5tiHabcHbjFKSbfEeDHjZKuV4OeCTQWfttUsp9p4V8dmwpa8sU4avliYhWf+zbUrw8/pJUK4/YZ38nLh+EpaUFDhx24bybDrz69o0wsu6LeWds20SmJQU+HZt+dd34Zlf1gjP3q/9tvIAOM1CSgp8vIoA/7Lq45QAiP1HgiZLXyb8MDsJ8C8pT1Z/uTQJTlIKPE6AyeTxJgJgZSnw960EuPXvNgJgZSlw9KreBbjqaCsBUEUKhBOgoQCoIgWiCdBUAJxmTdgUiCZAUgCsmVTD+iNBUyCYACkBcGT9pCKipkAsAdoLgPApEEqAFgMgegpEEqDJAIieAoEEaDQAgqdAIAFaDYDYKRBHgHYDIHQKhBGg5QA4zYPhUiCKAEkB8OCkWsKlQBABGg+A/0qBD4KlQAwBkgLgg4WKBQiXAjEEaD8AwqZACAF6CICoKRBBgD4CIGgKBBCglwA4zY5AKTC+AEkBsKOF/UOlwOgCdBQAIVNgdAF6CoCIKTC2AH0FQMAUGFmA3gIgXgqMK0B/ARAuBUYVoMMACJcCYwrQZQBES4ExBegzAIKlwIgC9BoAsVJgPAH6DYBQKTCaAD0HwMpS4Ju1LQmw9puOAyBSCowkQOcBECgFRhKg9wA4zZUpKfBYKwI8lhIAV06aZsu4KTCKAEkBsGXSOOOmwBgCCIA5UuCi+gW4SAAESoHyAgiAUClQXgABECoFigsgAGKlQGkBBECwFCgsgACIlgJlBRAA4VKgqAAC4P+lwIFRUqCoACkBcGDNpDPGSYGSAgiAgClQUAABcCYeGCEFygmQFAAPTLrkpfIpUEyApAB4qc/9JwvvF0+BUgIkBcD7C50KMEIKlBJAAARNgUICCIAsKXBLLQLcIgCipkARAQRA3BQoIYAACJwCBQQQAJFToIAAAiByCuQXQACEToHsAgiA2CmQWwABEDwFMgsgAKKnQF4BBED4FMgrgACYIwUOF0mBrAKkBMBhAfC/KXC8RArkFCAlAI4LgHFSIKMAAqCGFMgngACoIgWyCSAA6kiBbAIIgDpSIJcAAmAYrsudApkESAqA6+w8XgrkEUAAVJMCWQQQAPWkQA4BBEBFKZBDAAFQUQpkEEAA1JQCwwsgAIZna74UGFyApADYatvZ2J4tBYYWICkAtlt21hR4L1cKDCxAUgC8JwDGT4GBBRAAtaXAsAIIgOpSYFABBEB9KTCkAAKgwhQYUAABUGMKDCeAAMifAl8MnwLDCZASAF8IgCgpMJgAAqDOFBhKAAFQaQoMJIAAqDUFhhFAAFSbAoMIIAAKsnrYFBhEgKQAWG3D+bhi0BQYQoCkALjCgqFSYAABBEDNKTC/AAKg6hSYWwABUHcKzCuAAIifAm/nFOBtAVB3CswpgACoPQXmE0AAVJ8CcwkgAOpPgXkEEAANpMAcAgiAFlJgDgEEQAspsHIBBEATKbBiAQRAGymwUgEEQAxenDcFVihAUgC8aKcYKbC8aigBVi0LgEZSYGUCCIBmUmBFAgiASGyeKwVWIkBSAGy2UG7unycFViBAUgDcb5/YKZAugACIlwLvrjwFkgVICoB3BUD0FEgWQAC0lQKpAgiAxlIgUQAB0FoKpAkgAJpLgSQBBEB7KZAigABoMAVSBBAADaZAggACoMUUmF0AAdBkCswsgABoMwVmFUAANJoCMwogAFpNgRkFEADVpMChtBSYTYCUADgkAGpKgZkEEADtpsAsAgiAhlNg45m/ZqMAaDgF9g3yJQIgVgp8Ph2JzwVAfSkwIAKgxhQYDgFQZwoMhgAIxAvl93/BUa81BQZBAPSdAgKg7xQQAH2ngACIyH3lBLjP0e46BQRA3ykgAPpOAQHQdwoIgL5TQAB0ngICoO8UEADhU2BPzv33CICuU0AA1MDl2VLg0OWObg1cmykFjl/r2HadAgKg7xQQAH2ngADoOwUEQN8pIAD6TgEB0HkKCIC+U0AA9J0CAqDvFBAAfaeAAKg4BY7Nv/8xAdB3CgiAqnl+3v2fdwy7TgEB0HcKCIC+U0AA9J0CAqDzFBAAfaeAAOg7BQRAQynwWfr+nwmArlNAAPSdAgKgNe5NE+BeR6zrFBAADabA7tn33y0Auk4BAdB3CgiAvlNAAHSeAgKg7xQQAC0z+7+PBwFAABAABAABQAAQAAQAAUAAEAAEAAFAABAABAABQAAQAAQAAUAAEAAEAAFAABAABAABQAAQAAQAAUAAEAAEAAFAABAABAABQAAQAAQAAUAAEAAEAAFAABAABAABQAAQAAQAAUAAEAAEAAFAABAABAABQAAQAAQAAUAAEAAEIAABCEAAAhCAAAQgAAEIQAACEIAABCAAAQhAAAIQgACOEgFAABAABAABQAAQAAQAAUAAEAAEAAFAABAABAABQAAQAAQAAUAAEAAEAAFAABAABAABQAAQAAQAAUAAEAAEAAFAABAABAABQAAQAAQAAUAAEAAEAAFAABAABAABQAAQAAQAAUAAEAAEAAFAABAABAABQAAQAAQAAUAAEAAEAAFAAAIQgAAEIAABCEAAAhCAAAQgAAEIQAACEIAABCAAAQjgKBEABAABQAAQAAQAAUAAEAAEAAFAABAABAABQAAQAAQAAUAAEAAEAAFAABAABAABQAAQAAQAAUAAEAAEAAFAABAABAABQAAQAAQAAUAAEAAEAAFAABAABAABQAAQAAQAAUAAEAAEAAFAABAABAABQAAQAAQAAUAAEAAEAAFAABAABCAAAQhAAAIQgAAEqJzFdRuS2XRmATalf9d1i9Yoy8KWV/YfPjkNw8nD+1/ZsmCXQpz39KFpQA49fZ5tSvDwwWlQDj5snfxv/13TwOzyIZCZdZ9OQ/PpOhvlZPWBaXAOrLZSRnZPw7PbSvl4cloBT9opFxcfrUGAoxdbKhNvTKvgDUvl4ZK/6hDgr0tslYWHppXwkK2ysLcWAfbaKgeLx2oR4Jirg1lOAk6rwenAHFxTjwDXWCsDd9QjwB3WysDt9Qhwu7UycHU9AlxtrQxcWo8Al1orAwu/1bL/b24PzMKuWgTYZass3F2LAHfbKgtLv9ex/+9LtsrDs3UI8KylMrH6pxr2/8ldgdnYWoMAW+2Uj9fj7/+6lTKyuBx9/2WXgvOWQPC7QvYqgNznA3dE3n+Hc4D5uWl/1Pn332SdIh8C9+w7FW/9U/vu8fYvxmWP7vnk+z+jbP/n95/sefSyOo/kPw4/0E6ok8VrAAAAAElFTkSuQmCC;" vertex="1" parent="1">
          <mxGeometry x="660" y="301" width="50" height="50" as="geometry" />
        </mxCell>
        <mxCell id="ckwtcuSyuOzhh80tvO_Y-11" value="" style="shape=image;verticalLabelPosition=bottom;labelBackgroundColor=default;verticalAlign=top;aspect=fixed;imageAspect=0;image=data:image/png,iVBORw0KGgoAAAANSUhEUgAAAgAAAAIACAYAAAD0eNT6AAAABHNCSVQICAgIfAhkiAAAAAlwSFlzAAALEwAACxMBAJqcGAAAABl0RVh0U29mdHdhcmUAd3d3Lmlua3NjYXBlLm9yZ5vuPBoAACAASURBVHic7N13mJ1ltf7x7wpdmhCKRkoQBJRelaJ0VPQnVUABORZsB0QQz8FCUbDQFOxHBAWR3lQERETpVZQmIC1iaELoIIGE+/fH84bUmUzZs9f77vf+XNe+ZpJMudEpaz9lrZDE7ETEKGADYFtgXWBM9Vhwtu88MiYDE4GXq5fDfX3GPz8LTACemPJS0svd+U8zMzMbedFfARAR8wJ7AwcAS3YrVE09x9Si4IkBvD5B0sScqGZmZv3rswCIiO2BY4FlupqotzzPzAXC48CDwAPAOOABSc9kBTQzs3aaqQCIiAAOAQ4GIiNUCz1NKQheKwqmfSnphbRkZmbWk6YrAKpf/icBe6Qlsll5nOmLgmlf/6e3GszMbLBmLAAOpTz7t+YQ8AhTi4I7gVuBWyX9MzGXmZnV2GsFQLXnfw5e9u8lzwC3UQqCW6qXt0t6PjWVmZmlC0lTTvvfjQ/8tYGA+6lWCaZ53C/p1cxgZmbWPVMKgAOAo7LDWKoXgNuZoTCQ9HRqKjMzGxEBjAIexvf8bdb+xdSC4DrgGklP5EYyM7PhCmAj4KrsINYodwFXU75urpJ0b3IeMzMbpACOBL6YHcQa7TGmFgRXAzdLmpQbyczM+hPAZcBm2UGsp7wIXM/UouBaSc/mRjIzs2kFZTl3pewg1tNepVxHvKp6XC3pX7mRzMzaLSiT77Km+ll7PcjULYPLJd2RnMfMrFWCci/cLNt44KLqcamk55LzmJn1NBcAVkevUFYGLgIuknRbch4zs57jAsCaYDxwMVNXB3yg0MxsmFwAWNO8AlzD1NWBW5PzmJk1kgsAa7qHmP7sgFcHzMwGwAWA9ZJJTH92wKsDZmZ9cAFgvWw8cBZwuqQbssOYmdWJCwBriweAM4EzJP01O4yZWTYXANZG9wBnUFYG3IDIzFrJBYC13R2UYuAMSf/IDmNm1i0uAMym+htwOnCmpAeyw5iZjSQXAGazdgNlZeBMSeOzw5iZdZoLALP+idJ46HTgbEmPJucxM+sIFwBmA/cqcDnwS8rKwAvJeczMhswFgNnQPAucChwv6ebsMGZmg+UCwGz4bgaOB051K2IzawoXAGad8wLl4ODxkq7LDmNm1h8XAGYj43bKqsAvJT2VHcbMbEYuAMxG1kvA2ZRVgSuyw5iZTeECwKx77gZ+Bpwk6fHsMGbWbi4AzLrvZeB8yhbBHyX5e9DMus4FgFmu+4ETgBPdZMjMuskFgFk9vAycAhwj6e/ZYcys97kAMKsXARcCR0m6PDuMmfUuFwBm9XUTcBRwjqTJ2WHMrLe4ADCrvweA71LOCXj+gJl1hAsAs+Z4Evgx8H1Jj2WHMbNmcwFg1jwTKRMJj5F0V3YYM2smFwBmzSXgAsqBwSuzw5hZs7gAMOsN1wNHA+dKejU7jJnVX1Dmmi+YHcTMOuI+yoHBn0t6MTuMmdVXAHcBK2UHMbOOmgB8B/iepOezw5hZ/YwCHs4OYWYdNxr4BnB/RHwhIubLDmRm9TKK0mzEzHrT4pSzAfdFxN4RMU92IDOrh1HAr7NDmNmIeyPwfeCeiNgrIubKDmRmuYKp2wBLJmcxs+65H/g6cIrbDJu106jqytDR2UHMrKveDPwCuCMido2ISM5jZl0WkoiIeYG7gWWyA5lZituBgyWdlx3EzLpjFICkl4DP46ZAZm21KnBuRPwlIrbJDmNmI2/UlFeqyv/riVnMLN/awO8i4tqI2DI7jJmNnJCmPumv9gFPAvZIS2RmdXI5cJBnDZj1nlHT/kGlGtgT+BreDjAz2AS4IiIuiYi1s8OYWedMtwIw3T9EbA8ciw8GmlnxKvBz4CuSHssOY2bD02cBAEy5HbA3cADuE2BmxbPAYZQ5Ay9nhzGzoem3AHjtjSJGARsA2wLrAmOqh6cImrXXPcAXJP02O4iZDd6ACoC6iYg5gLmBeQbwciBvMzfwesoAlcWmeYwG5u3Sf5ZZU10CfF7SndlBzGzgGlkAdFNEzM/0RcGUwqC/v5s7JaxZnknAj4BDJT2VHcbMZs8FwAiIiAWBJYBlgeWmeYytXr6BMofBrNdMAA4CfuoZA2b15gIgQXW4sq/iYDnKaoJZk91G2Ra4LDuImc2aC4AaqlYQxjJ9gbAc8DZgebx6YM1xHnCApPuzg5jZ9FwANEx1JmFVYPUZHq/PzGXWj4nAd4BvSno+O4yZFS4AekRELM3MRcFKwByZucym8QhwIPBL+QePWToXAD0sIuahbBvMWBgskZnLWu8G4HOSrs8OYtZmLgBaKCKWBNYA3gFsXL10UyfrJgE/Bg6U9Fx2GLM2cgFgUxorrQ5sRCkINgKWSg1lbTEe+IykC7KDmLWNCwCbpYhYlukLglWZYXqkWQedDuwr6d/ZQczawgWADUhELEyZBzGlIFgfeF1qKOs1TwL7STo5O4hZG7gAsCGJiLmAtZhaELwTWDw1lPWKS4BPSRqXHcSsl7kAsI6IiADWAbYB3ktZIfCWgQ3VC5SWwsdJejU7jFkvcgFgIyIiRgPvphQE76YMSTIbrBuAT0i6LTuIWa9xAWAjLiJGAesydXVgXbw6YAP3CnAEcLikidlhzHqFCwDruohYnKmrA1vj4Uc2MHcBe0m6KjuIWS9wAWCpqtWBt1NWBt5LOUfgYUfWFwE/oTQQejY7jFmTuQCwWomIJSiFwAeBrYC5cxNZTY0HPivpt9lBzJrKBYDVVkQsAmwH7AJsAcyZm8hq6ExgHzcQMhs8FwDWCBGxGLADpRjYBE85tKkmUG4KnJ8dxKxJXABY41TDjHaiFAMb4zMDVhxP6ST4QnYQsyZwAWCNFhFjKOcFdqFMNXQx0G7/AD4s6S/ZQczqzgWA9YyIWAbYmVIMrJscx/K8QukieJS7CJr1zQWA9aSIeDOlENiVMurY2ufPwB6SxmcHMasjFwDW8yJiPWAv4EPAAslxrLueogwWOis7iFnduACw1oiIBShFwF7AeslxrLt+Qbku+Hx2ELO6cAFgrRQRa1IKgd2AhZPjWHfcB+wm6frsIGZ14ALAWi0iXkc5OLgXsGFyHBt5k4CvAd+SNDk7jFkmFwBmlYhYhVII7AEsmhzHRtZVwO6S/pkdxCyLCwCzGUTEvMCOlGJgk+Q4NnKeocwTODU7iFkGFwBm/YiIFSmFwJ7A4slxbGT8ilIIeLqgtYoLALMBiIi5KX0FDsB9BXrROMqWwNXZQcy6xQWA2SBFxNbAF4Ets7NYR00GvizpyOwgZt3gAsBsiKqrhAdQVgY8qrh3nAP8l3sGWK9zAWA2TBGxNLAv8ElgweQ41hl3AttLujs7iNlIcQFg1iERsTClCNgXeFNyHBu+54A9JZ2XHcRsJLgAMOuwiJiL0nL4AGC15Dg2PAK+DXzVkwWt17gAMBtBEfFuyoHBLbKz2LD8AfiQpAnZQcw6xQWAWRf4wGBPGAfsKOnm7CBmneACwKyLImIZ4EDg48DcyXFs8F4CPi3ppOwgZsPlAsAsQUSMBQ6idBicIzWMDcWPgc9Lejk7iNlQuQAwSxQRbwEOBXYFRuWmsUG6FthJ0sPZQcyGwgWAWQ1Ukwi/DmwPRHIcG7jHgJ0lXZEdxGyw/IzDrAYk3SFpR2Bd4MLsPDZgSwJ/jIh9s4OYDZZXAMxqKCI2AA7D1web5FRgL0kvZgcxGwgXAGY1FhGbAocDGyVHsYG5FdhB0n3ZQcxmxwWAWQNExHsoKwLrZmex2XoS2E7SldlBzPrjMwBmDSDpYknrUQ4J3padx/q1KPCHiPhQdhCz/rgAMGsQSecDawAfBh5MjmN9mwf4VUR8OTuIWV+8BWDWUBExH/A/1eN1yXGsbydQugdOyg5iNi0XAGYNFxFLA0dQJhBaPV0CfFDSs9lBzKZwAWDWIyJiI+A4YJ3sLDZLtwHbSBqfHcQMfAbArGdIuhpYD/gY8GhyHJvZasD11WRIs3QuAMx6iIqfAysCRwIeVlMvY4ArI2Kb7CBm3gIw62ERsTxwDLBtdhabzmRgb0k/yQ5i7eUVALMeJuk+SdsBWwF3ZOex18wB/DgijowID3+yFF4BMGuJiJgD+DRl6uCiyXFsqrOAj0h6KTuItYsLALOWiYhFga9RioE5k+NYcQ2wraQnsoNYe7gAMGupiFgVOB54R3YWA+BeyjXBe7KDWDsMqACIiFHABpSDROtSTrKOARYc0XR9mwxMpJxwnjjNY3Z/nvHvngaeACZUL6e8PsFdu6wNqu/tfYBvAPMnx7Hy82fb6kqn2YjqtwCIiHmBvYEDgCW7FaomnmZqYTBjgTDt648B/5T0n6ScZsMWEcsC/we8OzuLMZFyJuDM7CDW2/osACJie+BYYJmuJmomUQqBB2Z4jKtePugVBWuCiNgD+C4wOjtLy70KfErSz7KDWO+aqQCorqQcAhwM+HpKZ0wGxjN9UTDt4xFJr6alM5tGRCxBaSm8a3aWlhOwv6Rjs4NYb5quAKh++Z8E7JGWqJ1eAu4Ebp32Ienfqams1SLi/cCPgaWys7TcQZIOzw5hvWfGAuBQyrN/q4fHmL4ouAW4U5Lbu1pXRMSClEmDn8YrgpmOkHRgdgjrLa8VANWe/zn4m7zuJgF3MfNqwUOpqaynRcTGwM+AlbKztNgPgX3ku9vWISFpymn/u/GBvyabAFwLXAVcDdwoaWJuJOslETEPcBDwP8BcyXHa6hfAJyRNzg5izTelADgAOCo7jHXUROAmSkFwFXCNpCdzI1kviIjVgRMoPUGs+84CdpP0SnYQa7agDAR6mPbd828bUQ4aTikIrpL0QG4ka6pqrsDngcOA+ZLjtNHvgJ08P8CGI4CNKL8QrH0epmwXTCkKbvHSog1GRLwVOBVYMztLC10GfEDSC9lBrJkCOBL4YnYQq4VngD8AFwEXS3o4OY81QETMDXwT2B8fIu62aynzA57ODmLNE5QqcrPsIFZLt1CKgYsoZwjczdD6FBFbUvqIjMnO0jJ/Bbb2JEEbrKBcKfPVHpudZ4BLmbo64GuHNpOIGE25LrhddpaWuRPY0qt2NhgBPEveVD9rrluZfnXAJ5LtNRGxF2WWyOuys7TIfZQiYFx2EGuGoJwONxuOZ5m6OvBrSY8n57EaiIiVgF8B62RnaZHxwBaS/pEdxOrPBYB12iTKuZIzgHN9OKndImIuylXBL1KuHNvIe4xyJuDW7CBWby4AbCS9DFwCnA78RtJzyXksSURsBpyMBwt1y5PAZi4CrD8uAKxbXqI0LzkDuEDSf5LzWJdFxCLAT4GdsrO0xGPAu7wdYH1xAWAZngd+S1kZ+L1nFrRLRHwMOA5YIDtLC4wH3umDgTYrLgAs2zPAeZSVgUvda6AdImIFSgfB9bKztMB9lJUAXxG06bgAsDqZAJwC/FTS37PD2MiKiDkpnUj3y87SAndSigA3C7LXuACwuroaOB440+cFeltE7EKZLjh/dpYe91dgc9/MsSlcAFjdPc3UVYHbssPYyIiIVShbQW/JztLjrgW28gAhAxcA1izXUVYFTpf0YnYY66yIWIhyVXDb7Cw97jLgfR4lbC4ArImepXSY+6mkv2WHsc6JiAC+RGke5MZBI+d3wPZu4d1uLgCs6W6krAqcJun57DDWGRGxNeWWwOjsLD3sLOBDkiZnB7EcLgCsVzxH+YVxrKS7ssPY8EXEssC5wNrZWXrYL4CPSfLvgRZyAWC9RsAFwNGSrsgOY8MTEfMCPwI+mp2lh/1Q0t7ZIaz7XABYL7sROBo4x8uczRYRnwK+B8ydnaVHHSHpwOwQ1l0uAKwNxgHfBU7w9afmioi3A2fjgUIj5SBJh2eHsO5xAWBt8hTwE+D7kh7JDmODFxFLUGZIbJadpUftJ+nY7BDWHS4ArI1eplwjPEbSHdlhbHAiYg7g28AB2Vl6kIBPSvpZdhAbeS4ArM0EXEw5MHhZdhgbnIjYlXKKfZ7kKL3mVcr1wDOzg9jIcgFgVvwVOFzSudlBbOAiYmPgfNwvoNMmAltIujo7iI0cFwBm07uZchjqwuwgNjAR8RbgImD57Cw9ZgKwgaR7soPYyHCrTbPprQ38LiKuiYgtssPY7FW/oN5BGXRjnTMauDAiFssOYiPDBYDZrG0AXBoRf4qIjbLDWP+qOfebA+dkZ+kxKwC/rhoyWY9xAWDWv02BqyLioohYNzuM9a2abvdB4JjsLD1mQ+DkalCT9RAXAGYD8x7gxog4PyJWzw5js6biAGBvwN0fO+eDwBHZIayzfAjQbPAEnAkc6sFD9RUR76c0DZo/O0sP+Yykn2SHsM5wAWA2dJMpDYW+Jun+7DA2s4hYhzIc6g3ZWXrEZOADviXTG1wAmA3fK5SJdYdKejo7jE2vGiv8O2CV7Cw94nngnZL+lh3EhscFgFnnPAF8FfiZpw/WS0QsDJxLuSlgw/cw8HZJ47OD2ND5EKBZ5yxGGTb0l4jYNDmLTUPSM5SDnCdnZ+kRYyg9AhbKDmJDNwp4LjuEWY9ZA/hTRJwVEWOTs1hF0iuS9gS+lp2lR6wGnBURc2YHsaEZRVnKMbPO2wm4MyIOiwifRK8JSYcCn6QMvbHh2Zqy6mUN5ALAbGTNSzkXcHdE7JYdxgpJxwMfASZlZ+kBH4+IL2eHsMEbBdyUHcKsBd4EnFLNGHBHwRqQ9CtgZ+Dl7Cw94PCI+FB2CBucUcCvs0OYtcgGwA0RcWJE+G56MknnAR8A/pOdpeEC+HlEvDM7iA1cMHUbYMnkLGZt8xzwdeC7vjaYKyLeRWkYtGB2loZ7Elhf0n3ZQWz2Rkl6FTg6O4hZCy0IHEVZEVgzO0ybSboC2BJ4KjtLwy0KnBsRr8sOYrMXkqhGPd4NLJMdyKylJlEK8a9VU+0sQUSsAVwCLJGdpeFOleRDrzU3Cl4bo/l53BXQLMucwIHArRGxSXaYtpJ0C/Au4KHsLA334YjYNzuE9e+1ToDVYZivJ2YxM3gLpYnQT6v2tdZlku4G3gk8kJ2l4Y6uzlZYTYU09Ul/RARwErBHWiIzm+Jh4L8lnZ8dpI0i4k3ApcDK2Vka7DFgbUnuN1ND080CUKkGprTK9HaAWa4xwHkRcbavDHafpIeATYBbsrM02JLA2RExd3YQm9lMw4BUHArsCDzY9URmNqMdKS2FP5YdpG0k/RvYDLghO0uDbQAcmx3CZjbdFsBM/1huB+wNHID7BJjVwWXAJ33PursiYkHgt5QVARua/5J0UnYIm6rfAuC1N4oYRanitgXWpSxNjsFNM8wy/Ac4CPiOBvINbB0REfMB51MG4NjgvQRsJOnm7CBWDKgAqJuImAOYG5hnFi9n9XfT/tsilLnto6uX0z5GA3N18T/FbDguAz5S7VVbF1RFwEV4JWCoxgHrSpqQHcQaWgCMpOrq1awKgzcCy03zWCQro9k0nqRsCZyTHaQtqu2AS4H1s7M01B+A91RdaC2RC4AhqgqF5fp5zJeXzlroRGBfSc9nB2mDiFgE+BOwRnaWhvqWJI8QTuYCYIRExJLAm4HlgVWB1avHmzJzWU+7F9hNkk+sd0FELAFcjvsEDIWAHasGdJbEBUCXRcSiTC0GpjxWxSsG1hmTgEMpz7C8xDrCqmZBV1JW/WxwngPWqzovWgIXADVQ3bJYgemLgjWBZTNzWaNdCewh6Z/ZQXpdRCxH+d/bq3uDdydlfLC3rhK4AKixiHgjsHH12IhSFMyRGsqa5BngM5JOyw7S6yJiJeAKPEVwKM6RtFN2iDZyAdAgEbEA8A5KMbBx9foCqaGsCU6hzBR4NjtIL6tGCf8J3xAaiv+VdGR2iLZxAdBgVT+ENZh+lWBMaiirq3GUA4LXZAfpZRGxPuWKoJukDc5kYBNJV2cHaRMXAD0mIlYA3ls9NsWHC22qycDBlAOC/sYfIdUI3Ivx995gjQPW8EpV97gA6GFV17JNgW0oBcHyqYGsLs4H9vQP2pETEe8GfkPpQmoD9ytJu2eHaAsXAC0SEStSCoFtKK1M58lNZInuBnaQ9PfsIL0qIrYHzgTmzM7SMLtJOjU7RBu4AGipiHgdsDlTVwfGpgayDM8DH5V0dnaQXhURuwEnM4vR69anZyhbAb7COsJcABgAEbEWsAuwM25q0jZHAl+WNDk7SC+KiL2An2bnaJirgE39NTmyXADYTKqTzFOKgaWS41h3/BHYVdIT2UF6UUQcChySnaNhDpJ0eHaIXuYCwPoUEQFsSCkGPgi8ITeRjbAHKf3Zb8oO0osi4iTgI9k5GmQSsLGk67OD9CoXADYgVbviTSjFwI6UMcnWeyYCn5V0YnaQXhMRc1GuB26enaVB7gPWdKvgkeECwAYtIuak/BDbHdgJ33fuRT8F9pH0cnaQXlKNEb8aWCU7S4P8QtJHs0P0IhcANiwR8XpgD+CTlKmG1juuB3aSND47SC+JiGWB6/CW2mDsLOms7BC9xgWAdUxEbEgpBHbGqwK94t+UIuDK7CC9JCLWAS4H5s/O0hBPAau7GO0sFwDWcdWqwO6UYmC15Dg2fBOBj7k5S2dFxPspXRk94XNg/gxsIenV7CC9ws0prOMkPS3pB5JWBzYAfgG8mJvKhmEe4JSI+HJ2kF4i6QJg3+wcDbIp8MXsEL3EKwDWFdXhp92Bz+ADUE12AvBpSZOyg/SKiDga+EJ2joZ4BdhA0l+yg/QCFwDWVVVvgfdQKvnNkuPY0FxCORfwXHaQXlB9T5xFuV5rs/cPYG1JL2QHaToXAJamOgh1AKXJkPdBm+VW4H0+lNUZETEvcBlly8xm73hJn8wO0XQuACxdRIwF9gM+jk9FN8lDwPsl/S07SC+IiMUo1wM9tntgtpd0fnaIJnMBYLUREYtQzgjsg+9IN8VzlDvaF2cH6QUR8RbgWmB0dpYGmAC8TdK/s4M0lW8BWG1IekrSNymjiT8B3JmbyAZgQeC3EeHl2A6QdA+wHeXqpfVvNPD97BBN5hUAq63qcNT7gIOA9ZPj2OwdAXxJ/qEybBGxK3Bado6G+ICk32aHaCIXANYIEfEB4OvAGtlZrF9nAHtK8jPYYYqIoyiHZK1/44FVJD2bHaRpvAVgjSDpN8BalDbD3hqor12AS6tukDY8BwJ/yg7RAEsB384O0UReAbDGqUYT7wYcgk9M19Vfga0lPZEdpMkiYgngL5RfctY3Ae+SdFV2kCZxAWCNVY0l/ijljMDSyXFsZn8HtpT0SHaQJouItwNXAHNnZ6m5u4A1vf00cN4CsMaSNEnS8cBbgM8BjyZHsum9DbiiGn9rQyTpesrXt/VvZeCr2SGaxCsA1jMiYj7gvyl7p75HXR8PUqa43ZsdpMki4kTKipf17RVgHUm3ZQdpAhcA1nOqA2iHUIqBuZLjWPEoZTvgjuwgTVW1C74aWDs7S83dQBkY5LHBs+EtAOs51Tji/YDVgYuy8xhQOjv+OSL8y2uIJL0E7EDpgGd9Wx+PWR4QrwBYz4uIbYDvACtlZzGeAd4r6drsIE0VEVtTCls/gevbC8CqksZlB6kzfwFZz5N0IbAasD/wdHKctlsY+ENEeBT0EEm6hHLzxfo2P/B/2SHqzisA1ioRsThwGLAXLoAzvQTsWBVnNkhVm+zzgG2zs9TcnpJOzg5RVy4ArJUiYg3gWGDT5Cht9grwIUnnZAdpoohYCLiJcg3WZu1J4K2eGDhrfgZkrSTpFkmbATsB45LjtNVcwBkRsUd2kCaqet9vT9nvtllbFDguO0RduQCwVquefa4KfBfwtaHumwP4hYuAoamuVX48O0fN7RoR788OUUfeAjCrRMT6wAmUgsC6azKwi7cDhiYivgPsl52jxsYDb5P0XHaQOvEKgFlF0g2UJiuHAC8nx2mbOYDTqiubNnj/A9yYHaLGPDFwFrwCYDYLEfE24GfABtlZWuYlYBtJHoM7SBGxAmUK4wLZWWpKlA6B12cHqQuvAJjNgqS/AxtThrA8nxynTeYFfhsRLrwGqZq14A54fQvge9UVSsMFgFmfJL0q6fuUMwEXZ+dpkfmBi9w2ePAknQicnZ2jxtYHfOC04i0AswGqTqp/F08a7JYngE09QGhwImIR4FbKvrfN7BFgRUmtX9nzCoDZAEn6JfBW4NfZWVpiMeDSam/bBkjSU8BH8LXWvrwR+HJ2iDpwAWA2CJIel7Qd8Gngxew8LfAG4I8RsWx2kCapDlEelZ2jxvaPiDdnh8jmLQCzIYqIlYBT8Xz2brgXeJekR7KDNEVEzAVcC6yTnaWmzpO0Q3aITF4BMBsiSXcD7wCOxMutI20FynbAYtlBmkLSK8BueKWqL9tHxObZITK5ADAbBkmvSPpfYCvgoew8Pe5twCUR8frsIE1RFamfz85RY8dGxBzZIbK4ADDrAEmXAasDbmU7stai9AmYJztIU0g6Hjg/O0dNrQZ8MjtEFp8BMOuwiPgY8D3KfXYbGWdQRgn7B9gARMRoytXAMdlZamgC8Jbq9kSreAXArMOqZixr4d7sI2kX4FvZIZpC0gRgT0o7XJveaODQ7BAZXACYjQBJ9wAbAkdnZ+lh/xsRrV2+HSxJlwLfyc5RU5+NiLdmh+g2bwGYjbCI+CBwIh7SMhImAf9Pkls1D0BEzA1cD6yZnaWGLpH07uwQ3eQCwKwLImIV4FxgxewsPeg5So+Av2UHaYLqme5fgPmys9TQByT9NjtEtwyoAIiIUZSxqNsC61IOkowBFhzRdH2bDEyc4fHyLP5uImW86FOUvuITqpfTvj4BeFLS5O7+J1jbRMTCwMnAB7Kz9KCHgHdIGp8dpAki4gt4e2pW7gFWlfRydpBu6LcAiIh5gb2BA4AluxUqgShFwgTgYeAB4P7q5ZTXH/WJYxuuahTpVymHjnwGp7NuBTaW9Fx2kLqr7r5fR3lCZ9P7oqRWFEd9FgARsT1wLLBMVxPV10vAOKYvDO4BbgPGuTiwwYiI9wK/AhbJztJjLgHeJ2lSdpC6i4jVgZuA+gEPKgAAIABJREFUubKz1MyzlGmBj2UHGWkzFQDVM5RDgIOByAjVQM9RCoFbp3ncJunZ1FRWa9UwkvMoDYSsc06Q9InsEE0QEYcDX8nOUUOt+BqargCofvmfBOyRlqh3CPgnUwuCvwLXSHo0NZXVSkS8Djge+HB2lh7zFUnfzA5Rd1VHxVuAlbKz1MyrwHqSbs4OMpJmLAAOpTz7t5FzH3DVlIeku5LzWA1ExL6UQ1lzZmfpEQJ2l3RqdpC6i4iNgSvwiu+M/iBp6+wQI+m1AqDa8z8HfxF02xPA1UwtCv5STfGylomIrYGzgIWys/SIicBWkq7MDlJ3EfEj4DPZOWroXb389ROSppz2vxsf+KuD/1BmeF8EXCjp78l5rIsiYjXgd8DS2Vl6xL+BdXw9sH8RsSDwd2Cp7Cw1c7mkTbNDjJQpBcABwFHZYWyW/klVDACXSXohOY+NsIgYA1xAmSdgw3c95ZlcK+52D1VEvB9oTROcQdiqaqPcc4JyF/lhevuef6+YCFxOKQYurPrNWw+KiAWA04H3ZWfpET+V9KnsEHUXEacBu2bnqJnrJG2QHWIkBLARZe/Zmude4NfA6ZJuyg5jnVU1a/ke8NnsLD3i49WkRutDRCxB2QoYnZ2lZt4n6cLsEJ0WwJHAF7OD2LDdR5mRfrqk27LDWOdUbVuPxJ0Dh2sipVOgi+V+RMQelJbVNtXNktbJDtFpAVwGbJYdxDrqTsry8RmS7s4OY8MXETsAp+ABLsP1IOVQ4BPZQeosIi4GWjUZbwB2kHRedohOCuAu3ASil/2NqcXAuOQsNgwR8XbgN8AS2Vka7o/Auz0ArG8RsSxwBzB/dpYauR1YvZfavo+iTPWz3rUm8G3g/oj4Q0TsXM0Et4aRdD3wDkrRbkO3BeAugf2Q9E/cInhGqwK7ZIfopKB0zLJ2eZzS8vl4Sf/IDmODExGjKUNv1s7O0nAflHR2doi6qsbAX00pOq24G1ilV1aPXADYnym96M+RNDE5iw1QRCxMuQ66YXaWBnseeLubbfUtIlalzDFxi+qp/kvSSdkhOsEFgE0xgXLy93hJd2aHsdmLiPkp10C3yM7SYHcD63tyZ98i4vvA3tk5auR+YOVeaNnuAsBm5Q/A0ZIuyQ5i/aumuZ0NvD87S4OdTznh7Z+FsxARiwL3AItmZ6mRT0o6PjvEcPlesc3KVsDvI+KWiNgjIubKDmSzVm3b7ACcmZ2lwbYDvpQdoq4kPQkcnJ2jZg6qiu9G8wqADcR44DhKO1UvldZQ1TXweOCj2VkaajJlXsA12UHqqPr6ugVYJTtLjewj6QfZIYbDBYANxrPAT4HjPF2tfiIiKK2DvV87NOOANVzkzlpEbEnZHrTiEWB5Sf/JDjJU3gKwwVgIOIDSU+DkiFg5O5BNpWIf4IjsLA01Fvhhdoi6qibi/To7R428kYbP6fAKgA3HZEp72q9JeiA7jE0VEV8FDsvO0VAflnRadog6iojlKcOC3EyseBx4s6Tns4MMhVcAbDjmAPYE7o6IH0fEm7IDWSHpcMpqjQ3ej6tWuDYDSfcBx2bnqJHFgc9lhxgqrwBYJ70E/Bj4tqR/Z4cxrwQMw5XAppJezQ5SNxGxIPAP4A3ZWWpiArCMpBezgwyWVwCsk+YF9qOcEfhGRCySHajtqpUAnwkYvHfiq4GzJOk54MvZOWpkNA29feMVABtJzwBHA8c0+aRsL3A3tyGZBGwk6YbsIHVT3Ti5EVgnO0tN3Aes2LQVI68A2EhamLL8fHdE9NQUrQb6HPDz7BANMyfwq4hYIDtI3VRdE/fNzlEjy1MacjWKCwDrhqWB0yPiyohYKztMG1U/sPfCHQMHawVKEyybgaSrAd+WmKpxh269BWDd9ipwIvAVHxTsvqqt87l4dsBg7STpnOwQdRMRSwN3Aa/LzlIT75J0ZXaIgfIKgHXbKOATwD8iYn/PGeiuaoLZTsAfs7M0zE99zXVmkv4FHJmdo0a+mB1gMLwCYNn+Aewn6cLsIG1SjRK+BNgwO0uDXAZs6amB04uI+SirAMtkZ6kBAW+TdFd2kIHwCoBlWxH4XUT82s+wukfSC8A2wM3ZWRpkc2D/7BB1U93wOTA7R00E8IXsEAPlFQCrk2eB/6FMHfTXZRdExGjgKsBzHQbmP8BqVUc8q1TXAm8BVsvOUgMTgWUlPZYdZHa8AmB1shDwE+DPEbFidpg2kDSBshLgA5kDMx9lIqZNoyrYD87OURPzAPtkhxgIrwBYXb0EfB04StKk7DC9LiLeDvyJ8gvOZu/jkk7MDlE3EXEjsG52jhp4ktIe+IXsIP3xCoDV1bzAN4EbI8LdxkaYpOuB3SnXNG32jokI98Kf2UHZAWpiUeBj2SFmxwWA1d2awPURcWR12thGiKRzKWcwbPZeD/wgO0TdSLoYuDo7R03sFxFzZIfojwsAa4I5KPdr/+bVgJEl6RjgR9k5GmLHiNguO0QNfTU7QE0sB+yYHaI/PgNgTfMKZZnxqKYN3miK6lnLr4H3ZWdpgIcp976fyQ5SJxFxKbBFdo4auEnSetkh+uIVAGuauYBvA3+MiKWyw/QiSZOBXYG/ZmdpgDHAUdkhashnAYp1I2KT7BB9cQFgTbUpcGtE7JQdpBdJep4yL+Bf2Vka4BN1/iGfQdK1gLt7FrVtD+wtAOsFPwc+V/3Ssg6KiNUojYIWys5Sc/cAq0t6KTtIXUTE2sBNlN8zbSZgVUl/zw4yI68AWC/4KPDXiFg/O0ivkXQb8EHAvRj69xbgkOwQdSLpZuC87Bw1UNv2wEFpv7pgdhCzDpgEfFXSEdlBek1E7Ascm52j5iYB60n6W3aQuoiIVYBb8ZPNlyntgR/NDjKtUZRTrGa9YE7g2xFxTkS4qO0gSccBp2bnqLk5gRPqfve7myTdAZyenaMG5qaGjYFcAFgv2gG4ISI84Kaz9qI8m7O+rQ3slx2iZg4FJmeHqIGPV0OTamMU5ZCGWa9ZmVIEbJ8dpFdIehHYHngqO0vNHew2wVNJugc4KTtHDbyZmvVGGEVp+GHWixYEzomIb0ZE2/cgO0LS/cBueGZAfxakzLGwqQ6j7IO33V7ZAaYVTN0GWDI5i9lIugT4kKQns4P0gog4iDKt0WZNwPqSvMJaiYgfAZ/JzpHsZWApSY9nBwEYVbVTPTo7iNkI2xr4S0SslR2kRxwO/CY7RI0F8L3sEDXzbXyddG5gz+wQU0xZFv0B8GBmELMuGAtc7e6BwydJwEeAf2RnqbENImK37BB1IelB4IzsHDXwiewAU4wCqLpXfR53BbTeNx9wZkTUtj1nU1QDcHYA3IGxb0dExPzZIWrEq82wUkS8KzsETNOcQdJ5eE/P2iGAIyPiR76zPTzVPe/a3W+ukTcBB2aHqIuqSdIfs3PUQC0OA0ZZyav+UO4ongTskZbIrLsuBHbxHIHhiYijgAOyc9TUS8BbJY3LDlIHEfFu4OLsHMleAsZISr1SO93VqGpfb0/ga3g7wNphG+CKiBiTHaThvgTcmB2ipubFI4NfI+n3wG3ZOZLNSw2eaM90N1rFocCO+GCgtcNawHXV5DsbAkmTKP0BXsjOUlM7RcSm2SFqxGcBarAN0GdzlOpMwEqUWcaPdS2RWY6lgasiYqvsIE1VdXz7XHaOGjvWZ05ecxrwUHaIZKtGxDsyA/TbHU3SS5KOBsYAG1OWsf4E3A08N/LxzLpqIeDCiEhfmmsqSScC52TnqKk1qNEVsEySXgGOy85RA6mrANMdAmyKiJib0m5zoerlgkP485uA13U7uzWCgM9I+r/sIE0UEYtShga9KTtLDT0BvEXS09lBskXEwsC/aPc4+hcohwGfzfjkjSwAOqG68bAMZWjMjA8P8jCA/SV9NztEE0XE5sAf8Bz4WTlO0uezQ9RBRBwNfCE7R7LPSPpJxidubQHQn6oyXYmZC4MVgLkSo1n3HSTp8OwQTRQRRwD/k52jhl4BVq4GK7VaRCwN3A/MmZ0l0c2S1sn4xC4ABiEi5qSMdFwZWB3YDNiQcqXDete3JX0pO0TTRMRcwHXA2tlZauhkSbXpCZ8pIk6h3CBps3Uk3dztT+oCYJgiYl5gI8qc582BdQGf9O093wf2lb9hBiUiVgJuxudtZjQZWFXSXdlBskXEmsBfs3Mk+4mkrk9KdAHQYdX2wSaUgmALYJXcRNZBJwJ7VRM0bYAi4lNAyh5nzZ0hadfsEHUQEX8AtszOkehZymHArvbRcAEwwiLiDZSVgSkFwbK5iWyYTgM+UjW+sQGKiPOBbbNz1IyANSXdmh0kW0RsDfw+O0eyj0n6eTc/oQuALouIN1MKgfdR2tD6UGHznAbs7pWAgYuIxYE7gdHZWWrm15K2yw5RBxFxC+VsVVv9SdLm3fyELgASRcRiwIcp8xd8UKpZTgQ+4TMBA1c1WDo5O0cNrSfppuwQ2fz1wavAmyQ92q1P6AKgJiJiVeC/KKdh3YegGb4vya1vByEiLgLek52jZi6W9N7sENmqBm/jgcWzsyTaR9IPuvXJ3KSjJiTdLukAYCnK9sBZwMTcVDYb+0TEt7JDNMynAY9ent57ImKj7BDZJL1MGUffZl09FOoVgBqLiEWAXShbBKlDI6xfbhY0CBGxD/C97Bw182dJm2WHyBYRK1JmzbSVgGUkje/GJ/MKQI1JekrSTyRtQGk+9C3KEpnVy2ERsV92iAb5IXBtdoia2TQitsgOkU3SP4DLs3MkCmDnbn0yFwANIeluSV+mXCN8L+3+Jqmj71T33W02qtsTnwBezs5SM4dlB6iJ47MDJNulW5/IBUDDSHpV0sWSNgXeCVySHMmm+rFHCQ+MpL8D38jOUTMbRMQ22SFq4BzgyewQidaPiOW68YlcADSYpKskvRt4O/Db7DxGACdGxFbZQRriW8Dt2SFqpvWrAJJeAn6ZnSNZV7YBXAD0AEk3SPoAsCZwNuU+qeWYEzg7IlbLDlJ3kl4BPo6/Xqe1dkTskB2iBtq+DdCV2wAuAHqIpFskfRBYFfgVZeCIdd9CwO8iYkx2kLqTdANwXHaOmvlqdoBsku4ArsnOkWjN6kbEiHIB0IMk3Slpd8rNgRMo88etu5YGLoiIBbKDNMBBwLjsEDWyVkR0tSVsTbV9FWDEDwO6AOhhku6V9AlgBeBHuLFQt60FnBERHg/dj2oC2gHZOWrG/3vAmcAz2SESuQCw4ZP0oKT/Bt4M/IzSbMK6Yxvg+9kh6k7SOcCfs3PUyHsiotWjxCW9SNnKbKtVRvprwAVAi0h6WNJewEZA60eQdtFnIuKL2SEa4PP4QOAUAXwhO0QNtH0bYEQPA7oVcEtFxJzA54CvAd6nHnkCdpZ0dnaQOouInwBuqFS8DIyV9Eh2kEwRcQOwXnaOJPdIGrHDgF4BaClJkyR9B3grpfGGjawATo6ItbKD1NxBwNPZIWpibmCf7BA10OZVgLeM5M8MFwAtJ2m8pJ0oe9X3Z+fpcfMB50bEotlB6krS48DXs3PUyKcjYv7sEMlOo90TJEfsMKALAANA0kXAKsDhuEf7SBoLnBYR/t7r2w9o90S4aS1CaZbUWpKepxQBbTViXQH9Q8heI+klSQcBqwOXZefpYVtTCi2bhapD4P7ZOWpkP18lbfU2wHIRsf5IfGAXADaTavLgFsBuwGPZeXrUgRGxfXaIupJ0IXBRdo6aGAvsmB0ik6QbaffNpRG5DeACwPok6VRgJUoTIV8X6awAToqIlbOD1Nj+uIvlFG4MBKdnB0j0wZH4oC4ArF+SnqmaCL0PeCI7T49ZEDgvIhbMDlJHku4CfpidoybWi4h3ZYdIdkZ2gERLRcTqnf6gLgBsQKpDgmsBV2dn6TErA7/IDlFjXwMmZIeoiVavAki6H7gpO0ei93b6A7oAsAGTNB7YFDgCbwl00g4R8b/ZIepI0tPAt7Nz1MT7vWXU6lWAjhcA7gRoQxIR2wAnA6Ozs/SIScBG1Xhcm0ZEzEfpUfGG7Cw18H+SPp0dIktELEOZHBnJUTJMAkZLerZTH9ArADYk1SntNfGWQKfMCfzK44NnJuk/wDezc9TEh9v8NSLpQeC67BxJ5gS27OQHdAFgQzbNlsCReEugE1YAvpcdoqZ+CvwrO0QNLAh8KDtEMm8DdIi3AKwjvCXQUR/00KCZRcRelEKg7W6UNCKNYZogIsYA42nnNsBDkpbq1AdzAWAdExFLUarzDbOzNNxTwOrVCotVqgmWdwHLZ2epgbUk/S07RJaIuAJ4Z3aOJGtI6khTJG8BWMdUv7A2wVsCw7UI8EvPC5iepEmUa4EGn8wOkMzbAB3gFQAbERHxfsoAj9YeWOqAAyUdkR2iTqqi6HbKGOs2exZ4o6QXs4NkiIglgYeANs5IuFzSpp34QH6GYSNC0gWUA4KPJ0dpssMiYp3sEHUi6VXgkOwcNbAQI9QfvgkkPQZcnp0jyYYRsVAnPpALABsxkv4CbAQ8kJ2loeYCTq3uwdtUZwO3ZIeogb2yAyRr6zbAXHToOqALABtRku6hFAFtnuQ1HCvife/pqOxbHpydowbeERGrZYdIdC6lOU4bdeQcgAsAG3GSHgHeRXuX7IZrf28FTE/SbwB3TWzxYUBJTwB/zM6R5D2d+CAuAKwrJD1D+aI9LztLA80B/Ky6BmdTHZYdoAZ2b/kWUVu3AZbqxOqPCwDrGkkvUeZau5nL4K0JfDE7RM38DrgzO0Sy1wM7Z4dIdD7wcnaIJMPeBnABYF0labKkT+Fnb0NxcESsmB2iLqqzAMdk56iB1h4GlPQU8IfsHElcAFgzSToY2Bt4NTtLg8wLHB8RbWyB2pdTgEezQyTbKCLelh0i0VnZAZJsFBELDucDuACwNJJ+SLnL3NYlvKF4Fy0++DUjSROB72fnqIE2f01cRDs7jw77OqA7AVq6iNicspc3rGq2RZ4F3ibpoewgdRARi1AmBc6fnSXRBOANVbvk1omIG4F1s3MkOF7SkIs/rwBYOkmXAZsDz2VnaYiFgB9lh6iLah/4hOwcyUbT4VnxDXNRdoAkwzoH4ALAakHSTcB2eDtgoD5QjWC24rvA5OwQyXbJDpCorQXAUhGxylDf2QWA1Ua1ErA7Phg4UN+NiLmyQ9SBpHG09zDYFNtHxDzZIZJcT9kGaaNNhvqOLgCsViSdBXwuO0dDrAjskx2iRo7ODpBsYeDd2SEyVEOiLsnOkWSjob6jCwCrnep2gPsEDMzBEbFEdog6qIZP/Sk7R7LWTggELswOkGTjob6jCwCrpapPgDsGzt7CwDeyQ9TIUdkBkv2/FrcG/j3t3D5cJiKWHso7ugCwOvssnh0wEB+LiLWyQ9TExcAd2SESLQC8PztEBkmPAzdl50gypG0AFwBWW5ImAx/GUwRnZxTwvewQdVC1B/5xdo5kvg3QPkPaBnABYLVWDRDaFrg1O0vNbRwRbf7BP61TgBezQyR633BbxDaYzwEMggsAq71pRgk/kJ2l5o5q8f7va6qvlzOzcySaF/hAdogkNwFPZIdIsFpELDTYd3IBYI0g6RHKFafHs7PU2NLAF7JD1MT/ZQdI1srbANV1wN9n50gwCthgKO9k1giS7qG0vnw+O0uNHVD1xm81SdcBt2XnSLR1RLw+O0QSbwMMkAsAa5TqrveHaOf0r4FYGDggO0RNtPka6dzADtkhkrT1OuCgbwK4ALDGkXQBvu/dn33dHAgohwH/kx0iUSsPhUqaANyQnSPB2yNizsG8gwsAa6qvANdkh6ip+YEDs0Nkk/Q07T4MuHlELJ4dIkkbrwO+Dlh7MO/gAsAaqZp7vivtHQAyO5+JiDdlh6iBNm8DzEm5QttGbT0HMKhtABcA1liS/gV8BJ8HmJV5ga9mh8gm6Rrg9uwciYY1L77B/kI7bwwN6iCgCwBrNEkX4vMAffl4RCyXHaIG2rwKsGUbR0ZXHSGvzM6RwCsA1jpfAa7ODlFDcwGHZIeogV/S3sOACwEbZodI0safCUtGxAoDfWMXANZ4Pg/Qr90jYuXsEJmqw4BnZ+dI1NZtgKuyAyQZ8DaACwDrCZLG4/MAszIH8OXsEDVwSnaARG0tAP5KO2dCuACw9qnOAxyZnaOGdo2IpbJDJLuMdvaIB1i9jTdCJL1CO/sBDPgcgAsA6zVfpZ17f/2ZC9g3O0SmapvonOwcid6THSBJG38WrBwRiw3kDV0AWE+Z5jxAW5/t9eWTQ5kW1mPOyA6QqK3bAG09BzCgg58uAKzn+DzALC0EfDI7RLLLgUezQyTZcrBtYnvEtbRzLsA7BvJGLgCsJ0m6CPhxdo6a2beNd8KnqEbFnpWdI8nCtPA6oKRnaGcjqNUH8kYuAKyXfRl4LDtEjSxFS+fET8PbAO3TxnMALgCs3arqf//sHDXT9lHB1wDjs0MkaWsB0MZzAEtHxOtn90YuAKynSTqVcgXMitUjYuvsEFmqFrFtnRC4RkSMyQ6RoI0rADCAVQAXANYGnwVezg5RI21fBWjzNkDrrgNK+iftXPVxAWAm6W7cIGhaW0XEW7NDZJF0A/BAdo4kbd0GaOMqgAsAs8o3gPuzQ9TIXtkBkrV1G2CriJgjO0SCNp4DcAFgBiDpJWDv7Bw18pGImCc7RKK2bgMsDKyRHSJBG1cAVo2Ifn/HuwCw1qh6A7S5Hey0RgM7ZofIIumvwLjsHEkGPCymh9wKPJcdosvmB97c3xu4ALC2+TzwfHaImmj7NsBF2QGStK4AkDQZuC47R4J+twFcAFirVG2CD8nOURObRsSK2SESXZgdIMmAp8X1GJ8DmIELAGuj71GWBK3dqwCXAROzQyQYExHLZYdI4BWAGbgAsNapJgZ+Gg8LAtgzIubODpFB0ouUAUFt1LptAOCW7AAJXACYzUjStcAJ2TlqYHFgu+wQidq6DdC6AkDSY8C/s3N02ZsjYoG+/tEFgLXZIbRzCXhGbd4G8EHAdmnb1l8Aq/b1jy4ArLUkPYxXAQC2iIix2SEySPoHcF92jgRvjYhFs0MkaFsBAP1sA7gAsLY7AnglO0SyAHbJDpGojasAAWyYHSJBGwuAPhs/zdnNFCMlIuYClgdWnubxBmDBWTygNISY8fEocDdwV/W4V1LbfzH0PEkPRsTJwMezsyTblVIMtdGFtLNL5MbABdkhuqyNBUCfKwBRpmM2S0S8CdgS2ApYB1iBzhczkyi94/8CXAr8sZoqZT0mIlagFH1t7JE+rZWrwUmtEhHzAROA+bKzdNnVklp1FqBqf/0C7fpef0bS62f1D40oAKr/07aa5pE1yexeSjFwKXCxpBeScliHRcQpwG7ZOZIdIunr2SEyRMSFtG9S3kRgYUmtOggbEXcAb8vO0WVjZ/UEttZnACJinYj4AfAw8Fvgc+T98oey0vBp4Gzg0Yj4eURsEhGRmMk64xvAq9khku2aHSBRG88BzAOslx0igbcBKrUrACJisYjYLyJuBW4C/huo42nVBYD/Av4M3BcRh7T1JHUvkHQncG52jmRvjYjVskMkaWMBAO1sC+wCoFKbAiAi3hARxwD/BL4DNOkH0XLAocC9EfHLiFg5OY8NzeHZAWqglasAku6lrDS2TavOAFTaWADMcuU8vQCIiDERcSzlwN3+wOuSIw3HHMDuwB0RcUaLn001kqRbKFtNbdbm64BtnBm/QXaABG0sAMbO6i/TCoCIWDgijqP84t+X3jqBOwrYGbglIs6tTplbM7R9FWD5iFg3O0SSNk6LG13dqmoNSf8Cns7O0WWzHP6UUgBExM7AnZRDffNkZOiSALYHbouIg6vbDFZjkm4ALsnOkayV2wC0swCA2QyM6VFtWwV446x+/3S1AIiIsRHxO+AM4I3d/NzJ5gW+BtwaEVtkh7HZOiw7QLJtswMkuQV4PjtEAhcAvS+AZWf8y64VABHxeeAOYJtufc4aWhG4NCJ+FRGLZIexWZN0Fe0dEwuwQkS8JTtEt0majGfGt0XbCgCYxTbAiBcA1V7/+cB3afYBv076MHBzRKyfHcT69O3sAMnaWqi3cRvABUA7jJ3xL0a0AIiINSitdNu6pNifscCVEfG57CA2S5cA47NDJGprAdDGmwArR8Tc2SG67Hag/m1wO6t7KwAR8VHgWsqQHpu1uYHjIuLsiFg4O4xNJelV4JfZORJtEhHzZ4dIcB0wOTtEl81JbofVrqvauLdtDPTIFwBRHAOcSG9d7RtJOwLXR8RMhzQs1UnZARLNA2yeHaLbJD0P/C07R4I+R8b2sL9nB+iysTP+RUcLgIiYA/gZpaGPDc5KwDURsWp2ECuqyXhtPBQ2hbcB2qON5wAeyA7QZSO3AlDtIZ0BfKxTH7OFxgBXRMSG2UHsNW1eBWjbdLwpfBCwHdpWACw+47ZeRwqA6oNeQFnKtuFZhHJV8H3ZQQwoRW2rxqVOY9mIaNvYVHAB0BZtKwBghm2AYRcA1TP/3wBbDfdj2WvmA853EZBP0lOUr++2at02gKRHKEPJ2mTJiFgiO0SXtbEAmG4bYFgFQEQEZYm0dYeFumBO4CxvB9TCL7IDJGrrNkAbDwK2bRVgXHaABGOn/cNwVwCOpr19w7thPuACHwxM93vg0ewQSTaIiLmyQyRoY6OYVhUAkp4DJmTn6LLOrABExH74tH83LAL83lcE81QtYn+VnSPJfMA62SESuABoh7ZtA4yd9g9DKgAiYnvgmE6ksQEZQykC3Cwozy+yAyTaODtAAhcA7dC2AmB4KwARMZbS5Cc6k8cGaCXghOwQbSXpduDm7BxJ2lgA3Av8JztEl701IlJGxCcalx2gy4ZeAETEnMBpwOs7mcgGbEfPDkjV1p4AG2UH6LaqFfTt2Tm6bF7aNaYd2rcC8PppV5IHW+0dDryjs3lskI7yFME0pwKvZIdIsFhErJwdIkEbtwFm6hbX49pWAMA0/x8PuACIiK2B/xmRODYYcwNnRMQi2UHaRtITwIUY7sTjAAAMOUlEQVTZOZK0cRvABUDva2MBMHbKKwMqACJiQcohKO/718NY4AfZIVrqd9kBkrgAaIe2FQD/pMVjgQe6AnAo7dsbqrsPR8QW2SFa6I/ZAZK4AGiHVhUAkl6ifT0+lpnyymwLgKoXuA+e1dOPImKe7BBtIul+2tcmFmD5iHhDdohukvQk8FB2ji4bmx0gQdu2ARaf8spAVgB+QGlLa/WzIvC/2SFaqK2rAG1sS922VYBWrQBUxmUH6LLFprzSbwEQEbsAm414HBuOL0XECtkhWqatBcBa2QEStK0AWKq67t0mbVsBmH0BUPX/PqIrcWw45gWOzA7RMpdlB0jSxk5xbesFMAfT7BG3RNsKgNFTXulvBWA3wP3nm2G7iFgtO0RbSHoUuCM7R4I2FgD3ZQdI0LZtgLYVAP2vAFTtIL233BwBfDU7RMu0cRtg2YhYKDtEl92fHSDB2OwAXda2Q70LTDk83tcKwA5AGzt/NdlOLe3WlqWNBUAArVppkvQY7ZsJ0LYVgH9nB0gwGvouAL7UxSDWGaOAr2SHaJHLgcnZIRK0cRugbUvErSoAJP3/9u4tRq+yCuP4f33QTlVqqB3SpsQTKVY8plTiKTRYCSlqQutZk1pMjDd40ShRE+KJC6OGoFEvkAspcqFcKPRG00JaIlExlBKjiVSLh5q2VKsFK6W0tcuLvb+xnZnOcX/vmnnX80smlGTIPHtW+fba63333seAk9E5ChuGcRoAM7sWuLJ4HOnCR9q3NcqAufszwO7oHAHUANQvVQPQOhIdoLDzTgBuLJtDOnQBsDk6RCIZ7wZQA1A/NQD1GzsBMLOLgI0hcaQrm81M72woI+M+gNcn/PuVrQFYZmYviA5R2D+jAxQ27hLAe4EXls8iHXolsDY6RBK/AE5EhyhsMfl2iWdrAIx8t4BnmwCMuwSwKSCIdO/G6AAZtC8S+WV0jgCp7gQgXwMAsCw6QGHZGoBzJwBmdimwLiyOdOn9Zvai6BBJ7IoOEODy6ACFZWwAlk7+LVXJ3QAANzD11wPL3HYRsD46RBLZnhUPyTaJtXd8HI3OUdjw5N9SlWwNwJglAL30py7XRgdI4onoAAFSNQCtbFOAbA1A3k2A7a7eayLTSOfUAJTxJ+BUdIjCLosOECBbA6AlgLqdswTwOvJ1fLVbaWbZdvIW5+6ngX3ROQp7hW4FrF6280G2BuCcJQCN/+v0zugASWRbBlgELI8OUdih6ACFqQGo22IzW6gGoG5aBigjWwMA+ZYBsq0RawmgfsP9BmB1aAwZlDXRAZLI2ABk2wiY7QSRagLg7s+S76FeS3tmtgh4aXQSGYjLzGxBdIgE1ADUL1sDkG0CAPmmPMM9mod66P7/Ol0IrIwOkcDe6AABsi0BZGsALjazC6NDFJatxkt7wKroFDJQr44OULv2QTFPRecoTBOA+mWbAmSr8Yt7wKuiU8hAqQEoI9sywIroACW1TV625z2oAajbkCYA9VN9y8jWAGQ7OUDCNeLoAIVlq+9Qj3xvfcom2/3aUbI1AEvM7ILoEIVlu0LM1gA8HR2gsIU9mvd7S71U3zKyNQAGvCQ6RGHZGoBsU56T0QEKG1IDUD/Vt4xsDQDkO0FkawCyTQCejw5QmBqABFTfMvYDx6NDFJbtBJGtAbg4OkBhmgBIdVTfAtzdgQPROQrLNgFIt0ksOkBh2SYA2gOQgOpbzrHoAIVpAlC3bA1AygmAiHRDDUDdjkYHKGxhdIDCsk0Ahnrk+9DKRvUt59/RAQrLtgSQ7gQRHaCwbBOAhWoA6qf6lpPtd51tAqAGoG7p6qsGoH6qbznZftdLogMUlu0KMVsDkK6+agDqp/qWk+13vSg6QGHprhCjAxSWrb5aAkhA9S0n2x6AbCeIbFeI2gRYt6EecDg6hQxUttfURsrWbGVrANKdIKIDFJatwRvqAXujU8hAZXxEbRQ1AHVLd4KIDlBYtgZvoRqA+qkBKEcNQN2ynSCy1Tddg6cGoH5qAMrRHoC6ZWsAtAegbkM9YB9wJjqJDMRp4MnoEIlkmwBkO0Gku0KMDlBYtvou7Ln7CZo3mUl99rn7qegQiWRrALKdINJdIUYHKCxdffvvAtgTGkMG5bHoAMmoAahbtitE1bduIw3AztAYMigPRAdIRnsA6pbtCjHbEk+6+qoBqNuD0QGS0QSgbumuEKMDFJauvubuAJjZIWB5bB7p0O/d/TXRIbIxM4/OUJK7W3SGklTfumWrb++sP+8KSyGDoPG/iIic19kNgJYB6qIGQEREzuvsJYBh4CCwIDSRdOFfwAp3z7apJVy2EaJGxHVTfes2MgFw9yPAzwKzSHd+qJO/iIhMpDfq338QkkK6dld0ABERmdtGlgAAzGwIOAQsCUsks/Vbd39DdIisso0QNSKum+pbt3MmAO3Y+N6gLNINXf2LiMikzpkAAJjZGmB3TByZpePAy9v9HBIg2xWErhDrpvrWbfQeANz9MWBHQBaZvTt08hcRkakYMwEAMLOrgZ+XjyOz8Bxwmbs/FR0ks2xXELpCrJvqW7cxEwAAd38YeLhwFpmdO3XyFxGRqRp3AgBgZtcB28vGkRl6nubq/2B0kOyyXUHoCrFuqm/dxp0AALj7DuDXBbPIzH1PJ38REZmO804AAMzsKuARJmgUJNwh4Ap3fyY6iOS7gtAVYt1U37pNeGJ390eBOwtlkZnZopO/iIhM14QTAAAzWwLsBS4pkkim46fu/u7oEPJ/2a4gdIVYN9W3bpOO9t39KPDZAllkeo4DN0WHEBGR+Wmqa/t3Aw8NMIdM3y3u/pfoECIiMj9NugQw8o1mlwKPo6WAuWCbu2+IDiFjZRshakRcN9W3blPe3e/uB4BNQKpf0Bz0JLA5OoSIiMxv07q9z923A18bUBaZ3HPA+7TrX0REZmsm9/d/AT0mOMpN7v6b6BAiIjL/TbsBcPf/Ah8E/tx9HJnA7e5+V3QIERGpw4ye8Ne+dOY64O/dxpHz+D5wc3QIERGpx4wf8evu+4DrgWPdxZFx/Bj4pE/1dg0REZEpmNUz/t19D7CB5m100r0HgI+2yy4iIiKdmfVLftx9J/Bh1AR0bSew0d1PRgcREZH6dPKWP3e/H3gXWg7oyo+A69392eggIiJSp85e89tOAq5BGwNn63aasb+u/EVEZGA6awBgZE/A29EtgjPhwKfd/TPa8DevZZqCZTrWvkzHnOlY+zId87FOGwAYuTvgbehhQdPxNM0T/r4ZHURm7WB0gIIyHWtfpmPOdKx9mY75YOcNAIw8J+AdwFfRuwMm8wiw2t3viw4inUj1ARIdIECmY850rH2ZjnkwDQA0Twx091tonhXwj0H9nHnMga8DV+u1vlXZHR2goEzH2pfpmDMda1+mY949sAagr32B0GrgoUH/rHnkELDe3T/v7qejw0intkUHKCjTsfZlOuZMx9qX6Zi3Wan9ZmZmNK+x/QZwSZEfOvecBr4NfNndM202ScPMejRjxGXRWQbsMLDC3c9EBylJ9a1btvoOfALQ542twCrgDiDVXyxgF/DGdpe/Tv6Vaj8wb4vOUcBt2U4OoPrWLlt9i00ARjOzq4DvAG8OCVDOX4HPufu90UGkDDNbBOwFXhadZUD2A6vc/UR0kAiqb90y1bfYBGA0d3/U3d8CrKfOWwafAD4OXK6Tfy7tB+cW6rwDxoEtWU8OoPrWLlN9wxqAPnff7u5rgbXAjug8HdgDfAB4rbtvdfdT0YGkvPa2zlujcwzArbplVfWtXZb6hi0BnI+ZrQE+AXwIWBIcZ6qOA/cBW939wegwMje0G1/vBjZFZ+nIPcBmPamyofrWLUN951wD0GdmQ8B7gI/RPEtgQWyiMc7QvLHvHuAn7v6f4DwyB7UfIl8CvghYcJyZcpqroa/o5HAu1bdutdd3zjYAZzOzYWADsI7mCYPLg6IcoXmewS5gm7sfCMoh84yZbQS+xfzbWLSfZs0w/Vh4Iqpv3Wqt77xoAEYzsytomoF1wJU0Rel6P8MZ4G/A4zQn/F3A79Qhy0y1u4s/BdzM3L/P+DDN7VDfzbwhbDpU37rVWN952QCM1hZmJc0zBvpfy4DF43xB88an0V+HaW79+EP7zz/qfwwZhPZhI28FbgDeBKxovxZP9N8N0DGah58cpHkU6jbgVxnvA++C6lu3mur7Pw05SSAjoVFZAAAAAElFTkSuQmCC;rotation=45;" vertex="1" parent="1">
          <mxGeometry x="600" y="312.75" width="26.5" height="26.5" as="geometry" />
        </mxCell>
        <mxCell id="ckwtcuSyuOzhh80tvO_Y-15" value="" style="shape=image;verticalLabelPosition=bottom;labelBackgroundColor=default;verticalAlign=top;aspect=fixed;imageAspect=0;image=data:image/svg+xml,PHN2ZyB4bWxucz0iaHR0cDovL3d3dy53My5vcmcvMjAwMC9zdmciIHZpZXdCb3g9IjAgMCAzMCAzMCI+PHBhdGggZD0ibTkuOTEgMTkuNTZjMC0uODUuMi0xLjY0LjU5LTIuMzhzLjk0LTEuMzUgMS42NS0xLjg0di05LjkyYzAtLjguMjctMS40OC44Mi0yLjAzczEuMjMtLjg0IDIuMDMtLjg0Yy44MSAwIDEuNDkuMjggMi4wNC44My41NS41Ni44MyAxLjIzLjgzIDIuMDN2OS45MmMuNzEuNDkgMS4yNSAxLjExIDEuNjQgMS44NHMuNTggMS41My41OCAyLjM4YzAgLjkyLS4yMyAxLjc4LS42OCAyLjU2cy0xLjA3IDEuNC0xLjg1IDEuODUtMS42My42OC0yLjU2LjY4Yy0uOTIgMC0xLjc3LS4yMy0yLjU1LS42OHMtMS40LTEuMDctMS44Ni0xLjg1LS42OC0xLjYzLS42OC0yLjU1em0xLjc2IDBjMCAuOTMuMzMgMS43My45OCAyLjM5czEuNDQuOTkgMi4zNi45OWMuOTMgMCAxLjczLS4zMyAyLjQtMXMxLjAxLTEuNDYgMS4wMS0yLjM3YzAtLjYyLS4xNi0xLjItLjQ4LTEuNzNzLS43Ni0uOTQtMS4zMi0xLjIzbC0uMjgtLjE0Yy0uMS0uMDQtLjE1LS4xNC0uMTUtLjI5di0xMC43NmMwLS4zMi0uMTEtLjU5LS4zNC0uODEtLjIzLS4yMS0uNTEtLjMyLS44NS0uMzItLjMyIDAtLjYuMTEtLjgzLjMycy0uMzQuNDgtLjM0LjgxdjEwLjc0YzAgLjE1LS4wNS4yNS0uMTQuMjlsLS4yNy4xNGMtLjU1LjI5LS45OC43LTEuMjkgMS4yM3MtLjQ2IDEuMS0uNDYgMS43NHptLjc4IDBjMCAuNzEuMjQgMS4zMi43MyAxLjgyczEuMDcuNzUgMS43Ni43NSAxLjI4LS4yNSAxLjc5LS43NS43Ni0xLjExLjc2LTEuODFjMC0uNjMtLjIyLTEuMTktLjY1LTEuNjdzLS45Ni0uNzctMS41OC0uODV2LTcuMzZjMC0uMDYtLjAzLS4xMy0uMS0uMTktLjA3LS4wNy0uMTQtLjEtLjIyLS4xLS4wOSAwLS4xNi4wMy0uMjEuMDgtLjA1LjA2LS4wOC4xMi0uMDguMjF2Ny4zNGMtLjYxLjA5LTEuMTMuMzctMS41Ni44NS0uNDMuNDktLjY0IDEuMDQtLjY0IDEuNjh6Ii8+PC9zdmc+;" vertex="1" parent="1">
          <mxGeometry x="696" y="199" width="40" height="40" as="geometry" />
        </mxCell>
        <mxCell id="ckwtcuSyuOzhh80tvO_Y-16" value="" style="shape=image;verticalLabelPosition=bottom;labelBackgroundColor=default;verticalAlign=top;aspect=fixed;imageAspect=0;image=data:image/svg+xml,PHN2ZyB4bWxucz0iaHR0cDovL3d3dy53My5vcmcvMjAwMC9zdmciIHZpZXdCb3g9IjAgMCAzMCAzMCI+PHBhdGggZD0ibTcuNTYgMTcuMTljMC0uODguMjQtMS44OS43Mi0zLjAzczEuMS0yLjI1IDEuODYtMy4zMWMxLjU2LTIuMDYgMi45Mi0zLjYyIDQuMDYtNC42N2wuNzUtLjcyYy4yNS4yNi41My41LjgzLjcyLjQxLjQyIDEuMDQgMS4xMSAxLjg4IDIuMDlzMS41NyAxLjg1IDIuMTcgMi42NWMuNzEgMS4wMSAxLjMyIDIuMSAxLjgxIDMuMjVzLjc0IDIuMTYuNzQgMy4wM2MwIDEtLjE5IDEuOTUtLjU4IDIuODZzLS45MSAxLjctMS41NyAyLjM2LTEuNDUgMS4xOS0yLjM3IDEuNTgtMS44OS41OS0yLjkxLjU5Yy0xIDAtMS45NS0uMTktMi44Ni0uNTdzLTEuNy0uODktMi4zNi0xLjU1Yy0uNjYtLjY1LTEuMTktMS40NC0xLjU4LTIuMzVzLS41OS0xLjg5LS41OS0yLjkzem0yLjI2LTIuOTNjMCAuODMuMTcgMS40OS41MiAxLjk5LjM1LjQ5Ljg4Ljc0IDEuNTkuNzQuNzIgMCAxLjI1LS4yNSAxLjYxLS43NC4zNS0uNDkuNTMtMS4xNS41NC0xLjk5LS4wMS0uODQtLjE5LTEuNS0uNTQtMi0uMzUtLjQ5LS44OS0uNzQtMS42MS0uNzQtLjcxIDAtMS4yNC4yNS0xLjU5Ljc0LS4zNS41LS41MiAxLjE2LS41MiAyem0xLjU3IDBjMC0uMTUgMC0uMjcgMC0uMzVzLjAxLS4xOS4wMi0uMzMuMDItLjI1LjA1LS4zMi4wNS0uMTYuMDktLjI0LjA5LS4xNS4xNS0uMThjLjA3LS4wNC4xNC0uMDYuMjMtLjA2LjE0IDAgLjI1LjA0LjMzLjEycy4xNC4yMS4xNy4zOGMuMDMuMTguMDUuMzIuMDYuNDVzLjAxLjMuMDEuNTJjMCAuMjMgMCAuNC0uMDEuNTJzLS4wMy4yNy0uMDYuNDVjLS4wMy4xNy0uMDkuMy0uMTcuMzhzLS4xOS4xMi0uMzMuMTJjLS4wOSAwLS4xNi0uMDItLjIzLS4wNnMtLjEyLS4xLS4xNS0uMThjLS4wNC0uMDgtLjA3LS4xNy0uMDktLjI0LS4wMi0uMDgtLjA0LS4xOS0uMDUtLjMyLS4wMS0uMTQtLjAyLS4yNS0uMDItLjMyczAtLjE5IDAtLjM0em0uNTkgNy43NWgxLjMybDQuOTktMTAuNzRoLTEuMzV6bTQuMy0yLjk5Yy4wMS44NC4yIDEuNS41NSAyIC4zNS40OS44OS43NCAxLjYuNzQuNzIgMCAxLjI1LS4yNSAxLjYtLjc0cy41Mi0xLjE2LjUzLTJjLS4wMS0uODQtLjE4LTEuNS0uNTMtMS45OXMtLjg4LS43NC0xLjYtLjc0Yy0uNzEgMC0xLjI1LjI1LTEuNi43NC0uMzYuNDktLjU0IDEuMTUtLjU1IDEuOTl6bTEuNTcgMGMwLS4yMyAwLS40LjAxLS41MnMuMDMtLjI3LjA2LS40NS4wOS0uMy4xNy0uMzguMTktLjEyLjMzLS4xMmMuMDkgMCAuMTcuMDIuMjQuMDZzLjEyLjEuMTYuMTkuMDcuMTcuMS4yNC4wNC4xOC4wNS4zMmwuMDEuMzJ2LjM0LjM1bC0uMDEuMzItLjA1LjMyLS4xLjI0LS4xNi4xOS0uMjQuMDZjLS4xNCAwLS4yNS0uMDQtLjMzLS4xMnMtLjE0LS4yMS0uMTctLjM4Yy0uMDMtLjE4LS4wNS0uMzMtLjA2LS40NXMtLjAxLS4zLS4wMS0uNTN6Ii8+PC9zdmc+;" vertex="1" parent="1">
          <mxGeometry x="736" y="199" width="40" height="40" as="geometry" />
        </mxCell>
        <mxCell id="ckwtcuSyuOzhh80tvO_Y-17" value="" style="shape=image;verticalLabelPosition=bottom;labelBackgroundColor=default;verticalAlign=top;aspect=fixed;imageAspect=0;image=data:image/svg+xml,PHN2ZyB4bWxucz0iaHR0cDovL3d3dy53My5vcmcvMjAwMC9zdmciIHZpZXdCb3g9IjAgMCAzMCAzMCI+PHBhdGggZD0ibTcuNjkgMTMuMmMwLS45OS4xOS0xLjk0LjU4LTIuODVzLjkxLTEuNjggMS41Ny0yLjMzIDEuNDQtMS4xNyAyLjM0LTEuNTYgMS44NS0uNTggMi44NC0uNTggMS45NC4xOSAyLjg1LjU4Yy45LjM5IDEuNjguOTEgMi4zMyAxLjU2czEuMTcgMS40MyAxLjU2IDIuMzMuNTggMS44NS41OCAyLjg1YzAgMS42Mi0uNDggMy4wNi0xLjQ0IDQuMzQtLjk2IDEuMjctMi4yIDIuMTQtMy43MSAyLjYxdjMuMjloLTQuMjR2LTMuMjVjLTEuNTQtLjQ1LTIuODEtMS4zMi0zLjc5LTIuNjFzLTEuNDctMi43NS0xLjQ3LTQuMzh6bTEuNjEgMGMwIDEuNTUuNTYgMi44OCAxLjY5IDMuOTkgMS4xMSAxLjEyIDIuNDUgMS42OCA0LjAyIDEuNjggMS4wMyAwIDEuOTktLjI1IDIuODYtLjc2Ljg4LS41MSAxLjU3LTEuMiAyLjA5LTIuMDcuNTEtLjg3Ljc3LTEuODIuNzctMi44NSAwLS43Ny0uMTUtMS41LS40NS0yLjIxcy0uNzEtMS4zMS0xLjIyLTEuODItMS4xMi0uOTItMS44My0xLjIyLTEuNDQtLjQ1LTIuMjEtLjQ1LTEuNS4xNS0yLjIxLjQ1LTEuMzEuNzEtMS44MiAxLjIyLS45MiAxLjEyLTEuMjIgMS44MmMtLjMyLjcyLS40NyAxLjQ1LS40NyAyLjIyem0uNTguMzZ2LS43MmgyLjE3di43MnptMS4wOS0zLjU0LjUyLS41MiAxLjUyIDEuNTItLjUyLjUzem0yLjUzIDQuOTNjMC0uNDIuMTUtLjc4LjQ0LTEuMDlzLjY1LS40NyAxLjA2LS40OGwyLjczLTQuNDkuNjYuMzUtMi4wMiA0LjgzYy4xOC4yNS4yNi41NC4yNi44OCAwIC40NC0uMTUuODEtLjQ2IDEuMTFzLS42OC40NS0xLjEyLjQ1Yy0uNDMgMC0uOC0uMTUtMS4xLS40NXMtLjQ1LS42Ny0uNDUtMS4xMXptMS4zMS00LjY3di0yLjE2aC42OXYyLjE3aC0uNjl6bTIuOTQgMy4yN3YtLjc0aDIuMTd2Ljc0eiIvPjwvc3ZnPg==;" vertex="1" parent="1">
          <mxGeometry x="776" y="199" width="40" height="40" as="geometry" />
        </mxCell>
        <mxCell id="ckwtcuSyuOzhh80tvO_Y-18" value="" style="shape=image;verticalLabelPosition=bottom;labelBackgroundColor=default;verticalAlign=top;aspect=fixed;imageAspect=0;image=data:image/png,iVBORw0KGgoAAAANSUhEUgAAAgAAAAIACAYAAAD0eNT6AAAACXBIWXMAAHYcAAB2HAGnwnjqAAAAGXRFWHRTb2Z0d2FyZQB3d3cuaW5rc2NhcGUub3Jnm+48GgAAIABJREFUeJzt3X+wX3V95/HnvYSQkBhSBRoQlEQSpBUIv5QRxZLOIiZQt844o8Wlu9Oxfzid7nS2FMetOKIjioxDt7O47EBn6g9kyo7jzgDKWpICQgSxhKAi8rMkQJRqA8lVkkju/vG5t+R7zSX33u85530+n8/zMXMmQ4Bz3ufz+Z5zXt/z/ZzPGUGamSXAOmANcApwHLB04t9tB54CNgHrgVuAHZ1XqFdj/+XN/pPUuVXA9cAYMD7DZQy4DlgZUK8G2X95s/8kdW4hcBWwh5mfeKYuu4ErgQUd1y77L3f2n6QQK4GHmPuJZ+qyETiq0z2om/2XN/tPUohTgZ/R3MlnctkCnNzhftTK/sub/ScpxEraOfnsexJa1tne1Mf+y5v9JynEAtIo4rZOPpPL/aTfN9Us+y9v9p+kMFfR/slncvlkR/tUE/svb/afpBCrGG608WyXHXgrskn2X97sP0lhrqe7k8/kck0ne1YH+y9v9p+kEEuY3SQjTS07gdd0sH+ls//yZv8pzGh0AQq3Djg0YLuLgLUB2y2N/Zc3+09hDABaU+m2S2H/5c3+UxgDgE4J3LYTkwzP/sub/acwBgAtD9z2isBtl8L+y5v9pzAj0QUo3C5gfuC2fVHJcOy/vNl/CmMA0Hjw9vvyGcz1fev2X2L/zU1f+k9SgK4fP5q6RMv9fev2n/2Xc/9JClTrCaiU963bf/Zfjv0nqQdqPAGV9L51+8/+y63/JPVEbSeg0t63bv/Zfzn1n6QeqekEVOL71u0/+y+X/pPUM7WcgEp937r9Z//l0H+SeqiWE1Cp71u3/+y/HPpPUg/VcAIq+X3r9p/91/f+U085FbBqcCkwr8PtLQYu63B7pbP/pBY4C5SivwW0/RlcAjxH969cHSM9Wtb2jHP2XzvsPxXPOwAqne9bz5v9J7XEAKDS+b71vNl/UksMACqd71vPm/0ntcQAoNL5vvW82X9SSwwAKt2SwG0fFrjtUth/UkscAarSRyG7f+1y/4ZT+v6px7wDIElShQwAkiRVyAAgSVKFDACSJFXIACBJUoUMAJIkVcgAIElShQwAkiRVyAAgSVKFDACSJFXIACBJUoUMAJIkVcgAIElShQwAkiRVyAAgSVKFDACSJFXIACBJUoUMAJIkVcgAIElShUaiCyjQfOAk4ATgxIk/3wgsBRYDi4DDwqqTpH56ARgDdgLbgaeAnwAPA48Am4E9UcWVyAAwvBHgDGANcC7wDtJFXpLUnDHgLmADsB74PjAeWlHmDABz9wbgg8CHgTcF1yJJtdkC3ABcDzwaXEuWDACzMwJcCFxC+qYvSYo1DnwH+DxwM94VmDEDwMyMAuuATwCnB9ciSdq/h4CrgK8CLwfX0nsGgAM7A/jixJ+SpP57EPgIcE90IX3mY4DT+y3gb4B78eIvSTk5hfSzwJeAI4Jr6S3vAOzfWuDvgcOjC5EkDeV54GLgW9GF9M1B0QX0zDzgMuB/4aN8klSCRcBFwGuB24G9seX0h3cAXnEk8HXg7OhCJEmtuAt4H/Cv0YX0gQEgeSNwG2nWPklSuR4H3j3xZ9UcBAi/Sxos4sVfksr3JtKdgFOiC4lW+x2Ak4A7SCP+JUn1+AXwLuAH0YVEqTkAHAvcPfGnJKk+z5LGfT0VXEeIWn8COBz4Nl78JalmR5OuBUdGFxKhxgAwD/gG/uYvSYLjgX+gwsfiq9th4ArSW/wkSQI4jvSFeENwHZ2qbQzAe0hvi6rxzockaXp7SbPA3hZdSFdqCgCHAw/j9L6SpP37GXAi6QmB4tX0E8Df4ix/kqTpLQKWku4UF6+WOwBnkyZ+qGV/JUlzs5d0zfhudCFtq+GCeBDwz8DJ0YVIkrLwz8CZFP7ioBoGw70fL/6SpJk7DfjD6CLaVvodgBFgEwYASdLsbCIFgfHoQtpS+h2AC/HiL0mavdWkR8eLVXoAuCS6AElStv4quoA2lfwTwPHATyh7HyVJ7RknXUueiC6kDSXfAbgYL/6SpLkbAT4UXURbSr1AjgCPASuiC5EkZe0xYBUFDgYs9Q7AGXjxlyQN73jSgMDilBoAfj+6AElSMdZEF9CGUgPAudEFSJKKUeQ1pcQxAPNJb3JaFF3IPrYANwC3AI8DPwVeDq1IkvrjIOC3Sbfb1wIXAceEVjRoB/A6YE90IXp1p5MGa/Rh+RXwl8CCVvdYksqygPQM/kvEn8cnlyLHAZTmIuI/KOOkb/lntbyvklSytwM/I/58Pg58oOV97VyJYwDeHF0AKbX+Ryp4naQktege4L3AruhCgBOiC2haiQGgD530cWBjdBGSVICNwCeii6AfXy51APcRe5voafzNX5KatJA0mDry3F7cl7oS7wAcFrz9r5B+ApAkNeNXpCepIi0J3n7jSgwAi4O3/83g7UtSiW4N3n70l8vGlRgAolPaY8Hbl6QSRZ9bXxO8/caVOBHQy8QGm3k4yY8kNW0esRPx7CVNWFSMEgPAePD2S2xTSeoDz+8NKvEnAEmSdAAGAEmSKmQAkCSpQgYASZIqZACQJKlCBgBJkipkAJAkqUIGAEmSKmQAkCSpQgYASZIqZACQJKlCBgBJkipkAJAkqUIGAEmSKmQAkCSpQgYASZIqZACQJKlCBgBJkipkAJAkqUIGAEmSKmQAkCSpQgYASZIqZACQJKlCBgBJkipkAJAkqULzogtQ8eYDJwEnACdO/PlGYCmwGFgEHBZWnRTnBWAM2AlsB54CfgI8DDwCbAb2RBWn8o1EF9CC8eDtl9imszECnAGsAc4F3kG6yEuanTHgLmADsB74PvHnt2jR+1/U+b2onZngByTGG4APAh8G3hRci1SiLcANwPXAo8G1RPH83qCidmaCH5DujAAXApeQvulLat848B3g88DNxJ/zuhS9r0Wd34vamQl+QNo3CqwDPgGcHlyLVLOHgKuArwIvB9fSBc/vDSpqZyb4AWnXGcAXJ/6U1A8PAh8B7okupGWe3xvkY4Caqd8C/ga4Fy/+Ut+cQvpZ4EvAEcG1KBNFpZkJJsTmrQX+Hjg8uhBJB/Q8cDHwrehCWuD5vUGz2ZklpN9915DS5nGkZ7kPbr6srJX0AZkH/DXwcbxbJOVkHPhb4C8pay6B6ADQN3t4ZQ6JTaTHRW8Bdszkf57JxWoVcCnwAeDQOZVYl1ICwJHA14GzowuRNGd3Ae8D/jW6kIYYAA7sl8DXgM9xgMdFX+1itRD4FPBfccbA2SghALwRuI00a5+kvD0OvHviz9wZAGZuD3A1cBnw0v7+g+kuVitJ3/7e0k5dRcs9APwu6bfDY6ILkdSY54D3kJ4WyJkBYPa+S7oL9NzUf7G/i9WppG9/jiSdm5wDwEnAHaQR/5LK8gvgXcAPogsZggFgbraSxvBt3vcvp16sVgJ348V/GLkGgGNJfX9sdCGSWvMsaVzPU8F1zJUBYO62AmcC2yb/Yt+R3QuAm/DiX6PDgW/jxV8q3dGkY/3I6ELUuWNIU0cvnPyLfQPAp0mP96ku84Bv4IA/qRbHA/8AHBRdiDp3OvDRyX+YvF29CvghjvZvQm4/AXwO+KvoIiR17tOkOT5y4k8Aw9tJ+rl/2+QdgEvx4l+j95AmCpFUn4+RHg9UXRaTHg1khDTD33M4yU9TcrkDcDjwME7vK9XsZ8CJpCcEcuAdgGaMAUdNvtbVi399PocXf6l2RwKfiS5CnVsErB0lze2vupwN/JfoIiT1woeBs6KLUOfWjOLI/9ocBFxDPj9VSGrXKPA/8YVftTl5FFgeXYU69X7g5OgiJPXKacAfRhehTq0YAXYB86MrKUifv1mPkF4ZaQCQNNUmUhDo80C7PteWm13e8qnLhXjxl7R/q0mPBqsSo8CL0UWoM5dEFyCp15wUrB4vjAJPRlehThxPGv0vSdM5B1gRXYQ68cQo6Xcfle9i+j0+QVK8EeBD0UWoEw+OAuujq1DrRoCLoouQlIX/hF8WanD7CGle4G2kmYE0vD4eOGcC90UXISkbpwEPRBexHz4F0IwxYNko6c1ANwYXo3b9fnQBkrLiDLFluwHYOfkY4OeAPYHFqF3nRhcgKSueM8q1G/js1L+8knR7xWW4pW/mk+7yRLfLvssW0gfwncDRpOmJpZocRPrsn0M6FrYQf1zuu7wIHNza3s9ddLuUsFyxv4ZdAGzsQXG5L31zOvFtMrm8RJqLYEGreyzlZwHpGfyXiD9OJ5fVre7x3ES3Se7LPcAh0zXuMuDpHhSZ89I3FxHfJuOk946/veV9lXL3dtKxEn28jgMfaHlf5yK6TXJengFev29jTp0KeBtwAbB12uZXbt4cXQBpfMn7SelT0vTuAd5LekdLtBOiC1BjtgDnk0LAv9vfuwA2kx4BubODotS+PhzEfw3cEV2ElImNwCeii6AfXx40vI3AW4GHZvM/HQJ8kv4NIOv70jf3EdseW/A3f2m2FhI/MHBj63s5e9Hn95yWXcBneJXf/F/tbYC7SCn0eOCLpIkDlJ/Dgrf/ZdLAJkkz9yvSs9qRlgRvX3MzBvxv4ETgY7zKz0mzmbVuMbCO9HzoamA5sJT0mJle0beZAJ8hPW4U5V34c5I0F+8C/ilw+88AxwRuf3/Gowvomd3AdtJL/R4ANgC3ku7cH1DfLlZNiP6A9K1Nd5DCW5SjSINLJc3O64kdkP0i8XcQp/L83qCidmaCH5BBL/PqP/W0bd5EDZJmZx6xM7TupX+TdHl+b1BROzPBD8gg20PKl8fvINujQZHfDCVJUhADgCRJFTIASJJUIQOAJEkVMgBIklQhA4AkSRUyAEiSVCEDgCRJFTIASJJUIQOAJEkVMgBIklQhA4AkSRUyAEiSVCEDgCRJFTIASJJUIQOAJEkVMgBIklQhA4AkSRUyAEiSVCEDgCRJFTIASJJUoXkdbmsJsA5YA5wCHAcsBQ7usAZJkuZqvOH17QG2A08Bm4D1wC3Ajoa3E2YVcD0wRmq80pe+sT2kfHn8Dopujy6WMeA6YGVDbRZiIXAVKeFEN6gHjO0h5cjjd1B0e3S57AauBBY00nL7MdLSelcCXwfe0tL6+6ytNp2r6IO4b+0h5cTjd1B0e0T4LvA+4LmmV9xG554K3AYc0cK6c+ABM6hv7SHlxON3UHR7RNlKGkO3ucmVNt25K4G7qffiDx4wU/WtPaScePwOim6PSFuBM4FtTa2wyccAFwA3UffFX5KkNhwD3EwaX9eIJgPAp0mP90mSpOadDny0qZU1dXtnFfBDup1XoK+8ZTaob+0h5cTjd1B0e/TBTtLP7UP/FNDUHYBL8eIvSVLbFgOXNbGiJtLdEtLjCYc2sK4SmJgH9a09pJx4/A6Kbo++GAOOYsgZA5u4A7AOL/6SJHVlEbB22JU0EQDWNLAOSZI0c0Nfe5sIAI78lySpWycPu4ImAsDyBtYhSZJmbsWwK2giACxpYB2SJGnmDht2BU1OBCRJkjLRRAB4sYF1SJKkmXth2BU0EQCebGAdkiRp5p4YdgVNBIBNDaxDkiTN3IPDrqCJALC+gXVIkqSZu33YFTQxzeNi0ksJFjWwrhI4deagvrWHlBOP30HR7dEXY8Ay0ouB5qyJOwA7gRsbWI8kSTqwGxjy4g/NpbuVpNcBH9zQ+nJmYh7Ut/aQcuLxOyi6PfpgN3AiPRkECPAocHVD65IkSfv3BRq4+EOz6W4BsAE4q8F15sjEPKhv7SHlxON3UHR7RNsInAvsamJlTXfuMuA+4NiG15sTD5hBfWsPKScev4Oi2yPSs8BbgWeaWmHTUwFvAy4Atja8XkmSarUFOJ8GL/7QzrsANgOnAXe2sG5JkmqykfTN/6GmV9zWy4CeB84DLic9ryhJkmZuN3AF6Tf/bcG1zNky4BrSM4vjFSx9Y3tI+fL4HRTdHl0sO4FrgRUNtdm0uhzgsRhYR0ozq4HlwFJgfoc1dMFBM4P61h5STjx+B0W3R9N2A9tJL9V7gPQk3a00MMnPTPStc5sQ/QHpW5vaHlK+PH4H2R4NamsMgCRJ6jEDgCRJFTIASJJUIQOAJEkVMgBIklQhA4AkSRUyAEiSVCEDgCRJFTIASJJUIQOAJEkVMgBIklQhA4AkSRUyAEiSVCEDgCRJFTIASJJUIQOAJEkVMgBIklQhA4AkSRUyAEiSVCEDgCRJFTIASJJUIQOAJEkVMgBIklShebP4b5cA64A1wCnAccBS4ODmy5IkqXfGowuYYg+wHXgK2ASsB24BdjS1gVXA9cAYaeddXn3pG9tDypfH76Do9shhGQOuA1bOsY0BWAhcRUoY0TuU09I3toeUL4/fQdHtkdOyG7gSWDBdY45M8/crga8Db5nuf9S0pmvTKNEHcd/aQ8qJx++g6PbI0XeB9wHPTf0X++vcU4HbgCNaLqpUHjCD+tYeUk48fgdFt0eutpLG8G3e9y+ndu5K4G68+A/DA2ZQ39pDyonH76Do9sjZVuBMYNvkX+z7GOAC4Ca8+EuSVJpjgJtJ4/uAwQDwadLjfZIkqTynAx+d/IfJ2zurgB8yu3kBtH/eMhvUt/aQcuLxOyi6PUqwk/Rz/7bJOwCX4sVfkqTSLQYug5TulpAeDzg0sqKCmJgH9a09pJx4/A6Kbo9SjAFHjZIeDfDiL0lSHRYBa0dJc/tLkqR6rBnFkf+SJNXm5FFgeXQVkiSpUytGgF3A/OhKCuKgmUF9aw8pJx6/g6LboyS7Rg/830iSpNKMAi9GFyFJkjr1wijwZHQVkiSpU0+MApuiq5AkSZ16cBRYH12FJEnq1O0jpHmBt5FmBtLwHDU7qG/tIeXE43dQdHuUYgxYNkp6M9CNwcVIkqRu3ADsnEx3K0mvAz44rp5imJgH9a09pJx4/A6Kbo8S7AZOZGIQIMCjwNVx9UiSpA58AXgCBtPdAmADcFZERQUxMQ/qW3tIOfH4HRTdHrnbCJxLmgH4Nzp3GXAfcGzHRZXEA2ZQ39pDyonH76Do9sjZs8BbgWcm/2LqVMDbgAuArR0WJUmS2rMFOJ99Lv7wmwEAYDNwGnBnB0VJkqT2bCR9839o6r+Y7mVAzwPnAZeTnheUJEn52A1cQfrNf9tcV7IMuIY0X8C4ywGXvrE9pHx5/A6Kbo8clp3AtcCKAzXmbAZ4LAbWkdLEamA5sBSYP4t11MBBM4P61h5STjx+B0W3R9/sBraTXur3AOlJvltJIeCA+ta5TYj+gPStTW0PKV8ev4NsjwZNNwZAkiQVzAAgSVKFDACSJFXIACBJUoUMAJIkVcgAIElShQwAkiRVyAAgSVKFDACSJFXIACBJUoUMAJIkVcgAIElShQwAkiRVyAAgSVKFDACSJFXIACBJUoUMAJIkVcgAIElShQwAkiRVyAAgSVKFDACSJFXIACBJUoUMAJIkVWheh9taAqwD1gCnAMcBS4GDO6xBkqS5Gm94fXuA7cBTwCZgPXALsKPh7YRZBVwPjJEar/Slb2wPKV8ev4Oi26OLZQy4DljZUJuFWAhcRUo40Q3qAWN7SDny+B0U3R5dLruBK4EFjbTcfoy0tN6VwNeBt7S0/j5rq03nKvog7lt7SDnx+B0U3R4Rvgu8D3iu6RW30bmnArcBR7Sw7hx4wAzqW3tIOfH4HRTdHlG2ksbQbW5ypU137krgbuq9+IMHzFR9aw8pJx6/g6LbI9JW4ExgW1MrbPIxwAXATdR98ZckqQ3HADeTxtc1oskA8GnS432SJKl5pwMfbWplTd3eWQX8kG7nFegrb5kN6lt7SDnx+B0U3R59sJP0c/vQPwU0dQfgUrz4S5LUtsXAZU2sqIl0t4T0eMKhDayrBCbmQX1rDyknHr+DotujL8aAoxhyxsAm7gCsw4u/JEldWQSsHXYlTQSANQ2sQ5IkzdzQ194mAoAj/yVJ6tbJw66giQCwvIF1SJKkmVsx7AqaCABLGliHJEmaucOGXUGTEwFJkqRMNBEAXmxgHZIkaeZeGHYFTQSAJxtYhyRJmrknhl1BEwFgUwPrkCRJM/fgsCtoIgCsb2AdkiRp5m4fdgVNTPO4mPRSgkUNrKsETp05qG/tIeXE43dQdHv0xRiwjPRioDlr4g7ATuDGBtYjSZIO7AaGvPhDc+luJel1wAc3tL6cmZgH9a09pJx4/A6Kbo8+2A2cSE8GAQI8Clzd0LokSdL+fYEGLv7QbLpbAGwAzmpwnTkyMQ/qW3tIOfH4HRTdHtE2AucCu5pYWdOduwy4Dzi24fXmxANmUN/aQ8qJx++g6PaI9CzwVuCZplbY9FTA24ALgK0Nr1eSpFptAc6nwYs/tPMugM3AacCdLaxbkqSabCR983+o6RW39TKg54HzgMtJzytKkqSZ2w1cQfrNf1twLXO2DLiG9MzieAVL39geUr48fgdFt0cXy07gWmBFQ202rS4HeCwG1pHSzGpgObAUmN9hDV1w0MygvrWHlBOP30HR7dG03cB20kv1HiA9SXcrDUzyMxN969wmRH9A+tamtoeUL4/fQbZHg9oaAyBJknrMACBJUoUMAJIkVcgAIElShQwAkiRVyAAgSVKFDACSJFXIACBJUoUMAJIkVcgAIElShQwAkiRVyAAgSVKFDACSJFXIACBJUoUMAJIkVcgAIElShQwAkiRVyAAgSVKFDACSJFXIACBJUoUMAJIkVcgAUL69wds/KHj7Uq7mBW8/+tyhlhkAyvfL4O0fGbx9KVfLgre/M3j7atlsEuYSYB2wBjgFOA5YChzcfFlq0IvA4sDtrwSeC9y+lKs3BW9/R/D2+2g8uoAp9gDbgaeATcB64BYa7LtVwPXAGGnnXV596ZtHiG2Pz7a/i1KRPk/ssfvD9ndx1qLP7zksY8B1pC9fc7YQuIqUMKJ3KKelb+4jtj22kj5LkmZuIenYiTx2N7a+l7MXfX7PadkNXAksmK4xpxsDsJJ04fhvxA9E0XCeDN7+64E/D65Bys1fkI6dSNHnDg3nYOASYANw1Ez/p1OBnxGfXnJd+uZy4ttkN/CutndUKsTbgZeIP24/0faOzkF0m+S6bAFOntqYU+8ArARuA47Yf9srQz+OLoCURG8Czo4uROq5s4FvAIdEF0I/zh1qxjGkwYHTPlmygDSKMDqp5L70zenEt8nksgv4KI4JkKZaCHyMdIxEH6eTy+pW93huotsk9+V+pjn/XtWD4kpY+mY+6Xne6HbZd3mGNDjl94CjcbIg1ecg0mf/90jHwjPEH5f7Li/Sz/Ff0e1SwvLJycYcmfhzFemRjz52eG5GDvyfdO5bwLuji5CUjZuBC6OL2I/x6AIKsJP0c/+2yTEAl+LFv2QboguQlBXPGeVaDFwG6dvqEtJMbYdGVlSQPt4BOAP4XnQRkrJxKmlMWN94B6AZY8BRo6Tpfb34l+37wOPRRUjKwmPAg9FFqFWLgLWjpLn9VbZx4CvRRUjKwpfwm3YN1oySXuyj8n0ZD2pJr24c+Gp0EerEyaPA8ugq1InHge9EFyGp1+4AnoguQp1YMUoaBKg6fD66AEm9dmV0AerMYSOkmafmR1dSkD4+BTBphDQT1GnRhUjqnQd4ZebQvupzbbnZNUqa8Ul1GMeEL2n/PoUX2Jq8MIqvfKzNTfTz+V5Jce4H/m90EerUE6N4MajNXuBPJ/6UpL3An+E5oTYPjgLro6tQ574H/F10EZJ64Vrg3ugi1LnbR0jzAm8jzQyk4fV5EOC+Xgc8DBwRXYikMNuA3wH+LbqQGXKMQjPGgGWjpDcD3RhcjLr3c+CDeNtPqtVe4GLyufirOTcAOyffBvg5YE9gMYpxO6nvJdXnU8C3o4tQ53YDnwWYDACPAleHlaNIlwF3RRchqVMbSAFA9fkCE7M97vt79QLSh+KsiIoKkssYgH29jhQCTowuRFLrfgS8E/hFdCFz4BiA4WwEziVNAPgbF6tlwH3AsR0XVZIcAwDAMcDdwBuiC5HUmmeAs4F/iS5kjgwAc/cs8FbSZwB45SeASduAC4CtHRalftgKrCPPbwWSDuznwHnke/HX3G0Bzmefiz/8ZgAA2EyaK/7ODopSv/yAdGtwS3Qhkhr1HLCGdPtfddlI+ub/0NR/sb8AAPA8KSleTnpeUPX4EWkcyG98WCRl6WHSMb05uhB1ajdwBek3/21zXcky4BrSfAHjLgdcSnE48E/Et6eLi8vcl/XAaylHdHvmsOwkze644kCNOZsBa4tJvxGfC6wGlgNL8VXCU+U6CHB/DgI+PrFMd7dIUv+Mk978+d+Bl4NradJ4dAE9sxvYTnqp3wOkJ/luJYWAAyrpYjUp+gNSYpueB3wZODK6EEkH9FPgQ8A/RhfSAs/vDfJbnWbi/wFvBv4HZX2bkEoyTgrqb6HMi78aVlSamWBCbNfbSGNCTosuRNK/ux/4COlNnyXz/N4g7wBotu4FzgD+gPJPNlLfbQb+mDTK3+NRs1JUmplgQuzOCLAWuAQ4h7r2XYoyDtxBGuT3zeBauub5vUFF7cwEPyAxjgX+CPgTYGVwLVKJnga+BlwHPBZcSxTP7w0qamcm+AGJNUJ6THTNxHIO6RFSSbOzgzQj6/qJZVNsOb3g+b1BRe3MBD8g/TIPOAk4YWJ5M2kOiSXAayaWw8Kqk+K8QLrI7wBeJD3L/eOJ5RHS1Ny/Dquunzy/N6ionZngB0SSyuT5vUE+BSBJUoUMAJIkVcgAIElShQwAkiRVyAAgSVKFDACSJFXIACBJUoUMAJIkVcgAIElShQwAkiRVyAAgSVKFDACSJFXIACBJUoUMAJIkVcgAIElShQwAkiRVyAAgSVKFDACSJFXIACBJUoUMAJIkVcgAIElShQwAkiRVyAAgSVKFDACSJFXIACBJUoVKDAB7g7d/UPD2JalE84K3H31taVyJAeCXwdv/7eDtS1KJlgVvf2fw9htXYgB4MXj7bwreviSVKPrcuiN4+40rMQBEp7R1wduXpBJdELz9F4K337jUP9qHAAAGfUlEQVQSA0B0J10ELAiuQZJKshD4YHAN0XeXG1diAHgyePvHAH8eXIMkleQvgNcH1xB9bWlciQHgkegCgE8B50QXIUkFeDtwWXQR9OPa0qgSA8CPowsA5gP/h/TBlSTNzdnAN4BDoguhH9cWHcDpwHhPlpeAS0m/X0mSZmYh8DFgF/Hn8clldat7HGAkuoAWzAd+ASyKLmQfzwBfBW4FHgV+CrwcWpEk9cdBpDlUVgFrSYOpjw6taNAO4LXAr6MLaVKJAQDgW8C7o4uQJBXhZuDC6CKaVuIYAIAN0QVIkopR5DWl1ABwe3QBkqRirI8uoA2l/gQwQvqtPXrqSElS3h4jjU0Yjy6kaaXeARgHvhJdhCQpe1+iwIs/lHsHANK3/0cpex8lSe0ZB44HnogupA2l3gEAeBz4TnQRkqRs3UGhF38oOwAAfD66AElStq6MLqBNpd8eHwHuB06LLkSSlJUHeGVm2SKVfgdgnMITnCSpFZ+i4Is/lH8HAFLI+T4FzuMsSWrF/cDbgL3RhbSp9DsAkDrwTym8IyVJjdgL/BkVXDNqCAAA3wP+LroISVLvXQvcG11EF2r4CWDS64CHgSOiC5Ek9dI24HeAf4supAu13AEA+DnwQSq4rSNJmrW9wMVUcvGH9A7mmjwJLADeGV2IJKlXLqeyn4pr+glg0jzSm50MAZIkSK/7/Q/Ay9GFdKnGAABpPMBdwInRhUiSQv2I9IXwF9GFdK3WAABwDHA38IboQiRJIZ4Bzgb+JbqQCDUNApxqK7COClOfJImfA+dR6cUf6g4AAD8g3frZEl2IJKkzzwFrSLf/q1XzTwD7Ohr4FnBSdCGSpFY9DJwPPB1dSLTa7wBMepaUBu+ILkSS1JoNwDvw4g/UNw/Aq/kl8GXS25/OwbsjklSKyTfD/mfSuV54kZvOeaQwcGR0IZKkofwU+BDwj9GF9I13APbvceB6YCFwBv5UIkm5GQe+AryXNOBbU3gH4MDeBlwDnBZdiCRpRu4HPkJ6E6ym4TfbA7uXdBfgD/DDJEl9thn4Y+AsPF8fkHcAZmcEWAtcggMFJakPxklPcF0JfDO4lqx4AZu7Y4E/Av4EWBlciyTV5mnga8B1wGPBtWTJADC8EWA1aR6BNaQ7A4tDK5Kk8uwA7iS9zXU9sCm2nPwZAJo3jzSj4AkTy5uB5cAS4DUTy2Fh1UlSP71AusjvAF4EngR+PLE8QhrJ/+uw6gpkANB48Pbb/gy6f+1y/4ZT+v6px3wKQJKkChkAJEmqkAFAkqQKGQAkSaqQAUCSpAoZACRJqpABQJKkChkAJEmqkAFAkqQKGQAkSaqQAUCSpAoZACRJqpABQJKkChkAJEmqkAFAkqQKGQAkSaqQAUCSpAoZACRJqpABQJKkChkAVLrdgdveFbjtUth/UksMACrdi4HbfiFw26Ww/6SWGABUuicDt/1E4LZLYf9JLTEAqHSbArf9YOC2S2H/SS0xAKh06wO3fXvgtkth/0ktGYkuQOHGg7ff9mdwMbANWNTydqYaA5YBO1vejv3XDvtPxfMOgEq3E7gxYLs30P7Fowb2nyS1ZDx46cJK0uNkXe3TLmBFJ3tm/9l//e8/9ZR3AFSDR4GrO9zeF3AEeZPsP0lqQS3fQBYAG1vcj8nlHuCQjvaJFvfD/utGLf0nqYdqOgEtA55usPapyzPA6zvbm8T+s/9y6T9JPVPbCehkYMsQ9U63PA2c1OF+TLL/7L+c+k9Sj9R4AjoCuGMWNR5ouYf07TSC/Wf/5dZ/knqi1hPQIcAnSY96zbX2XcBn6PY346nsP/svx/6T1AO1n4CWAdcwuwvJTuBauntU7NXYf/Zfzv2nQM4CpeiTQF8+g4uBdcC5wGpgObB04t9tJ72U5gFgA3Ar/Zkkxv5L7L+56Uv/KYCdr13A/MBtLwjadinsv7zZfwrjREDyfet5s//yZv8pjAFATwZu29nWhmf/5c3+UxgDgHzfet7sv7zZfwpjAJDvW8+b/Zc3+09SmMUM9yz1XJedE9vWcOy/vNl/CuMdAPm+9bzZf3mz/ySFKvl96zWw//Jm/0kKdSXdnYCu6GifamL/5c3+kxSm1Pet18L+y5v9JylUie9br4n9lzf7T1Ko0t63Xhv7L2/2n6RQJb1vvUb2X97sP0mhSnnfeq3sv7zZf5LC5f6+9drZf3mz/9QaXwesmcr1fetK7L+82X9q3P8HXpxP4piG9yAAAAAASUVORK5CYII=;" vertex="1" parent="1">
          <mxGeometry x="937" y="290" width="72" height="72" as="geometry" />
        </mxCell>
        <mxCell id="ckwtcuSyuOzhh80tvO_Y-19" value="" style="shape=image;verticalLabelPosition=bottom;labelBackgroundColor=default;verticalAlign=top;aspect=fixed;imageAspect=0;image=data:image/png,iVBORw0KGgoAAAANSUhEUgAAAgAAAAIACAYAAAD0eNT6AAAABHNCSVQICAgIfAhkiAAAAAlwSFlzAAAOxAAADsQBlSsOGwAAABl0RVh0U29mdHdhcmUAd3d3Lmlua3NjYXBlLm9yZ5vuPBoAAAxpSURBVHic7d1PqG1VAQbw76SSFmSkmNSkGjVQijQaiEMhFBIqchgN9Fn6cFgQQmDQLNH7DN6TMHIWRFBplilSNCkcBE8qHPunmpc+ydfgvMu73vfn3nPP3mutvdbvB3skeNba+571fWvdd89JAAAAAAAAAAAAAAAAAAAAAAAAAAAAAAAAAAAAAAAAAAAAAAAAAAAAAAAAAAAAAAAAAAAAAAAAAAAAAAAAAAAAAAAAAAAAAAAAAAAAAAAAAAAAAAAAAAAAAAAAAAAAAAAAAAAAAAAAAAAAAAAAAAAAAAAAAAAAAAAAAAAAAAAAAAAAAAAAAAAAAAAAAAAAAAAAAAAAAAAAAAAAAAAAAAAAAAAAAAAAAAAAAAAAAAAAAAAAAAAAAAAAAAAAAAAAAAAAAAAAAAAAAAAAAAAAAAAAAAAAAAAAAAAAAAAAAAAAAAAAAAAAAAAAAAAAAAAAAAAAAAAAAAAAAAAAAAAAAAAAAAAAAAAAAAAAAAAAAAAAAAAAAAAAAAAAAAAAAAAAAAAAAAAAAAAAAAAAAAAAAAAAAAAAAAAAAAAAAAAAAABgeVa1B8AkPpvkriS3JbkxyTVJ3kzy9yTPJvl9kv9WGx2wNNckuSPJnUk+neSjSf6T9brypyTPJPlrtdEB+XyS55OcPeB6I8m3klxVZ5jAQlyV5MGs14yD1pXfJrm1zjBhbPclOZOD36R7rz8muaHGYIHmXZfkhWy2pryT5Ns1BgsjWiXZyWZv0r3Xq0muLz5qoGXXZ702HHVd2YlfKcOsVklO5Ohv0t3rxSRXFh470KarkryU7deVE1ECYBarJI9n+zfp7vXNssMHGnU8060rp6IEwKSm2vnvvV5PcnXJSQDNuSaH+wd/TgKggql3/nuvuwrOA2jP3ZlnbXESAFuaY+e/9/pRuakADTqZ+dYXJwFwRHPu/HevF4rNBmjRS5l3jXESABuae+e/e71SakJAk/6W+dcZJwFwSCV2/rvXnwvNCWjTyymz1jgJgAOU2vnvXr8sMy2gUc+k3HrjJAAuoeTOf/fyEZ4wtu+m7JrjJAD2Kb3z371uKjE5oFmfSfl1x0kAnFNj5382668JBvhdyq8/TgIYXq2d/5kknyswP6B9t2bzbxZ1EgBbqLXzP5v1Z38D7HooddYiJwEMp9bO/2zWX9sJsN82XzPuJAAOoebO/2S80YCLq7k2OQmge8IfaJkSADMQ/sASKAEwIeEPLIkSABMQ/sASKQGwBeEPLJkSAEcg/IEeKAGwAeEP9EQJgEMQ/kCPlAC4DOEP9EwJgIsQ/sAIlADYQ/gDI1ECIMIfGJMSwNCEPzAyJYAhCX8AJYDBCH+A85QAhiD8AS6kBNA14Q9waUoAXRL+AAdTAuiK8Ac4PCWALgh/gM0pASya8Ac4OiWARRL+ANtTAhrlxlzcKslOkgcqvPbpJI9k/cML0INVkoeT3FThtZ9IcjzW1AsoABdaJXks6x8YAJbvySTHogS8xxW1B9AY4Q/Qn1uSfCzJr2sPpCUKwHnCH6BfSsA+CsDa7j9SEf4A/VIC9lAAzof/g7UHAsDslIBzRi8Awh9gPEpAxi4Awh9gXMOXgFELgPAHYOgSMGIBEP4A7Bq2BIxWAIQ/APsNWQJGKgDCH4BLGa4EjFIAhD8ABxmqBIxQAIQ/AIc1TAnovQAIfwA2NUQJ6LkACH8Ajqr7EtBrARD+AGyr6xLQYwEQ/gBMpdsS0FsBEP4ATK3LEtBTARD+AMyluxLQSwEQ/gDMrasS0EMBEP4AlNJVCViyVZKdJGcrXCfPvT4AdexuAGtkwKnIgGqEPwBKwGCEPwC7lIBBCH8A9lMCOif8AbgUJaBTwh+AgygBnRH+AByWEtAJ4Q/AppSAhRP+AByVErBQwh+AbSkBCyP8AZiKErAQwh+AqSkBjRP+AMxFCWiU8AdgbkpAY4Q/AKUoAY0Q/gCUpgRUJvwBqEUJqET4A1CbElCY8AegFUpAIcIfgNYoATMT/gC0SgmYifAHoHVKwMSEPwBLoQRMRPgDsDRKwAQeTZ0beCKd3EAAqlhlnSU1MuzRAvOb1Tdi5w/ActU8CThWYH6z+FSSt2PnD8Cy1ToJeCvJJ+af3vSejp0/AH2odRLwkwJzm9S1Sc5E+APQjxol4EySD5eY3FTuSdkb5NgfgBJq/Drgq0VmNpEfxM4fgD6VPgn4fplpTeOpCH8A+lWyBPx4jgm8b47/adYDLkH4A9C7WTJ1rgLw5kz/3/3ujVMAAMpaJXksyfFCr/dGodeZxNdS7ncjZ9PRxyYC0LQafwnw5SIzm8iHUv7PAJUAAOZU688Ary0xuSn9NGVvkhIAwFxqfRDQUyUmN7VPZv0xhqVvls8EAGBKPgr4CL6e8jfMSQAAU6n5ZUD3FpjfrHwdMABLVPPrgH9YYH6zq9menAQAcBSyayJuJABLIbMm5oYC0DpZNRM3FoBWyaiZucEAtEY2FeJGA9AKmVSYGw5AbbKoEjcegFpkUGUeAAClyZ5GeBAAlCJzGuOBADA3WdMoDwaAuciYxnlAAExNtiyEBwXAVGTKwnhgAGxLliyUBwfAUcmQhfMAAdiU7OiEBwnAYcmMznigABxEVnTKgwXgUmRE5zxgAPaTDYPwoAHYJRMG44EDIAsG5cEDjEsGbGHRgz9nleSxJMdrDwSAITyZ5FjWRWCxrqg9gIk8l+QjSb5QeyAAdK2L8E/6KQCJEgDAvLoJ/6SvApAoAQDMo6vwT/orAIkSAMC0ugv/pM8CkCgBAEyjy/BP+i0AiRIAwHa6Df+k7wKQKAEAHE3X4Z/0XwASJQCAzXQf/skYBSBRAgA4nCHCPxmnACRKAACXN0z4J2MVgEQJAODihgr/ZLwCkCgBALzXcOGfjFkAEiUAgLUhwz8ZtwAkSgDA6IYN/2TsApAoAQCjGjr8EwUgUQIARjN8+CcKwC4lAGAMwv8cBeA8JQCgb6eS3B/hn0QB2E8JAOiT8N9HAbiQEgDQF+F/EavaA2jUKslOkgcqvPbpJI/EDyrQj1WSh5PcVOG1n0hyPNZUNrBK8njWPzSlr1NRzoA+1FxLT8ZayhEpAQBHJ/xZNCUAYHPCny4oAQCHJ/zpihIAcDDhT5eUAIBLE/50TQkAuJDwZwhKAMB5wp+hKAEAwp9BKQHAyIQ/Q1MCgBEJf4gSAIxF+MMeSgAwAuEPF6EEAD0T/nAZSgDQI+EPh6AEAD0R/rABJQDogfCHI1ACgCUT/rAFJQBYIuEPE1ACgCUR/jAhJQBYAuEPM1ACgJYJf5iREgC0SPhDAaskJ1LnjbZTYH7A8uykzpp0IsKfwdRs2w8VmB+wHN+NnT8UVesk4EySWwrMD2jfF5O8Gzt/KK7WScBvSkwOaNoVSU7Hzh+qqXUScHOJyQHNuid2/lBdjZOA7xSZGdCqn8XOH5pQ+iTgV2WmBTTq37Hzh2aUPAn4S6E5Ae35QOz8oTmlTgJeKTUhoDkfj50/NKnEScDzxWYDtObq2PlDs+Y+CXii3FSABv0zdv7QrDlPAu4sOA+gPU/Hzh+aNsdJwGtZHwEC47o7dv7QvKlPAo6VHT7QoFWSl2PnD82b6iTghSRXFh470Kbbk7wTO39o3irbfW3nq0muKz5qoGUPZrvw34nwh2LuS/J2NnuT/iHJDTUGCzTvvqy/KXSTNeXdJN+rMFYY3i1JnsvBb9LXktwfx/7A5d2ew/+bgNNJ7qgzTKbgyKYPNye5K8ltSW5M8sEkryf5R5Jns/6d/1vVRgcsySrJl5J8JeuAv3HPf/tXkheT/DzJL5L8r/joAIAi3p/1xwb7s2EAAAAAAAAAAAAAAAAAAAAAAAAAAAAAAAAAAAAAAAAAAAAAAAAAAAAAAAAAAAAAAAAAAAAAAAAAAAAAAAAAAAAAAAAAAAAAAAAAAAAAAAAAAAAAAAAAAAAAAAAAAAAAAAAAAAAAAAAAAAAAAAAAAAAAAAAAAAAAAAAAAAAAAAAAAAAAAAAAAAAAAAAAAAAAAAAAAAAAAAAAAAAAAAAAAAAAAAAAAAAAAAAAAAAAAAAAAAAAAAAAAAAAAAAAAAAAAAAAAAAAAAAAAAAAAAAAAAAAAAAAAAAAAAAAAAAAAAAAAAAAAAAAAAAAAAAAAAAAAAAAAAAAAAAAAAAAAAAAAAAAAAAAAAAAAAAAAAAAAAAAAAAAAAAAAAAAAAAAAAAAAAAAAAAAAAAAAAAAAAAAAAAAAAAAAAAAAAAAAACgNf8HrptdgVBv+UUAAAAASUVORK5CYII=;" vertex="1" parent="1">
          <mxGeometry x="827" y="280" width="94" height="94" as="geometry" />
        </mxCell>
        <mxCell id="ckwtcuSyuOzhh80tvO_Y-20" value="" style="shape=image;verticalLabelPosition=bottom;labelBackgroundColor=default;verticalAlign=top;aspect=fixed;imageAspect=0;image=data:image/png,iVBORw0KGgoAAAANSUhEUgAAAgAAAAIACAYAAAD0eNT6AAAABHNCSVQICAgIfAhkiAAAAAlwSFlzAAAOxAAADsQBlSsOGwAAABl0RVh0U29mdHdhcmUAd3d3Lmlua3NjYXBlLm9yZ5vuPBoAABUZSURBVHic7d17sG53Xd/xd3ZuBBIxiSQECCQot3JrseFioHKVyEXF6dAqSKsDraVVp63jFMp46UWLOrbaaR1EioB2lBHkOipyEbkVTO0YoCFIQwgQSCDcAoGE5Jz+sc4xh2M4nL33s9d6nvN7vWbWJCeTZ32/v53M/n2e31rrtwoAAAAAAAAAAAAAAAAAAAAAAAAAAAAAAAAAAAAAAAAAAAAAAAAAAAAAAAAAAAAAAAAAAAAAAAAAAAAAAAAAAAAAAAAAAAAAAAAAAAAAAAAAAAAAAAAAAAAAAAAAAAAAAAAAAAAAgAOOW7qBPXROdX51XnVudVZ15oHjNtVJ1e2Wag6AtfCl6sbqK9W1B45rqiurK6oPV59cqrm9dKwEgLtXF1YXVA84cJy+aEcAHCs+U11Svbd6T/WOpmCw0TY1ANyh+q7qCdWjmr7tA8BcrqreXP1h9Ybq08u2s32bFADuWP396qlN3/a3lm0HAKraV729enn1+9XVy7ZzdNY9AJxYPal6VtM3/uOXbQcAjujm6o+rF1avq25atp2vb10DwLdUz67+WdM3fwDYNJ+ofr367003F66VdQsAd62eU/2j6pSFewGAVbi+enH1/OqjC/fy19YlANypem7TUv9JC/cCAHvhhuo3ql9oWh1Y1NLX1E+ofqx6ZfXwlu8HAPbKCdVDmi5vn1S9s+megUUsuQLwiKbrIvdbsAcAWMpl1b+o3rhE8SUepTujekH11kz+AIzrXk17CLy0abfaWc29AvB91f/ILn0AcKjPVD9cvWaugnNdcz+h+vnq13J3PwAc7pTqHzatkr+5Ge4NmGMF4K7V71YPm6EWAGy6i6t/UF2+l0X2+h6Ap1R/mckfAI7W320KAd+7l0X28hLAT1QvypI/AGzXKU2rAF9qelxw5fYiAJzQtNHBc1ufjYYAYNMc1/QenJOqt6z65KsOACc1Xe9/2orPCwCjekR1XtPLhfat6qSr/IZ+StOOfhet8JwAwOTV1Q9UX17FyVYVAE6sXlU9YUXnAwD+ptc37amz69cMr+ISwHFN7z1+6grOBQB8ffesvrX6g92eaBUB4JerZ6/gPADAN/aApsvuu3qHwG4DwE9VP73LcwAA23Nh9cXqXTs9wW4CwA82vc3Po34AML/HVR+o3r+TD+908r5n0y5Fp+3w8wDA7n2xenB16XY/uJMAcNvq3W3uq3xvbNpZ6bMH/nrjsu0AsJCTqts1vaH2dgf+vIkuqR7aNh8P3EkAeFH1Izv43Nxuqv68ekd12YHjA9WnlmwKgLV1h+re1b0OHBdWFzTtcLvufqP6p3tZ4Ieq/Wt8fLL6L037EZy6Rz8DAMZxWvXEptfZX93y89yRjh/Yo59Bd6+uW4MBHn7c0LT98BPbjJQGwGY6oXpS9XtNl4+Xnv8OP77QtGXwyr12DQZ36PGV6gXVuXsxWAA4grtWv9p0L9nS8+Ghx6tWPdCnrMGgDh5fbVrmP3vVgwSAbbpj9V+b7jtben48eDx5VYO7bfXhNRjQ/qab+i5Y1cAAYEUe2HTT+dLz5P7qI01PNeza89dgMNdXP5pNhwBYX1tNW+Nf3/Lz5n/c7WDu0/I3Olxa3X+3AwGAmTyw6bHzJefOG5oeZdyxVyw8gN/N43wAbJ5Tq5e37Bz6eztt/kHVvgUb/7Wm5RQA2ETHVb/UcvPovqbViG17zYINP2cnDQPAGnpuy32hfsV2m73Pgs3+5HabBYA191MtM6feXN1jO42+cKFGn7+dJgFgg/xyy8ytv360DZ7Z9EahuRt8SR7zA+DYdVz1280/v17f9MbDb+hfLtDcJdUpR9McAGyw21R/0fzz7I8dTXPvm7mp65pevwgAI7hH9fnm/6J9RA+ZuaH97eHrCwFgTT29+efbbz9SQ/955mb+cJs/MAA4VryueefcX/x6jRzX9AKBuRq5vrr7Dn5gAHAs+Nbmven+yr7OzfZzL///2x3+wADgWPGzzTv33uplgJ+bsYGrm14zDAAju111TfPNv887WPjQvfa/e48Gd2t+pekSAACM7EtN776Zy0WH/4PTm7YLnCN9fKb6pr0aGQBsmNtXn2ueOfir1Wl1ywrAQ5vvzXsvrL4wUy0AWHefr35zplonVA+rWyb9h89UuOplM9YCgE3w4hlrXXjoH97YPEsPF+/tmABgY821RfAb6pYVgAfs+bAmL52pDgBsmrlWyO9/8G/u1HyPH3zbng8LADbTvZtvPj5rq7rvPOPqo9WHZqoFAJvmA9XHZ6p1363m2473TTPVAYBN9eaZ6py/Vd1tpmJvm6kOAGyqP5upzvlb1XkzFfu/M9UBgE0111x53lZ19kzFPjhTHQDYVJfNVOfsrerMGQpd07QFMADw9V174NhrZ25VZ8xQ6IoZagDAseDDM9Q4c6s6dYZC9v4HgKNz3Qw1Tt2qTp6h0BdnqAEAx4I5vjSfvFWdNEOhOdIMABwL5pgzT95qejXgXvvKDDUA4Fjw5RlqnLj1jf+dldg/Ux0A2HSzzJlzBQAAYI0IAAAwIAEAAAYkAADAgAQAABiQAAAAAxIAAGBAAgAADEgAAIABCQAAMCABAAAGJAAAwIAEAAAYkAAAAAMSAABgQAIAAAxIAACAAQkAADAgAQAABiQAAMCABAAAGJAAAAADEgAAYEACAAAMSAAAgAEJAAAwIAEAAAYkAADAgAQAABiQAAAAAxIAAGBAAgAADEgAAIABCQAAMCABAAAGJAAAwIAEAAAYkAAAAAMSAABgQAIAAAxIAACAAQkAADAgAQAABiQAAMCABAAAGJAAAAADEgAAYEACAAAMSAAAgAEJAAAwIAEAAAYkAADAgAQAABiQAAAAAxIAAGBAAgAADEgAAIABCQAAMCABAAAGJAAAwIAEAAAYkAAAAAMSAABgQAIAAAxIAACAAQkAADAgAQAABiQAAMCABAAAGJAAAAADEgAAYEACAAAMSAAAgAEJAAAwIAEAAAYkAADAgAQAABiQAAAAAxIAAGBAAgAADEgAAIABCQAAMCABAAAGJAAAwIAEAAAYkAAAAAMSAABgQAIAAAxIAACAAQkAADAgAQAABiQAAMCABAAAGJAAAAADEgAAYEACAAAMSAAAgAEJAAAwIAEAAAYkAADAgAQAABiQAAAAAxIAAGBAAgAADEgAAIABCQAAMCABAAAGJAAAwIAEAAAYkAAAAAMSAABgQAIAAAxIAACAAQkAADAgAQAABiQAAMCABAAAGJAAAAADEgAAYEACAAAMSAAAgAEJAAAwIAEAAAYkAADAgAQAABiQAAAAAxIAAGBAAgAADEgAAIABCQAAMCABAAAGJAAAwIAEAAAYkAAAAAMSAABgQAIAAAxIAACAAQkAADAgAQAABiQAAMCABAAAGJAAAAADEgAAYEACAAAMSAAAgAEJAAAwIAEAAAYkAADAgAQAABiQAAAAAxIAAGBAAgAADEgAAIABCQAAMCABAAAGJAAAwIAEAAAYkAAAAAMSAABgQAIAAAxIAACAAQkAADAgAQAABiQAAMCABAAAGJAAAAADEgAAYEACAAAMSAAAgAEJAAAwIAEAAAYkAADAgAQAABiQAAAAAxIAAGBAAgAADEgAAIABCQAAMCABAAAGJAAAwIAEAAAYkAAAAAMSAABgQAIAAAxIAACAAQkAADAgAQAABiQAAMCABAAAGJAAAAADEgAAYEACAAAMSAAAgAEJAAAwIAEAAAYkAADAgAQAABiQAAAAAxIAAGBAAgAADEgAAIABCQAAMCABAAAGtFXdPEOdk2aoAQDHgpNnqHHTVnXjDIVOm6EGABwLvmmGGjcIAACwXuaYM2/Yqr40QyEBAACOzhxz5vVb1WdmKHSXGWoAwLHg3BlqXLtVfXqGQnepTp2hDgBsstOqc2ao8+m5AsBx1T1mqAMAm+yeTXPmXvv0VvWRGQpV3XumOgCwqeaaK6+cMwB8x0x1AGBTXThTncu3qstnKvbomeoAwKaaa668our8av8Mx77qjnOMCgA20J2aZz7eX5271ZQCvjDDwI6rHj9DHQDYRBfNVOdz1ce2mpLA+2Yq+rSZ6gDApplrjnxvtf/g2wDfM1PRx2RTIAA43J2r75yp1rvrltcBv2OmoltZBQCAwz2jOn6mWu889A93bL4bD67M64EB4KATm+7Hm+uG/LMOb+DSmYrvr/7xLn5QAHAseVbzzb9/eWsN/MqMDfxV8y11AMC6Or76YPPNv8+/tSYeN2MDVgEAoJ7ZvHPvo26tiROra2ds4urq9B3+wABg051RXdN88+6nmub66panAKq+Wr16T4Z4686q/sOM9QBgnfyn6g4z1ntl01x/qx7fvEsRN+clQQCM5+FNc+Ccc+5jjtTQCdXHZm7oyurMbf3YAGBznd58j/0dPD7aYTffH3oJoOqm6rdWN8ajcm71kqZ3BQDAsey46sXV3Wau+6KmFYcjOq/5lyX2V89ZxQgBYI09r/nn15uqux5tg3+wQIP7qh852gYBYMM8vWmum3t+/f3tNPnwBRo8mFKesp1GAWADPKnpDvwl5taHbbfZdy3U6PUHflAAcCx4ctPctsSc+radNPzdCzV7cCXgmTtpGgDWyDOqG1tuPj3io39H8vYFm97XdGOgpwMA2DTHNd3wt8Q1/4PHn+5mAN+5YOMHj9c0bZcIAJvgzOp1LTt37qsu3O1AfmfhQeyvPrKKgQDAHnt40wZ3S8+bL1nFYM6uPrsGg9lXvbT6llUMCgBW6PTqV5vuYVt6vvx8dc6qBvbjazCgg8c1TfsFfM2WhgCwgBOablr/VMvPjwePZ69ygMdXf7EGgzr0uLz6ieo2qxwoAByFE5vu8L+s5efDQ4+L24MvyA9tmS2Cv9HxkerfVHdZ9YAB4DDnNj2h9pGWn/8OP26qLtirgf/sGgzw6x03V2+sfri60x6NH4Dx3Lnp0vObWs8vwgeP521nUNt9xv746k+qR23zc0v4QPXm6p0H/v6y6ouLdgTAujutumd176anzx5d3WvRjo7On1QXNd0wf1R2ssnOOdX/aXo6YNN8rLqq+kLTXZJfrG5YtCMAlnJydWp1++qbmr7p33nRjnbmE9Xfqa7ezod2usveo5rShjvxAWA5+6rHN10C35adTuBXVFvVI3f4eQBg9366+q2dfHA33+Df2nTn/YN2cQ4AYGdeVv2rnX54t0v4r6/uV91nl+cBAI7e66ofbBs3/R1uFW/aO6V6Q9P+xwDA3vpf1WOrL+3mJKt61e7tmy4JPHBF5wMA/qb3V3+v+sxuT7S1+16q6ZG6JzQ1BgCs3vuq72oFk3+tLgDU9Hz9I6q3r/CcAEC9u+nJu6tWdcJVBoCaXhv82OoVKz4vAIzqtU3771y7ypPuxUY+NzcFgHOqb9+D8wPAKF5aPa26cdUn3qud/PY3PaKwr+lmhVWvNADAsezm6meqf90uHvU7klU9BXAkj6z+Z9OKAABwZNdUP9T0iP2emeOb+Z82PR74xzPUAoBN9pbqb7fHk3/N9zKf66vfqb7cdCODSwIAcIubq39fPbPpjbV7bo5LAId7WPXC6r4L1AaAdfO+6llNO/zNZonX+X6s+s2mtPPQ6oQFegCApX25+nfVM6or5y6+xArAoe5S/Xz19DXoBQDm8rrqx6sPL9XA0tfiP9aUfB5ZvW3ZVgBgz7216eV5T27Byb+WDwAH/VnTfgGPr965cC8AsGpva9op95HVO5ZtZbKuy+7fUf1k9b2tT0gBgO3YV72q+qVmvsHvaKxrADjozk33B/xodd6yrQDAUbmqeln1ghZe5j+SdQ8ABx1fPbp6avX91RnLtgMAX+Pa6pXVy5s287l52Xa+sU0JAIc6sem1wxcdOO6/bDsADOqS6o8OHG+vvrpsO9uziQHgcGdVFzbdVfng6n7VNy/aEQDHms9V763e0zTZv6P61KId7dKxEABuzd2q+1TnHzjOrc6uzjxw3LZpA6LTlmoQgLVwXXVT05b11x44rm7amOeK6vLq0hbYqAfgaF3c9CruvTwunm00wJ7yiB0ADEgAAIABCQAAMCABAAAGJAAAwIAEAAAYkAAAAAMSAABgQAIAAAxIAACAAQkAADAgAQAABiQAAMCABAAAGJAAAAADEgAAYEACAAAMSAAAgAEJAAAwIAEAAAYkAADAgAQAABiQAAAAAxIAAGBAAgAADEgAAIABCQAAMCABAAAGJAAAwIAEAAAYkAAAAAMSAABgQAIAAAxIAACAAQkAADAgAQAABiQAAMCABAAAGJAAAAADEgAAYEACAAAMSAAAgAEJAAAwIAEAAAYkAADAgAQAABiQAAAAAxIAAGBAAgAADEgAAIABHbd0A/y1u1ffUz2gOrs6K/992J77VLfd4xrXV5fucQ2OLfura6qrq0uq11SXL9oRlQlmHTyp+rnqQUs3AjCT/139TPX6pRsZmQCwnDtXv109cuE+AJbylurp1VVLNzIiAWAZF1Svqu60dCMAC7uq+r7qz5duZDQCwPzuXb2r+ualGwFYE9dVD6vev3QjIxEA5nVG9e7q25ZuBGDNfKh6cPXZpRsZxfFLNzCYX6wuWroJgDV0RnWb6o+WbmQUVgDmc371geqkpRsBWFNfrf5W02oAe8xGQPP555n8AY7kxOqfLN3EKKwAzOeD1T2WbgJgzX0ovytnIQDM4+7V/1u6CYANcX51xdJNHOtcApjH3ZZuAGCD+J05AwFgHucs3QDABrFJ2gwEgHnsX7oBgA3id+YMBIB5fGLpBgA2iHcDzEAAmMeVSzcAsEH8zpyBADCPy5seAwTgyP4qTwDMQgCYz6uXbgBgA7xy6QZGYR+A+ZxfXVqdvHQjAGvqxqatgO2bMgMrAPP5cPWCpZsAWGP/LZP/bKwAzOv0ptcB2+YS4Gt9sHpI9bmlGxmFFYB5fbZ6cv4HBzjUddX353fjrASA+V1WPa76+NKNAKyBj1ePrt6/dCOjEQCWcXH14OrNSzcCsKA3VRc0/U5kZgLAcq6qHlM9Kf/zA2O5uHpi9djslLoYNwGuj/Or76nuX92xOjv/fYDNt7+6uvpkdUn12qanogAAAAAAAAAAAAAAAAAAAAAAAAAAAAAAAAAAAAAAAAAAAAAAAAAAAAAAAAAAAAAAAAAAAAAAAAAAAAAAAAAAAAAAAAAAAAAAAAAAAAAAAAAAAAAAAAAAAAAAAAAAAAAAAAAAAAAAYF38fxawWv8znTWWAAAAAElFTkSuQmCC;" vertex="1" parent="1">
          <mxGeometry x="942" y="188" width="62" height="62" as="geometry" />
        </mxCell>
        <mxCell id="ckwtcuSyuOzhh80tvO_Y-21" value="" style="shape=image;verticalLabelPosition=bottom;labelBackgroundColor=default;verticalAlign=top;aspect=fixed;imageAspect=0;image=data:image/png,iVBORw0KGgoAAAANSUhEUgAAAgAAAAIACAYAAAD0eNT6AAAABHNCSVQICAgIfAhkiAAAAAlwSFlzAAAN1wAADdcBQiibeAAAABl0RVh0U29mdHdhcmUAd3d3Lmlua3NjYXBlLm9yZ5vuPBoAACAASURBVHic7N15uJ1Veffx7x0gkYBMQSaZQYYw40AQUwcQgVegWBleB0AlVWipiCC2Wm21thWQoiho44AovkxKQSU4YLXMDsyEQZBJxpIgSBISSO73j/WckIQkZw/P3vdaz/P7XNe5Eq6L7P3jkLPue6+1nrXM3RGRvJnZy4AJS3ytvcQ/rwKMA8ZWv3bye4C5wLzq105+PwuYscjXk0v88wx3f24Q3wcRqY+pARCJY2YrABsCmy3xtR6LF/jxURl7NJvFG4THgPuW+Pqju88PSyjScmoARAbMzNbhpQV+M2BzYCNgpbh0oZ4HHgL+wEubg/vc/YnAbCKNpwZApCZmtgqwPbAjsMMiv64VmatgM4FbgVsW+fU2d58VmkqkIdQAiHTJzMaQPr3vuMjXDsAWgAVGawMH7uXFhmDk6w/uviAymEhp1ACIjMLM1gf2qL4mkQp+aWvyTTeb1AhcB1wNXO3uj8ZGEsmbGgCRRVSf7rcHXs+LRX+z0FDSq/uomgHgGtLygWYJRCpqAKTVqnX73Vj8E/7qoaFkUJ5mkRkC4HrtJ5A2UwMgrWJmBuwC7Ft9TQJWCA0lUeaTGoJp1deNrgFRWkQNgDSema0B7E0q+PuQnrEXWdJjwOWkZuCn7v6n4DwiA6UGQBqn+pS/My9+yt8dfcqX7swHruXF2YGbNDsgTaMGQBrBzMaRPt0fSCr6+pQvdXqM1AhcAlzu7nOD84j0TQ2AFMvMViJN7R9KKvyrxSaSlniG1AicT1oqeD44j0hP1ABIUcxsRWBP4BDgIGDN2ETSck8BFwMXAFe4+wvBeUQ6pgZAslddmPMmUtH/K9LlOCK5mQF8n9QM/FIXHUnu1ABItsxsN+Bw4J3AOsFxRLrxBHARcI67Xx8dRmRp1ABIVqpH9t4DTCEduStSuluAqcB39Wih5EQNgGTBzCaTiv47gZWD44gMwhzSrMBUd78yOoyIGgAJY2Zrk6b4pwDbBMcRGaY7SbMC57j7k9FhpJ3UAMhQVYf0vIVU9A8CxsYmEgk1j/QUwVTgFzpsSIZJDYAMhZmNB94HHAdsGRxHJEf3AKcD33L32dFhpPnUAMhAmdm6wLHA0cBawXFESjATOAs4w90fjw4jzaUGQAbCzCYCx5N29I8LjiNSornAd4HT3H16dBhpHjUAUiszezNwAuk8fguOI9IETrqH4FR3/+/oMNIcagCkb9XxvIeQCv8uwXFEmuxG4FTgAh07LP1SAyA9M7OxwFHAx4GNguOItMlDwL8DX3f3edFhpExqAKRr1Sf+I4B/BDYJjiPSZg8AnwW+rRkB6ZYaAOmYmY0B3g18Cj3KJ5KTe4DPAOe6+4LoMFIGNQAyqurwnoOBfwK2jU0jIstxB+nn9EIdKiSjUQMgy2VmB5I+WehiHpFy3AJ8yt0viQ4i+VIDIEtlZvuSCv9rorOISM9+S2oEpkUHkfyoAZDFmNn2pONI94zOIiK1uQI4zt1viw4i+RgTHUDyYGYTzOwrwE2o+Is0zZ7ATWb2FTObEB1G8qAZgJarHuk7GvhnYM3gOCIyeE8BnwbO0qOD7aYGoMXMbG/gP4CJ0VlEZOimAx9x959GB5EYagBayMy2BE4D9o/OIiLhfggc7+73RAeR4dIegBYxs9XM7GTgdlT8RSTZH7jdzE42s9Wiw8jwaAagJczsYOBLwHrRWUQkW48Bf+fuF0YHkcFTA9BwZvZK4EzggOgsIlKMS4Fj3P3h6CAyOGoAGqo6vveDwOcBTeu1x3PAs8C86mvuKL8CjAXGjfLrWGBV4GVD+u+QeM8AJwFf07HCzaQGoIHMbGtgKjA5Oov0bTZwP/Ao8GT1NWNZv3f3WYMMY2arABOAtauvZf1+fWBTYPwg88hQXAlMcfe7ooNIvdQANIiZrQR8jHRN77jgONKZuaQrXe8H7lvk1/uA+939ibBkNTCzdUiNwGaL/Dry+03Q39NSzCVdO3yyuz8fHUbqoQagIczsdcDXgR2is8hSPUd67vqWRb7uAB5t6/RqtUy1PumGyR0X+ZqIlhpydStwlLv/OjqI9E8NQOHMbDzwOeDv0GOduXiAxQv9LcDv3X1+aKpCmNkKwKtYvCnYkTRjIPEWkJ4o+oS7z44OI71TA1AwM9sF+B6wTXSWFpsNXA9cDVwDXOvuf4qN1ExmtgawO/B6YA9gN7THINKdwLvc/cboINIbNQAFqqZOTwD+hbQ7W4bnYVKhv7r6uknnqceo7rHYmdQM7EFqDF4ZGqp95gGfBE5t61JWydQAFMbMNgDOQTf2DcsjwDTgF8DV7v5AcB5ZDjPbhNQMvAXYF9ggNlFrXAEc7u6PRAeRzqkBKIiZHUR6vE/XeQ7OC8C1wGXANHe/OTiP9MHMdiI1AvuRlg9WjE3UaDNIjwteHB1EOqMGoADVRr/TgSnRWRrqUeByUtH/mbs/HZxHBsDMVgfeSmoG9iE9gSD1mwocpw2C+VMDkDkzezVpo99W0Vka5nbgAtKRpzdr/bJdqn00O5GOyD4E2C42UePcTdog+LvoILJsagAyVQ1QJ5I2+q0UHKcp7gLOB8539+nRYSQfZjYROLT62jo4TlM8T9ogeIoa7DypAciQma0JnEtau5T+3EP6pH++u98SHUbyZ2Y7khqBQ4Atg+M0wTTg3e7+VHQQWZwagMyY2c7AD0jHpUpvHgTOIxX9G6LDSLnMbFdSM3AYsHFwnJLdB7zD3W+KDiIvUgOQETM7HPgqsHJ0lgI9D/yQtAHpp+6+IDiPNIiZjQH2Jm3E3R8ty/ViDvAhdz8nOogkagAyYGZjgf8AjonOUqB7SHcgnO3uj0eHkeYzs3WBI4Gj0BJBL84EPuLu80b9N2Wg1AAEM7NXAheSnlGWzswlLZNMBX6pDUYSodqo+ybSrMA70M2G3bgWONjdH44O0mZqAAKZ2RtJu9LXjc5SiLuBs4DvuPuM6DAiI8xsAvBe4Gj0yG6nHgcOdfdfRQdpKzUAQczseODz6GSyTlwNnAL8UGv7krNqVuAA0l0dbwiOU4IXgJPc/bToIG2kBmDIzGxl4FukncWybAuAi0mXjFwXHUakW2a2G6kROAhYIThO7s4H3ufuc6KDtIkagCEys1eQTp6bFJ0lY7OBs4HT3P3e4CwifTOzzYHjgPcDqwTHydl1wAHu/r/RQdpCDcCQmNlWpAMxNo/OkqkngC8DZ2p9X5rIzNYCPgQcC6wXHCdXfwD2dfe7o4O0gRqAITCzycB/AWtFZ8nQE6S9EGdp+k/awMzGAR8E/h41AkszE/hLd78yOkjTqQEYMDM7jDSlrUeEFjeTtLHvDHefFR1GZNiqWz7/BvgYsHZwnNzMBY509/OigzSZGoABMrO/Bz4HWHSWjDwNnAac7u7PRIcRiWZmLwc+DHwUWCM4Tk4c+IS7/1t0kKZSAzAAZrYi6bSrKdFZMvIs8EXgC7oUROSlzGwNUhPwYeDlwXFyMhU4xt1fiA7SNGoAalZ18xcCb4vOkok5pM19J7v7k9FhRHJXHSp0EvC36F6QET8hnRz45+ggTaIGoEZmtj5pp/9O0VkycT7wMXd/MDqISGnMbGPgZHRmyIibSU8IPBodpCnUANTEzDYBrgC2iM6SgRuAD7v7VdFBREpnZm8gLZ/tGp0lA/cCe7r7A9FBmmBMdIAmqJ7xvxIV/8eBDwCvVfEXqUf1s/Ra0s9W22+83AK4shpzpU+aAeiTme0A/Ix2X+gzDzgd+Bet0YkMTrXH6JOkkwXHBseJ9DjwVne/NTpIydQA9MHMXgtcTrsP+LkE+KiO7RUZHjPbAvgCcGB0lkAzgX3c/TfRQUqlBqBHZvYXwI9o7+M6DwJHu/tl0UFE2srM9iNdkb1xdJYgfwbe7u7/Ex2kRNoD0AMzexvpk38bi/8C4AxgOxV/kVjVz+B2pJ/JNl6V/XLg8mpMli5pBqBLZnYQcB7tXH+7HThK1/OK5MfMJgFfJzUEbTMPOMzdL44OUhLNAHTBzN5DOuSnbcV/HvBpYFcVf5E8VT+bu5J+VucFxxm2scCF1RgtHdIMQIeqv1jfpn1N09XAFHe/IzqIiHTGzLYlHaG7R3SWIVsAHOHu340OUoK2FbOeVNP+Z9Ou79ds0k1lk1X8RcpS/cxOJv0Mzw6OM0xjgLOrMVtGoRmAUVSbSy6lXdP+twOHuPv06CAi0h8zmwhcQLv2BswDDnD3n0QHyVmbPtF2rXrU72LaVfzPBl6n4i/SDNXP8utIP9ttMRa4uBrDZRk0A7AM1SE/V9CeR/1mka7cPCc6iIgMhpkdTrqqfJXoLEPyZ9LdATosaCnUACxFdbzvL2nPCX+3k67a1Fq/SMNVGwQvpD1LAjOBN+nY4JfSEsASqksmfkZ7iv83SZf3qPiLtED1s/5a0s9+G6wF/EwXCL2UZgAWUV3peyWwUXSWIZhFOsr3O9FBRCSGmb2XdJRwG5YEHiI91aSrhCtqACpmtj7tudL3NtKU/53RQUQklpltQ1oS2D46yxDcS2oCHo0OkgMtAbDwis1ptKP4f4O0y1/FX0SoxoLXkcaGptsCmFaN+a3X+gbAzFYkdb87RWcZsGeB97j7Ue4+JzqMiOTD3ee4+1HAe0hjRZPtRDo2eMXoINFa3wCQHolp+k1StwKvcfdzo4OISL6qMeI1pDGjyd5GGvtbrdUNgJn9PTAlOseATQV2c/e7ooOISP6qsWI30tjRZFOqGtBard0EaGaHAd8DLDrLgDwLfNDdvxcdRETKZGbvAr4GrBqdZUAceJe7nxcdJEIrGwAzm0x61n9cdJYB+SOwj7vfHh1ERMpmZtsBlwMbRmcZkLnAW939yuggw9a6BqA6DOJamnvQzx3A29z9oeggItIMZrYR8BNg2+gsAzIT2N3d744OMkyt2gNgZq8gPe7X1OJ/HekZVxV/EalNNaZMJo0xTbQW6fHAV0QHGabWNABmtjLpWt/No7MMyDTSpRczooOISPNUY8uepLGmiTYHLq1qRSu0pgEAvgVMig4xIN8h3X09OzqIiDRXNcYcQBpzmmgSqVa0QisaADM7Hjg0OseAfAE4wt1fiA4iIs1XjTVHkMaeJjq0qhmN1/hNgGb2RuDnQNNOfXLgY+5+anQQEWknMzsBOJnmPU79ArCXu/8qOsggNboBMLNXAr8D1o3OUrMXgA+4+znRQUSk3czscNI9Ak37kPU48Gp3fzg6yKA0dgnAzMaSzvhvWvGfDRyo4i8iOajGogNJY1OTrEu6M2BsdJBBaWwDAPwHsHt0iJrNJE1LXRYdRERkRDUm7UUao5pkd1ItaaRGLgFUU1Lfjs5Rs4dIB/zcER1ERGRpzGxb0oFBG0VnqdkRTZx1bVwDYGY7A9cATXqWczqp+P8xOoiIyPKY2YakJmBidJYazQFe7+43RQepU6MaADNbk7Tpb7PoLDW6Fni7uzdtak1EGsrM1gJ+RLOWYe8jbQp8KjpIXRqzB8DMDDiXZhX/y0hr/ir+IlKMaszaizSGNcVmwLlVrWmExjQAwInAvtEhanQZabd/03bWikgLVGPXgTSrCdiXVGsaoRFLAGb2atJU+UrRWWpyLemTv4q/iBTNzMaTDmNrynLA86SbA38XHaRfxTcA1V+uG4GtorPUZDrpRj9N+4tII1R7Aq6kORsD7wZ2Kf1DWhOWAE6nOcV/5FE/FX8RaYxqTHsbaYxrgq1ItadoRc8AmNlBwA+ic9RkJvAGPecvIk1VnRNwFbBWdJaavMPdL44O0atiGwAz2wC4BZgQnaUGs0lr/tdGBxERGSQz2520J2B8dJYazAB2dPdHooP0osglgOoxjHNoRvF/AThYxV9E2qAa6w4mjX2lmwCcU+qjgUU2AMAJwJ7RIWrgpFv9mvSYjIjIclVj3gdIY2Dp9iTVpOIUtwRgZrsA1wFNuKHpRHc/NTqEiEgEMzsBOCU6Rw3mAZPc/cboIN0oqgGoHvn7HbBNdJYafMHdi+waRUTqYmanAh+NzlGDO0lHBRfzaGBpSwCfoxnF/zs06DQpEZE+nEgaE0u3DalGFaOYGQAzex3phLzSmpYlTQMOcPcmbIAREembma0IXEr5x7kvIJ0S+OvoIJ0oogEws5VIU/87RGfp03XAniVNEYmIDEO1xHsFMCk6S59uJS0FPB8dZDSlfJr+GOUX/ztI1/qq+IuILKEaG99OGitLtgOpZmUv+xkAM9sauBkYF52lD38EXu/uTTkGU0RkIMxsI+AaYMPoLH2YC+zk7ndFB1merBuA6nCFXwGTo7P04VnS4yG3RwcRGWFmawAbAAY84u5PBUcSWcjMtiMtma4anaUPVwJv9IyLbO5LAB+k7OIP8EEVf4lkZquZ2WFmdp6Z3Wtms4GngNuB24CZZjbbzO6p/p3DzGy12NTSZtWY+cHoHH2aTOb/DdnOAJjZK0lX45Y8EE1197+ODiHtZGZvAD5BOqlspS7/+POkDVmfc/er6s4m0gkz+09gSnSOPjwDTHT3h6ODLE3ODcAlwAHROfpwK7Cbu8+JDiLtYmbbA/9G2lBVhx8Bf+/ut9X0eiIdMbOVgespexP4pe5+YHSIpclyCcDMDqbs4v8s6YIfFX8ZGkv+mbRptq7iT/VaN5vZP5d66YmUqRpDDyaNqaU6oKpp2cluBqBae7wLWC86Sx/e4+7nRoeQ9qieof428M4Bv9VFwBF6nFWGyczeDXw3OkcfHgO2dvdnooMsKscZgE9SdvH/hoq/DJOZrQ1cxeCLP9V7XFW9p8hQVGPqN6Jz9GE9Um3LSlYzAGa2JWlncqk3/d0GvE5T/zIs1SmZVzD8p2WuJJ1qmf1pZ9IM1X6AXwPbR2fp0TxgO3e/JzrIiNxmAE6j3OI/C637y/CdScyjspOr9xYZikX2A8yKztKjsaQal41sGgAz2xvYPzpHH4529zujQ0h7mNlfA0cFRjiqyiAyFNUYe3R0jj7sX9W6LGSxBFDdBHUzMDE6S4++6e4fiA4h7WFmqwP3AhOCo8wAtnD3p4NzSIuY2TeA90fn6NF00jHB4TfC5jIDcDTlFv/bgb+NDiGt83Hiiz+kDB+PDiGt87eksbdEE8lkFiN8BsDMJgC/B9YMDdKbWcBr3b3026ukIGa2IXA3sHJ0lsocYCt3/2N0EGkPM9sW+A2wSnSWHjwFvMrdZ0SGyGEG4DOUWfwBjlHxlwDvJZ/iDynLe6NDSLtUY+8x0Tl6tCap9oUKnQGojiy9CVghLETvznb390WHkPYxs+uB10XnWMKv3X236BDSPmb2LeDI6Bw9mA/sHHnEdnQD8HPSRSWluZ30vL9OQ5OhMrMNgD+SrvHNiQMbuvsj0UGkXapTMH8NbBedpQdXuPteUW8etgRgZvtSZvGfDRyi4i9B9iO/4g8p037RIaR9qrH4ENLYXJo9q1oYInIPQPj6R49OdPfp0SGktbaIDrAcOWeTBqvG5BOjc/QorBaGNABmdiDwmoj37tPVwFnRIaTVNogOsBw5Z5PmO4s0RpfmNVVNHLqhNwDVdaIlfvqfB0zx6Ocmpe1yLrI5Z5OGq8bmKaSxujSfibhqO2IG4GBgx4D37dfn9MifZCDnmzJzziYtUI3Rn4vO0YMdSbVxqIb6FICZjSHdmLft0N60HrcDu7p7iZ2lNIiZ3QlsHZ1jGe5y922iQ0i7mdlY4AbKeyrgDmB7d18wrDcc9gzAuymv+C8AjlLxFxHJXzVWH0Uau0uyLalGDs3QGoDqwp9PDev9avQVd78uOoSIiHSmGrO/Ep2jB5+qauVQDHMG4AhgyyG+Xx0eBP4hOoSIiHTtH0hjeEm2JNXKoRhKA1CtyfzjMN6rZke7+7PRIUREpDvV2J3FrXtd+seqZg7csGYAjgI2GdJ71eUSd78sOoSIiPSmGsMvic7RpU1INXPgBv4UQLWe8Qdgo4G+Ub3mARPd/d7oICKL0lMAIt0xsy2A6cBQPlXX5CFgc3d/YZBvMowZgEMoq/gDnK7iLyJSvmosPz06R5c2ItXOgRrGDMANwC4DfZN6PQ68yt3/HB1EZEmaARDpnpm9HPg9sG50li7c6O67DvINBjoDYGZvpqziD/APKv4iIs1RjemlPdG1S1VDB2bQSwAnDPj163YDcHZ0CBERqd3ZpDG+JAOtoQNrAMxsIhB2z3GPPjzMYxhFRGQ4qrH9w9E5urRvVUsHYpAzAMcDQ7/dqA/nu/tV0SFERGQwqjH+/OgcXTBSLR3Miw9iE6CZrQs8AIyr/cUHYw6wjbuXdmqUtIw2AYr0x8w2Bu4EVo7O0qG5wCbu/njdLzyoGYBjKaf4A3xZxV9EpPmqsf7L0Tm6MI5UU2tX+wyAmY0nHWKwVq0vPDjPApu5+5PRQURGoxkAkf6Z2drAfcCq0Vk6NBPYyN1n1/mig5gBeB/lFH+AL6r4i4i0RzXmfzE6RxfWItXWWtU6A2BmBtxNObf+PU369P9UdBCRTmgGQKQeZrYmaRZg9egsHboH2MprLNp1zwC8hXKKP8BpKv4iIu1Tjf2nRefowpakGlubuhuAKTW/3iDNpLzzoUVEpD6nk2pBKWqtsbU1ANWmioPqer0hOMXdn4kOISIiMaoacEp0ji4cVNXaWtQ5A3A45Vy3+ARwRnQIEREJdwapJpRgLKnW1qLOBqCk6f/Pu/us6BAiIhKrqgWfj87RhdpqbS0NgJlNBkrZ/fsEcFZ0CBERycZZlDMLsE1Vc/tW1wxASZ/+v+zuc6JDiIhIHqqaUNLpgLXU3L7PATCzNYBHKONc5dnAxu4+IzqISC90DoDIYJjZBOBBYHx0lg7MATZw9z/18yJ1zAC8hzKKP8DZKv4iIrKkqjacHZ2jQyuTam9f6mgASpn+X0BZhz6IiMhwnUaqFSXou/b21QCY2W7Ajv2GGJKL3f3e6BAiIpKnqkZcHJ2jQztWNbhn/c4A1PY84hCcGh1ARESyV1Kt6KsG99wAmNkKwDv7efMhutrdr4sOISIieatqxdXROTr0zqoW96SfGYA3Aev08eeHqaSjHkVEJFYpNWMdUi3uST8NwCF9/Nlhuhv4YXQIEREpxg9JtaMEPdfinhoAM1sR+Kte33TIznL3UnZ1iohIsKpmlHJi7F9VNblrvc4A7AlM6PHPDtNc4DvRIUREpDjfIdWQ3E0g1eSu9doAlDL9/wMd/CMiIt2qascPonN0qKea3HUDYGYrAQf18mYBpkYHEBGRYpVSQw6qanNXepkB2BtYs4c/N2z3AL+MDiEiIsX6JamW5G5NUm3uSi8NwKE9/JkIX/d+bzoSEZHWqmrI16NzdKjr2tzVbYBmNo50Z/Jq3b7RkD0PbOTuj0cHEamTbgMUGS4zWxd4COh6in3IngHWcfeONy52OwOwD/kXf4AfqviLiEi/qlpSwlkyq5FqdMe6bQAO7PLfj1LKxg0REclfKTWlqxrdcQNgZgbs23Wc4XsQ+Gl0CBERaYyfkmpL7vatanVHupkB2BlYr/s8Q3eeTv4TEZG6VDXlvOgcHViPVKs70k0DUMKnf4DzowOIiEjjlFJbOq7VTWsA7nH3G6JDiIhIs1S1pYQzAeptAMxsDWD3nuMMzwXRAUREpLFKqDG7VzV7VJ3OAOwNrNB7nqEpZYpGRETKU0KNWYEOTwXstAEoYfr/Lne/JTqEiIg0U1Vj7orO0YGOavaoDUD1SEFXhwsEKaEzExGRspVQa/bp5HHATmYAdqGMx/9K+J8iIiJlK6HWrEeq3cvVSQNQwvT/7e4+PTqEiIg0W1Vrbo/O0YFRa3dTGoASdmaKiEgzlFBz+msAzGwVYFJtcQbn0ugAIiLSGiXUnElVDV+m0WYAdiP/x/8eBW6ODiEiIq1xM6n25GwFUg1fptEagD3qyzIwl7u7R4cQEZF2qGrO5dE5OrDcGt6EBuCy6AAiItI6JdSe3hoAMxtD/uv/LwA/iw4hIiKt8zNSDcrZpKqWL9XyZgC2B1avP0+trnX3p6NDiIhIu1S159roHKNYnVTLl2p5DcDr689SuxKmYEREpJlKqEHLrOXLawBKWP+fFh1ARERaq4QatMxaXnID8Ii76/E/EREJUdWgR6JzjKK7BsDM1gc2G1icepTQeYmISLPlXos2q2r6SyxrBiD3T/8Av4gOICIirVdCLVpqTS+5Abg6OoCIiLReCbWoqwYg9+f/H3b3B6JDiIhIu1W16OHoHKNYak1/SQNQHRqw48Dj9Oea6AAiIiKV3GvSjks7EGhpMwCbA+MHn6cvJUy5iIhIO+Rek8aTavtiltYA5P7pH/L/ZouISHuUUJNeUttLbABmAzdFhxAREancRKpNOWtEA3C9u+d+AYOIiLREVZOuj84xio4agB2GEKQfJUy1iIhIu+Rem15S2xdrAMxsFWCLocXpTe67LUVEpH1yr01bVDV+oSVnALYHbHh5epL79YsiItI+udcmY4mrgZdsAHJf/3/A3f8UHUJERGRRVW3K/YC6xWr8kg1A7uv/t0QHEBERWYbca9RiNb60GYDcv7kiItJeudcozQCIiIgMQO41aukzAGa2DrDW0ON0J/dvroiItFfuNWqtqtYDi88AbBYQphvPAb+PDiEiIrIMvyfVqpwtrPUlNQDT3X1+dAgREZGlqWrU9OgcoyiyAch9akVERCT3WqUGQEREZAByr1VqAERERAYg91q11AZg84Ag3bgjOoCIiMgocq9VC2v9GAAzWwHYKCzO6OYCj0aHEBERGcWjpJqVq42qmr9wBmBDYKW4PKN6wN09OoSIiMjyVLUq5zsBViLV/IUNQO7r//dHBxAREenQ/dEBRrEZlNMA3BcdQEREpEO516yiGoD7owOIiIh06P7oAKMoqgHIvZsSEREZkXvNWqwBWC8wSCdy/2aKiIiMyL1mrQcvNgBrBwbpxP3RAURERDp0f3SAUawNLzYAEwKDjGa2uz8RHUJERKQTVc2aHZ1jOSZAGQ3AL90kIwAAIABJREFU/dEBREREunR/dIDlSA2Amb0MGB8cZnl0AqCIiJQm59o13sxeNoa8P/0DPBkdQEREpEu5164JagBERETql3vtKqIBmBEdQEREpEu5164iGoDcuygREZEl5V67Jowh/zMAcv8mioiILCn32rV2CTMAuU+jiIiILCn32qUlABERkQHIvXapARARERmA3GvXhDHAKtEpRpH7NIqIiMiScq9dq4wBxkWnWI7n3H1WdAgREZFuVLXruegcyzFuDDA2OsVyPBsdQEREpEc517Cxuc8AzIsOICIi0qOca9g4NQAiUpdVqsvFRCTJuYZlvwQwNzqAiHRsQ+B6M9sqOohIJnKuYVoCEJFa7Qj8zsz+b3QQkQzkXMOyXwLIuXsSkaVbFfiemX1NSwLScjnXsOyXAHLunkRk+f4auE5LAtJiOdew7JcAcu6eRGR0OwG/1ZKAtFTONSz7JYCcuycR6czL0ZKAtFPONSz7JYCcuycR6Y6WBKRtcq5h2S8B5Nw9iUj3RpYEDosOIjIEOdewcWOiE4hI67wc+H9m9lUtCYjEGUPmUxTRAUQyMz86QI0+SFoSeFV0EJEBybmGzR1D5lMU0QFEMvNIdICa7UQ6OEhLAtJEOdeweZoBECnLA9EBBkBLAtJUOdewubk3ADl3TyIR7o8OMEAfBK7VkoA0SM41LPslgJy7J5EITZwBWNTOaElAmiPnGpb9EkDO3ZNIhN9FBxiCkSWBs7QkIIXLuYZlvwSQc/ckMnTuPh24KTrHkHwILQlI2XKuYdkvAeTcPYlEOTc6wBCNLAkcGh1EpAc517DslwBy7p5Eovw/YEF0iCF6OXBetSSQ84AqsqSca5iWAERK4+4PAz+OzhHgQ6SDg7aMDiLSoZxrWPZLAKtGBxDJ1LHAs9EhAuwM3KAlASlEzjUs+yWAl5nZKtEhRHLj7g8AH4/OEWRkSeBMLQlIrqralfNTLHPHALOiU4xiQnQAkUydCfxPdIhAR5OeEtCSgOQo99o1awwwIzrFKNaODiCSI3d34AiafzjQ8uxCekrgkOggIkvIvXbNUAMgUjB3vx94A3BXcJRIqwHna0lAMpN77SqiAch9GkUklLv/EfgL4OboLMG0JCA5yb12zRgDPBmdYhS5d1Ei4dz9CeBNwM+Do0TTkoDkIvfa9WQJMwC5fxNFsuDufwLeBnyadh0UtCQtCUgOcq9dWgIQaRJ3X+DunwH2Ah6LzhNMSwISKffaVUQDkHsXJZIdd/9v0qE5WhJISwIHRweR1sm9dqkBEGkqd38cLQlAWhK4wMy+oiUBGaLca9eMMe7+HDA7OslyrB8dQKRUWhJYzDHANWa2RXQQaYWca9dsd39uTPUPOc8CbBodQKR0iywJXBGdJdiupLsEtCQgg7ZpdIDlmAFQQgMw3szWiQ4hUrpqSWBvtCSgJQEZqKpmjY/OsRyLNQC5nwWwaXQAkSbQksBitCQgg7JpdIBRPAkvNgC5DwSbRQcQaRItCSykJQEZhNxr1mPwYgNwX2CQTuT+zRQpjpYEFhpZEviylgSkJrnXrPugnAZg0+gAIk2kJYHF/A1aEpB6bBodYBRFNQC5d1MiRdOSwEIjSwLvjA4iRcu9ZhXVAGwaHUCk6bQksNBqwIVaEpA+bBodYBT3AZi7Y2YrAHOAlWIzLdNcYGV39+ggIm1gZm8GvgesF50l2A3AIe5+b3QQKYOZGame5to8Pk+qp/PHALj7fOCh2EzLNY68T1USaRQtCSy0K+kuAS0JSKfWJ9/iD/BQVfMXLgEA/CEoTKe2jQ4g0iaLLAn8E+1eElidtCRwhpmNjQ4j2cu9Vi2s9Ys2ALnvA9gxOoBI21RPCfwzekoA4G9JTwlsHh1EspZ7rVpY69UAiMiotCSw0KtJTwn8VXQQyVbutUoNgIh0R0sCC60OXKQlAVmG3GtVkQ3AxOppBREJssiSwFvRkoCWBGQxVY2aGJ1jFEU2AC8DXhUdQkTA3X+BlgRASwKyuFeRalXOXtoAuPsTwMyQOJ3LfWpFpDW0JLDQyJLAl7Qk0Hq516iZVa0HFp8BALh1yGG6lfs3V6RVtCSwmGPRkkDb5V6jFqvxSzYAtwwxSC9y/+aKtNIiSwK/iM4STEsC7ZZ7jVqsxmsGQERqUS0JvBUtCWhJoL1yr1FFzwBsYmZrRIcQkaXTksBijgWuNrPcb4aTGlS1aZPoHKNY7gzAbUDuF+7sHh1ARJZPSwILvQa40czeER1EBi732uSkGr/QYg2Au88Ccr/16vXRAURkdFoSWGh14Ptm9rnoIDJQudeme6sav9CSMwCQ/z6APaIDiEhntCSwmH8ws6k60Kyxcq9NL6ntS2sAct8HsJuZrRgdQkQ6Vy0J7IKWBI4i3SyY83Wx0qWqJu0WnWMUL6ntJTYA40lriyJSEHd/jDQT8M+0e0ngIOCL0SGkVjuTalPOGtEAQP5TLSKyFNWSwD+RGoHHg+NE+qCZHRQdQmpTQk3qqAH4AzB78Fn6UsI3W0SWQU8JAPB1M9swOoTUIveaNJtU2xfzkgbA3ReQ/yxA7rstRWQUWhJgLeCU6BBSi9xr0i1VbV/M0mYAAK4bcJh+vdLMcj9wQURGoSUBDtZBQWWratEro3OMYqk1fVkNwNUDDFKX3KdcRKRDLV4SWAE4PjqE9KWEWrTUml5yA/CW6AAiUp8WLwm838xWiw4hPSuhFnXeALj7o8B9A43Tv32jA4hIvRZZEtib9iwJjAfeEB1CepZ7LbqvqukvsawZAMh/FmADM9spOoSI1M/dr6BdSwJvjA4g3atq0AbROUaxzFpecgMA+XdeItKjli0JqAEoUwk1qKcG4JoBBKnbftEBRGRwWrQkoNNNy1RCDVpmLTf3pd/+a2ZjgJmkm6xy9QKwtrs/HR1ERAbLzNYDvge8OTrLgIx19+ejQ0hnzGx14Ekg57tpngbWWtoZALCcGYDqD+R+HsCKpClCEWm4aklgL5q7JJD7WfKyuLeSd/EHuG5ZxR+WvwQAZewDKGEKRkRq0PAlgVWiA0hXSqg9y63hTWgA9jEziw4hIsOzyFMC/x2dpUazogNIZ6qas090jg701QBcD8yvL8tArA/ocUCRlllkSeAzlL8k8IT2MhVlJ1Ltydl8Ug1fpuU2AO4+i/z3AQAcEB1ARIavWhL4NOUvCdwdHUC6UkLNua6q4cs02gwAwLSawgzSIdEBRCROA5YE7ooOIF0poeaMWrub0gBsZ2YTo0OISJzClwQujw4gnalqzXbROTpQSwNwI/BY/1kG7tDoACISq9AlgaeBH0WHkI6VUGseI9Xu5Rq1AfB0UlAJ3WkJ/1NEZAgKWxL4vrs/Fx1COlZCrbncl3XK3yI6mQGAMpYBtjazHaNDiEgeCloS+FZ0AOlMVWO2js7RgY5qdqcNwE/J/3FAKKMzE5EhKWBJ4CJ3vyo6hHSshBozn1SzR9VRA+DufwKu7SfRkJSwM1NEhizTJYFZwPHRIaQrJdSYa6uaPapOZwCgjGWALc1s1+gQIpKfDJcEPuvuD0WHkM5UtWXL6Bwd6LhWN60BgDKmaEQkwCJLAm8jdkngQuDUwPeX7pVSWzqu1cu8Dvgl/2I6+/gRYL0eQw3Lg8Bmy7sBSUQk8HrhHwMH6erfcpjZGOA+YOPoLKN4DNigkycAoIsZgOoFS5gF2Ji04UdEZJmClgR+AbxTxb84e5N/8QeY1mnxh+6WAAAu6fLfjzIlOoCI5G/ISwIXAQfomf8ilVJTuqrRHS8BAJjZOOAJYLUuQw3b88BG7p7jYz8ikiEzmwB8ATii5pd+DPgbd/9Bza8rQ2Bm6wIPAStFZxnFM8A67j630z/Q1QxA9cIlzAKsBBwZHUJEyuHuM9z9SOAtwM11vCRwNjBRxb9oR5J/8Qe4pJviD90vAQCc38OfiXBUtXFRRKRj7v7f7r4z8BfABaQZxW7cAJwIbOzu73P3p+rOKMNR1ZCjonN0qOva3NUSAICZrURaK1uz2zcL8BZ3z+ngDxEpjJmNB3YDJgM7Aa+ovlYGHgb+SJoifhD4ibvrat+GMLM3kzZu5u4pYN1uN5eu2O27uPvzZnYx8P5u/2yAKeR18peIFMbdZ5PGEY0l7VPK5r+Le3mypJclAEjTYiV4R7WxR0REpGNV7XhHdI4O9VSTe20ArgBm9Phnh2kc8N7oECIiUpz3kmpI7maQanLXemoA3P0F4Pu9/NkAR1enOImIiIyqqhlHR+fo0Permty1fgpjKcsAWwH7R4cQEZFi7E+qHSXouRZ3/RTAwj9otgLpboB1en3zIbra3d8QHUJERPJnZlcBe0Tn6MATpLP/5/fyh3ueAaje8KJe//yQ7WFmk6JDiIhI3qpaUULxB7io1+IP/S0BAJzT558fphOiA4iISPZKqhV91eCelwAWvoDZzcCOfb3IcCwAtnL3e6ODiIhIfsxsC+Bu+v9wPAy3uPtO/bxAHf+RU2t4jWEYAxwfHUJERLJ1PGUUf6ih9tYxA7AGaTPgyv2GGYLZpPO5SzjDQEREhqQ6+OdBYHx0lg7MIW3++1M/L9J3p1MFKGUz4HjgmOgQIiKSnWMoo/hD2vzXV/GHGmYAAMxsMvA/fb/QcDwBbOruc6KDiIhIPDNbGbifMh5rB/gLd7+y3xepZa2jCnJnHa81BOtQzglPIiIyeEdTTvG/s47iD/VudihlMyDASWa2SnQIERGJVdWCk6JzdKG2WltnA3AOMK/G1xukdYBjo0OIiEi4Yynn0/88ajx/p7YGwN2fBC6u6/WG4EQzWy06hIiIxKhqwInRObpwcVVra1H3844lLQOsBRwXHUJERMIcR6oFpai1xtbyFMDCFzMz0ilKW9b2ooP1NLCZuz8VHURERIbHzNYE7gNWj87SoXtIp9nWVrRrnQGogp1e52sO2OrAR6NDiIjI0H2Ucoo/wOl1Fn+oeQYAwMzGAw9RzrTKs6RZgNrWVUREJF9mtjbp0/+q0Vk6NBPYyN1n1/mitZ95XAU8q+7XHaBVgY9FhxARkaH5GOUUf4Cz6i7+MIAZAAAzWxd4ABhX+4sPxhxgG3d/MDqIiIgMjpltTDq4roT7awDmApu4++N1v/BAbj2qgn53EK89ICsDJ0eHEBGRgTuZcoo/wHcHUfxhQDMAAGY2EbgNsIG8wWBMdverokOIiEj9zOwNQC3H6A6JA9u7+/RBvPjA7j2uAk8b1OsPyBfNrJS7oEVEpEPV2P7F6Bxdmjao4g8DbAAqpw749eu2K3BkdAgREandkaQxviQDraEDWwJY+AZmNwC7DPRN6vU48Cp3/3N0EBER6Z+ZvRz4PbBudJYu3OjuA21YhjHdXdoswLrAJ6NDiIhIbT5JWcUfhlA7hzEDsCLwB2Cjgb5RveYBE9393uggIiLSOzPbApgOjI3O0oWHgM3d/YVBvsnAZwCq/4B/H/T71Gws8IXoECIi0rcvUFbxB/j3QRd/GMIMAICZjSVdErTJwN+sXv/H3S+LDiEiIt0zs/2AH0fn6NIDpEt/5g36jYbyyFv1H/LZYbxXzc4ys5KOixQREaAau0s6ln7EZ4dR/GFIDUDl26TrDEuyMfCv0SFERKRr/0oaw0tyD6lWDsXQGoBqPeMzw3q/Gv2NmU2KDiEiIp2pxuy/ic7Rg88MY+1/xFD2ACx8s3QS023AtkN703rcDuw6rGkZERHpTbXn7AZgu+gsXbqDdOzvgmG94VCPva3+w/5pmO9Zk+2Aj0eHEBGRUX2c8oo/wD8Ns/jDkGcAAMzMgJuAHYf6xv2bB+zs7ndEBxERkZcys21J9aW0x/5uIdWXoRbkoV98U/0HfmrY71uDscDUqoEREZGMVGPzVMor/gCfGnbxh4AGAMDdLwF+G/HefdoDODo6hIiIvMTRpDG6NL+tauLQDX0JYOEbm+0LlHjIzmzgtYO8olFERDpnZhOB3wDjo7P0YD93nxbxxmENAICZ/RzYMyxA724HXufus6ODiIi0mZmNB35NmRv/rnD3vaLePGQJYBHHAfODM/RiO+Ar0SFERISvUGbxn0+qgWFCGwB3vw34WmSGPhxpZodHhxARaatqDD4yOkePvlbVwDChSwAAZjYB+D2wZmiQ3swi7QfQo4EiIkNUPfL3G2CV6Cw9eAp4lbvPiAwRvQRA9Q34dHSOHq0CXGhmK0cHERFpi2rMvZAyiz/Ap6OLP2QwAwBgZisCNwMTo7P06Jvu/oHoECIibWBm3wDeH52jR9OBnYZ55v+yhM8AwMKLgj4SnaMP7zez90aHEBFpumqsLbX4A3wkh+IPmcwAjDCzS4H9o3P0aBbwGne/MzqIiEgTmdk2pEPkSp36/6G7HxAdYkRuDcCWpGfsSzzKEdJNh69z9znRQUREmqRa9/81sH10lh7NA7Zz93uig4zIYglgRPWN+WJ0jj5sD5wRHUJEpIHOoNziD/DFnIo/ZDYDAGBmqwF3AetFZ+nDe9z93OgQIiJNYGbvBr4bnaMPjwFbu/sz0UEWldUMAED1Dfq76Bx9+qqZbR0dQkSkdNVY+tXoHH36u9yKP2Q4AzDCzC4Bstks0YNbgd20H0BEpDfVuv/1wA7RWfpwqbsfGB1iabKbAVjEMUB2HVMXdqDs/QwiItG+SNnF/xlSLctStg2Auz8MnBSdo09TzOxd0SFEREpTjZ1TonP06aSqlmUp2yUAADMz4FfA5OgsfXgWmOTut0cHEREpgZltB1wHrBqdpQ9XAm/0jIts1g0ALNwAcjMwLjpLH/4IvN7dH4oOIiKSMzPbCLgG2DA6Sx/mko77vSs6yPJkuwQwovoGfjY6R582BH5S3XwoIiJLUY2RP6Hs4g/w2dyLPxQwAwBgZisBv6PszSCQprT2dPfZ0UFERHJiZuOBK4BJ0Vn6dCvwand/PjrIaLKfAQCovpFHAQuis/RpEnBRdfuhiIiw8EbYiyi/+C8Ajiqh+EMhDQCAu/8a+FJ0jhrsC3yz2uAoItJq1Vj4TdLYWLovVbWqCEUsAYyopoh+B2wTnaUGX3D3E6JDiIhEMrNTgY9G56jBnaSp/2KWeIuZAQCovrHvIt2qVLqPmpkaABFprWoMbELxnwe8q6TiD4U1AADufiPwyegcNTnZzA6PDiEiMmzV2HdydI6afLKqTUUpaglgRLVm9DNgz+gsNXgBONDdL4sOIiIyDGa2H3AJ0IQN0VcAb835wJ9lKbIBADCzDYBbgCY8Wz8b2Mvdr40OIiIySGa2O/BzYHx0lhrMAHZ090eig/SiuCWAEdU3vPRzokeMB35kZttGBxERGZRqjPsRzSj+AFNKLf5QcAMA4O4XA1Ojc9RkLdJpgaWfgCUi8hLV2PYT0ljXBFOrGlSsYpcARlSPBt4IbBWdpSbTgcnuPjM6iIhIHcxsLdLlOBOjs9TkbmCX0nb9L6noGQBY7NHAIk5e6sBE0nJAU6bIRKTFqrHsRzSn+D9PgY/8LU3xDQCAu/+O5jwaCLA7cKGODBaRklVj2IWkMa0pPlnVnOIVvwQwono08Mc04zjJEZcBBzeh0xSRdqk++V8I7BedpUbTgP9T4iN/S9OYBgDAzNYkHRW8WXSWGl0LvF17AkSkFNWa/49o1if/+0hH/T4VHaQujVgCGFH9j3kHMCc6S412B67U0wEiUoJqrLqSZhX/OcA7mlT8oWENAIC73wR8KDpHzSYC1+icABHJWTVGXUNzNvyN+FBVWxqlcQ0AgLufA5wZnaNmGwFXVadoiYhkpRqbriKNVU1yZlVTGqdRewAWZWZjgV/SrGkoSMcGH6y7A0QkF9XZ/hfSnBP+RlwLvMndm3AD7Us0cgYAoPofdjDweHSWmo0HLtEtgiKSg2osuoTmFf/HSR+2Gln8ocENAIC7PwwcSrpxr0lWBM6u7tIWEQlRjUFn04xb/Rb1AnBoVUMaq9ENAIC7/wo4KTrHABhwipmdWp2BICIyFJacCpxCGoua5qSqdjRaY/cALMnMziPNBjTRd4D3u3vTZjpEJDPV6X7fBN4bnWVAznf3w6JDDEObGoCVgV8Ak6KzDMg04J06NVBEBqU63e8imnXi6qKuA97i7k06S2aZWtMAAJjZK0j/gzePzjIg15FODZwRHUREmsXMJpBO92vqh6g/AJPc/X+jgwxLqxoAADPbivRoR1PupF7SHcDb3P2h6CAi0gxmthHwE6Cph5HNBHZ397ujgwxT4zcBLqn6H/yXwNzoLAOyLenUwO2ig4hI+aqx5BqaW/znAn/ZtuIPLWwAANz9SuBIoKnTHxsC15nZu6KDiEi5qjHkOtKY0kQOHFnVhNZpZQMA4O7nAZ+IzjFAqwLnmtl/VhsgRUQ6YmYrm9l/AueSxpKm+kRVC1qpdXsAllT9JZ8SnWPAbiWdaHVXdBARyZuZbU061neH6CwDNtXd/zo6RCQ1AOmZ1h8Bb4vOMmDPkm60Ojc6iIjkyczeDXyVZn/qh7Sh8e1tPzul9Q0AgJm9nHR/9U7RWYbgG8CxbXnOVURGVy0TngF8IDrLENwMTHb3P0cHiaYGoGJm65OagC2iswzBbaQlgTujg4hILDPbhjTlv310liG4l1T8H40OkoPWbgJcUvUXYk+gDc/Pbw/81syaepSniHSgGgN+SzuK/0PAnir+L1IDsAh3fwDYi+ZdIbw0qwDnmNk39JSASLtUu/y/AZxDGgua7nFgr2qMl4qWAJbCzHYAfklzTwtc0u2kJYE7ooOIyGCZ2bakKf+2HBY2E3iTu98aHSQ3mgFYiuovyj5AWzaJbAf8xswOjw4iIoNT/Yz/hvYU/z8D+6j4L50agGVw998Abwfaslt+FeDbZvat6sYvEWkIMxtvZt8Cvk07pvwhjd1vr8ZyWQotAYzCzN4GXAqMjc4yRLcDh7j79OggItIfM5sIXEB7PvUDzAMOcPefRAfJmWYARlH9BToMmB+dZYhGlgSOMTOLDiMi3bPkGNo15Q9prD5MxX90mgHokJm9hzR91ram6WpgijYIipSj2ug3FdgjOsuQLQCOcPfvRgcpQduKWc+qv1BH0K6ZAEgDyE1m9ikza9MyiEhxzGysmX0KuIn2Ff/5qPh3RTMAXTKzg4DzaNeegBG3A0e5+3XRQURkcWY2Cfg67ZruHzGPNO1/cXSQkmgGoEvVX7ADaM/TAYvaDrjazL5kZk2/LESkCGa2qpl9ibRc18biP4e04U/Fv0uaAeiRmf0F6RbBl0dnCfIgcLS7XxYdRKStzGw/4Cxg4+gsQf5MetTvf6KDlEgzAD2q/sLtSTplqo02Bn5sZv9lZm24QEkkG2a2hZn9F/Bj2lv8Z5LO9lfx75FmAPpUHRv8M2Dd6CyB5gGnA/+iKzZFBqe6uvyTwHG0cx/SiMeBt+qEv/6oAaiBmW0F/BzYKDpLsMeBfwDOdvcF0WFEmsLMxgBHAv9Kuz9sQLrVby93vzs6SOnUANTEzDYBrgA0HQ43AB9296uig4iUzszeAHwR2DU6SwbuJU3761a/GmgPQE2qv5CTgZujs2RgV+BKMzvPzNq6PinSFzPb2MzOA65ExR/S2DpZxb8+agBq5O6PkpoAHUGZHArcaWYnm9na0WFESmBma5vZycCdpJ8hSWPq5GqMlZpoCWAAzGxF4ExgSnSWjDxLmsb8grs/FR1GJDdmtibwUeDDgM7ZeNFU4Bh3fyE6SNOoARggM/t74HOALtR50dPAacDp7v5MdBiRaGa2GmlX//HA6sFxcuLAJ9z936KDNJUagAEzs8OAs4FxwVFyMxM4BTjD3WdFhxEZNjNbBTgWOBFYKzhObuYCR7r7edFBmkwNwBCY2WTgv9AP+dI8AXweOMvd23i8srSMma0MHA2cBKwTHCdHM4G/dPcro4M0nRqAIanOCpgGbB6dJVNPAF8GznT3GdFhROpmZhOAY4C/RYV/Wf4A7Ktn/IdDDcAQmdkrgEuBSdFZMjabtGRymrvfG5xFpG/VUdnHkw7yGR+bJmvXkS71+d/oIG2hBmDIqum/b6HHe0azALgYOFXXD0uJqut5TwAOQo9cj+Z84H1aBhwuNQBBzOx40tr3itFZCnA1acPgD3XEsOSsOrJ3f9LGvj2C45TgBeAkdz8tOkgbqQEIZGZvJHW+bT/bu1N3k64+/Y72CUhOqvX995I2920VHKcUjwOHuvuvooO0lRqAYGb2SuBCYPfoLAWZC/yAdEDIL11/iSWAmRnwJtKBX+9Aj/p241rgYHd/ODpIm6kByICZjQX+g7RDWLpzD/B10g2Ej0eHkeYzs3VJG/qOAraMTVOkM4GPuPu86CBtpwYgI2Z2OPBVYOXoLAV6HvghaVbgp9orIHWq1vb3Jn3a3x9YKTZRkeYAH3L3c6KDSKIGIDNmtjNpenuz6CwFexA4Dzjf3W+IDiPlMrNdSU/sHAboZsve3Qe8w91vig4iL1IDkKHqUpBzgX2jszTAPcAFpGbglugwkj8z25FU9A9BU/x1mAa8W5eA5UcNQKaqDUYnAv+CphvrchfpqYvz3X16dBjJh5lNJBX9Q4Gtg+M0xfPAJ4FTtFE3T2oAMmdmrwa+hx4tqtvtpJmBS4GbNUC1S9Vg7wQcQPqkv11sosa5G3iXu/8uOogsmxqAApjZeOB00gYkqd+jwOXAZcDP3P3p4DwyAGa2OvBWYD9gH2D92ESNNRU4zt1nRweR5VMDUBAzO4j0wzUhOkuDvUB6RvkyYJq73xycR/pgZjuR9tLsRzprQydvDs4MYIq7XxwdRDqjBqAwZrYBcA6wZ3SWlniEtInpF8DV7v5AcB5ZDjPbhHQE71tIhX+D2EStcQVwuLs/Eh1EOqcGoEDV+uUJpA2CY4PjtM3DwDWk+wmuBm5y9xdiI7WTma0I7Ewq+HsArwdeGRqqfeaRNvqdqn005VEDUDAz24W0QXCb6CwtNhu4ntQMXANc6+5/io3UTGa2Bmka//Wkgr8bul430p3JpegiAAAF9ElEQVSkjX43RgeR3qgBKFy1QfBzwN+hK0dz8QBwyxJfv3f3+aGpCmFmKwCvAnZc4muTyFyy0ALgS8AntNGvbGoAGsLMXkc6E3+H6CyyVM8B01m8KbgDeLStU6fVUtb6wLYsXugnAi8LjCbLditwlLv/OjqI9E8NQIOY2UrAx4B/RDeTlWIuacbgftJxqSO/3gfc7+5PhCWrgZmtA2xKOtp65NeR32+C/p6WYi7wWeBkd38+OozUQw1AA5nZ1qTHBSdHZ5G+zSY1BY8CT1ZfM5b1e3efNcgwZrYK6THUtauvZf1+fVKR1xp9+a4kPd53V3QQqZcagIaqplc/CHweWC04jgzPc8CzpN3Z80if3Jb3K6QnScaN8utYYFU0Nd8mzwAnAV9r6zJV06kBaDgzeyXp/u0DorOISDEuBY5x94ejg8jgaNd4w7n7w+5+IOm888ei84hI1h4DDnH3A1X8m08NQEu4+4WkW85O4cWpXxERSGPCKcDW1VghLaAlgBYysy2B04D9o7OISLgfAse7+z3RQWS41AC0mJntDfwH6blrEWmX6cBH3P2n0UEkhpYAWqz6wd+JdIrgU8FxRGQ4niL9zO+k4t9umgEQAMxsAvAZ0qODKwTHEZH6zQe+BnzK3WdEh5F4agBkMWa2PXA6um5YpEmuAI5z99uig0g+tAQgi3H329x9L2A/4LfReUSkL78F9nP3vVT8ZUmaAZDlMrMDSUsDO0ZnEZGO3UKa6r8kOojkSzMAslzVALIzcCjp9joRydcdpJ/VnVX8ZTSaAZCOmdkY4N3Ap4Atg+OIyIvuIc3UnevuC6LDSBnUAEjXzGxF4AjStcObBMcRabMHSNf0ftvdX4gOI2VRAyA9M7OxwFHAx4GNguOItMlDwL8DX3d3He0tPVEDIH2rZgQOAU4AdgmOI9JkNwKnAhfoE7/0Sw2A1MrM3kxqBPYFLDiOSBM4MA041d3/OzqMNIcaABkIM5sIHA+8BxgXHEekRHOB7wKnufv06DDSPGoAZKDMbF3gWOBoYK3gOCIlmAmcBZzh7o9Hh5HmUgMgQ2Fm44H3AcehRwhFluYe0jHc33L32dFhpPnUAMhQmZkBbwGmAAcBY2MTiYSaB1wMTAV+4RqQZYjUAEgYM1sbOJzUDGwTHEdkmO4kFf1z3P3J6DDSTmoAJAtmNpnUCLwTWDk4jsggzAEuAqa6+5XRYUTUAEhWzGwN0pMDU9AFRNIMt5A+7X/X3f8UHUZkhBoAyZaZ7UZaIngnsE5wHJFuPEH6tH+Ou18fHUZkadQASPbMbAXgTaTTBv8KmBAaSGTpZgDfBy4Afunu84PziCyXGgApSnXs8J6kZuAgYM3YRNJyT5F28V8AXKHjeaUkagCkWGa2ErA36f7zA4HVYhNJSzwDXAKcD/zU3Z8PziPSEzUA0ghmNg7Yh9QI7AusF5tIGuYx0nn8lwCXu/vc4DwifVMDII1THTa0M6kR2BfYHVghNJSUZj5wLanoTwNu0iE90jRqAKTxqkcL9yY1A/ug2QFZuseAy0kF/6d6ZE+aTg2AtEo1O7ALL84OTEKzA201H7iOFz/l36hP+dImagCk1cxsFWA3YI/qaxKwemgoGZSnSQX/6urrenefFRtJJI4aAJFFmNkYYHvg9bzYFGwWGkp6dR8vFvtrgNvcfUFsJJF8qAEQGYWZrc/iMwQ7AuNDQ8mSZpOO3F34Cd/dH42NJJI3NQAiXapmCTYnNQIjXzsAWwAWGK0NHLgX/n97d8+CMAyEcfyfwRdw0yIOujj7/b+Izl10Euum+DLEIQnRuFRoCZHnB8clW+hyV5pybHEFP0Stt3uR36gBEOmIv0+wITYEIU9znqtgZ2KhD3mn7/Yi3VADINIzY8wcd48gjTWwAgb5TpfVE9gDNe57/UdYa48Zzyby99QAiGTkBx0t+W4OFkCFG3w0o7w7B1fccJwGOOH+sU+L/EEDc0TyUQMgUgBjzJjYDISokv0EGAFDn9usAe7Aw+c26wuxuIcC/75vrLW3Pp6DiHTnBa+ZUBdv0b29AAAAAElFTkSuQmCC;" vertex="1" parent="1">
          <mxGeometry x="360" y="204" width="30" height="30" as="geometry" />
        </mxCell>
        <mxCell id="ckwtcuSyuOzhh80tvO_Y-23" value="" style="endArrow=none;html=1;strokeWidth=1;rounded=0;entryX=0.5;entryY=1;entryDx=0;entryDy=0;" edge="1" parent="1" target="ckwtcuSyuOzhh80tvO_Y-1">
          <mxGeometry width="100" relative="1" as="geometry">
            <mxPoint x="420" y="280" as="sourcePoint" />
            <mxPoint x="560" y="260" as="targetPoint" />
          </mxGeometry>
        </mxCell>
        <mxCell id="ckwtcuSyuOzhh80tvO_Y-24" value="" style="endArrow=none;html=1;strokeWidth=1;rounded=0;entryX=0.5;entryY=1;entryDx=0;entryDy=0;" edge="1" parent="1">
          <mxGeometry width="100" relative="1" as="geometry">
            <mxPoint x="440" y="280" as="sourcePoint" />
            <mxPoint x="459.84" y="240" as="targetPoint" />
          </mxGeometry>
        </mxCell>
        <mxCell id="ckwtcuSyuOzhh80tvO_Y-25" value="" style="endArrow=none;html=1;strokeWidth=1;rounded=0;entryX=0.5;entryY=1;entryDx=0;entryDy=0;" edge="1" parent="1" target="ckwtcuSyuOzhh80tvO_Y-3">
          <mxGeometry width="100" relative="1" as="geometry">
            <mxPoint x="460" y="280" as="sourcePoint" />
            <mxPoint x="440" y="260" as="targetPoint" />
          </mxGeometry>
        </mxCell>
        <mxCell id="ckwtcuSyuOzhh80tvO_Y-26" value="" style="endArrow=none;html=1;strokeWidth=1;rounded=0;" edge="1" parent="1">
          <mxGeometry width="100" relative="1" as="geometry">
            <mxPoint x="400" y="280" as="sourcePoint" />
            <mxPoint x="380" y="240" as="targetPoint" />
          </mxGeometry>
        </mxCell>
        <mxCell id="ckwtcuSyuOzhh80tvO_Y-27" value="" style="endArrow=none;html=1;strokeWidth=1;rounded=0;" edge="1" parent="1">
          <mxGeometry width="100" relative="1" as="geometry">
            <mxPoint x="380" y="280" as="sourcePoint" />
            <mxPoint x="340" y="240" as="targetPoint" />
          </mxGeometry>
        </mxCell>
        <mxCell id="ckwtcuSyuOzhh80tvO_Y-28" value="" style="endArrow=none;html=1;strokeWidth=1;rounded=0;exitX=1;exitY=0.5;exitDx=0;exitDy=0;entryX=0;entryY=0.5;entryDx=0;entryDy=0;" edge="1" parent="1" source="ckwtcuSyuOzhh80tvO_Y-4" target="ckwtcuSyuOzhh80tvO_Y-8">
          <mxGeometry width="100" relative="1" as="geometry">
            <mxPoint x="460" y="260" as="sourcePoint" />
            <mxPoint x="560" y="260" as="targetPoint" />
          </mxGeometry>
        </mxCell>
        <mxCell id="ckwtcuSyuOzhh80tvO_Y-29" value="" style="endArrow=none;html=1;strokeWidth=1;rounded=0;entryX=0;entryY=0.5;entryDx=0;entryDy=0;" edge="1" parent="1" source="ckwtcuSyuOzhh80tvO_Y-10" target="ckwtcuSyuOzhh80tvO_Y-9">
          <mxGeometry width="100" relative="1" as="geometry">
            <mxPoint x="690" y="310" as="sourcePoint" />
            <mxPoint x="790" y="310" as="targetPoint" />
          </mxGeometry>
        </mxCell>
        <mxCell id="ckwtcuSyuOzhh80tvO_Y-30" value="" style="endArrow=none;html=1;strokeWidth=1;rounded=0;exitX=0.5;exitY=1;exitDx=0;exitDy=0;" edge="1" parent="1" source="ckwtcuSyuOzhh80tvO_Y-16">
          <mxGeometry width="100" relative="1" as="geometry">
            <mxPoint x="740" y="336" as="sourcePoint" />
            <mxPoint x="760" y="280" as="targetPoint" />
          </mxGeometry>
        </mxCell>
        <mxCell id="ckwtcuSyuOzhh80tvO_Y-31" value="" style="endArrow=none;html=1;strokeWidth=1;rounded=0;exitX=0.5;exitY=1;exitDx=0;exitDy=0;" edge="1" parent="1" source="ckwtcuSyuOzhh80tvO_Y-17">
          <mxGeometry width="100" relative="1" as="geometry">
            <mxPoint x="800" y="240" as="sourcePoint" />
            <mxPoint x="790" y="280" as="targetPoint" />
          </mxGeometry>
        </mxCell>
        <mxCell id="ckwtcuSyuOzhh80tvO_Y-32" value="" style="endArrow=none;html=1;strokeWidth=1;rounded=0;exitX=0.5;exitY=1;exitDx=0;exitDy=0;" edge="1" parent="1" source="ckwtcuSyuOzhh80tvO_Y-15">
          <mxGeometry width="100" relative="1" as="geometry">
            <mxPoint x="855.84" y="250" as="sourcePoint" />
            <mxPoint x="740" y="280" as="targetPoint" />
          </mxGeometry>
        </mxCell>
        <mxCell id="ckwtcuSyuOzhh80tvO_Y-33" value="" style="endArrow=none;html=1;strokeWidth=1;rounded=0;entryX=0.5;entryY=1;entryDx=0;entryDy=0;exitX=0.5;exitY=0;exitDx=0;exitDy=0;" edge="1" parent="1" source="ckwtcuSyuOzhh80tvO_Y-18" target="ckwtcuSyuOzhh80tvO_Y-20">
          <mxGeometry width="100" relative="1" as="geometry">
            <mxPoint x="927" y="310" as="sourcePoint" />
            <mxPoint x="1027" y="310" as="targetPoint" />
          </mxGeometry>
        </mxCell>
        <mxCell id="ckwtcuSyuOzhh80tvO_Y-34" value="" style="endArrow=none;html=1;strokeWidth=1;rounded=0;exitX=1.046;exitY=0.41;exitDx=0;exitDy=0;exitPerimeter=0;" edge="1" parent="1" source="ckwtcuSyuOzhh80tvO_Y-18">
          <mxGeometry width="100" relative="1" as="geometry">
            <mxPoint x="983" y="300" as="sourcePoint" />
            <mxPoint x="1047" y="320" as="targetPoint" />
          </mxGeometry>
        </mxCell>
        <mxCell id="ckwtcuSyuOzhh80tvO_Y-35" value="" style="shape=image;verticalLabelPosition=bottom;labelBackgroundColor=default;verticalAlign=top;aspect=fixed;imageAspect=0;image=data:image/png,iVBORw0KGgoAAAANSUhEUgAAAgAAAAIACAYAAAD0eNT6AAAACXBIWXMAAAHzAAAB8wHhR67uAAAAGXRFWHRTb2Z0d2FyZQB3d3cuaW5rc2NhcGUub3Jnm+48GgAAIABJREFUeJzt3XecXlWZwPHfpJGQQEio0gkgVYqAouAKghRZRUUQG+q6otiwo6wisupaaVZcFQVdFTuCBSxIBxFEeg9IrwkBkpBkZv94JhJjysycc88t7+/7+ZwPrMvMPOfc+95733PPeR6QJEmSJEmSJEmSJEmSJEmSJEmSJEmSJEmSJEmSJEmSJEmSJEmSJEmSJEmSJEmSJEmSJEmSJEmSJEmSJEmSJEmSJEmSJEmSJEmSJEmSJEmSJEmSJEmSJEmSJEmSJEmSJEmSJEmSJEmSJEmSJEmSJEmSJEmSJEmSJEmSJEmSJEmSJEmSJEmSJEmSJEmSJEmSJEmSJEmSJEmSJEmSJEmSJEmSJEmSJEmSJEmSJEmSJEmSJEmSJEmSJEmSJEmSJEmSJEmSJEmSJEmSJEmSJEmSJEmSJEmSJEmSJEmSJEmSJEmSJEmSJEmSJEmSJEmSJEmSJEmSJEmSJEmSJEmSJEmSJEmSJEmSJEmSJEmSJEmSJEmSJEmSJEmSJEmSJEmSJEmSJEmSJEmSJEmSJEmSJEmSJEmSJEmSJEmSJEmSJEmSJEmSJEmSJEmSJEmSJEmSJElSnfrqDkDSiI0F1gM2BDYA1gFWBaYO/nPVwf8GYNLgv88HZgEDwAxgDvDAYLsPeBC4dbDdM/jfSeogHwCk5usDng5sA2wLPGOwrQ+MrvDvziEeBK4B/gpcOdjurPBvSirEBwCpecYBOwG7ALsO/nNqrRH9s7uB84DzgXOBq4H+WiOSJKmlVgMOBE4hpuYHWtQeBE4DDgGm5B4YSZK6Zi3gcOAiYAH138hztHnAH4C3EGsQJEkSsCLweuAsYkFe3TfsKtuTwBnAq4HxOQZPkqS22QT4NDFdXveNuY72CHASsGXqQEqS1AZ7Ed/2+6n/JtyE1g/8FtgzZVAlSWqiPuDFwMXUf8NtcruCWDhY5VZGSZKKeBlwFfXfXNvUrgNegduSJUkttBNwDvXfTNvcLgX2GOa4S5JUiw2JPfC+48/XfgVsOoxjIElSMWOIPfwL8+rb8rYngROIGgaSJDXCTsQCtrpvkr3QbgP2HdphkSSpGhOA4+l+Ap8mtm8AKy//EEmSlNeWRCW8um+Evdym4yJBKRu33UjL1ge8Dfg8zU1ney+xle5O4B6iWt/dRPa9ucATRI7+x4hv0eMG/zmemNVYnSgtvD6wAbGwcS1gVME+DNUAkVHxKGImRtII+QAgLd1U4GTgJXUHsogbiTK8lwLXAtcAD1fwd8YD2wI7AjsMti2JxY9N8CfgVcQDjyRJ2WwB3ET90963A18CXg6sWWmPl29FYG9idf4N1D829wK7V9pjSVJPeREwg/pubJcDHwW2q7qjiTYG3k4kQKorD8KTwKEV91OS1AMOp55V/g8R1fK2r76LlVgXOIJ4RVHHg8AJWFNAkjQCo4CvUf7GdQ7wUmBs5T0sow/YFfg+5R+kTideU0iSNCRjgG9T7ka1APglsHOBvtVpQ+Kb+eOUG9tzgckF+iZJarkJwBmUu/F/B9ioSM+aYw3gvymXNvkyYLUiPZMktdLKxHayEjelXwBbl+lWY60F/C9lXg1cAzytTLckSW0ygTI3/78BzyvUp7bYBjib6sf+apwJkCQtYhxRcrbKm88s4P10Z3FfFV5KZCys8jj8BdcESJKIrWKnUe1N5wxgvVIdarmpwHep9nhcAEws1SFJUvP0EVXlqrrRPA4chim2R+KlRGa/qo7N6ZgnQJJ61oepdqp583Jd6aTVgN9Q3TE6vlxXJElNsT+xDa+KG8vXiHUFSjca+ATVpRZ+e7muSJLq9gyq2YM+F3hLwX70kv2BmeQ/ZvOBPQv2Q5JUk9WB28h/I7kX2KVgP3rRZlRTkfF+YJ2C/ZAkFdZHpNzNfQO5Ddi0YD962ZpEdcTcx/AifG0jSZ31PvLfOK7EDHOlTSZy/Oc+lseW7IQkqYwdiHf0OW8Y5wOrlOyE/mEC+Wdz+oG9S3ZCklStSeSvS3/R4O9VfcYS+/lzHtc7gSklOyFJqs7XyXuTuBy/+TdFFTUcTi3aA6khzFimtpoCbAJMAzYe/OdGRA36aRn/zh3AAcAVRB4B1W8y8AfgmRl/5wHATzP+PqnxfABQG6wB7Ehc8LcfbBsVjmEOcD1RZvYS4GLgr8C8wnEorEEsDNws0++7m8jkOCvT75MkjcBk4CXACcBVVJcVLrU9AZwH/A+wG1b+K21D4EHyHc/PF41ekgTExfx9xEr7+dR/cx9Jmwn8BPhPYK2so6Ol2Y98KZ7nAVuXDV+SetM04EiikE7dN+/cbT7wO+BNuMq8akeR77j9qXDsktQzxgEHAWdTXXGeprW5wC+I1xqWpM1vFHm3B+5fNnxJ6rYNiXes91P/DbnONh34EFGjQPmsAvydPMfoanxQk6Rk2wDfJd6v1n3zbVKbA3wb2GLEI6vF7Um+BaNvKBu6JHXHrsCZNHcFf1PaAuA04kFJ6b5BnuMyHVihbOiS1G5bUk0Fvq63fmKdgA8CaSYDt5PnmBxaOHZJaqXViX37TvWntQXAKbiNMMXe5DkWN+JaAHWYmQCVaizwQeDDwMSaY+mSWcCngeOA2TXH0kYLd12kOhD48XL+m3FEieg1gZUH/7eViYeHPmJL6KPADOAx4tjeQ8z6SLXxAUApnguchMlTqnQr8BYip4CGbjMii2RqdsY/A88a/PdpPJWKeitgPWAd4sY/3Gvpk8Q6g9sG263AZUROjEcTY5akykwmpvvbmrGvje00YLWhHBz9w4nkGfuLgEcy/a7ltQVEvYmTiTUI62cfFUkaod2JGup13xB7sd1DVK3T0KxKuRt3le1K4FPALrgmQVINxgCfpH3Z+xYMtjnE1OrdwC3Aw8S72LrjG0n7BrDisg+XBn2I+o9XznYP8BmicqGUxDUAGoqNgO8Bz6k7kCW4l3jXex3xLnU6cAeRcfAhhraAbiKRr39DYINF2obE+94mZu27FjiY6LuWbjJxPqy8vP+whS4kXhV8H3i85lgkddCLidXLdX/zGSC+sf8O+Dix1WuNCvu9qA2AlxPTsGcTK7nrHosBohzxWyrsd1d8lvqPVZXtAeBoYGqm8ZIkjqD+Kf+/Etvhnk/6iu5cVgBeSGzRu4H6bwAn0ZyxaaJ1iIJMdR+nqtujxMPO0/IMm6ReNB44lXpv+kcCG1fd0Uw2Bj5ArN6ua8z+SCx605J9i/pv0KXa48RD86QsIyepZ6wFXEz5i9YjwBdpfyrcZwFfIRYZlh7Dm7G40NJsQ/035tLtDuBVuNZL0hBsCNxE2YvUNcB/AhOq715R44HXU35W4GGauVizCf5C/TflOtoFROIiSVqizclXT30o7TzgRXT/28ko4KVEMplSY/sYURpX/+zd1H8zrqvNJtb0mEdA0j/ZHriPMheiS4gV/L1oN+B8yozzHOLBQ09Zg0jBW/fNuM52IfD01IGU1A07UyZb2q2YxQ5ixuMgImdB1WM+D3h1mW61xunUfxOuu83C80LqedtT/c3/MSIb2/hCfWqL8UQFxUep/iFg/0J9aoMDqP8G3JT2eXwlIPWkrYgEIlVeYH5LLCzU0q0NnEG1x2E28IJSHWq40cRsVN0336a0cyiXUEsN0/UFWFqyacS76KoShswEDge+U9Hv76L/IBILVZWydhaxMPDSin5/mxwE/DDz75wN3E7k6l9AJB56YvD/N4HI0rdoG5P576e4lViQe0PdgUiq1lQib35V3yjOJVLnavjWJ1IdV3VsHsIFYAsdy8jGcA6xo+ME4DXAMxl+rYhxwNbEg8jHgZ9QbhHu0tq9wLbD7IekFlmBmPKr4gKyADgK3ymm6iPWBsynmuN0PbBKsd402weIb+7LG7NriUqYO1NdyuU+4BnEzNnpxOxB6YeAhwf7KKmDTqGaC8dDwD4F+9EL9ibGtYrj9Wt8UFtoGvAFIoviwroXs4kH5Q9RX9ndlYE3EDNCJetxzAL2qL57kko6nGouGH8jygUrv2nAlVRz3I4t2I+2GE+UhW6adYBjgAcp8xDwOPDcIj2TVLnnE9vBcl8ofks366w3yUTgZ1RzoX9twX4o3UTgUOBGqn8ImEH763JIPW9tYoFP7gvEN2nWSuYuGwOcTP5j+CiwScF+KI8xwNupfkbgDmDdQn2SlNko4GzyXxi+jFtIS+sDPkf+Y3kZsSpd7TOVqKBZxezewnY1LhqVWun95L8gfKpoD7S4j5D/mH62aA+U29bEg1xVDwGn4wO/1CrbE8lIcl4IPl20B1qaj5L3uC7A6oFtNwY4muq2j36oWE8kJRkDXE7eC8AXi/ZAy/MF8h7f6cQiM7Xb84hjmfsBYB5RzVJSw+X+hngKTgE2zSjgVPIeZ18FdMPqwAXkfwi4B1irYD8kDdOWRLrSXB/6P+AisaYaS95CQvOA7Yr2QFVZgfwPiAPE+SapgfqIXPy5PuzX4grgplsJuIZ8x/xSzBLYFX1EAqHcDwGvLNkJSUNzMPk+5DOwcExbbEZUYMx17N9aNnxVLPduoAcYfgEkSRWaQL7FP/3AAUWjV6qXEMctx/G/j5hZUHfkngmw1HcHuLCrO44GPpbpd30Gt/200SeBIzP9ro8T55S649PAERl/31nEYtTJxHqURdOCzyK2JM4HHlmkPQTcSWQZvJ340jI7Y0xSz1mdSOua48n+z1RX8lTVGk2+1d+zcMV31/QB3yfvTECOdjvwK+KLx+uIxEajKhoDqXNy7Ql/DN/7t93TyVdL/quFY1f1ViR/jpAq2gyibPVRRP4BdyJJS7A2+S747ygcu6rxXvKcD08CGxSOXdXbALif+m/yw2mzgJ8TC1Q9J6VBx5PnA3YBTrt1xSjyvQo4rnDsKmMP8i0aLd36gYuB9wDr5R4YqS1WJabtUz9Qc4AtCseuaj2dPAmhHiPOM3XPl6j/Zp7aFhC5T15PvN7QMLgLoN0+SmzvSfVZ8q4OVjN8Hnhfht9zNLErYHETiG9g6xB149clXkmNG2wLawusREzhziAeKB4b/Pc7gNsG28MZ4tTwTAL+BmxUdyCZzAC+B3yd6JfUWePJ8x7vHv55+466YxXgQdLPkQeAjYEXEdsMfwTcQt4p5BnAX4iL938C22BGwhJ2p72vApbVzgdejF9y1VGHkOeD8qbSgauod1L/xXik7TGiFsUHiBoXqsYp1H+sq2pXAq/G9U3qmAtJ/3Bcj9+yum4scZzrvhDnaLcSZalfgBf0nDYgbwGxJrZrgQNxRkAdsC15PhSvKh24anEQ9V+Ac7fbiMyXG+Ybpp52HPUf0xLtMmIHhNRaXyT9g3A1fovqFaOBm6n/4ltFWwD8jqiF4Le7kVuNvAWlmt5+CUzLMnJSQWOAe0n/ALy+dOCq1duo/6JbdbuKWBszJtOY9ZoPU/8xLNmeIHa3jM8xeFIJ+5J+4t+FqTV7zQTal/1tpO1W4FB8EBiu8cAV1H/8SrfrgF0yjJ9UuVNJP+FzVYxTu3yU+i+2JdtVwJ5ZRq53rEd3Fo0Opy0ATiRyI0iNNI7YL51yos8F1iwduBphDSK/f90X29LtdGDTDOPXK6YC3yZuinUfu9LtRmDH5BFsCRfNtMuewNmJv+PHxHYY9abTiQQpveZJImvmZ4ga9Vq+TYFXADsBU4gvD/cRycPuGfz3mYP/+8wl/PwKgz83hXioWBNYn9i5sQGRObKJ96Angf/iqSqrUiOcSPoT7l7Fo1aTHED937LqbJcAmyePonJYGXgu8Bbga8QrmybNOvwa62CoQW4l7YS+BxP/9LoVgIeo/+JaZ3sCOJxmfvvsdVOA/YBjien4us+VW4m01FKtppF+Mp9YPGo10Veo/8LahHYmUS9BzbUp8F5i5qau8+Qx4JVVd1Ralv8g/UR+XvGo1UQ7UP/NtyntWqJ0sppvE+Ao0mdCR9L6B/+2VIvUgh33Y+Y/PeUc6r/5NqU9Qkw7qx1GEQuiTwPmUfZcOZmor9EJvgNrj+nEytmR+h7w2jyhqAO2IPKir5j4exYQiaXuGGx/B+4kVlIDzCYKzUwiVoKvOtieRizGm0Yz1qX0A+8Avlp3IBqWTYAjiAyQpZKbnUG8Enii0N9Tj1uT9CfXVxePWk33IuBxhnce3QX8BPggsBuwUmIM44HtgNcQK8FvGmY8OVv/YL/UPusCJxBbEkucK+dg0iAVsh/pJ6zJf7Qk27H8BVbXAp8iEqSUmDXcAHgjkbOgjsRFn6y+i6rIesBJRK6Hqs+TC4itjFKljibtRL2xeMRqkz5igegXgN8QyaZ+TGyVq3vP/GrE1PzFlH0IOL5E51SZHShzzlwETC7UJ/WoX5B2kp5cPmQpu+2B71Pm290A8LEy3VJF+oi1AQ9Q/UPAxEJ9Ug+6gbQT9NDyIUuVmUbkMphD9Q8BbynUJ1VnDeBnVHue/JIO7Q5Qc4wl/T3os4pHLVVvPdK3xy6vzSfSJ6v9Xk96MbVltVNwZ50y24K0k3IBTk+p2/YErqa6C/ts4NnFeqMqbQhcSnXnyieK9UQ94d9JOyFdAKheMIao9lfV+oA7iAWJar8ViC2DVZwn/ZhvRRkdRtoJeUb5kKXaPJvqcgn8jmYkLVIer6OadSSzgZ0L9kMd9gnSTsYvlg9ZqtXKxG6BKh4CzAffLbsQadJznyd3A2sV7Ic66tuknYjvKx6xVL8+YhtfP3kv7AuAFxTsh6o3jfSdVktqv8cZIyX6FWkn4UHlQ5Ya49Xkn+a9BRfWds0awBXkfwj4eMlOqHsuIO0E3L18yFKj7ArMJO+F/QtFe6ASpgAXkn/GaI+SnVC3XEvaCfiM8iFLjfMc4FHyXtifW7QHKmEicB55HwLuJB4upGFZBbiXtJNv7eJRS820O8Ovfris9jfiMzoF2Iiom7DDIm0z4v3yulg5rk0mE6Wycz4EnFy0B0Nk1qJ6rEhcGDYe/Oc04gKyOnExmTrYchyfqcAjGX6P1AV7EVtj60jbOo/4LD5E5BVY2KYD1wPXEQ8oqt9qxExAzmJYLyFSBjeGDwDVWwV4JvGNYOE/N6Hc2E8Enij0t6Q2OIyoJdA0/cBtRFbDK4j1P5cAs+oMqodtRFQUXCPT77uLyOzq8eywScCLgGOJKcLc25CG28ZU212plb5OvZ/Lobb5xMPAicB+xOyhytkReIx8x/PYsuGrhA2B9wN/Ir1wT+42qrpuS601Djif+j+fw22zgd8C7wbWzz4qWpJXku/4zQO2LRu+qrAR8EGqLSyRo02oagCklluHeCdf92d0pK2feIh5J2adq9qx5DtuF+Dr91ZaATgYOIf6p/aH2qZWMRBSR7yB+j+jOdp84ExioZnZ5/IbQ8zw5jpeB5YNXyk2Bj5DNTmjq25uA5SWLTXbZtPancDR+NnPbW1iB0eOY3QL8RpKDbYd8EMi6UfdH+qRto2yj4rULesCM6j/s5q7zQH+l8hHoDxeTr7j87bCsWuIdiH2Crdlmn9ZzRrm0vIdQf2f1araAuAnwPbZRqu3fZc8x+UeXKPVKNsAZ1H/BzZXewzfB0pDMYGYOq/7M1tl6yfKJG+aacx61VTgPvIck3cWjl1LsDbwTdo91b+k9vOcgyR13Jup/zNboj0JfBV3DqR4HXmOxR24FqA244ma4TkTPTSp7ZVvqKTOG0Ok5K37c1uqzQDehbOEI3U2eY7DG0sHLng+3f6w/yLfUEk948XU/9kt3a7AyoYjsQWR2Cd1/K/FvADFTCFWxnZhgd/S2l+JilaShu+b1P8ZLt36gS8RtUM0dF8lz/jvUTrwXrQPsfKy7g9blR/i72LpUSnFWKJ8a92f5zrazcCu6UPYM1YHZpI+7j8uHXgvGQd8nvZ9638ceJhIGrFou3/wf59LpDK9GvgyUbhCUh6vID5by/ucziU+j7fzr5/V+2hefZDltQXA53Bx2lAdQ/qYzyNSUxfVC+8dNiW2vuxQdyBLcD9wJXADUQb0NmJV6P3Ag0ThD0n12pq4fqxJLJy7j/iM3slTN/jlmURsH3saUcRnA6KI2BbE9uMm5uu4hCiEc3vdgTTcVGA6sFLi7zkK+O/kaPQPLydqL9f9RD1A7DT4A/G0uC9uwZH0lKcR14X/JmqNPE7916wBIvXtftV1uzM+TfpY31g86o7qI7b31T3lfyVRQ2A34r2iJA3FWGB3Yir+Guq9jvUTDya9MGM8UmsQqZdTx9rXuIkmEgsq6vqw/A34L2CTqjsqqWdsDHyEoa1JqKqdhqlrl+U7pI/xscWj7pCnEVvgSn8wZhBbaLatvouSetw2wInUU8DoYnx9uTQ7kT6+d+FMy4hMI1bdlvwwXEukD12xQP8kaVETievPVZS97k3HCoNLcwnp47tT8ahbbhvgbsp9AM4jFsb4pCapbn3AS4CLKHcNvBdnPJfkbaSP7ceLR91izyH24JY46S8B9i7TLUkatj2BP1PmevgwsHOZbrXGVNIXA/6leNQttRN5sjAtr90KHIDf+CU1Xx+xf/9mqr82ziLqqugpPyVtTPuJCrVahu2o/pv/Y8CRRNVASWqTFYCPAk9Q7XXyUeDZhfrUBq8ifUwPLhFoW7/RbgX8kcjDXJWzgbcQ2fm0ZKsRWc2mEguSJlJ9HYLHiSqOVxBPyl0zidjyNRVYmcgutiIwn/i29cjgP6cTWeik5ZlG7FLat8K/8QiRt+DKCv9GW0wmMkWmpFL+KrGeQIvZgGoX/M0A3kB7H46qMIpY8PNu4FvAhUSGsKqnF5fV7gLeS3zLaasVgBcCnwJOJ141DSd51UPAucDXgNcSyUikpXkT1b4yvQ94erHeNNvvSBvLa8qH3HyTqXbLy3lEfm7Ft/u3Aj8CHqDem/2y2sVE/oe2mEKM6+nEK6acY7GAWED0SSLHvLS4DYlUw1V9Hm+mmXUNSns3aePYT7Uz3K0zBvgt1Zy0C4jUwaOL9aaZVgBeTGT8mkv9N/ehtmuI6fIm2wE4ifw3/WW1y4BDMU+F/tloIrXvAqo57y7AdVPbkT6O+xSPusFOopqT9WGqfTfWBlOJvacPUv/NfKTtS9lHJY89iVmKOsfmfuIbSZtflyi/fahudu8H9PZr1FGkX08/VDzqhjqMak7Sq4gFV71qLaLYSFMqJqa0J4F18w5Pkq2ImZS6x2XRdgcxIzCmwn6rXaZRXbGhXr+B/Zy08ftB+ZCbZ1uq2cbyO2CVgv1oknFEwaKmlBzN1d6Rc5BGaBKxKK+q6dUc7c/EA4oEsdPkDPKfZwuAvQr2o2k+TNr4XVc+5GaZQqyMzn1inkzvlud9PvWXF62qnZxxnEbiOURN77rHYSjtSeBoXPeiMIY81ewWb/fRrJm5kvYhbezmk7aVsNX6gF+Q/4Q8kd58N7UScAr133iqbGdkG63hGUVs5Wvyt/6ltfNp1y4KVaePuD7mPsfOpTcfNNcgfew2LR51Q1Tx3v9/ivagObak3jripdp3cg3YMEwi/V1f3e0uYMfcA6PW+gT5z7Eji/agOe4hbdx6svbMRkR6yZwn4LFFe9AcbwFmU/9NpkT7YKYxG6p1iK12dfc7R5tNpDCVIL4s5Ty/5gHPKtqDZjiPtHE7rHzI9RpF/kQVJ5bsQEOMAo6n/htLqdZP2SxkmxDfnOvud+4xfFPOQVKr5X4dcB29lx/gZNLG7LPlQ67X4eQ96b5D773zH0Ok7K37hlKyfS/LyA3N+kSNiLr7XEXrB/4z31CpxfqA75L3/PpE0R7U76Okjde3i0dco/XJmyntD/TeKsqJwK+p/0ZSst0BrJlj8IZgXeCWAn2qs80HXpNrwNRq48g7IzsX2LpkB2p2CGnjdWb5kOvzI/KdaNcS2wh7yVjgN9R/AynZbqXcnvaV6O4WysXbPKJQkTSFmL7PdW5dQLyi7AX7kjZWl5QPuR57kO8Ee5TeK4YyipgGr/vGUarNJdL/Ts0xeEPQR94H1Da0h+jtTJl6yqZEpdRc59Yby4Zfmx1JG6dbqgyuKe/GxwF/Jc9NewA4EPhJht/VJscT6ydKe5hIfnMPkVnwiQr/1nwiscj1wFnEBamUo4mCUSXMB24gZjdmEmM6hqiGuTYx41Gq+NGVwC7EsVVvewmx5TXHfeM+4qFiVobf1WQbANMTfv4heqC64nvI92T5mcKxN8FbKfONsJ/Y9vY5YmqrV8pV7kP0vcqx/StwDPBshrZuZRqxxfMMYE7FsZVcYKlm+xz5zqtjCsdeh1VJG6OuPyAxiahWluOEuozeS/G7HdXv87+F+PY7rVCfmmQy8HeqGdcngVOBnRJjXAP4CHB3RXEOAK9IjFHdMA74C3nOqceJXBpdNpH0a0SnfYR8J9PmhWOv2yTyLs5ZvP2NWMXay9XjvkE1Y3s2+RcvrggcQbw2yB3vA/TOjI+WbQvyFRJrahnvXMaQPkadXTA5BXiEPCfSOwvH3gS59+gubHcDr6Y5a0Tq8kLyT/3fB/x7xXGvB/wxc9wDRC2JtppIVKb7MJEb5DzgcmJ26zpi9vB04PPEArWN6gmzNd5FnnNqDnG+dllqjZDOJk/6JHlOogvp8FPSUuxF/gt8P/AVYtq7140mtpLmHN/fA2sVin8UUfI5d4Gi3QrFn8Mk4PVE6e+5DL+vNxPvqTcpHXgLjAIuJs859ZXCsZc0ivTx6eQM7Erk+fY/lyh200vGESvhc17YZwIHlexEw72ZvOP7HepJSvUyYhdBrn5cQvNnhtYgqjPmehWyAPgxsE3JTrTAtkS+iNTxnUN3K1JOIP3c66RcKX97Llcy6eklF2830JsL/JZmAnAn+cb3OOq9ae5G3oeA/YtGP3RjiOtK7kJiC1s/8RqkVO6JNsi1K6CrKYInkzYus8uHXL3R5Emneh+9N129Nnkv5n/GxV2L+wD5xvdbNOMb84sY2TT4ktpVNO+V2+bEVsoqbvyLt9uJ7ZqKmdx7SR/Th4h1Gl2zNmnjUjLXSTEHkueD+OZiLykrAAAatUlEQVTSgTfAseS7kF1KfID1lDFEbYEc43s28bDbFP9BvnOnSbMAryT2S5e4+S9sc4n1BYK3k2dM31I68AK2IW1M7igfcvXOJf1kuYGOLo5YhlXJd6G7iXIFdNok18PpHTRzZuV/ydO/35QOfCkOp/okTUtr/fTm7qPFjSWux6njeWXpwAvYjbQxuaJ4xBXblDwf2FeVDrwBPkGeC9fDuM1pac4hfXwXEOlzm2g8eXJH9BOf5TrlfFWTMg6HVN3RFngdecZzh9KBV+wA0sbjd+VDrlaOrX/X0Lx3kFUbT9y4c1ywXlo49rbYmjwXsaYnN9mVPNsDv1A68EW8nvq++S/e5hJj2stGEzVBUseya1sC30vaePygfMjVGU2etKpvKBx3ExxEb9yc6nQM6eN7D+UK9aTI8SrgXup5EN+B6usfDLf9HXcHvIH0cXyE2IXTFSeQNh4nlA+5OnuTfoLcDaxQOvAGOIM8N6de2zUxHDkS/7yjeNQjk2s3yXMLx70SeXYQVdFOrrDfbTCOPPUoXl468Ar9grSxeE/5kKvzTdJPjiOLR12/NcmTcOPg0oG3yJakj+902vVwmmNHSenqm8dliLmq1g88q7qut8LRpI/j90sHXaHUxZEvKx9yNUYTBUVSBuNJupsxalneQfqH6i80Yz96U+UoSvW+4lGnWY/0B8sbCsb7jAzxVt3Orqz37fA00vNNzKIbrwHGA/NJG4vti0ddkd1I/3D9qHTQDfFz0sfugOJRt8vZpI3vbGKbZtv8jPRza8NCsf4oQ6wlWmcu2iOU4zg1Kc/ESG1P2hj00471RENyPOknxd7Fo67faNJrJtxI7+2aGI7RpKeP/W7xqPPYl/TPZYlXS5uRv7BRVe1rFY1BW7yY9DH8evGo80tNvDW9eMQVuo20wbiHZmVVK2Un0j9MvbhuYjieSfoYt/Vd3VjSt5ceVyDOzybGWLI9QO8lKVvUWOB+vPl9g7Qx+GXVAZb6Vrgx6dOEP6HDlZGWYbfEn++nvd9OS3lO4s/PBs7KEUgN5pGe1W/nHIEsw2jgNRl/3/VEQa3diBoCWxGJbP6Y6fevRvo51WbzgB8m/o4NiFmfNkvdIXN1liga4E2kP1X/W/Gom+G7pI3bxeVDbp2vkTbGvy0fclaHkNb/2VT7ZeLZifEtbE8Q+eaXNZP4cvJsj/xwhn632QtIH8M2p1lelfRXVpW/Wis1A7B74s8/CJyfI5AW2jzx53+fJYpu2yTx5y/KEkV9UuMfT7W7c1KvHwCPDf6ek1j2TOJPiQvvQOLf2ynx59vuXGLtUorn5QikJnuSfn+9MEcgTZBaW72Xp7BnkjZ2e5YPuXVuI22M9ykfclZ9pG/RrTIV7umJsQ0w/OQypyX+vS4Wthmu75E2hneVDzmb1Pf/be77P5lG+of3tcWjbobUWtIDwCrFo26XsaTv1V2neNT5nUPaGLyuwthSk6mMZI3DCxP/Zuq33y7IUSBo/eJRp+sjvaT4aSUCLfEK4JkZfkfnKiIN0YaJP38fMCNDHF22Dmm7S+YSO1Ta7tbEn98gSxT/ajTxJSLFSArMXJL4Nycl/nwXnJPhd5RONZ3DjkSSrRTn5QhkeUo8AKQmxbiZKDrSi1ZK/PmSWdraKvVCfTux06Ltbkv8+apqTKxE2pa6fkb2BWIWacd1DL29FRCiQFLqg+W2OQIp7BUZfkeRhcUlHgC2S/z5ziyEGIHULFC9+uA0HKkPAA9kiaJ+Dyb+/MQsUfyrHMfniRH83FqkXR+fJF4t9bo/Jf781lmiKKeP9Kyr04nkbZVrwwNA21dYp0i9+D2WJYpuS71xjeTm0kSPJ/58VQ8A8xJ/fqSvZ1J3HrgGIPwl8eefkSWKcnYh8t6kKLatuOoHgFWJhWwp/pojkJbyAaB6PgCE1HOlqnfeDwBzEn7+jhH8TB/pe9CnJ/58V1yR+PPr0658+G/I8Dt+leF3DEnVDwCpi3f66VA2pBFIfbds9b/lc4xDaprtqrJ09pOWoW8k7//fRnp2w+sTf74rriTt3Ogj/T5SyiTgoMTf8SgFs4pW/QCQujL4Vnr7W2xq31MXEfaCpk59l5baj9RxXJb/HeHPzQJ+MMyfeQFw7Aj/3qJSdxF0xeOkz4ZsmB5GEW8g/Zr7S9JmvIal6TMAvb6KfVbiz/sAsHypD1k+AIQqHwB+DvxhBD93DMNbpLk1kQlw3Aj+1uLOyfA7uuKWxJ+vaotpTn3A2zP8nh9n+B1D1vQZgOk5gmix1AeA1L2ovSD1xrVWlijql5rKt8oHgAEiPe9Nw/iZ/wO+MIz/fm3gTPJsZ7weuC7D7+mKmxN/vg0PAPuRnrb9EdILcw1L1Q8AqTeg6TmCaLHUJD5tr6ZVQo6HrLE5AqnZRok//3CWKJbuAaLC3pnL+e+eJL75L8xCNxQrAWeQL+tcaiW8rkmdAaiyzkQuR2T4Hd+j4PR/CeeTlg7xleVDbpSppKfSbMOHp06jiWx+KWOcuu2nCS4ibQxSFz8Nxx7AqUSimflENcJrgc8z/GMxhlh1nfo5W9jmkr7zqWsWFlcaaWt6qe29yHPu5Mia2yjXkTYgOaqAtV1qkZbhFkHpRTeSNsY5Mn/VaQwxE5IyBnVVv0udxTyJfDf/AeBbifF00R6kjenl5UMelgtIP29q2e5e9SuAKYk//1CWKNotdSGkD1HLl/qOMnXLWN22IX0f/205AhmBlG2cRwKH5gqEmL49OuPv64rUbJmrZomiGi8nT72CL2b4HY0zh7SnonXLh9w4qWUlXYy0fCeSNsZtT1f9dtL638asd68mHh5yfvs/qmgP2mMd0sa16vUlIzWW9NnDAeB+YELh2Cu3AukDM7V41M1zGOnjmJqOuesOJW185wOrF486n9R34MVSl2byfNK/nCzeLqcbi0GrMIW0sa1yh0mK95Dn3DmmdOAlrEj6wHRlj3WKzUgfx+Fsh+pFW5E+xm8qHnUek0i/GX68eNQjtwXxjTLnzf9hYJOSnWiZ1HtBaj2IKqxDZO1LPXdm052txP9kEumD4xN1uJO0cezkFFNGfcR6k5QxLrp/N6PXkv453a941COzFrFWIefNfx6wb8lOtNBo0se5ROG64fgRec6f40sHXspKdO+g1+UU0scytbhJ151O2vguoJ3bAVNXMC8AVise9fBNIH2r45JajuxvvSB1vUWO7Iy57E+ec2c2Hd4yOpn0AVqheNTN9BrSx/IOmvUhapr3kz7Gny0edZrtSO9zGxZAjgZ+Rv6b//+U7ESLjSVtnPtpTtGt1YF7yXP+nFA49qJyzACYyz5MJH2f9gDwodKBt8g00sd3Fu1aDHga6X3+YPGoh++L5L/5/xBnKIcq9XVwk7Lj5XqQnEVH3/0vNIr0aZ82TC2W8h3ST7rHSU/52mV/IX2MP1086pF5BjF9n9rfpqeb/iD5b/7n4uzkcKRmNJ1ZPuQlegf5zqH/Khx7LVJXSbalDnQJqdm0FrZf05zptKb5EOnj+zjtKF96Ful9bXqOiQPJ85CzaLuJds3yNMFGpI35/eVD/hc7km/r6J3EzojOS129/qzyITfWKPKtYM5RuKKLNiZPcphflw58mBYWyklt7y8d+DDsSiyyynnzfwC3+43ETqSN+/XlQ/4nqwG3ku88em3Z8OtzLWkD5faaf5aasW1hm0ckQ9G/+g15xvj1pQMforVIry8xQNxcm5qidWPiW2POm/8TRDVCDd++pI39BeVD/oexwB+WEtdI2p/ooRnY1C1GbygecbONB+4iz4k4EzMELsk+5LthNG18xwDnkKd/J5cNfchWI0961kXbAuBlJTvRMYeQNv6/LB/yP6SmYl+0zQE2Lxt+vVJXGX+sfMiNl2O72sJ2F+3cu16lPuAa8ozvDaQXxMrp8+Q7d5r4em4CsS0x581/AHhXyU500FGkjX9dFRY/NowYh9I6mfJ3WT5H2oCdXD7kxptEvn2oA8A9wPZFe9B8bybf+F5IM1Jaf4B8ffpV4diHYhTwE/Lf/D9fshMddTJpx+CT5UPOUoNl0XYNMYPbU95J2qD9qXzIrZBrEdfCNpOY+lYYS3x7zzW+vyO93G6Kd5Cv8l0/zXxgPIH8N//TiSRCSvNH0o7DmwvHewh5d4/MBbYt2oOGSE2ZmFpHuqv6yLswZeGF/QSsv7DQS8k7vldSvrx1H1GfPmc/fliyA0P0XvLf/C+lR7ZqFXAfacdij4KxvpH8W0d7dtdVjlSjTysedTtsBTxJ/gvfhfTo0+oS/Im8Y3s7sEuh2KcCP80c/xyal/jnxUQ55pz9vAVYo2QnOmwN0o9HqXVKh5L/5v97engWaQLpH869i0fdHqmLa5bW5gHH0dxtXqXsQIxFzrGdTywGqjKT3N6k5+BYUjuqwphHYici8VLOPj4IPL1kJzouNYHZXMrMSh5BvtdkC9u9dLjYz1Cl5gI4snzIrTGaeMKs4iFggMhX/Vk6nrN6OY6hmrG9FXgFefcEb0Z6VcOltStpVjGpaaRPLS/eZgPPLdmJHpC6a+nKiuMbA3w1McYltfnAbhXH3go/IG0gzywfcqusRd5dAUtqTxI3llcQszq9ZCx5agQsrV0DvJWRLxLsA15AFCnJPRW+6MVspxHGV4VVybtIc4CY+j2gZCd6xM9JOy6nVBjbVODsxPiW1tpQJKuII0kbyEew6tby7EH+qeqltdnErMNHiKnmjej+8dmK/GlllzSuZwJvI262S1uANgrYlMhz/3Xg7orjGgA+OoIxq8p40hOMLam9t2QnekQf6bM0H6gotq2Jug5VfF6+XVHM2ZVISbgfcEbi79gGuCpDLF32H0TWqjrSTM4lPuiPEa8NZlX4tx4nvv2dAZxPfOBKeD1lP9j9RI6GmcS4jgMmE4tiS+4n/gWRBa/UOC/LKCK5WO5v6nOB8xJ+foA4//9KLLy8LUdQHbAZ6Xn89yYKV+V0CPAVqsnPcQHxhWxuBb+7laaSvrKyyUVHmiRHNbs2tYsom273MxX1o6nteuKhoym+QP1jsrw2n3gQb9K41eVdpI3lAvKO42Tg1MSYltVuxEqRS/Q30gb29+VDbq3jqP8iWLI9Dvx7lpFbvlHEN+K6+1yiPUyz8panJhUr3a4D1qtkJNrjV6SN4RUZY9kLuCMxnmW1u4jXoVqCE0kb3LnASsWjbqc+YuV+3RfAku0x4jVRCZOAcwv0qc72CFH/vCl2p7oFjlW2y+m9RbMLTSAKYqWM35czxLEqMSOTe4vf4p+XZ2SItbMOIH2QX1M86nZ7F/mTWjS5XUS59Q8rUu32yzrbTODZ+YYq2VjgZuofl5G2Xs0Ct3DdSEo7OOHv9wFvIk/p6+V9Xtw6uhyrk/4E9oviUbff66gmW2BT2855hm1IJtK9h4AZlMtUOFSvpP5xSWn30ZuZ4H5I2rgtYOTv03cnUjmX+Lw8Z4Qx9pzUAzIHWKV41O33bGA69V8IS7T/zjNkQzYB+G6m2OtutwBb5h2eLE6h/rFJbb12k5hIvJZLGbOLR/B3tye20pY4po/QzJLYjZWaD2CASJii4ZtMbJ+q+0JYdftBrgEbpkMpl4ehinY+zc19fzH1j09qOyT7qDTbIaSP2ceG8fd2JrYFV/mef9FmCfUR2JL0gf9L8ai7o49YSf0o9V8Qq2q/zDZaw7cPcP9S4mpq6ycW6DYpxe/iLqf+cUpth2UflWbLUURreZknRxOFoKrK5Le0diuRiEsjcD3pB+CZxaPulnXo7mzASRnHaSSmDMZQ9zgMpU2nbJnVkerCtsuXZh+V5no66d/Eb2fpC3o3Az5JbLsrfRwvpbkzZa3wadIPwsnFo+6mvUgv1NS09tqsIzRyLyemCesejyW1BcDXaM+22sOof8xSx7uXimmdQPqYfWax37kBcDix06eu4/h/9O6Wzmy2I/1AzMUSi7mMAg4iKm7VfaFMbTNo1iLRicQWsEeof2wWtrMpmzkxh7Wpvg5Dle3X+YeksaYSacBTx+xZwK7A0cBlGX5fSltAZFitI8V6J+WorPY/xaPutj7ifdo5lFtIk7tVVTQk1VRi5msG9YxLP7FdcdeqO1qho6j//BpJm0dvLRbLsdB7YT2Ruo/dAJFDYN+sIyTeRvqBmUFcWJXfhkT1txup/wM41HY6za9IOJ6o4Fdq0dIjxHqELmQoW4F6p39H2t5exWA01ETSK/81qZ0PrJt1hATElrTHST9AnywdeA/akZj+Oos8x6yK9g3iBtEmWwEfJlZL59w+OJ14v/8y2jcmy7MK5fZ4p7bZRHXOXtKVQmTzgU8BY/IOjxaVI3nKLKy8VNI44N+IbzVfIh4KplPPK4PZxL7f51fZ4UJWBvYnZl1+SJS9nsvyx+DvxDE4DngzzSrcU5U+4BVELYYm1ga4n3gAW7+qAWiolWnWWpeRthvosaRNdS1s2IWYYkn1ZeAdGX6PRq6P+HY2aZFWVSnU+cQ0421EZsguW4VYqb8ysfp4AZF3fCaRy2FefaE1wkpE9bVVqT/V7mzgzsG2oOZY6nAKkXa8rRbmwziSOJYq4HzSn9jm0413nJLURs+mvQuHB4A/06zKlz3jxeQ5gGeVDlySBLS3zsgjxIL0umePelYf8b4zx8F8VeHYJanXHUT9N/LhtjnAscSrI9UsR9GIAeK98GqFY5ekXjWRdtW+WEAsPt+wgrHQCI0l8j7nOMCnFo5dknrV8dR/Ux/qjf80YItqhkGpcs0CDAAHF45dknrN84kba90392W1J4CvA5tUNAbKZBR50gMPAA8D65UNX5J6xmrUU4lvqO0uooaAr4RbZHfynQDnEq8WJEn59BFpt+u+yS/eZhNJtF6Eq/pbK2fd7+MKxy5JXfcR6r/ZL2zzgT8AbwWmVNlplbE58CT5ThC3BkpSHntRf/rlx4gZiDfiFH8nfZZ8J8sTwM5lw5ekztmCWF9V+oY/F7gAOIaoQzKu6o6qXisA15DvBHoA2LRoDySpO1YDbqL6m/1s4HKirsA7gGfhDb9ydRUDWpZdiTKpueq730A8Pd6f6fdJUi9YCfg9sFPG33kNkQH2TqKi5W3AtURK4V4spKQlOIG8T5d/xYUikjRUE4A/kvc6/O2SHVB7TQRuJe/JdzFRWlWStHTjgF+R9/p7K15/NQzPI2qe5zwJLwGmluyEJLXIisCvyXvdnQc8p2Qn1A0fIO+JOEC8g1q7ZCckqQUmAb8j/zX3oyU7oe7oA35G/hPyJtwdIEkLrU2+lOyLtrMwO58SrARcT/4T8yFid4Ak9bKtyVeVddE2HRP2KIPtiH2iuU/Q2URWKUnqRfsDM8l/bX0CeGbBfqjjDqa6EpRfI5IQSVIvGA18Eugn//W0H1OxqwLvo5oHgAHgUlwXIKn71qaaxX4L25HluqJecyzVnbhPAIeX64okFfUyIkV6VdfQb5TrinrRKOA0qjuBB4jSxOuU6pAkVWxVIhNfldfN04ExhfqjHjae/GkqF28zgcPIV5NAkurwauA+qr1enk1cl6UiViROuipP6gFib+zzCvVJknLZgvxZ/ZbULiSSCElFTQB+Q/UneD/wf8C0Mt2SpBFbGzgJmE/118bzMMe/ajQO+DnVn+gDwJNEveqNi/RMkoZuNeDTxGLmEtfDP+A3fzXAOKpJGby0Nhf4FrBVic5J0jJsDHwReJxy18CfYu4UNcho4ETKfQAGiFcDZwL7Yb5rSeX0AS8AfkSZqf5F25fxeqeGejv5ywgPpf0d+DiwSfVdlNSjNgD+C7iZ8te4BcB7qu+ilGZvYAblPyAL22VEKWMfBiSl2gB4N3AR1aTuHUqbBby06o5KuWwF3EJ9DwEL203Eq4l/B6ZU2mNJXbAysC+R9fRa6r+GXQdsWWmPVYu+ugOo2GTg68BBdQcyaID4QF8IXA5cDVxFJB2S1HtWIr6sbENUPd2FKM/blARkPyUqpj5adyDKr+sPAAu9GTieSB7URHcDtw226cCDwEOD7VFgDvHwMKOm+CQNzyrE9XU88Y1+KpGOdzVgQ2CjwX+uQzOvw3OAI4jdBQM1x6KKNPHEq8rmwPeJp2xJ0pJdA7wGuLLuQFStXtrK8SDwHWIWYCeaM8UmSU2wgFh38CrgrppjUQG9NAOwqG2JVJnPrjsQSWqAvxGvSi+tOxCV06vfgq8kFtscjotbJPWux4APAjvgzb/n9OoMwKLWIaa9DsTxkNQb+oFTgSOJRcjqQd7wnrIj8CnghXUHIkkVOg94H/DnugNRvXr1FcCSXAbsBewKnFtzLJKU2yXAS4B/w5u/cAZgWfYHPowLBSW124XE7OaZdQeiZvEBYPl2IBYLHgyMrTkWSRqKfuBXwKeBC2qORQ3lA8DQrUtUGjyUyOolSU1zL3AKkQL9lppjUcP5ADB8KwAvIjJl7Uek+pSkuswDzgK+CZwx+H9Ly+UDQJrJxFqBA4F9gDH1hiOpRywALgZ+RKQ4v7/ecNRGPgDkszqwB7GN8IXAevWGI6lj7gV+C/wGOJsoFiaNmA8A1dmceBDYHXgmsEG94UhqmTuB84lFfOcR6XqtzKdsfAAoZyrxILAdsD1Rj2AaMKHOoCTVbg5wE1GF72/AVUS68r/XGZS6zweA+q1O7DBYj5glWJeoJT6FWFOwEvGQMH7w311nIDVbPzBz8N+fAOYCs4iKpA8QU/f3ArcB04F7yocoSZIkSZIkSZIkSZIkSZIkSZIkSZIkSZIkSZIkSZIkSZIkSZIkSZIkSZIkSZIkSZIkSZIkSZIkSZIkSZIkSZIkSZIkSZIkSZIkSZIkSZIkSZIkSZIkSZIkSZIkSZIkSZIkSZIkSZIkSZIkSZIkSZIkSZIkSZIkSZIkSZIkSZIkSZIkSZIkSZIkSZIkSZIkSZIkSZIkSZIkSZIkSZIkSZIkSZIkSZIkSZIkSZIkSZIkSZIkSZIkSZIkSZIkSZIkSZIkSZIkSZIkSZIkSZIkSZIkSZIkSZIkSZIkSZIkSZIkSZIkSZIkSZIkSZIkSZIkSZIkSZIkSZIkSZIkSZIkSZIkSZIkSZIkSZIkSZIkSZIkSZIkSZIkSZIkSZIkSZIkSZIkSZIkSZIkSZIkSZIkSZIkSZIkSZIkSZIkSZIkSZIkSZIkSZIkSZIkSZIkSZIkqW7/D+9kbKwBS1p0AAAAAElFTkSuQmCC;" vertex="1" parent="1">
          <mxGeometry x="816" y="199" width="40" height="40" as="geometry" />
        </mxCell>
        <mxCell id="ckwtcuSyuOzhh80tvO_Y-36" value="" style="endArrow=none;html=1;strokeWidth=1;rounded=0;exitX=0.5;exitY=1;exitDx=0;exitDy=0;" edge="1" parent="1" source="ckwtcuSyuOzhh80tvO_Y-35">
          <mxGeometry width="100" relative="1" as="geometry">
            <mxPoint x="840" y="240" as="sourcePoint" />
            <mxPoint x="810" y="280" as="targetPoint" />
          </mxGeometry>
        </mxCell>
      </root>
    </mxGraphModel>
  </diagram>
</mxfile>
